<?xml version="1.0" encoding="UTF-8"?>
<svg width="298px" height="298px" viewBox="0 0 298 298" version="1.1" xmlns="http://www.w3.org/2000/svg" xmlns:xlink="http://www.w3.org/1999/xlink">
    <!-- Generator: Sketch 61.1 (89650) - https://sketch.com -->
    <title>Group 21</title>
    <desc>Created with Sketch.</desc>
    <g id="Page-1" stroke="none" stroke-width="1" fill="none" fill-rule="evenodd">
        <g id="Slide_2-Copy" transform="translate(-571.000000, -412.000000)">
            <g id="Group-2" transform="translate(571.000000, 412.000000)">
                <g id="Group">
                    <circle id="Oval" fill="#34A853" opacity="0.14" cx="149" cy="149" r="149"></circle>
                    <circle id="Oval" stroke="#34A853" stroke-width="16" cx="149" cy="149" r="141"></circle>
                </g>
                <g id="Sample-02" transform="translate(68.000000, 63.000000)" fill-rule="nonzero">
                    <path d="M17.157002,10.6609998 L145.376,10.6609998 C151.345093,10.6609998 156.184,15.4999062 156.184,21.4689996 L156.184,172.563997 L6.34899989,172.563997 L6.34899989,21.4759996 C6.34714486,18.6083272 7.48502159,15.8574715 9.51211608,13.8290641 C11.5392106,11.8006568 14.289329,10.6609998 17.157002,10.6609998 Z" id="Path" fill="#FFCD69" transform="translate(81.266500, 91.612498) rotate(180.000000) translate(-81.266500, -91.612498) "></path>
                    <path d="M3.10799995,19.4809997 L154.195997,19.4809997 C155.582814,19.4809997 156.912831,20.0319106 157.893459,21.0125383 C158.874086,21.993166 159.424997,23.3231826 159.424997,24.7099996 L159.424997,152.928997 C159.424997,154.315814 158.874086,155.645831 157.893459,156.626459 C156.912831,157.607086 155.582814,158.157997 154.195997,158.157997 L3.10799995,158.157997 L3.10799995,19.4809997 Z" id="Path" fill="#FFE197" transform="translate(81.266499, 88.819498) rotate(90.000000) translate(-81.266499, -88.819498) "></path>
                    <path d="M150.604997,84.0629986 L150.604997,161.762997 C150.601141,164.649295 148.262296,166.988141 145.375998,166.992039 L17.1569997,166.992039 C15.7634773,166.997587 14.4252138,166.447446 13.4385238,165.463384 C12.4518337,164.479321 11.8981256,163.14253 11.8999951,161.748997 L11.8999951,84.0489986 L150.604997,84.0629986 Z" id="Path" fill="#FF473E"></path>
                    <rect id="Rectangle" fill="#FFFFFF" transform="translate(44.901499, 66.392500) rotate(180.000000) translate(-44.901499, -66.392500) " x="8.53299985" y="44.3924996" width="72.7369988" height="44"></rect>
                    <g id="Group" style="mix-blend-mode: multiply;" transform="translate(9.800000, 52.999999)" fill="#CFECFF">
                        <rect id="Rectangle" transform="translate(33.414499, 1.392501) rotate(180.000000) translate(-33.414499, -1.392501) " x="0.531999991" y="0.392500998" width="65.7649989" height="2"></rect>
                        <rect id="Rectangle" transform="translate(33.414499, 13.392501) rotate(180.000000) translate(-33.414499, -13.392501) " x="0.531999991" y="12.392501" width="65.7649989" height="2"></rect>
                        <rect id="Rectangle" transform="translate(33.414499, 25.392501) rotate(180.000000) translate(-33.414499, -25.392501) " x="0.531999991" y="24.392501" width="65.7649989" height="2"></rect>
                    </g>
                    <path d="M27.6359995,10.6539998 L27.6359995,161.748997 C27.6359995,167.718091 32.4749059,172.556997 38.4439993,172.556997 L17.1569997,172.556997 C11.1879062,172.556997 6.34899989,167.718091 6.34899989,161.748997 L6.34899989,10.6539998 L27.6359995,10.6539998 Z" id="Path" fill="#E8E8E8" style="mix-blend-mode: multiply;"></path>
                    <rect id="Rectangle" fill="#616161" style="mix-blend-mode: screen;" transform="translate(130.882498, 68.585999) rotate(180.000000) translate(-130.882498, -68.585999) " x="117.473998" y="28.0909995" width="26.8169995" height="80.9899986"></rect>
                    <rect id="Rectangle" fill="#616161" style="mix-blend-mode: screen;" transform="translate(130.882498, 131.970998) rotate(180.000000) translate(-130.882498, -131.970998) " x="117.473998" y="119.034998" width="26.8169995" height="25.8719996"></rect>
                    <rect id="Rectangle" fill="#FFB338" transform="translate(81.266499, 27.412000) rotate(180.000000) translate(-81.266499, -27.412000) " x="0.0909999985" y="24.3949996" width="162.350997" height="6.0339999" rx="1.17599998"></rect>
                    <path d="M2.15599996,24.4019996 L2.15599996,2.70199995 C2.15985862,1.26658492 3.3245797,0.104999998 4.75999992,0.104999998 L157.779997,0.104999998 C159.214281,0.104999998 160.376997,1.26771648 160.376997,2.70199995 L160.376997,24.4019996 L2.15599996,24.4019996 Z" id="Path" fill="#FFB338"></path>
                    <rect id="Rectangle" fill="#DFA100" transform="translate(81.262999, 12.250000) rotate(180.000000) translate(-81.262999, -12.250000) " x="79.2679987" y="3.07299995" width="3.98999993" height="18.3539997"></rect>
                    <rect id="Rectangle" fill="#DFA100" transform="translate(98.958998, 12.250000) rotate(180.000000) translate(-98.958998, -12.250000) " x="96.9639983" y="3.07299995" width="3.98999993" height="18.3539997"></rect>
                    <rect id="Rectangle" fill="#DFA100" transform="translate(116.640998, 12.250000) rotate(180.000000) translate(-116.640998, -12.250000) " x="114.645998" y="3.07299995" width="3.98999993" height="18.3539997"></rect>
                    <rect id="Rectangle" fill="#DFA100" transform="translate(134.322998, 12.250000) rotate(180.000000) translate(-134.322998, -12.250000) " x="132.327998" y="3.07299995" width="3.98999993" height="18.3539997"></rect>
                    <rect id="Rectangle" fill="#DFA100" transform="translate(152.011997, 12.250000) rotate(180.000000) translate(-152.011997, -12.250000) " x="150.016997" y="3.07299995" width="3.98999993" height="18.3539997"></rect>
                    <rect id="Rectangle" fill="#DFA100" transform="translate(10.521000, 12.250000) rotate(180.000000) translate(-10.521000, -12.250000) " x="8.52599985" y="3.07299995" width="3.98999993" height="18.3539997"></rect>
                    <rect id="Rectangle" fill="#DFA100" transform="translate(28.210000, 12.250000) rotate(180.000000) translate(-28.210000, -12.250000) " x="26.2149996" y="3.07299995" width="3.98999993" height="18.3539997"></rect>
                    <rect id="Rectangle" fill="#DFA100" transform="translate(45.891999, 12.250000) rotate(180.000000) translate(-45.891999, -12.250000) " x="43.8969993" y="3.07299995" width="3.98999993" height="18.3539997"></rect>
                    <rect id="Rectangle" fill="#DFA100" transform="translate(63.580999, 12.250000) rotate(180.000000) translate(-63.580999, -12.250000) " x="61.585999" y="3.07299995" width="3.98999993" height="18.3539997"></rect>
                    <rect id="Rectangle" fill="#DEDEDE" style="mix-blend-mode: multiply;" x="6.34899989" y="30.4359995" width="149.834997" height="4.24899993"></rect>
                </g>
            </g>
        </g>
    </g>
</svg>