<?xml version="1.0" encoding="UTF-8"?>
<svg width="348px" height="330px" viewBox="0 0 348 330" version="1.1" xmlns="http://www.w3.org/2000/svg" xmlns:xlink="http://www.w3.org/1999/xlink">
    <!-- Generator: Sketch 61.1 (89650) - https://sketch.com -->
    <title>Group 5</title>
    <desc>Created with Sketch.</desc>
    <defs>
        <polygon id="path-1" points="0.8439264 0.122 29.400831 0.122 29.400831 24.1666667 0.8439264 24.1666667"></polygon>
        <polygon id="path-3" points="0.571205771 0.142259259 38.2974227 0.142259259 38.2974227 45.599588 0.571205771 45.599588"></polygon>
        <polygon id="path-5" points="0 301 333 301 333 1 0 1"></polygon>
    </defs>
    <g id="Page-1" stroke="none" stroke-width="1" fill="none" fill-rule="evenodd">
        <g id="Slide_7-Copy-6" transform="translate(-549.000000, -389.000000)">
            <g id="Group-5" transform="translate(549.000000, 389.000000)">
                <g id="Group-4" transform="translate(22.000000, 32.000000)">
                    <g id="Group-3">
                        <g id="Group-2">
                            <g id="Group">
                                <circle id="Oval" fill="#FEDBDB" cx="149" cy="149" r="149"></circle>
                                <circle id="Oval" stroke="#D32919" stroke-width="16" cx="149" cy="149" r="141"></circle>
                            </g>
                        </g>
                    </g>
                </g>
                <ellipse id="Oval" fill="#FADBDB" cx="22.5" cy="296" rx="22.5" ry="6"></ellipse>
                <ellipse id="Oval-Copy" fill="#FADBDB" cx="304.5" cy="296" rx="43.5" ry="6"></ellipse>
                <g id="Group-168" transform="translate(10.000000, 0.000000)">
                    <g id="Group-167">
                        <path d="M140,90.3623902 C140,90.3623902 143.262115,122.308838 148.483505,126.907094 C153.701551,131.50535 158.299954,129.615238 158.299954,129.615238 C158.653677,129.406072 160.299369,128.864105 160.666472,128.549086 C166.803529,123.285226 172.426308,105.698379 173.229084,101.994369 C173.923151,98.7806708 177.887695,90.8264499 178.93883,87.7160642 C179.172137,87.027596 180,84.6581816 180,84.6581816 C176.097337,81.3598008 172.906301,82.3302615 172.103525,82.0499626 C172.004014,82.0160897 171.954677,82 171.954677,82 C171.954677,82 171.940461,82.0609714 171.914538,82.1761395 C171.896141,82.2455791 171.874399,82.3361893 171.844295,82.4479701 L171.842622,82.4547447 C171.802484,82.6054794 171.755655,82.7892403 171.694611,83.0060273 L171.693774,83.0085678 C171.68374,83.0432876 171.672869,83.0771605 171.66367,83.1144208 C171.646109,83.1720049 171.627713,83.2363635 171.608479,83.2990285 L171.589246,83.3599999 C170.906886,85.7014691 169.205168,90.6528509 166.049254,94.8615678 C163.360789,98.4444815 161.074549,102.360197 159.734917,104.793124 L159.73408,104.795664 C158.93214,106.257283 158.470544,107.184555 158.470544,107.184555 C156.594891,104.242688 156.594891,103.707495 155.922566,101.275415 C155.538738,99.8849297 153.899737,90.4267488 153.899737,90.4267488 C149.333947,88.6611201 140,90.3623902 140,90.3623902" id="Fill-1" fill="#FDB48C"></path>
                        <path d="M157,115 C158.67178,110.373037 158.47842,107.308573 158.47842,107.308573 C158.47842,107.308573 158.988188,106.411976 159.877275,105 C160.523043,111.564954 158.481195,114.027323 157,115" id="Fill-3" fill="#EB8E78"></path>
                        <path d="M187.115871,72.2596509 C186.388519,73.5274041 184.702384,79.451794 183.130692,81.7622806 C181.559849,84.0736163 180.446779,85.0798371 180.446779,85.0798371 L179.108213,87.5924169 L178.890347,88 C178.890347,88 173.315674,85.0934232 172.477269,83.9479449 C172.407755,83.8562387 172.369607,83.7747221 172.37215,83.7067915 C172.372998,83.6804685 172.378932,83.6541454 172.391648,83.6337662 C172.391648,83.6337662 172.392496,83.6303697 172.395887,83.6252749 L172.396735,83.6235767 C172.413689,83.5862149 172.481508,83.4410134 172.51033,83.2041057 L172.511178,83.1981618 C172.540001,82.9629524 172.535762,82.6402825 172.416232,82.2437381 L172.41708,82.2420398 L172.415385,82.2411907 C172.275509,81.7767158 171.980499,81.2103452 171.403195,80.5709492 C169.740796,78.7334288 168.550583,77.3264181 169.163492,75.0855603 C169.778097,72.8472498 170.235871,71.3994808 170.207896,70.4543975 C170.179073,69.5101634 172.651901,66.7122753 173.138498,66.5042381 C173.625943,66.2962009 174.705951,67.3406326 173.745473,69.3292984 C172.784995,71.3205115 172.433187,73.1741654 172.869768,73.2667208 C173.30974,73.3592761 173.926887,72.2910688 174.682215,70.9384024 C175.437542,69.5848869 175.806305,67.9706881 175.988567,66.9525795 C176.169981,65.9319236 177.022797,59.8360091 177.883243,58.0018852 C178.742842,56.1694596 178.864915,55.7848031 179.697386,55.9563276 C180.530704,56.1270031 180.354377,58.8221462 179.941532,60.436345 C179.618547,61.7024 178.701303,65.7187916 179.089563,65.8852213 C179.65839,66.1314694 181.452187,59.2747332 181.882834,57.9127264 C182.313481,56.5507196 183.127301,54.3064653 184.421785,55.2073937 C185.514509,55.9690646 183.242593,62.0429017 182.992512,63.2741422 C182.992512,63.2741422 182.216839,65.9302253 182.348238,66.5967935 C182.480483,67.2625125 183.010315,66.3700754 183.231572,65.9718327 C183.450287,65.5735901 184.636261,62.0165786 184.926185,60.6095678 C185.214413,59.2042553 185.598435,57.5467508 186.473292,57.5892074 C187.345606,57.6333622 187.757603,58.7007204 186.847141,61.8756228 C185.935831,65.0513743 185.381416,67.4968728 185.037237,68.4631843 C184.693059,69.4320433 185.609455,69.4880859 186.131657,68.5778171 C186.652163,67.6650008 188.029724,63.6087 188.702822,63.3989645 C189.376767,63.1917765 190.34318,63.8260776 189.877776,65.5982149 C189.410677,67.3686539 187.844919,70.9918977 187.115871,72.2596509" id="Fill-5" fill="#FDB48C"></path>
                        <path d="M175,72 C175,72 178.681219,74.5235084 176.447747,79 C176.447747,79 178.078916,78.4326934 177.997016,75.7884814 C177.905732,72.8682607 175,72 175,72" id="Fill-7" fill="#EB8E78"></path>
                        <path d="M177,67.2845969 C177,67.2845969 179.107759,66.5428677 181.670528,67.4542849 C184.233297,68.3657021 186,72 186,72 C186,72 182.469019,67.4612824 177,67.2845969" id="Fill-9" fill="#EB8E78"></path>
                        <path d="M171.387836,82 C171.365902,82.065499 171.33998,82.1517659 171.304088,82.2564044 L171.302094,82.2635933 C171.254237,82.405774 171.198405,82.5791066 171.125623,82.7835911 L171.124626,82.7859874 C171.112662,82.8179381 171.099701,82.8506876 171.088734,82.8858334 C171.067797,82.9393508 171.045862,83.0008559 171.022931,83.059166 L171,83.117476 C172.803589,84.0568268 174,83.9993156 174,83.9993156 C172.761715,83.578365 171.908275,82.7093057 171.387836,82" id="Fill-11" fill="#EB8E78"></path>
                        <path d="M147.232337,152.180922 C147.232337,152.180922 106.303278,147.341434 95.7164701,152.080592 C94.9088656,152.440602 94.2780038,152.857945 93.8560199,153.337678 C93.8560199,153.337678 93.8289588,158.728565 94.3938591,161.247797 C94.9596051,163.768715 93.1202964,174.62131 94.3938591,181.668077 C95.6657306,188.715687 97.9278689,191.815826 97.9278689,195.904098 C97.9278689,199.991526 96.0902515,211.971368 96.7963769,215.213994 C97.503348,218.45409 96.6830586,222.259918 95.8932129,224.375297 C95.1008302,226.488147 89.7275117,259.610819 90.0108075,264.543894 C90.2619683,268.93653 91.7004346,270.493767 91.5211549,272.38572 C95.0323318,273.87635 100.588313,274.080384 106.63393,273.977524 C106.250001,272.850277 107.080438,269.279679 107.806014,267.503233 C108.671969,265.388696 106.94175,263.134203 107.806014,261.162154 C108.671969,259.187575 111.640233,238.750432 112.347204,237.482385 C113.053329,236.214338 116.0884,232.274455 116.58903,222.119961 C116.931522,215.167622 121.833809,205.042637 121.95812,204.787173 C121.95812,204.788859 121.95812,204.793075 121.955583,204.798976 C121.955583,204.804035 121.953892,204.808251 121.953892,204.812466 C121.953892,204.818368 121.951355,204.826799 121.949664,204.83523 C121.947127,204.839446 121.947127,204.843662 121.947127,204.850407 C121.684973,206.233118 117.494731,228.476216 117.082895,235.507807 C116.658374,242.767882 118.073162,245.656399 117.648641,246.924446 C117.22412,248.195023 117.295156,251.646742 117.436381,253.408855 C117.57676,255.171811 117.648641,257.00306 117.507416,257.427148 C117.367037,257.847863 115.526882,259.187575 115.739988,261.582869 C115.952249,263.980692 118.214387,265.177074 118.991548,267.151653 C119.4685,268.358996 123.871002,268.377544 127.470127,267.516722 C129.746642,266.968697 131.701806,266.069935 132.139011,264.896316 C133.269658,261.866156 132.06713,261.090489 132.916172,260.034064 C133.763523,258.975953 132.210047,257.847863 132.139011,255.944949 C132.06713,254.043722 133.269658,251.577606 133.269658,249.81465 C133.269658,248.051693 133.835404,243.752642 134.541529,241.005769 C135.250192,238.258052 136.237922,228.391061 137.934314,223.10725 C139.630706,217.82091 140.268333,214.226705 143.235751,206.825828 C146.204861,199.427482 149.534221,164.341191 147.232337,152.180922" id="Fill-13" fill="#0DCAB8"></path>
                        <path d="M91.0107303,264.180535 C91.2558769,268.562094 91.1749868,268.66049 91,270.547672 C91.8006471,272.047158 93.5686741,272.841894 96.2099842,273 C96.3181129,272.599689 96.5186873,270.811743 96.6334193,270.44339 C97.8641047,266.472233 99.7105456,261.245479 98.2743332,252.464699 C96.8381208,243.684761 102.994024,233.85863 104.840465,228.631876 C106.686906,223.405962 106.071976,221.31526 104.774432,215.670533 C103.477714,210.025807 107.097134,202.291219 105.045167,197.27303 C102.994024,192.256523 101.455461,179.502905 103.507429,170.932373 C105.559397,162.361 103.506603,154.207599 103.506603,154.207599 C100.97012,153.059648 98.6680535,152.350693 96.5797676,152 C95.7915017,152.359103 95.1757462,152.775393 94.7638669,153.254758 C94.7638669,153.254758 94.7374538,158.631208 95.2888273,161.144087 C95.8410262,163.659489 94.0457607,174.484716 95.2888273,181.512872 C96.5302431,188.543551 98.7382133,191.635031 98.7382133,195.713834 C98.7382133,199.790955 96.9445986,211.740586 97.6338155,214.974193 C98.3238577,218.20696 97.5232106,222.00319 96.7522782,224.112394 C95.9788696,226.219915 90.7342182,259.25906 91.0107303,264.180535" id="Fill-15" fill="#0EB0A2"></path>
                        <path d="M127.464219,267.401176 C123.951822,268.260699 119.656232,268.242178 119.190773,267.036658 C118.431514,265.065901 116.223887,263.870483 116.016741,261.476279 C115.80877,259.084601 117.604582,257.746911 117.741579,257.326831 C117.879401,256.903384 117.809252,255.074899 117.672256,253.315446 C117.534434,251.55515 117.46511,248.108642 117.879401,246.839983 C118.293692,245.57385 116.912997,242.689693 117.327288,235.440576 C117.730025,228.419599 121.818469,206.210075 122.074307,204.829452 C122.074307,204.822717 122.074307,204.818508 122.076782,204.814298 C122.076782,204.806722 122.079258,204.797462 122.080909,204.791569 C122.080909,204.787359 122.082559,204.78315 122.082559,204.778099 C122.085035,204.768839 122.086686,204.762104 122.086686,204.762104 C122.086686,204.762104 126.374023,189.0996 126.510194,179 C126.510194,179 128.414118,187.851988 127.917299,192.296081 C126.139643,208.201036 124.635155,220.06009 124.635155,227.59375 L124.635155,235.12741 C124.635155,235.12741 125.66098,241.405039 124.635155,245.17229 C123.60933,248.9387 120.327186,254.379536 123.199165,259.193199 C125.328391,262.760933 124.132558,266.787472 127.464219,267.401176" id="Fill-17" fill="#0EB0A2"></path>
                        <path d="M115.051204,298.650705 C114.87808,298.838247 114.665456,299.026645 114.413334,299.211618 C112.729154,300.463611 109.354913,301.58972 105.077232,300.654579 C100.159159,299.581564 96.4361482,297.720702 94.1880546,292.638227 C91.9399609,287.555753 91.7012848,287.494951 90.2045166,285.234171 C88.7497689,283.040186 87.6496738,280.071199 88.1034945,276.290385 C88.1186219,276.181628 88.131228,276.072871 88.1480362,275.959832 C88.7094293,272.024018 87.8076706,269.770945 90.9970222,268 C90.9970222,268 91.2491448,268.560057 90.8911307,269.468651 C90.8911307,269.468651 90.4305866,270.520257 91.7306991,271.739708 C92.4265576,272.391395 93.0661087,272.678275 93.7745734,272.8367 C94.6334712,273.032806 95.5890161,273.04137 96.8580334,273.276011 C96.8580334,273.276011 96.9261066,271.922112 102.336659,272.044571 C107.747211,272.167886 107.504333,274.51259 108.096821,275.959832 C109.644854,279.740645 111.608889,287.270586 114.067926,290.276397 C115.239456,291.706512 115.819338,293.349003 115.963888,294.8305 L115.963888,294.833069 C116.121885,296.462715 115.751265,297.901393 115.051204,298.650705" id="Fill-19" fill="#FFFFFF"></path>
                        <g id="Group-23" transform="translate(87.000000, 277.000000)">
                            <mask id="mask-2" fill="white">
                                <use xlink:href="#path-1"></use>
                            </mask>
                            <g id="Clip-22"></g>
                            <path d="M28.4331429,21.8811667 C27.0728571,23.2753333 23.2748571,24.8753333 18.2605714,23.8311667 C13.2462857,22.7861667 9.44828571,20.9761667 7.15457143,16.0303333 C4.86342857,11.0836667 4.61828571,11.0236667 3.09257143,8.82533333 C1.60971429,6.69033333 0.486,3.7995 0.949714286,0.122 C1.22914286,1.84366667 2.09485714,6.10616667 4.07485714,7.81116667 C6.58285714,9.97033333 10.164,18.1886667 13.6757143,20.4186667 C15.5048571,21.5803333 17.6485714,22.0278333 19.284,22.1895 C20.7814286,22.3386667 22.2308571,21.6295 22.9885714,20.3661667 L25.7297143,19.8961667 C26.724,20.5736667 28.1091429,20.337 28.7794286,19.3536667 C28.992,19.0403333 29.1934286,18.6511667 29.364,18.1661667 C29.5251429,19.7511667 29.1471429,21.152 28.4331429,21.8811667" id="Fill-21" fill="#252732" mask="url(#mask-2)"></path>
                        </g>
                        <path d="M114,299.211964 C112.342194,300.46397 109.02079,301.589235 104.810094,300.65494 C99.9690348,299.581914 96.3034958,297.721031 94.0914327,292.6385 C91.8785424,287.555969 91.6436038,287.494311 90.1694466,285.234361 C88.7383064,283.039496 87.6546106,280.070476 88.1021521,276.289621 C88.1170426,276.180862 88.1294513,276.072104 88.1459963,275.95992 C88.6985984,272.024063 87.8101333,269.770964 90.9503694,268 C90.9503694,268 91.198544,268.560063 90.8461361,269.468667 C90.8461361,269.468667 90.3919765,270.520284 91.6725575,271.739749 C92.3575194,272.391444 92.9870557,272.678326 93.6835991,272.836754 C93.0433086,274.253183 92.0820456,277.533064 94.5993634,281.116098 C97.9579932,285.897188 98.4659239,291.54749 101.780709,293.937607 C105.095495,296.32858 104.885374,298.392422 110.973097,298.283663 C112.180053,298.262254 113.176888,298.621071 114,299.211964" id="Fill-24" fill="#252732"></path>
                        <path d="M155.998795,279.553911 C155.983754,279.78016 155.946149,280.218944 155.842529,280.784565 L155.842529,280.786279 C155.793225,281.056235 155.732223,281.354471 155.649494,281.672419 C155.034455,284.029173 153.379868,287.428041 148.94173,287.932815 C142.656806,288.647554 132.248785,283.420702 129.52373,283.563821 C126.801182,283.707798 116.533549,284.21 113.948884,281.556724 C112.46644,280.035546 112.986215,278.138145 113.721587,276.29302 C114.268938,274.928674 114.936622,273.588324 114.996789,272.462224 C115.136342,269.810661 117.65332,264.345562 117.65332,264.345562 L119.292866,265.404816 C119.292866,265.404816 118.53326,266.961988 122.818473,267.588456 C126.485306,268.125796 126.977504,267.858412 129.072479,267.051116 C129.865511,266.749452 130.491412,266.403223 131.015365,266.039854 C131.876085,265.444238 132.452683,264.793774 133.016747,264.191302 C133.924263,263.218605 135.32147,266.157264 137.068814,268.449743 C138.816158,270.742222 147.056504,275.253478 150.131696,276.471277 C153.201875,277.689933 156.067319,278.407243 155.998795,279.553911" id="Fill-26" fill="#FFFFFF"></path>
                        <path d="M155,281.511204 C154.380742,283.928122 152.714222,287.413368 148.239557,287.930839 C141.901221,288.665315 131.407538,283.304344 128.660898,283.451942 C125.9151,283.597783 115.562119,284.113498 112.957865,281.394356 C111.461536,279.834913 111.985588,277.889782 112.72954,276 C113.32942,277.331896 114.771828,279.814706 117.324687,280.292642 C120.843925,280.953319 127.604368,280.14768 130.985432,281.614874 C134.365653,283.084704 146.479517,286.241369 149.929668,286.020851 C153.379819,285.801211 154.998315,281.506811 154.998315,281.506811 L155,281.511204 Z" id="Fill-28" fill="#252732"></path>
                        <path d="M156,279.986119 C155.950515,280.247763 155.889288,280.537738 155.806253,280.846878 C155.188948,283.138347 153.529102,286.443895 149.074608,286.934686 C142.765683,287.629626 132.320143,282.546732 129.585045,282.685886 C126.852464,282.825874 116.546991,283.314165 113.951961,280.734388 C112.464893,279.256182 112.985745,277.410509 113.724666,275.61733 C114.273195,274.289945 114.944179,272.987557 115.003728,271.891818 C115.144635,269.313708 117.67005,264 117.67005,264 L119.315638,265.030744 C119.315638,265.030744 118.554071,266.543947 122.855078,267.153894 C126.535424,267.676349 127.028597,267.415538 129.131292,266.631439 C129.928086,266.337298 130.555455,266.001494 131.081339,265.648191 C131.081339,265.648191 131.373217,267.193058 127.328862,270.153635 C123.285346,273.114213 125.306685,275.968966 127.328862,276.919718 C129.35104,277.871302 132.649764,277.343014 139.141532,279.986119 C145.6333,282.629224 153.810077,284.532393 156,279.986119" id="Fill-30" fill="#252732"></path>
                        <path d="M93.8077258,149.692642 L93.8064657,149.692642 C93.5311333,149.685642 93.2621014,149.547642 93,149.306642 C93.0478839,149.320642 93.0938777,149.334642 93.1386113,149.347642 C93.9047538,149.564642 94.2430913,149.704642 93.8077258,149.692642" id="Fill-32" fill="#FDB48C"></path>
                        <path d="M149.996024,78.025741 C149.8654,83.9642016 149.996024,88.537499 149.996024,88.537499 L143.976284,88.9419918 C143.952535,93.826243 143.383386,98.9051564 143.623429,105.807658 C143.87874,113.180383 147.178274,129.275828 148.926432,140.904998 C149.844195,147.009469 150.332763,151.88445 149.728838,153.617871 C147.974742,158.652121 137.131237,162.080198 126.509963,162.892555 C115.887841,163.704069 94.2729294,159.652399 94.2729294,159.652399 C94.2729294,159.652399 92.9539643,150.32631 94.1227964,136.579452 C95.2916285,122.832594 94.7072125,107.730685 95.4867166,101.122283 C96.2662208,94.5138809 94.4968566,94.8551717 94.4968566,94.8551717 C88.4423403,85.2686911 77,82.1844331 77,82.1844331 C77,82.1844331 83.5286652,70.095153 86.2573538,66.7808397 C88.9851941,63.4656837 89.6400115,61.2704673 94.1227964,57.233123 C94.8573455,56.5716086 96.9541183,55.6168369 99.4800849,54.6199306 L99.4817813,54.6174025 C101.407216,53.8564503 102.615914,53.7679675 104.622776,53.0710601 C107.902801,51.9317385 110.095421,51.4716279 114.329681,51.0823035 C117.341671,50.8059001 120.379108,51.2280895 123.2011,52.312636 C123.2011,52.312636 128.938386,54.6174025 128.940082,54.6199306 C129.136867,54.7294808 142.471561,58.8519371 144.792261,60.7589523 C147.131622,62.6819788 150.124104,72.088123 149.996024,78.025741" id="Fill-34" fill="#0EB0A2"></path>
                        <path d="M124,189.958706 C123.273152,190.276838 122.513264,190.57303 121.72288,190.845594 C121.45603,190.937574 121.184097,191.02871 120.908776,191.113939 C109.821372,194.640395 94.0416438,193.944217 94.0416438,193.944217 C88.7241287,179.889024 94.4355651,175.058817 92.7531396,159.514225 C92.5464368,157.612184 92.4219068,155.240961 92.3609125,152.545698 C91.9331054,133.215588 94.8354165,97.1704643 94.8354165,97.1704643 L93.5401352,99.1155424 L88.3412202,106.92539 C86.4690347,106.918639 84.5773649,106.640168 82.7373709,106.1828 C74.3599762,104.116207 67,98.429491 67,98.429491 C67,98.429491 84.1292264,63.0476345 90.7267742,57.6081666 C97.3243219,52.1712303 110.825236,50 110.825236,50 C114.323088,56.0563234 120.065869,60.8848426 120.065869,60.8848426 C119.411028,79.4099183 120.184469,117.869302 121.29592,148.01084 C121.392495,150.645344 121.49161,153.214873 121.594962,155.705079 C122.3989,175.419985 123.321439,189.962925 124,189.958706" id="Fill-36" fill="#FFFFFF"></path>
                        <path d="M95,86 L94.3218292,97.29044 L87.7075065,107 C85.8006903,106.99412 83.8740293,106.71608 82,106.2608 C83.7394305,104.24144 92.5547886,93.75488 95,86" id="Fill-38" fill="#DBDBDB"></path>
                        <path d="M152.611712,188.325051 C147.381694,191.182627 137.713256,189.70669 133.34579,188.826011 C133.031202,188.762864 132.744825,188.701402 132.489223,188.645834 C131.612139,188.457237 131.100079,188.325051 131.100079,188.325051 L126,57.9475293 C126.193198,57.5753878 126.386396,57.2007204 126.577884,56.8327886 C126.847164,56.3133059 127.111315,55.8047686 127.359223,55.3231736 C128.33547,53.4498366 129.091164,52 129.091164,52 C129.091164,52 142.18587,56.1541775 143.673322,57.9963624 C145.161629,59.8385473 148.291262,63.2703323 149.674421,71.5374318 C151.058436,79.8045312 154,90.1074639 154,90.1074639 C153.721316,92.2190726 149.117909,98.3821409 148.034805,103.153467 C146.714905,108.949446 145.360811,114.544198 145.329181,114.679752 L145.327471,114.682278 C145.327471,114.682278 150.58057,136.838172 151.224278,159.623844 C151.567931,171.795062 152.611712,188.325051 152.611712,188.325051" id="Fill-40" fill="#FFFFFF"></path>
                        <path d="M148,102.527859 C146.705462,108.295769 145.378226,113.862589 145.346365,113.998324 L145.344688,114 C145.344688,114 144.56914,95.6422287 145.344688,82 C145.344688,82 146.082508,96.1340595 148,102.527859" id="Fill-42" fill="#DBDBDB"></path>
                        <path d="M132,80.0731458 L141.803912,80 C141.803912,80 143.187023,90.3461706 138.60658,90.9533692 C132,91.8293568 132,80.0731458 132,80.0731458" id="Fill-44" fill="#DBDBDB"></path>
                        <polygon id="Fill-46" fill="#DBDBDB" points="142 78 131.419854 78 131 75 141.580146 75"></polygon>
                        <path d="M121,190.732287 C120.740099,190.82405 120.475248,190.914972 120.206271,191 C117.476073,166.839332 117.061881,83.6336604 117,60 C117.293729,60.1422751 117.570957,60.2702385 117.820957,60.3872576 C117.886964,84.4645806 118.306931,166.542996 121,190.732287" id="Fill-48" fill="#DBDBDB"></path>
                        <path d="M134,189 C133.709817,188.93676 133.444868,188.876049 133.209883,188.819554 C132.194244,161.548654 129.152057,89.6596178 128,62.5388073 C128.269681,62.3710097 128.522802,62.1905641 128.76173,62 C129.90117,88.7944906 132.984361,161.723197 134,189" id="Fill-50" fill="#DBDBDB"></path>
                        <g id="Group-54" transform="translate(109.000000, 0.000000)">
                            <mask id="mask-4" fill="white">
                                <use xlink:href="#path-3"></use>
                            </mask>
                            <g id="Clip-53"></g>
                            <path d="M35.7028043,14.753563 C35.796913,15.9589333 35.7231522,16.7443407 35.7231522,16.7443407 C31.6010217,25.5116 15.3727826,40.6064148 9.30658696,44.6586741 C3.237,48.7134889 1.17763043,38.5031926 2.15008696,35.993637 C4.31797826,30.4080444 1.36754348,29.0323037 0.635869565,21.4252667 C0.252652174,17.4496741 1.49980435,11.234563 6.34258696,6.97445185 C6.34258696,6.97445185 6.34258696,6.97274815 6.34513043,6.97019259 C7.74913043,4.63015556 9.45241304,1.90763704 15.6423913,0.633266667 C21.7831957,-0.631733333 27.8578696,0.792562963 33.506087,2.13422963 C40.7388913,3.85156296 38.3166522,9.24037778 35.7028043,14.753563" id="Fill-52" fill="#0C3751" mask="url(#mask-4)"></path>
                        </g>
                        <path d="M145,17 C145,17 144.502137,19.6490081 144.423776,22.7857398 C144.365204,25.1322028 143.098779,27.4908372 141.8933,29.2748099 C140.68149,31.0674764 139.002684,30.9996645 139.002684,30.9996645 C139.002684,30.9996645 138.683704,17.0452079 145,17" id="Fill-55" fill="#0C3751"></path>
                        <path d="M109.231827,32.3623704 C110.476929,38.7461208 114.012297,38.0543911 114.012297,38.0543911 C113.959953,48.3901499 111.021822,51.5170418 111.021822,51.5170418 C115.880379,58.8114129 122.455993,60.5779316 126.422985,60.925079 C127.511054,61.0208438 128.402619,61.0088732 129.008437,60.9763816 C129.489831,60.9507303 129.851949,60.54544 129.84251,60.0657609 C129.705214,53.652084 134,47.9087607 134,47.9087607 C114.107546,42.8622974 116.583162,28.4231877 116.583162,28.4231877 L115.204197,27.1962011 C112.018933,24.6943455 107.985867,25.97862 109.231827,32.3623704" id="Fill-57" fill="#FDB48C"></path>
                        <path d="M139.051885,43.9764058 C138.390862,44.8898729 137.639208,45.6808221 136.848475,46.1442233 C136.821868,46.1600589 136.797755,46.1742277 136.771148,46.1875629 C136.646427,46.2575732 136.519211,46.3225827 136.382018,46.3825915 C135.868166,46.6101248 135.267841,46.7776493 134.600997,46.8818313 L134.599334,46.8818313 C134.497894,46.8976669 134.390634,46.9110022 134.285037,46.9243375 C130.969113,47.3193953 126.192287,46.1850626 122.238622,43.105445 C122.236127,43.1029446 122.234464,43.1029446 122.234464,43.1029446 C120.904104,42.0669596 119.665206,40.8092754 118.610063,39.3165569 C112.280873,30.3735807 119.452348,13.5769546 119.452348,13.5769546 C119.452348,13.5769546 132.474915,8.42620041 142.021915,16.7424181 C142.026072,16.7474188 142.03023,16.7499192 142.033556,16.7540865 C142.776063,17.3941802 143.120294,18.3843252 142.962314,19.3544672 L142.047691,24.9402851 L141.430736,28.7266729 L141.423253,28.7733464 L141.314329,33.7532422 L141.273587,35.5768426 C141.181293,38.6389576 140.861175,41.4735394 139.051885,43.9764058" id="Fill-59" fill="#FDB48C"></path>
                        <path d="M131,20.5277464 L130.743245,22.203227 C130.743245,22.203227 128.507445,21.2074698 126.092533,21.8913736 C123.678504,22.5761134 123.468512,23 123.468512,23 L123,21.9624394 C123,21.9624394 125.620492,18.7711672 131,20.5277464" id="Fill-61" fill="#0C3751"></path>
                        <path d="M120.93106,12.6720833 C120.93106,12.6720833 121.714666,17.185593 117.998157,21.2799322 C117.998157,21.2799322 117.432348,26.1870332 118.08264,30 L116,28.312591 L116.014727,16.9430022 C116.014727,16.9430022 118.386472,9.8253541 120.93106,12.6720833" id="Fill-63" fill="#0C3751"></path>
                        <path d="M118.021573,38 C118.021573,38 117.291215,46.5895257 124.329732,51.2644582 C125.522103,52.0564427 126.47321,53.2025111 126.943429,54.5923327 C127.445653,56.0753794 127.631935,58.1613948 126.753864,60.9256433 C127.818217,61.0222893 128.68562,61.0086049 129.265803,60.9743939 C129.704018,60.9487357 130.035551,60.5630067 130.024883,60.1062899 C129.875529,53.6746228 134,47.9049384 134,47.9049384 C134,47.9049384 123.285074,49.1861402 118.021573,38" id="Fill-65" fill="#EB8E78"></path>
                        <path d="M112,29 C112,29 116.651951,29.2790076 114.370158,35 C114.370158,35 115.208649,30.7792304 112,29" id="Fill-67" fill="#EB8E78"></path>
                        <path d="M114,33 C114,33 113.581906,31.0294241 112,31.6794281 C112,31.6794281 112.416337,30.6744701 113.956083,31.1089982 L114,33 Z" id="Fill-69" fill="#EB8E78"></path>
                        <path d="M142,24.8874408 L141.371462,26 C141.371462,26 140.523337,24.4454423 138.452808,23.8723566 C136.870351,23.4337193 136,23.6984142 136,23.6984142 L136.149355,22.1077235 C136.149355,22.1077235 140.107275,21.1598635 142,24.8874408" id="Fill-71" fill="#0C3751"></path>
                        <path d="M128.98513,25.6033168 C128.89077,26.4298509 128.373809,27.053621 127.829427,26.9963518 C127.285045,26.9390826 126.920511,26.2232173 127.01487,25.3966832 C127.108423,24.5701491 127.626191,23.946379 128.170573,24.0036482 C128.714955,24.0601435 129.079489,24.7767827 128.98513,25.6033168" id="Fill-73" fill="#0C3751"></path>
                        <path d="M138.985129,27.6033168 C138.890769,28.4298509 138.373801,29.053621 137.829413,28.9963518 C137.285831,28.9390826 136.920485,28.2232174 137.014846,27.3959094 C137.1084,26.5701492 137.626174,25.9463791 138.170563,26.0036483 C138.714951,26.0601436 139.07949,26.7767827 138.985129,27.6033168" id="Fill-75" fill="#0C3751"></path>
                        <path d="M132.564288,32.9965042 C132.292507,32.9669846 132.060668,32.7620837 132.010307,32.4799109 C131.947788,32.1360942 132.176154,31.8070373 132.520004,31.7453934 L134.583106,31.3729253 L132.866459,24.7926556 C132.777892,24.4540482 132.980208,24.1093633 133.319717,24.0208045 C133.65662,23.9322456 134.003076,24.1345418 134.090775,24.4731492 L135.980215,31.7141374 C136.023631,31.8851775 135.994976,32.0657681 135.900331,32.2142344 C135.804817,32.3635689 135.653731,32.4651511 135.480069,32.4964072 L132.744896,32.9904267 C132.684114,33.0008453 132.623333,33.0025818 132.564288,32.9965042" id="Fill-77" fill="#EB8E78"></path>
                        <path d="M113.160139,45 C113.160139,45 114.02785,49.8309013 121,53.7313305 L119.472585,61 C119.472585,61 110.626632,55.1167382 109,51.0781116 C109,51.0781116 110.201044,47.0978541 113.160139,45" id="Fill-79" fill="#FFFFFF"></path>
                        <path d="M127.137096,54.1997328 C127.137096,54.1997328 130.67989,53.8755799 131.410192,52 L134,53.1796046 C134,53.1796046 133.776438,62.9085255 126,60.6637232 L127.137096,54.1997328 Z" id="Fill-81" fill="#FFFFFF"></path>
                        <path d="M111,48 C110.173306,48.359249 109.480083,48.772169 108.549114,49.5192339 C106.029823,51.5422821 103.021689,55.6957204 103,63.9965374 L104.257143,64 C104.273827,57.8823784 106.005631,53.2467673 109.265693,50.5952497 C109.728676,50.2186874 109.899687,49.8620354 110.348488,49.6032029 C110.527007,49.0119569 110.778102,48.5739328 111,48" id="Fill-83" fill="#32324C"></path>
                        <path d="M101.475579,81 C101.466283,81 101.456986,81 101.446845,81 C99.9695608,80.939061 98.8345539,80.3711436 98.0747838,79.3106361 C95.9628088,76.3660986 97.6023572,70.6259855 97.673348,70.383076 C97.7553254,70.1012332 98.0494299,69.9387293 98.3317027,70.021674 C98.6131303,70.1037723 98.7745498,70.3991571 98.6925724,70.6809999 C98.6765149,70.7360142 97.1265501,76.1688933 98.9376595,78.6910899 C99.5055855,79.4824502 100.340572,79.8895564 101.490791,79.9369534 C101.784051,79.9488026 102.01139,80.1967904 101.999558,80.4896361 C101.987727,80.774018 101.756161,80.9974609 101.475579,81" id="Fill-85" fill="#DBDBDB"></path>
                        <path d="M104.579137,81 C104.27648,81.0031834 104.021227,80.796266 104.001172,80.5265487 C103.981116,80.2471699 104.220872,80.0072423 104.537203,79.9895295 C105.875457,79.9138477 106.8755,79.4734436 107.592943,78.6433585 C109.63223,76.2835336 108.580224,71.6548631 108.569285,71.6081658 C108.505472,71.335228 108.704204,71.067121 109.014154,71.0107621 C109.324104,70.9535982 109.626761,71.1299208 109.690574,71.4028586 C109.739801,71.6105812 110.86109,76.5266817 108.505472,79.2552544 C107.587473,80.3188261 106.276568,80.9057632 104.60922,80.9991578 C104.599193,81 104.589165,81 104.579137,81" id="Fill-87" fill="#DBDBDB"></path>
                        <path d="M108.740556,73.879991 C108.689198,73.880801 108.636969,73.8783711 108.58474,73.8727012 C107.924912,73.7998026 107.453109,73.2433434 107.530583,72.6293752 C107.676824,71.4459882 107.712514,67.997075 106.141289,66.2936779 C105.521504,65.6230109 104.70673,65.2787676 103.64822,65.2423183 C98.8013611,65.0714116 98.4087725,72.848071 98.4052906,72.9258295 C98.379176,73.5438475 97.8159724,74.0241682 97.1544039,73.9990587 C96.490224,73.9747592 95.9740266,73.4531293 96.0010116,72.8351113 C96.005364,72.7362932 96.1167861,70.3938185 97.0290541,68.0424341 C98.6977734,63.7446573 101.599099,62.9314331 103.73701,63.0043316 C105.481461,63.0642705 106.906445,63.6822885 107.971918,64.8405661 C110.550294,67.6414918 109.947048,72.6779743 109.920063,72.8910002 C109.848684,73.4571792 109.336838,73.8735111 108.740556,73.879991" id="Fill-89" fill="#32324C"></path>
                        <path d="M101.999938,80.9885749 C102.006037,81.541136 101.563823,81.9930928 101.011055,81.9999522 C100.45905,82.0052873 100.006162,81.5632384 100.000062,81.0114395 C99.9939627,80.4588784 100.436939,80.0061594 100.988945,80.0000622 C101.54095,79.993965 101.993838,80.436776 101.999938,80.9885749" id="Fill-91" fill="#32324C"></path>
                        <path d="M105.999938,79.9889446 C106.006035,80.5417123 105.563224,80.9938381 105.011425,80.9999377 C104.459626,81.0060372 104.006907,80.563823 104.000048,80.0118177 C103.994713,79.45905 104.436762,79.0061617 104.98856,79.0000622 C105.541122,78.9939627 105.993841,79.4369393 105.999938,79.9889446" id="Fill-93" fill="#32324C"></path>
                        <path d="M136.58697,72 L135.310147,71.6941419 C137.847221,61.7092714 136.3637,56.9011135 134.672608,54.6262406 C132.987622,52.3598402 131.090703,52.0819414 131,52.0751634 L131.500612,51 C131.613991,51.0076253 133.649581,51.1016703 135.708718,53.8374486 C138.434176,57.4586057 138.729833,63.5689906 136.58697,72" id="Fill-95" fill="#32324C"></path>
                        <path d="M138.999736,74.9551906 C139.024865,77.1638282 137.254092,78.9746262 135.045233,78.9997529 C132.835536,79.0240421 131.024556,77.2542844 131.000264,75.0448092 C130.975135,72.8361717 132.745908,71.0253736 134.954767,71.0002469 C137.164464,70.9759578 138.975444,72.7465531 138.999736,74.9551906" id="Fill-97" fill="#32324C"></path>
                        <path d="M137.999834,75.4720094 C138.015603,76.8526146 136.908592,77.9840643 135.527983,77.9998336 C134.147373,78.0156029 133.01592,76.9085957 133.00015,75.5279906 C132.985169,74.1473854 134.091392,73.0159357 135.472001,73.0001664 C136.852611,72.9843971 137.984064,74.0914043 137.999834,75.4720094" id="Fill-99" fill="#DBDBDB"></path>
                        <path d="M121,147.190398 C120.977371,148.191566 119.818254,148.445831 119.818254,148.445831 C119.01869,148.819701 117.385199,148.137201 116.439803,147.283239 C115.848092,146.747108 113.756989,145.727539 112.274359,145.041692 C113.824876,145.988495 115.343545,147.545031 116.473327,148.629003 C117.982777,150.073461 119.374052,151.103067 119.374052,151.103067 C118.56024,152.983289 115.853959,151.4577 114.333614,150.320199 C113.092362,149.39347 109.929306,147.271529 109.832085,147.202944 C109.909191,147.283239 111.764783,149.204444 114.238906,150.99099 C116.76583,152.812664 117.69195,153.108749 117.69195,153.108749 C117.370113,154.640193 115.532122,154.984789 112.957425,153.869035 C110.380213,152.756625 106.025355,149.312339 106.025355,149.312339 C106.390774,150.199758 109.742406,153.906672 110.502579,154.404329 C111.262751,154.901986 111.029754,156.66093 108.162555,155.735038 C105.292002,154.8058 102.200187,150.213976 102.200187,150.213976 C102.200187,150.213976 101.768556,150.220667 101.070404,150.209794 C99.2684518,150.176338 95.6737659,150.004877 93.0336958,149.204444 L93.0320196,149.204444 C93.0177716,149.200262 93.0026855,149.19608 92.9884375,149.192735 C92.8057278,149.136696 92.6263707,149.076475 92.4520423,149.014582 C92.4377943,149.007891 92.4235463,149.003709 92.4092983,148.997854 C92.3212959,148.964398 92.2341317,148.931779 92.1511581,148.895813 C92.0204118,148.842284 91.8921798,148.783736 91.7673003,148.726025 C91.6214678,148.655767 91.4806641,148.584673 91.3457272,148.506052 C88.6235216,146.998027 87.8692159,144.347482 87.8692159,144.347482 L86.8039685,142.253979 L86.7955874,142.23976 C86.6044966,141.936984 83.4313838,136.921943 76.7943314,128.835649 C68.9570948,119.288169 66.5156586,112.817796 66.0153025,109.296561 C65.9750728,109.01135 66.0153025,108.621588 66.1225815,108.142332 C66.1376676,108.078766 66.1519156,108.014363 66.1703542,107.948288 C66.182926,107.898104 66.1954977,107.846247 66.2097457,107.794391 C66.2281843,107.722461 66.2491373,107.647185 66.2726045,107.572745 C66.282662,107.529253 66.29691,107.483251 66.3119961,107.438085 C66.3304347,107.373683 66.3513876,107.307607 66.3740168,107.239023 C66.4527998,106.988103 66.546669,106.721292 66.6497574,106.441099 C66.718483,106.254582 66.7939136,106.062211 66.8726967,105.863148 C66.8911352,105.811292 66.9120882,105.761108 66.9330411,105.709251 C66.9640515,105.633139 66.9950618,105.554518 67.0285865,105.477569 C67.067978,105.378038 67.1090458,105.278506 67.1526279,105.178975 C67.4627314,104.443781 67.8281506,103.645021 68.2346376,102.80026 C68.330183,102.605379 68.4274046,102.406316 68.5254643,102.205581 C68.8766356,101.494643 69.2546266,100.75694 69.6552467,100 C70.0223422,100.240883 70.4296673,100.499329 70.8696789,100.771159 C73.7796228,102.566068 78.189797,104.909655 82.9293514,106.080612 C83.2738177,106.165924 83.6207983,106.244546 83.9669409,106.318985 C84.6902363,106.467864 85.4185603,106.589978 86.1493988,106.673618 C84.8578597,107.873012 83.5168718,108.823996 82.1943224,109.309107 C82.1943224,109.309107 87.9379415,117.22143 89.4742108,127.252348 L92.0187355,132.86625 L92.6892295,134.348347 L93.669827,136.511272 L94.0746377,137.407054 C94.9337081,138.235087 96.4439958,139.227892 98.7052368,139.203636 C102.559739,139.161816 108.509535,140.059271 110.614886,140.747626 C112.716047,141.433473 116.900767,143.8975 117.839459,144.942161 C118.780665,145.988495 121,147.190398 121,147.190398" id="Fill-101" fill="#FDB48C"></path>
                        <path d="M92,149 C91.8528532,148.929348 91.7107805,148.858695 91.5746275,148.778791 C88.8278881,147.262286 88.0667842,144.596838 88.0667842,144.596838 L86.9919364,142.491563 L86.9834797,142.477265 C86.7906667,142.172786 83.5889563,137.129547 76.8920877,128.997786 C68.9842183,119.396622 66.5207787,112.889867 66.0150674,109.348834 C65.9753209,109.062018 66.0150674,108.670065 66.124159,108.188956 C66.1385354,108.124191 66.1537575,108.059426 66.1723622,107.992979 C66.1850473,107.942513 66.1977324,107.890365 66.2121088,107.838217 C66.2307135,107.765882 66.2518553,107.690183 66.2755341,107.615325 C66.2856822,107.571588 66.3000586,107.525327 66.314435,107.479908 C66.3338854,107.415143 66.3550272,107.348696 66.3778603,107.279726 C66.4573534,107.027396 66.5520685,106.759085 66.656086,106.477316 C66.7254311,106.289751 66.8015415,106.096297 66.8810345,105.896115 C66.8996393,105.843967 66.9207811,105.793501 66.9419228,105.741353 C66.9732127,105.664813 67.0045025,105.585749 67.0374837,105.508368 C67.0780759,105.408277 67.1195138,105.308186 67.1634886,105.208095 C67.4755412,104.468768 67.8450995,103.666358 68.2552499,102.816005 C68.3516564,102.620028 68.4497542,102.419847 68.5486977,102.217982 C68.9030339,101.503047 69.2844315,100.761196 69.6886622,100 C70.0590661,100.242237 70.4700622,100.502137 70.9140395,100.775495 C69.2751291,104.531009 68.0226904,107.929897 68.1334733,109.342946 C68.4353778,113.215373 74.8075087,123.791373 77.8392392,127.339135 C80.8709697,130.885216 86.9961647,139.555281 87.9120264,142.02307 C88.6054766,143.890314 89.9255691,147.136962 91.5763188,148.654308 C91.7150089,148.782996 91.8579273,148.898227 92,149" id="Fill-103" fill="#EB8E78"></path>
                        <path d="M86,106.355705 C84.6622208,107.559564 83.2723542,108.513423 81.9024544,109 C81.9024544,109 77.6651409,107.991611 75,108.852349 C75,108.852349 77.4455055,106.640101 81.6654566,107.551174 C81.6654566,107.551174 82.5240313,106.963087 83.7394049,106 C84.4877279,106.150168 85.2429958,106.272651 86,106.355705" id="Fill-105" fill="#EB8E78"></path>
                        <path d="M102,150.997842 C102,150.997842 101.558698,151.004243 100.844045,150.994997 C100.730934,150.376235 100,150 100,150 C101.056555,150.039117 102,150.997842 102,150.997842" id="Fill-107" fill="#EB8E78"></path>
                        <mask id="mask-6" fill="white">
                            <use xlink:href="#path-5"></use>
                        </mask>
                        <g id="Clip-110"></g>
                        <polygon id="Fill-109" fill="#FFFFFF" mask="url(#mask-6)" points="5 291 15 291 15 223 5 223"></polygon>
                        <polygon id="Fill-111" fill="#DBDBDB" mask="url(#mask-6)" points="12 291 14 291 14 223 12 223"></polygon>
                        <path d="M1,288 C1,292.97079 5.02940194,297 10.0004296,297 C14.9705981,297 19,292.97079 19,288 C19,283.030069 14.9705981,279 10.0004296,279 C5.02940194,279 1,283.030069 1,288" id="Fill-112" fill="#0C3751" mask="url(#mask-6)"></path>
                        <path d="M0,288.000859 C0,292.969931 4.09642764,297 9.15101756,297 C9.43663202,297 9.71962617,296.986254 10,296.960481 C5.34107782,296.542955 1.69272426,292.690722 1.69272426,288.000859 C1.69272426,283.309278 5.34107782,279.457045 10,279.039519 C9.71962617,279.013746 9.43663202,279 9.15101756,279 C4.09642764,279 0,283.030069 0,288.000859" id="Fill-113" fill="#14455F" mask="url(#mask-6)"></path>
                        <polygon id="Fill-114" fill="#C4C4C4" mask="url(#mask-6)" points="5 240 15 240 15 223 5 223"></polygon>
                        <polygon id="Fill-115" fill="#FFFFFF" mask="url(#mask-6)" points="62 291 72 291 72 223 62 223"></polygon>
                        <polygon id="Fill-116" fill="#DBDBDB" mask="url(#mask-6)" points="69 291 72 291 72 223 69 223"></polygon>
                        <path d="M60,287.000418 C60,291.970149 64.0298507,296 69.0004185,296 C73.9709862,296 78,291.970149 78,287.000418 C78,282.029851 73.9709862,278 69.0004185,278 C64.0298507,278 60,282.029851 60,287.000418" id="Fill-117" fill="#14455F" mask="url(#mask-6)"></path>
                        <path d="M58,287.001255 C58,291.970149 62.0968263,296 67.1500043,296 C67.4358887,296 67.7200715,295.986609 68,295.960664 C63.3407641,295.543869 59.6931847,291.691449 59.6931847,287.001255 C59.6931847,282.309388 63.3407641,278.456131 68,278.040173 C67.7200715,278.013391 67.4358887,278 67.1500043,278 C62.0968263,278 58,282.030688 58,287.001255" id="Fill-118" fill="#0C3751" mask="url(#mask-6)"></path>
                        <path d="M64,288.000435 C64,290.761727 66.2382734,293 69.0004351,293 C71.7617266,293 74,290.761727 74,288.000435 C74,285.239144 71.7617266,283 69.0004351,283 C66.2382734,283 64,285.239144 64,288.000435" id="Fill-119" fill="#0C3751" mask="url(#mask-6)"></path>
                        <polygon id="Fill-120" fill="#C4C4C4" mask="url(#mask-6)" points="62 240 72 240 72 223 62 223"></polygon>
                        <polygon id="Fill-121" fill="#FFFFFF" mask="url(#mask-6)" points="261 291 271 291 271 223 261 223"></polygon>
                        <polygon id="Fill-122" fill="#DBDBDB" mask="url(#mask-6)" points="269 291 272 291 272 223 269 223"></polygon>
                        <polygon id="Fill-123" fill="#C4C4C4" mask="url(#mask-6)" points="261 239 271 239 271 223 261 223"></polygon>
                        <path d="M258,287.000418 C258,291.970149 262.029663,296 267,296 C271.970337,296 276,291.970149 276,287.000418 C276,282.029851 271.970337,278 267,278 C262.029663,278 258,282.029851 258,287.000418" id="Fill-124" fill="#0C3751" mask="url(#mask-6)"></path>
                        <path d="M256,287.001255 C256,291.970149 260.096826,296 265.150855,296 C265.43674,296 265.720071,295.986609 266,295.960664 C261.340764,295.543869 257.693185,291.691449 257.693185,287.001255 C257.693185,282.309388 261.340764,278.456131 266,278.040173 C265.720071,278.013391 265.43674,278 265.150855,278 C260.096826,278 256,282.030688 256,287.001255" id="Fill-125" fill="#14455F" mask="url(#mask-6)"></path>
                        <polygon id="Fill-126" fill="#FFFFFF" mask="url(#mask-6)" points="317 291 327 291 327 223 317 223"></polygon>
                        <polygon id="Fill-127" fill="#DBDBDB" mask="url(#mask-6)" points="317 291 320 291 320 223 317 223"></polygon>
                        <polygon id="Fill-128" fill="#C4C4C4" mask="url(#mask-6)" points="317 239 327 239 327 223 317 223"></polygon>
                        <path d="M315,288.000429 C315,292.970893 319.029299,297 324,297 C328.970701,297 333,292.970893 333,288.000429 C333,283.029966 328.970701,279 324,279 C319.029299,279 315,283.029966 315,288.000429" id="Fill-129" fill="#14455F" mask="url(#mask-6)"></path>
                        <path d="M313,288.000859 C313,292.969842 317.096585,297 322.151166,297 C322.43673,297 322.720548,296.986257 323,296.960489 C318.341018,296.543043 314.692429,292.690685 314.692429,288.000859 C314.692429,283.309315 318.341018,279.456957 323,279.039511 C322.720548,279.012884 322.43673,279 322.151166,279 C317.096585,279 313,283.030158 313,288.000859" id="Fill-130" fill="#0C3751" mask="url(#mask-6)"></path>
                        <path d="M319,287.5 C319,289.985087 321.014469,292 323.5,292 C325.985531,292 328,289.985087 328,287.5 C328,285.014913 325.985531,283 323.5,283 C321.014469,283 319,285.014913 319,287.5" id="Fill-131" fill="#0C3751" mask="url(#mask-6)"></path>
                        <path d="M325.676761,205 L269.324084,205 C266.383716,205 264,202.610837 264,199.663751 L264,84.3362495 C264,81.3891633 266.383716,79 269.324084,79 L325.676761,79 C328.616284,79 331,81.3891633 331,84.3362495 L331,199.663751 C331,202.610837 328.616284,205 325.676761,205" id="Fill-132" fill="#DBDBDB" mask="url(#mask-6)"></path>
                        <path d="M317.676761,205 L261.324084,205 C258.384561,205 256,202.610837 256,199.663751 L256,84.3362495 C256,81.3891633 258.384561,79 261.324084,79 L317.676761,79 C320.616284,79 323,81.3891633 323,84.3362495 L323,199.663751 C323,202.610837 320.616284,205 317.676761,205" id="Fill-133" fill="#B3B3B3" mask="url(#mask-6)"></path>
                        <path d="M331,198.781468 L331,220.217684 C331,223.410384 328.428519,226 325.259019,226 L48.7418236,226 C45.5714812,226 43,223.410384 43,220.217684 L43,198.781468 C43,195.586223 45.5714812,193 48.7418236,193 L325.259019,193 C328.428519,193 331,195.586223 331,198.781468" id="Fill-134" fill="#DBDBDB" mask="url(#mask-6)"></path>
                        <path d="M331,207 L331,219.30625 C331,222.450049 328.428519,225 325.259019,225 L48.7418236,225 C45.5714812,225 43,222.450049 43,219.30625 L43,207 L331,207 Z" id="Fill-135" fill="#C4C4C4" mask="url(#mask-6)"></path>
                        <path d="M62.5520506,138.3542 C62.5520506,139.239148 61.8340457,139.959219 60.9470984,139.959219 L40.3580947,139.959219 C39.4728368,139.959219 38.7531425,139.239148 38.7531425,138.3542 L38.7531425,137.37672 C38.7531425,136.491772 39.4728368,135.774224 40.3580947,135.774224 L60.9470984,135.774224 C61.8340457,135.774224 62.5520506,136.491772 62.5520506,137.37672 L62.5520506,138.3542 Z M71.3488786,129 L15.6485873,129 C12.5282222,129 10,131.530345 10,134.650374 L10,135.774224 L29.7823039,135.774224 C30.6675618,135.774224 31.3855668,136.491772 31.3855668,137.37672 L31.3855668,138.3542 C31.3855668,139.239148 30.6675618,139.959219 29.7823039,139.959219 L10,139.959219 L10,219.352991 C10,222.47302 12.5282222,225 15.6485873,225 L71.3488786,225 C74.4692437,225 77,222.47302 77,219.352991 L77,134.650374 C77,131.530345 74.4692437,129 71.3488786,129 L71.3488786,129 Z" id="Fill-136" fill="#DBDBDB" mask="url(#mask-6)"></path>
                        <path d="M62.3024912,138.3542 C62.3024912,139.239148 61.5844953,139.959219 60.6975592,139.959219 L40.1088151,139.959219 C39.2235684,139.959219 38.5038831,139.239148 38.5038831,138.3542 L38.5038831,137.37672 C38.5038831,136.491772 39.2235684,135.774224 40.1088151,135.774224 L60.6975592,135.774224 C61.5844953,135.774224 62.3024912,136.491772 62.3024912,137.37672 L62.3024912,138.3542 Z M31.1364003,138.3542 C31.1364003,139.239148 30.4184044,139.959219 29.5331577,139.959219 L8.94525833,139.959219 C8.0574775,139.959219 7.33948158,139.239148 7.33948158,138.3542 L7.33948158,137.37672 C7.33948158,136.491772 8.0574775,135.774224 8.94525833,135.774224 L29.5331577,135.774224 C30.4184044,135.774224 31.1364003,136.491772 31.1364003,137.37672 L31.1364003,138.3542 Z M62.3506392,129 L6.6510502,129 C3.52987972,129 1,131.530345 1,134.650374 L1,219.352991 C1,222.47302 3.52987972,225 6.6510502,225 L62.3506392,225 C65.470965,225 68,222.47302 68,219.352991 L68,134.650374 C68,131.530345 65.470965,129 62.3506392,129 L62.3506392,129 Z" id="Fill-137" fill="#B3B3B3" mask="url(#mask-6)"></path>
                        <path d="M43,140 L39.7454545,140 C38.7827273,140 38,139.312163 38,138.466147 L38,137.532255 C38,136.686239 38.7827273,136 39.7454545,136 L43,136 C42.0345455,136 41.2545455,136.686239 41.2545455,137.532255 L41.2545455,138.466147 C41.2545455,139.312163 42.0345455,140 43,140" id="Fill-138" fill="#DBDBDB" mask="url(#mask-6)"></path>
                        <path d="M12,140 L8.74473925,140 C7.78225069,140 7,139.311759 7,138.46593 L7,137.531658 C7,136.685829 7.78225069,136 8.74473925,136 L12,136 C11.0347667,136 10.2543458,136.685829 10.2543458,137.531658 L10.2543458,138.46593 C10.2543458,139.311759 11.0347667,140 12,140" id="Fill-139" fill="#DBDBDB" mask="url(#mask-6)"></path>
                        <path d="M55.5891811,212 L13.4116585,212 C10.4229051,212 8,209.560801 8,206.552794 L8,160.447206 C8,157.438354 10.4229051,155 13.4116585,155 L55.5891811,155 C58.5779344,155 61,157.438354 61,160.447206 L61,206.552794 C61,209.560801 58.5779344,212 55.5891811,212" id="Fill-140" fill="#DBDBDB" mask="url(#mask-6)"></path>
                        <path d="M311.784896,185.554856 C306.934669,195.506467 286.268484,192.60696 286.268484,192.60696 L236.500937,192.60696 C236.500937,192.60696 236.281623,191.286634 235.977956,188.941816 C235.944216,188.706493 235.91891,188.472011 235.885169,188.21904 C235.564633,185.680921 235.168179,182.159491 234.822337,177.948904 C233.29557,159.476945 232.738848,127.884089 243.890153,109.193618 C245.88929,105.831871 249.600768,103.864408 253.523125,104.007283 C258.280565,104.183774 265.484207,104.487172 273.328922,104.982189 C277.892353,105.276342 282.666663,105.629326 287.297576,106.049544 C296.972724,106.940407 306.02367,108.150636 311.177563,109.773519 C313.033302,110.35342 314.382931,110.991312 315.08305,111.68131 C321.48535,118.025767 309.886981,125.565324 308.832584,138.708914 C307.778187,151.853344 316.635123,175.595681 311.784896,185.554856" id="Fill-141" fill="#B6ECF2" mask="url(#mask-6)"></path>
                        <path d="M311.786315,185.485659 C306.937408,195.529762 286.276845,192.603307 286.276845,192.603307 L236.522839,192.603307 C236.522839,192.603307 236.303584,191.27071 236,188.904098 C245.284604,190.024634 284.44691,194.315919 291.61486,188.666589 C299.769457,182.253835 295.831301,157.76492 294.144725,134.124253 C292.458148,110.484434 311.179147,109 311.179147,109 C313.034382,109.585291 314.383643,110.229111 315.083572,110.925523 C321.48413,117.328946 309.888916,124.938577 308.834806,138.204325 C307.780696,151.470921 316.635222,175.433923 311.786315,185.485659" id="Fill-142" fill="#97D4D8" mask="url(#mask-6)"></path>
                        <path d="M285.518507,122.902168 C281.912461,135.742605 276.218302,134.695147 275.284124,147.634337 C274.360128,160.572684 282.392701,165.075657 276.953936,180.901477 C275.563275,184.936006 272.451893,190.147132 270.7719,193 L237.205976,193 C236.77325,191.632649 236.408403,190.155573 236.111435,188.594092 C235.500528,185.445809 235.161136,181.943027 235.042348,178.279877 C234.49932,160.77441 239.233846,139.445425 246.072606,133.798772 C254.735602,126.649722 262.957386,111.55822 273.775524,105 C278.365809,105.295415 283.168213,105.649914 287.826376,106.071936 C288.471222,110.418761 287.234985,116.788759 285.518507,122.902168" id="Fill-143" fill="#97D4D8" mask="url(#mask-6)"></path>
                        <path d="M255.81944,217.998127 C252.304321,224.007057 225.413238,213.053666 196.905369,216.815573 C168.3975,220.57748 130.963588,224.568813 110.287607,222.374086 C89.6107827,220.180202 78.6852529,221.382157 74.4182186,218.560727 C70.1511842,215.740983 76.9099913,177.775244 76.5256041,155.70567 C76.5256041,155.70567 81.3456164,152.424545 89.4000441,149.803862 C89.40173,149.803862 89.40173,149.803862 89.4042589,149.802175 L89.4059448,149.802175 C97.7562494,147.082806 109.57784,145.076174 123.109784,148.167517 C149.702461,154.243081 157.639718,144.129793 180.19633,139.780826 C202.753786,135.433546 218.541475,150.656617 218.541475,150.656617 C218.541475,150.656617 240.400965,164.617847 250.315792,179.581128 C252.540349,182.935635 254.165564,186.342439 254.806209,189.653086 C258.311213,207.726266 259.33456,211.991728 255.81944,217.998127" id="Fill-144" fill="#0DCAB8" mask="url(#mask-6)"></path>
                        <path d="M255.81944,217.011531 C252.304321,223.004359 225.413238,212.080318 196.905369,215.832145 C168.3975,219.583971 130.963588,223.564609 110.287607,221.375763 C89.6107827,219.187758 78.6852529,220.386492 74.4182186,217.572622 C70.1511842,214.760435 76.9099913,176.896429 76.5256041,154.885993 C76.5256041,154.885993 81.3456164,151.61366 89.4000441,149 C89.0948947,149.167402 76.4396228,156.109964 84.0548713,173.532403 C91.7662167,191.170194 114.321143,182.01355 132.492707,193.471763 C150.6609,204.926611 165.699204,200.862693 174.471828,195.547045 C183.24361,190.232238 204.801321,197.415387 214.788643,190.939701 C224.774279,184.462332 191.645335,166.615919 202.168775,162.74464 C210.792197,159.574935 240.488632,193.883959 250.315792,178.697474 C252.540349,182.042993 254.165564,185.440667 254.806209,188.742443 C258.311213,206.767193 259.33456,211.021226 255.81944,217.011531" id="Fill-145" fill="#0EB0A2" mask="url(#mask-6)"></path>
                        <path d="M274.328076,176.75337 C273.746659,181.001537 269.307972,194 269.307972,194 C269.307972,194 265.568843,193.143617 254.732034,186.73382 C249.271437,169.175855 218.96432,149.835938 218.96432,149.835938 L218.961789,149.833406 L215.956815,147.91477 L211,144.747418 C211,144.747418 211.1443,144.648702 211.444713,144.454645 C212.632863,143.69529 216.239507,141.467006 222.886567,138.007724 C228.164047,135.262236 236.077736,129.628668 239.07174,130.019314 C242.04296,130.408272 254.100829,137.309118 254.316013,137.375773 C254.318544,137.375773 259.896438,139.98289 259.896438,139.98289 C262.60353,141.298261 266.9072,142.918217 268.74512,145.299216 C271.329009,148.647969 271.751782,150.937002 273.14077,154.101823 C273.98969,156.039864 273.535695,156.906372 274.281664,158.827539 L274.281664,158.829227 C275.262226,161.347753 275.983723,163.526257 275.996381,164.513418 C276.073172,170.531725 274.90865,172.506047 274.328076,176.75337" id="Fill-146" fill="#FFFFFF" mask="url(#mask-6)"></path>
                        <path d="M258,165 C258,165 257.100741,172.443777 256.236372,174.464378 C255.37113,176.484979 251.774967,182 251.774967,182 C250.727431,180.076395 249.445268,178.156223 248,176.261803 C248.116877,176.202575 251.834278,174.239485 253.643262,173.500429 C255.479285,172.747639 258,165 258,165" id="Fill-147" fill="#DBDBDB" mask="url(#mask-6)"></path>
                        <path d="M250.540038,112.062026 C250.540038,112.062026 249.324953,109.33864 250.540038,107.046724 C251.755122,104.753967 252.032423,104.753967 252.102169,102.739604 C252.171914,100.725241 253.000457,95.5846201 255.22307,92.8755331 C257.446524,90.1664461 258.701102,86.6928264 265.33869,88.4994451 C268.313378,89.3085546 269.769631,93.9865868 274.696353,94.4037576 C279.623915,94.8200873 282.036437,101.390527 283.228833,104.719483 C285.207757,110.241109 282.949851,110.459787 281.25159,114.683641 C279.065111,120.12116 277.874395,124.382862 275.301374,127.727798 C272.726672,131.072735 274.645094,133.70192 270.371291,133.997135 C266.096647,134.29151 270.42255,111.798771 250.540038,112.062026" id="Fill-148" fill="#0C3751" mask="url(#mask-6)"></path>
                        <path d="M278.198125,129.181685 C274.335617,134.200763 271.535446,132.089518 271.535446,132.089518 C267.097296,141.09982 268.318228,145.073637 268.318228,145.073637 C260.891941,149.341719 254.357649,148.069335 250.727579,146.678416 C249.731534,146.296287 248.953662,145.905039 248.436759,145.618234 C248.026425,145.390283 247.883773,144.882987 248.101107,144.471016 C251.003652,138.952102 249.728177,132.122674 249.728177,132.122674 C269.366299,136.229947 273.459567,122.617509 273.459567,122.617509 L275.200759,122.138397 C279.080049,121.323574 282.060633,124.162606 278.198125,129.181685" id="Fill-149" fill="#FDB48C" mask="url(#mask-6)"></path>
                        <path d="M246.147272,127.824168 C246.342997,128.955287 246.677182,130.01603 247.196836,130.795265 C247.21393,130.822398 247.230169,130.845292 247.248118,130.869881 C247.331023,130.989437 247.419057,131.107298 247.518201,131.223462 C247.889138,131.662682 248.366912,132.085792 248.934429,132.481769 L248.936138,132.482617 C249.022462,132.541971 249.115624,132.603021 249.206221,132.663223 C252.08483,134.518463 257.003593,135.636864 262.045431,134.608342 C262.047995,134.607494 262.049705,134.607494 262.049705,134.607494 C263.746272,134.262392 265.459078,133.673939 267.108637,132.787019 C276.998299,127.479066 278,108.919037 278,108.919037 C278,108.919037 268.32743,98.3480709 255.754885,101.632897 C255.748902,101.63544 255.744629,101.63544 255.7395,101.637984 C254.76344,101.887271 253.998489,102.635981 253.704475,103.593278 L252.0156,109.102187 L250.867746,112.83556 L250.853216,112.881348 L248.695114,117.474507 L247.907087,119.15762 C246.604533,121.993051 245.613943,124.724187 246.147272,127.824168" id="Fill-150" fill="#FDB48C" mask="url(#mask-6)"></path>
                        <path d="M264.546943,110 L264,111.499378 C264,111.499378 266.450306,111.539838 268.28191,113.051665 C270.112639,114.563492 270.103888,115 270.103888,115 L271,114.316838 C271,114.316838 270.145018,110.63103 264.546943,110" id="Fill-151" fill="#0C3751" mask="url(#mask-6)"></path>
                        <path d="M269,131 C269,131 265.898715,138.777858 257.290563,139.697864 C255.831886,139.853405 254.442184,140.424272 253.392243,141.421221 C252.272477,142.483531 251.179959,144.210197 250.781442,147 C249.749383,146.610321 248.947238,146.211541 248.422694,145.923626 C248.025879,145.705207 247.887079,145.223693 248.09826,144.831532 C251.067557,139.317286 249.768117,132.472672 249.768117,132.472672 C249.768117,132.472672 259.177561,138.36005 269,131" id="Fill-152" fill="#EB8E78" mask="url(#mask-6)"></path>
                        <path d="M277,126.169498 C277,126.169498 273.585878,124.772455 273,130 C273,130 274.033262,126.435344 277,126.169498" id="Fill-153" fill="#EB8E78" mask="url(#mask-6)"></path>
                        <path d="M274,128 C274,128 275.039549,126.1152 275.999703,127.6608 C275.999703,127.6608 276.053128,126.3616 274.726423,126 L274,128 Z" id="Fill-154" fill="#EB8E78" mask="url(#mask-6)"></path>
                        <path d="M253,108.330351 L253.039919,109.791537 C253.039919,109.791537 254.402851,108.585572 256.349898,108.992756 C257.838289,109.303501 258.441955,110 258.441955,110 L259,108.272878 C259,108.272878 256.152749,105.370963 253,108.330351" id="Fill-155" fill="#0C3751" mask="url(#mask-6)"></path>
                        <path d="M263.133287,115.164193 C262.857968,115.970929 263.023009,116.776067 263.500878,116.96156 C263.979497,117.147054 264.590148,116.643343 264.866217,115.835807 C265.142285,115.029071 264.977244,114.223933 264.498626,114.03844 C264.020757,113.852946 263.409355,114.356657 263.133287,115.164193" id="Fill-156" fill="#0C3751" mask="url(#mask-6)"></path>
                        <path d="M254.133488,112.164193 C253.858146,112.970929 254.022451,113.776067 254.50036,113.96156 C254.97902,114.147054 255.590473,113.643343 255.866566,112.835807 C256.141907,112.029071 255.977603,111.223933 255.498193,111.03844 C255.020283,110.852946 254.408829,111.356657 254.133488,112.164193" id="Fill-157" fill="#0C3751" mask="url(#mask-6)"></path>
                        <path d="M257.916616,119.989541 C258.178396,120.039474 258.45031,119.908072 258.575288,119.649649 C258.728979,119.334285 258.607378,118.950592 258.304219,118.792034 L256.485271,117.838058 L259.911211,111.968782 C260.086856,111.667434 259.993967,111.274981 259.702631,111.092771 C259.412984,110.909684 259.033825,111.006045 258.85818,111.307393 L255.087704,117.766225 C254.999881,117.918651 254.977081,118.102613 255.023526,118.273435 C255.070815,118.444258 255.184816,118.587047 255.336817,118.666764 L257.749415,119.930849 C257.80346,119.959757 257.860038,119.979029 257.916616,119.989541" id="Fill-158" fill="#EB8E78" mask="url(#mask-6)"></path>
                        <path d="M257.519678,126 C256.838679,126 256.095388,125.930048 255.297381,125.75163 C251.406678,124.88312 251.005991,121.568637 251.002624,121.535625 C250.974004,121.267606 251.182765,121.029453 251.46897,121.00273 C251.755175,120.974435 252.009392,121.169358 252.039696,121.435806 C252.052323,121.547415 252.387351,124.101069 255.539814,124.804522 C258.836221,125.540201 261.173,124.176523 261.19657,124.163161 C261.43816,124.018541 261.760562,124.083777 261.917133,124.309354 C262.07202,124.534931 262.003836,124.835175 261.762245,124.980582 C261.676384,125.033243 260.041649,126 257.519678,126" id="Fill-159" fill="#EB8E78" mask="url(#mask-6)"></path>
                        <path d="M255.370762,128 C251.775895,128 251.043468,125.524511 251.012354,125.416767 C250.964423,125.244201 251.060286,125.062875 251.225103,125.012945 C251.391602,124.963015 251.563987,125.061999 251.61276,125.232813 C251.639669,125.327418 252.304824,127.477922 255.675169,127.343023 C255.849236,127.342147 255.993031,127.475294 255.999758,127.654868 C256.006486,127.835318 255.871941,127.985984 255.699555,127.993868 C255.587715,127.998248 255.477557,128 255.370762,128" id="Fill-160" fill="#EB8E78" mask="url(#mask-6)"></path>
                        <path d="M275.485077,105.001674 C275.485077,105.001674 272.589368,106.002094 273.049568,108.777588 C273.510615,111.552242 275.247363,112.175826 274.875988,114.56693 C274.506305,116.958874 274.242367,123 274.242367,123 L278.540672,119.142676 L279.98895,109.680651 C279.98895,109.680651 280.445766,104.897603 275.485077,105.001674" id="Fill-161" fill="#0C3751" mask="url(#mask-6)"></path>
                        <path d="M181.479944,138.062432 C181.904492,137.006264 182.684257,135.973318 183.63521,135.350625 C186.867254,133.232268 191.180355,133.623601 193.876578,136.399053 C193.957893,136.48248 194.037495,136.566767 194.116242,136.653634 C194.156472,136.698358 194.194133,136.741362 194.230939,136.782645 C195.721137,138.489028 198.114356,142.856474 198.394249,144.271292 C198.675855,145.688691 200,147.912837 200,147.912837 C199.458188,148.78667 198.306943,148.406518 198.306943,148.406518 C197.409058,148.318791 196.328857,146.860969 195.942826,145.611284 C195.703162,144.827759 194.396992,142.831532 193.451174,141.449396 C194.320813,143.099014 194.843795,145.269836 195.27091,146.819686 C195.845249,148.886439 196.53086,150.525736 196.53086,150.525736 C194.836091,151.76338 193.253451,148.999108 192.510492,147.198117 C191.901916,145.729114 190.228546,142.197659 190.178045,142.085849 C190.203723,142.197659 190.833698,144.868182 192.076528,147.741683 C193.347605,150.675388 194.007537,151.421071 194.007537,151.421071 C192.925624,152.60797 191.13071,151.951735 189.449637,149.61922 C187.765139,147.287565 185.733129,141.962859 185.733129,141.962859 C185.591898,142.939041 186.604479,147.971322 187.013621,148.809032 C187.421906,149.646742 186.300619,151.082203 184.263473,148.763448 C182.224615,146.441254 181.901068,140.761338 181.901068,140.761338 C181.901068,140.761338 181.899356,140.760478 181.895077,140.759618 C181.195771,140.54632 180.824291,139.779996 181.08193,139.092799 C181.20861,138.756511 181.350696,138.384959 181.479944,138.062432" id="Fill-162" fill="#FDB48C" mask="url(#mask-6)"></path>
                        <path d="M269,194.448429 C254.788175,203.076054 236.768097,200.515045 230.04301,194.448429 C223.317922,188.38266 214,177.39989 214,177.39989 L219.794652,172 C219.794652,172 235.916541,186.94331 240.655229,187.0814 C247.884125,187.290652 252.289486,182.343153 252.289486,182.343153 C258.100253,188.759653 264.402955,192.72104 269,194.448429" id="Fill-163" fill="#FDB48C" mask="url(#mask-6)"></path>
                        <path d="M202.444001,167.104788 C203.565886,168.040099 207.205669,173.011969 209.479898,174.630678 C211.754128,176.249386 213.145063,176.803424 213.145063,176.803424 L215.27123,178.692769 L215.617272,179 C215.617272,179 219.817997,174.314936 220.202112,172.944735 C220.235108,172.834098 220.242723,172.743886 220.217341,172.681759 C220.207188,172.656227 220.193651,172.634951 220.174191,172.618781 C220.174191,172.618781 220.171653,172.617079 220.166577,172.613675 L220.165731,172.611972 C220.136118,172.583037 220.022745,172.470697 219.912757,172.257933 L219.910218,172.253678 C219.802768,172.041765 219.693625,171.736236 219.666551,171.323473 L219.664859,171.321771 L219.666551,171.320069 C219.635246,170.834967 219.713931,170.200079 220.032052,169.396682 C220.945805,167.087767 221.569357,165.349059 220.215649,163.459714 C218.861941,161.573774 217.929574,160.374636 217.625836,159.476772 C217.325482,158.580609 214.037664,156.820625 213.510564,156.795945 C212.982618,156.771264 212.335376,158.132103 213.926829,159.661451 C215.518282,161.194203 216.492952,162.812061 216.115606,163.051207 C215.738259,163.292907 214.788126,162.507383 213.611246,161.502285 C212.434366,160.494635 211.526535,159.109115 211.001127,158.217208 C210.476566,157.322748 207.555941,151.897265 206.112549,150.476002 C204.67085,149.057291 204.422953,148.738996 203.703795,149.191758 C202.983792,149.645371 204.087064,152.114285 205.035506,153.484485 C205.778353,154.561071 208.034815,158.010402 207.729384,158.302314 C207.284353,158.7338 203.218999,152.92449 202.341627,151.796841 C201.465101,150.669191 199.92272,148.846229 199.025042,150.146643 C198.268658,151.245356 202.508302,156.152546 203.170773,157.220622 C203.170773,157.220622 204.822297,159.442729 204.929747,160.114213 C205.038044,160.786547 204.232587,160.134638 203.886546,159.836768 C203.543889,159.53975 201.195205,156.616372 200.43459,155.396808 C199.676514,154.178096 198.739917,152.756832 197.936999,153.103212 C197.136619,153.451294 197.122236,154.597667 199.080036,157.25977 C201.037837,159.922725 202.40762,162.023132 203.06586,162.810359 C203.725793,163.599288 202.88734,163.973752 202.08273,163.301418 C201.27812,162.627381 198.577472,159.301454 197.875236,159.341454 C197.173,159.383155 196.490224,160.317615 197.541886,161.818027 C198.59524,163.317588 201.321269,166.170328 202.444001,167.104788" id="Fill-164" fill="#FDB48C" mask="url(#mask-6)"></path>
                        <path d="M229,141 L218.046043,150 L215,148.155425 C220.808256,146.429986 228.733268,141.176677 229,141" id="Fill-165" fill="#DBDBDB" mask="url(#mask-6)"></path>
                        <path d="M128,39 C128,39 132.774659,42.2872765 136,40.4329596" id="Fill-166" fill="#EB8E78" mask="url(#mask-6)"></path>
                    </g>
                </g>
            </g>
        </g>
    </g>
</svg>