<svg xmlns="http://www.w3.org/2000/svg" xmlns:xlink="http://www.w3.org/1999/xlink" width="298" height="298" viewBox="0 0 298 298">
  <defs>
    <linearGradient id="linear-gradient" x1="-1.171" y1="2.396" x2="-1.171" y2="1.808" gradientUnits="objectBoundingBox">
      <stop offset="0.011" stop-color="#fff" stop-opacity="0"/>
      <stop offset="1" stop-color="#293180"/>
    </linearGradient>
    <linearGradient id="linear-gradient-2" x1="-1.663" y1="0.855" x2="-0.2" y2="2.06" xlink:href="#linear-gradient"/>
  </defs>
  <g id="Group_529" data-name="Group 529" transform="translate(-571 -412)">
    <circle id="Oval" cx="149" cy="149" r="149" transform="translate(571 412)" fill="#e02020" opacity="0.14"/>
    <g id="Oval-2" data-name="Oval" transform="translate(571 412)" fill="none" stroke="#fa6400" stroke-miterlimit="10" stroke-width="16" opacity="0.075">
      <circle cx="149" cy="149" r="149" stroke="none"/>
      <circle cx="149" cy="149" r="141" fill="none"/>
    </g>
    <g id="Group_53" data-name="Group 53" transform="translate(-2189.806 -729.205)">
      <path id="Path_56" data-name="Path 56" d="M2946.033,1515.988h0a22.835,22.835,0,0,1-22.817-22.852l.122-160.339,45.67.035-.122,160.339A22.835,22.835,0,0,1,2946.033,1515.988Z" transform="translate(-35.951 -122.642)" fill="#00d1d0" opacity="0.8"/>
      <path id="Path_57" data-name="Path 57" d="M2923.9,1353.226a46.389,46.389,0,0,0,13.141,2.986,91.647,91.647,0,0,0,13.363.426,70.912,70.912,0,0,0,13.615-1.692c1.113-.264,2.218-.559,3.3-.918q.717-.237,1.421-.512c.173-.068.736-.2.827-.359.117-.209,0-.823,0-1.055l.01-13.2q0-2.7,0-5.4c0-.107.08-.684,0-.763-.051-.049-.4,0-.461,0l-8.4-.006-14.323-.011-14.186-.011-7.981-.006c-.062,0-.281-.031-.321.01-.113.118,0,.9,0,1.058l0,5.739q0,6.444-.01,12.889Z" transform="translate(-36.531 -122.552)" fill="url(#linear-gradient)" style="mix-blend-mode: multiply;isolation: isolate"/>
      <path id="Path_58" data-name="Path 58" d="M2937.429,1265.123l-.014,18.73c0,1.091-.795,2.126-2.228,3.067-.248.168-.516.327-.8.485-.372.2-.783.406-1.22.6-.258.114-.526.228-.8.337a32.843,32.843,0,0,1-4.547,1.409c-.263.064-.531.129-.8.188-.4.089-.8.173-1.219.257-.263.049-.531.1-.8.153-1.577.291-3.272.538-5.057.735-.263.03-.531.059-.8.084-.4.039-.808.074-1.22.108-.268.025-.536.044-.8.064-1.666.123-3.4.206-5.181.234-.268.01-.536.009-.8.014-.332,0-.674,0-1.011,0h-.208c-.268,0-.541,0-.8-.006-1.775-.016-3.51-.087-5.186-.2-.268-.015-.535-.035-.8-.055-.411-.03-.818-.065-1.219-.1l-.8-.075c-1.775-.18-3.47-.409-5.056-.683-.272-.045-.54-.095-.8-.145-.411-.075-.823-.159-1.219-.239-.272-.06-.54-.114-.8-.174a36.924,36.924,0,0,1-4.545-1.3c-.277-.094-.545-.2-.8-.3-.431-.174-.838-.348-1.219-.531-.282-.134-.55-.273-.8-.412-1.938-1.062-3.027-2.273-3.027-3.552l.014-18.73Z" transform="translate(0 -62.398)" fill="#b0bbe1"/>
      <g id="Group_44" data-name="Group 44" transform="translate(2886.635 1211.63)" opacity="0.5" style="mix-blend-mode: multiply;isolation: isolate">
        <path id="Path_59" data-name="Path 59" d="M2919.541,1347.177l-.01,13.569c-.277-.094-.545-.2-.8-.3-.431-.174-.838-.348-1.219-.531l.01-12.736a1.015,1.015,0,0,1,1.012-1.01,1.016,1.016,0,0,1,1.01,1.012Z" transform="translate(-2917.508 -1346.165)" fill="#b0bbe1"/>
        <path id="Path_60" data-name="Path 60" d="M2986.333,1366.232l-.01,13.326c-.272-.045-.54-.095-.8-.145-.411-.075-.823-.159-1.219-.239l.01-12.944a1.012,1.012,0,0,1,1.012-1.01,1.016,1.016,0,0,1,1.01,1.012Z" transform="translate(-2976.929 -1363.117)" fill="#b0bbe1"/>
        <path id="Path_61" data-name="Path 61" d="M3057.76,1376.935l-.01,13.058c-.268-.015-.535-.035-.8-.055-.411-.03-.818-.065-1.219-.1l.01-12.9a1.016,1.016,0,0,1,1.012-1.011,1.015,1.015,0,0,1,1.011,1.012Z" transform="translate(-3040.476 -1372.639)" fill="#b0bbe1"/>
        <path id="Path_62" data-name="Path 62" d="M3341.189,1347.5l-.009,11.844c-.248.168-.516.327-.8.485-.372.2-.783.406-1.22.6l.01-12.93a1.011,1.011,0,0,1,2.023,0Z" transform="translate(-3292.629 -1346.452)" fill="#b0bbe1"/>
        <path id="Path_63" data-name="Path 63" d="M3274.365,1366.452l-.01,12.583c-.263.064-.531.129-.8.188-.4.089-.8.173-1.219.257l.01-13.029a1.011,1.011,0,0,1,2.023,0Z" transform="translate(-3233.179 -1363.313)" fill="#b0bbe1"/>
        <path id="Path_64" data-name="Path 64" d="M3202.922,1377.046l-.01,12.746c-.263.03-.531.059-.8.084-.4.039-.808.074-1.22.108l.01-12.939a1.011,1.011,0,0,1,2.023,0Z" transform="translate(-3169.62 -1372.738)" fill="#b0bbe1"/>
        <path id="Path_65" data-name="Path 65" d="M3130.362,1381.483l-.01,12.746c-.268.01-.535.009-.8.014-.332,0-.674,0-1.011,0h-.208l.01-12.766a1.011,1.011,0,0,1,2.023,0Z" transform="translate(-3105.066 -1376.685)" fill="#b0bbe1"/>
      </g>
      <g id="Group_45" data-name="Group 45" transform="translate(2882.822 1194.944)">
        <ellipse id="Ellipse_1" data-name="Ellipse 1" cx="27.303" cy="7.758" rx="27.303" ry="7.758" transform="translate(0 0)" fill="#cacfeb"/>
        <path id="Path_66" data-name="Path 66" d="M2954.878,1225.692c10.806.008,19.768,1.728,21.488,3.976a1.3,1.3,0,0,0,.3-.786c0-2.621-9.754-4.753-21.79-4.762s-21.8,2.108-21.8,4.729a1.3,1.3,0,0,0,.3.786C2935.107,1227.39,2944.073,1225.684,2954.878,1225.692Z" transform="translate(-2927.55 -1220.9)" fill="#b0bbe1" opacity="0.5" style="mix-blend-mode: multiply;isolation: isolate"/>
        <path id="Path_67" data-name="Path 67" d="M3115.779,1262.651c0,.522-.926.945-2.068.944s-2.067-.425-2.066-.948.926-.945,2.068-.944S3115.78,1262.128,3115.779,1262.651Z" transform="translate(-3086.409 -1254.336)" fill="#b0bbe1"/>
        <ellipse id="Ellipse_2" data-name="Ellipse 2" cx="22.13" cy="4.746" rx="22.13" ry="4.746" transform="translate(5.174 2.94)" fill="none" stroke="#b0bbe1" stroke-miterlimit="10" stroke-width="2.152"/>
      </g>
      <g id="Group_46" data-name="Group 46" transform="translate(2885.832 1211.208)">
        <path id="Path_68" data-name="Path 68" d="M2912.265,1343.352l-.01,13.688a17.193,17.193,0,0,1-2.022-.943l.01-12.746a1.016,1.016,0,0,1,1.012-1.011,1.016,1.016,0,0,1,1.011,1.012Z" transform="translate(-2910.233 -1342.34)" fill="#cacfeb"/>
        <path id="Path_69" data-name="Path 69" d="M2979.056,1362.408l-.01,13.6c-.694-.129-1.373-.269-2.022-.413l.01-13.192a1.012,1.012,0,0,1,1.012-1.011,1.016,1.016,0,0,1,1.01,1.012Z" transform="translate(-2969.653 -1359.293)" fill="#cacfeb"/>
        <path id="Path_70" data-name="Path 70" d="M3050.483,1373.11l-.01,13.425c-.684-.05-1.358-.11-2.022-.175l.01-13.252a1.015,1.015,0,0,1,1.012-1.011,1.016,1.016,0,0,1,1.01,1.012Z" transform="translate(-3033.198 -1368.814)" fill="#cacfeb"/>
        <path id="Path_71" data-name="Path 71" d="M3333.908,1343.674l-.01,12.751a18.072,18.072,0,0,1-2.023.935l.01-13.688a1.011,1.011,0,1,1,2.023,0Z" transform="translate(-3285.348 -1342.626)" fill="#cacfeb"/>
        <path id="Path_72" data-name="Path 72" d="M3267.086,1362.628l-.01,13.192c-.649.143-1.324.282-2.023.41l.01-13.6a1.011,1.011,0,0,1,2.023,0Z" transform="translate(-3225.9 -1359.489)" fill="#cacfeb"/>
        <path id="Path_73" data-name="Path 73" d="M3195.644,1373.221l-.01,13.252c-.665.064-1.339.123-2.023.172l.01-13.425a1.011,1.011,0,0,1,2.023,0Z" transform="translate(-3162.341 -1368.913)" fill="#cacfeb"/>
        <path id="Path_74" data-name="Path 74" d="M3123.083,1377.659l-.01,13.182c-.332,0-.674,0-1.011,0s-.679,0-1.011-.006l.01-13.182a1.011,1.011,0,0,1,2.023,0Z" transform="translate(-3097.787 -1372.861)" fill="#cacfeb"/>
      </g>
      <g id="Group_49" data-name="Group 49" transform="translate(2893.343 1241.827)">
        <path id="Path_75" data-name="Path 75" d="M3004.842,1821.714c-9.84-.008-9.331-22.492-18.826-23.436a6.685,6.685,0,0,0-4.253.953,7.307,7.307,0,0,0-3.385,6.254l-.078,102.04a16.756,16.756,0,0,0,16.743,16.769h0a16.756,16.756,0,0,0,16.769-16.743l.072-93.589C3011.643,1816.913,3010.272,1821.718,3004.842,1821.714Z" transform="translate(-2978.3 -1778.552)" fill="#c52e25"/>
        <g id="Group_47" data-name="Group 47" transform="translate(6.39 19.691)" style="mix-blend-mode: soft-light;isolation: isolate">
          <path id="Path_76" data-name="Path 76" d="M3036.366,1798.29c9.5.944,8.986,23.428,18.826,23.436.219,0,.428-.01.633-.025-9.285-.815-8.969-22.483-18.288-23.41a7.2,7.2,0,0,0-1.325-.01C3036.265,1798.285,3036.314,1798.285,3036.366,1798.29Z" transform="translate(-3036.213 -1798.255)" fill="#fdfdfd" opacity="0.9"/>
        </g>
        <path id="Path_77" data-name="Path 77" d="M3164.586,1895.964c5.431,0,6.8-4.8,7.042-7.751,0-2.973-1.844-7.581-6.28-6.289-3.128.91-4.405,6.462-7.491,8.944C3159.518,1893.836,3161.563,1895.962,3164.586,1895.964Z" transform="translate(-3138.044 -1852.802)" fill="#f70545" opacity="0.9"/>
        <path id="Path_78" data-name="Path 78" d="M3164.586,1895.964c5.431,0,6.8-4.8,7.042-7.751,0-2.973-1.844-7.581-6.28-6.289-3.128.91-4.405,6.462-7.491,8.944C3159.518,1893.836,3161.563,1895.962,3164.586,1895.964Z" transform="translate(-3138.044 -1852.802)" fill="#a5100e"/>
        <g id="Group_48" data-name="Group 48" transform="translate(0.569 0)">
          <path id="Path_79" data-name="Path 79" d="M2994.2,1629.676a5.371,5.371,0,1,1-10.743-.008c0-2.967,2.413-9.857,5.379-9.855S2994.206,1626.709,2994.2,1629.676Z" transform="translate(-2983.461 -1619.813)" fill="#c52e25"/>
          <path id="Path_80" data-name="Path 80" d="M3045.745,1687.956c0,1.332-.7,2.411-1.556,2.41s-1.553-1.081-1.552-2.412.7-2.411,1.556-2.41S3045.746,1686.625,3045.745,1687.956Z" transform="translate(-3036.107 -1678.291)" fill="#fdfdfd" style="mix-blend-mode: soft-light;isolation: isolate"/>
        </g>
      </g>
      <path id="Path_81" data-name="Path 81" d="M3243.777,1886.044h0a3.427,3.427,0,0,1-3.424-3.429l.08-105.125a3.427,3.427,0,0,1,3.429-3.424h0a3.427,3.427,0,0,1,3.424,3.429l-.08,105.124A3.427,3.427,0,0,1,3243.777,1886.044Z" transform="translate(-318.093 -515.219)" fill="#fdfdfd" style="mix-blend-mode: soft-light;isolation: isolate"/>
      <path id="Path_82" data-name="Path 82" d="M3244.592,1598.862h0a3.426,3.426,0,0,1-3.424-3.429l.006-8.494a3.427,3.427,0,0,1,3.429-3.424h0a3.426,3.426,0,0,1,3.424,3.429l-.007,8.494A3.426,3.426,0,0,1,3244.592,1598.862Z" transform="translate(-318.818 -345.694)" fill="#fdfdfd" style="mix-blend-mode: soft-light;isolation: isolate"/>
      <path id="Path_83" data-name="Path 83" d="M2965.813,2201.621c-7.911-.006-14.972-1.038-19.625-2.653a1.136,1.136,0,0,0-1.509,1.075l-.026,33.827-.005,7.221a1.142,1.142,0,0,0,.735,1.068c4.623,1.776,12.035,2.928,20.4,2.935,8.475.006,15.981-1.169,20.595-2.982a1.143,1.143,0,0,0,.728-1.064l.005-7.063.026-33.977a1.136,1.136,0,0,0-1.515-1.075C2980.963,2200.578,2973.821,2201.627,2965.813,2201.621Z" transform="translate(-55.018 -893.143)" fill="url(#linear-gradient-2)" style="mix-blend-mode: multiply;isolation: isolate"/>
      <path id="Path_84" data-name="Path 84" d="M2959.1,2194.113a68.249,68.249,0,0,1-18.1-2.169,2.368,2.368,0,0,0-3.036,2.269l-.025,32.149,0,6.359a2.363,2.363,0,0,0,1.59,2.241c4.654,1.6,11.678,2.618,19.542,2.624,7.974.006,15.091-1.034,19.747-2.667a2.363,2.363,0,0,0,1.576-2.232l0-6.209.025-32.289a2.369,2.369,0,0,0-3.046-2.27A67.741,67.741,0,0,1,2959.1,2194.113Z" transform="translate(-49.048 -886.874)" fill="#fdfdfd"/>
      <path id="Path_85" data-name="Path 85" d="M2973.2,2213.065c-7.122-.005-13.493-.892-17.764-2.285a1.239,1.239,0,0,0-1.632,1.172l-.023,29.882,0,6.28a1.235,1.235,0,0,0,.809,1.164c4.25,1.556,10.991,2.563,18.584,2.569,7.7.006,14.522-1.021,18.767-2.609a1.236,1.236,0,0,0,.8-1.16l0-6.141.023-30.014a1.239,1.239,0,0,0-1.638-1.172C2986.85,2212.171,2980.406,2213.071,2973.2,2213.065Z" transform="translate(-63.138 -903.659)" fill="none" stroke="#cacfeb" stroke-miterlimit="10" stroke-width="3"/>
      <g id="Group_52" data-name="Group 52" transform="translate(2892.864 1325.577)">
        <g id="Group_51" data-name="Group 51" transform="translate(0)">
          <g id="Group_50" data-name="Group 50">
            <path id="Path_86" data-name="Path 86" d="M2978.534,2382.99c-.218,1-1.11,1.46-2.312,1.2l-.768-.168-.251,1.152-1.247-.272.962-4.407,2.015.44C2978.134,2381.194,2978.753,2381.982,2978.534,2382.99Zm-1.259-.275c.089-.409-.117-.7-.633-.817l-.693-.151-.281,1.291.693.151C2976.876,2383.3,2977.187,2383.118,2977.275,2382.715Z" transform="translate(-2973.955 -2380.304)" fill="#293180"/>
            <path id="Path_87" data-name="Path 87" d="M3018.648,2394.391l.542-.876a2.85,2.85,0,0,0,1.416.64c.524.071.748-.049.778-.266.1-.709-2.517-.535-2.292-2.2.108-.8.848-1.362,2.176-1.182a3.378,3.378,0,0,1,1.57.609l-.516.886a2.668,2.668,0,0,0-1.193-.512c-.53-.072-.746.081-.776.3-.093.684,2.512.515,2.29,2.163-.105.779-.847,1.356-2.175,1.176A3.554,3.554,0,0,1,3018.648,2394.391Z" transform="translate(-3013.716 -2389.188)" fill="#293180"/>
            <path id="Path_88" data-name="Path 88" d="M3061.814,2399.111l-1.9-.123-.41.852-1.3-.084,2.28-4.373,1.254.081,1.7,4.632-1.325-.086Zm-.312-.963-.485-1.478-.672,1.4Z" transform="translate(-3048.905 -2393.551)" fill="#293180"/>
            <path id="Path_89" data-name="Path 89" d="M3130.482,2397.634l-1.385.033-.024-1.011,4.041-.1.024,1.012-1.379.033.084,3.5-1.276.031Z" transform="translate(-3111.955 -2394.597)" fill="#293180"/>
            <path id="Path_90" data-name="Path 90" d="M3175.888,2396.957l.083.982-3.609.3-.38-4.5,3.526-.3.083.983-2.267.191.064.758,2-.169.08.95-2,.169.069.822Z" transform="translate(-3150.13 -2391.833)" fill="#293180"/>
            <path id="Path_91" data-name="Path 91" d="M3212.875,2393.256l.272-.993a2.846,2.846,0,0,0,1.539.215c.522-.08.7-.257.671-.474-.108-.707-2.564.2-2.817-1.461-.122-.8.429-1.545,1.754-1.747a3.379,3.379,0,0,1,1.677.142l-.246,1a2.666,2.666,0,0,0-1.288-.156c-.529.081-.692.288-.659.511.1.682,2.555-.214,2.806,1.43.118.777-.43,1.539-1.755,1.741A3.551,3.551,0,0,1,3212.875,2393.256Z" transform="translate(-3186.198 -2387.652)" fill="#293180"/>
            <path id="Path_92" data-name="Path 92" d="M3249.221,2380.373l-1.35.312-.228-.986,3.938-.91.228.986-1.344.311.788,3.41-1.243.287Z" transform="translate(-3217.443 -2378.789)" fill="#293180"/>
          </g>
        </g>
      </g>
    </g>
  </g>
</svg>
