<?xml version="1.0" encoding="UTF-8"?>
<svg width="298px" height="340px" viewBox="0 0 298 340" version="1.1" xmlns="http://www.w3.org/2000/svg" xmlns:xlink="http://www.w3.org/1999/xlink">
    <!-- Generator: Sketch 61.1 (89650) - https://sketch.com -->
    <title>Group 5</title>
    <desc>Created with Sketch.</desc>
    <defs>
        <path d="M132.5,349 C205.677729,349 265,289.677729 265,216.5 C265,143.322271 195.177729,0 122,0 C48.8222707,0 0,143.322271 0,216.5 C0,289.677729 59.3222707,349 132.5,349 Z" id="path-1"></path>
        <polygon id="path-3" points="0.142865262 0.279024814 47.7651544 0.279024814 47.7651544 18.8929947 0.142865262 18.8929947"></polygon>
        <polygon id="path-5" points="0 0.139842263 53.745878 0.139842263 53.745878 106.908367 0 106.908367"></polygon>
        <polygon id="path-7" points="0.156749697 0.20011332 118.829105 0.20011332 118.829105 16 0.156749697 16"></polygon>
        <polygon id="path-9" points="0.175310495 0.186462115 137.73373 0.186462115 137.73373 236 0.175310495 236"></polygon>
        <polygon id="path-11" points="0.226970513 0.206833846 48.7369705 0.206833846 48.7369705 21 0.226970513 21"></polygon>
        <polygon id="path-13" points="0.113168153 0.0942786742 48.9883274 0.0942786742 48.9883274 57.3763441 0.113168153 57.3763441"></polygon>
    </defs>
    <g id="Page-1" stroke="none" stroke-width="1" fill="none" fill-rule="evenodd">
        <g id="Slide_7-Copy-5" transform="translate(-571.000000, -379.000000)">
            <g id="Group-5" transform="translate(571.000000, 352.000000)">
                <g id="Group-4" transform="translate(0.000000, 69.000000)">
                    <g id="Group-3">
                        <g id="Group-2">
                            <g id="Group">
                                <circle id="Oval" fill="#FEDBDB" cx="149" cy="149" r="149"></circle>
                                <circle id="Oval" stroke="#D32919" stroke-width="16" cx="149" cy="149" r="141"></circle>
                            </g>
                        </g>
                    </g>
                </g>
                <g id="Group-121" transform="translate(16.000000, 0.000000)">
                    <mask id="mask-2" fill="white">
                        <use xlink:href="#path-1"></use>
                    </mask>
                    <g id="Mask"></g>
                    <g mask="url(#mask-2)">
                        <g transform="translate(44.000000, 27.000000)">
                            <g id="Group-3" stroke-width="1" fill="none" transform="translate(121.000000, 204.000000)">
                                <mask id="mask-4" fill="white">
                                    <use xlink:href="#path-3"></use>
                                </mask>
                                <g id="Clip-2"></g>
                                <path d="M26.091447,14.9485559 C23.1135141,14.7804542 18.6082792,13.4620475 12.5654336,15.1140814 C6.84988993,16.6762678 3.70572886,17.7647424 3.70572886,17.7647424 C0.894668456,18.7382508 0.393406711,19.0412847 0.224279195,18.8284203 C-0.78726443,17.5573525 7.68038658,3.34052203 22.6625074,0.696301695 C36.247796,-1.70156271 46.397702,6.96469153 47.7652188,8.17167458 C38.3588295,14.1962847 31.1224268,15.2322678 26.091447,14.9485559" id="Fill-1" fill="#2C4F6E" mask="url(#mask-4)"></path>
                            </g>
                            <path d="M134.293199,211.102887 C129.342109,197.734147 127.677609,185.176483 126.577508,165.338042 C125.464015,145.25467 126.183704,140.3466 126.874376,136.882265 C128.859978,126.918912 132.546431,119.146382 135.480351,114 C137.041537,115.854791 139.280959,118.64864 141.712022,122.214162 C151.644815,136.780762 154.068225,148.514739 161.891375,188.807258 C165.980879,209.871613 167.932999,220.481494 163.375075,224.304242 C158.501789,228.391148 148.823136,227.617268 142.602307,223.42413 C138.189787,220.449657 136.182502,216.204191 134.293199,211.102887" id="Fill-4" fill="#DE8E7F"></path>
                            <path d="M168,213.511995 C165.537217,211.443182 159.451428,206.942551 151.09454,206.898043 C147.391192,206.878157 144.686116,207.734848 141.950991,208.614899 C133.235408,211.420139 127.100592,216.794823 123.334298,220.952967 C123.006918,221.313447 122.695354,221.663194 122.409727,222 C121.748008,206.03851 121.191304,192.345328 120.787061,182.113952 C120.610876,177.633523 120.466007,173.809975 120.349921,170.763889 C120.349921,170.698232 120.349605,170.63226 120.345493,170.573548 C120.343279,170.543876 120.342962,170.477904 120.337585,170.371528 C120.334106,170.228535 120.330626,170.085543 120.323035,169.949495 C120.319556,169.806503 120.30975,169.641414 120.305005,169.450758 C120.299628,169.278093 120.293935,169.105745 120.291088,168.94476 C120.269895,168.302399 120.245856,167.499053 120.20695,166.555871 C120.203786,166.413194 120.203154,166.28125 120.195562,166.145202 C120.198093,166.024621 120.190818,165.888573 120.183226,165.752841 C120.181328,165.573232 120.176584,165.38226 120.168992,165.180871 C120.158238,164.751578 120.145586,164.293245 120.12977,163.823548 C120.121862,163.555871 120.120913,163.291982 120.116169,163.035669 C120.113322,162.460543 120.094343,160.503788 119.685356,157.940657 C119.521824,156.914773 119.393086,156.130366 119.193811,155.270518 C118.790517,153.530303 118.319216,152.214015 118.154103,151.768939 C118.122472,151.684659 118.099065,151.623106 118.097167,151.617424 C117.671732,150.489583 118.580171,138.468434 122.080765,106 C127.944188,108.725379 132.120102,111.686869 134.88496,113.931187 C140.249564,118.285354 142.737652,121.916982 146.365085,124.505997 C146.932544,124.911301 148.887335,126.374053 150.9386,128.818813 C151.181525,129.10827 151.408951,129.41572 151.663264,129.793561 C154.271549,133.668245 154.238337,136.799242 155.195805,143.893624 C155.972976,149.65404 155.508002,143.983902 158.728029,163.280934 C159.853457,170.026831 160.63221,175.046086 160.728685,175.666667 C161.926864,183.375947 164.031585,195.300505 168,213.511995" id="Fill-6" fill="#66B8FF"></path>
                            <path d="M55.0446902,46.9080292 C55.8420946,36.6527304 67.5383056,29.4578255 76.2983891,27.5862818 C88.5404085,24.9708747 102.014206,31.264396 111,43.301227 C88.4337092,59.7448223 67.6993017,66.3717667 59.3802213,59.0190246 C56.0734871,56.0961836 54.7293272,50.9652063 55.0446902,46.9080292" id="Fill-8" fill="#3B6A94"></path>
                            <path d="M36.4335283,206.847597 C34.6690308,205.521243 32.5707775,204.733385 30.5188092,203.923431 C27.1003314,202.574982 23.6953928,201.11069 20.0895709,200.406479 C16.4837491,199.702268 12.5923457,199.817164 9.33413361,201.517561 C7.92448776,202.253337 6.71257645,203.235634 5.66628358,204.082518 C3.54882359,205.796488 2.0119727,207.471002 1,208.689088 C3.65808138,210.88821 7.64677776,213.584792 12.9897039,215.30476 C26.0848952,219.520242 37.58656,214.738802 41,213.163402 C40.6155511,211.103482 39.8148521,210.000291 39.3299617,209.463374 C38.8000457,208.875952 37.6879462,207.907543 37.5531845,207.784756 C37.1929801,207.457113 36.823015,207.140518 36.4335283,206.847597" id="Fill-10" fill="#2C4F6E"></path>
                            <path d="M21.915041,111.003821 C15.9104671,111.197408 11.6760832,118.722381 8.89878784,123.802928 C-1.4626601,142.75519 5.80135518,151.02645 2.20212883,191.13925 C2.20212883,191.13925 0.219899858,213.235247 8.67043813,223.290089 C9.00880506,223.692712 9.64012484,224.437422 10.6609824,225.086914 C15.456646,228.137324 23.1795995,227.390407 27.9483985,223.907108 C31.6170252,221.227477 32.9647362,217.346285 34.1106424,214.046483 C36.1961724,208.040566 36.1418035,202.671216 35.9719804,200.071983 C35.9275257,199.396006 35.8766747,198.903842 35.8619631,198.75408 C34.7256515,187.305667 46.8403391,154.448898 39.7730116,131.543242 C36.7344253,121.693968 29.2913122,110.765779 21.915041,111.003821" id="Fill-12" fill="#CF897D"></path>
                            <g id="Group-16" stroke-width="1" fill="none" transform="translate(0.000000, 106.000000)">
                                <mask id="mask-6" fill="white">
                                    <use xlink:href="#path-5"></use>
                                </mask>
                                <g id="Clip-15"></g>
                                <path d="M53.5367822,14.4184564 C54.8752793,20.4428421 49.4941314,23.5274267 45.7489598,39.2141982 C43.4365456,48.899762 45.380226,53.2172279 46.3448769,65.8600558 C46.9641195,73.999676 47.6223444,78.172676 46.7500367,84.0173525 C46.4180485,86.2481596 46.1611491,86.9225454 44.0260722,96.7595602 C44.0091373,96.8424297 43.9915633,96.9252991 43.9743089,97.0081685 C43.0726047,101.156403 42.3447231,104.586436 41.8590426,106.908367 C40.8832083,105.676756 39.5431136,104.196219 37.8243799,102.807124 C36.2909716,101.567575 34.4706284,100.40772 32.3246876,99.5644208 C29.7812556,98.5601448 26.9604746,98.0807086 25.2474923,97.8444831 C25.1116935,97.8260677 24.9758947,97.8079697 24.8397763,97.7895543 C24.5867112,97.756216 24.3697527,97.7285929 24.1920959,97.7146226 C24.1109361,97.7050973 24.0300959,97.6955721 23.9492556,97.6863644 C22.951374,97.5730142 21.9157882,97.5060202 20.8402615,97.4774445 C11.209729,97.2370914 4.07885325,100.737293 1.01523195,102.470249 C0.907231953,83.030222 0.517728994,67.8320944 0.181267456,57.5324712 C-0.021312426,51.3220261 -0.23507574,45.9644059 0.627326627,38.4747234 C0.627326627,38.4747234 2.24956331,24.3850142 11.3321077,7.00688071 C12.6932911,4.40268487 13.8215396,2.54050386 16.010297,1.3568362 C16.010297,1.3568362 20.0797882,-1.17242789 32.0681077,1.0615543 C32.0923917,1.06599941 32.3224509,1.11076795 32.5483562,1.15648902 C35.9522734,1.84706766 51.5269598,5.37298754 53.5367822,14.4184564" id="Fill-14" fill="#66B8FF" mask="url(#mask-6)"></path>
                            </g>
                            <path d="M63.4839583,62 C64.3700917,68.9036634 64.772072,77.6375321 63.4839583,87.5706107 C63.238709,89.4613661 62.9468212,91.2839231 62.6190819,93.0350947 C61.7675309,97.5894155 58.1788967,101.125221 53.6257637,101.870305 C42.7504033,103.651433 31.8753603,105.432561 21,107.21337 C22.5397084,110.353369 43.2386809,151.034089 80.9658192,152.930262 C106.619271,154.219978 136.034268,137.369533 134.97205,123.228862 C134.212824,113.121782 118.018443,106.192624 108.667245,102.944272 C106.361013,102.143736 104.397116,100.552544 103.181022,98.4275559 C101.986186,96.3398534 100.840843,93.8107728 100.037834,90.8489187 C96.7303009,78.6464873 101.726342,68.2659756 103.301267,65.2783079 C101.697471,66.5061995 92.6898751,73.1549152 80.4553327,71.179071 C71.0552751,69.6611765 65.2889039,63.9462065 63.4839583,62" id="Fill-17" fill="#E6998B"></path>
                            <path d="M106.196255,37.7495919 C107.583255,42.4173715 109.817551,52.5150877 105.361539,61.8676047 C103.61631,65.5311083 101.115936,68.635948 100.560192,69.3048373 C98.6309728,71.6274219 95.6821041,75.1778738 91.0207151,77.3148652 C89.7632944,77.8911149 86.8996586,79.0439283 78.5848931,78.9987076 C68.6720898,78.944066 63.7156882,78.9170592 60.6690062,76.8937476 C59.0810328,75.8395403 57.492745,74.2477094 51.605701,49.7453208 C50.367151,44.5914188 49.2327046,39.6472905 49.0298441,32.9640501 C48.7559038,23.9277638 50.4442066,20.5939944 50.9732165,19.6506407 C52.869412,16.2691383 55.725185,13.9760728 59.4043516,11.0222827 C62.6026287,8.45412464 64.2019245,7.17035963 66.7815555,6.1817852 C68.3399647,5.58449532 68.2009502,5.87560348 78.2379858,4.78308429 C81.2953613,4.45052383 84.370035,4.29978821 87.4371603,4.07713915 C89.9334456,3.89594237 91.1914954,4.06175155 92.2853697,4.28754095 C97.3597135,5.33578155 100.333743,10.4856011 101.980845,13.3370165 C107.367499,22.6644109 106.76395,33.0438143 106.196255,37.7495919" id="Fill-19" fill="#36272C"></path>
                            <g id="Group-23" stroke-width="1" fill="none" transform="translate(26.000000, 321.000000)">
                                <mask id="mask-8" fill="white">
                                    <use xlink:href="#path-7"></use>
                                </mask>
                                <g id="Clip-22"></g>
                                <path d="M118.829105,16.0000627 L0.172740909,16.0000627 C0.147286364,12.4389647 0.150468182,9.22986667 0.195013636,6.31535686 C2.27592273,5.98280784 4.36001364,5.66280784 6.44728636,5.36476863 C26.3591045,2.49418039 46.5604682,1.09810196 66.8572864,0.527121569 C74.7704682,0.3072 82.6995591,0.210258824 90.62865,0.200847059 C96.0250136,0.194572549 101.424559,0.228768627 106.817741,0.29465098 C109.993195,0.32947451 113.165468,0.376533333 116.334559,0.429866667 C117.174559,5.38014118 118.014559,10.575749 118.829105,16.0000627" id="Fill-21" fill="#5AA2E0" mask="url(#mask-8)"></path>
                            </g>
                            <path d="M92.10224,278 C92.10224,278 92.1184918,278.254247 92.1485876,278.73092 C92.1762759,279.207593 92.2286427,279.907007 92.2716798,280.797028 C92.3183284,281.687049 92.379724,282.76799 92.4299841,284.007403 C92.4853605,285.247446 92.5485618,286.64596 92.5970162,288.171755 C92.6514897,289.697865 92.7107786,291.35094 92.7499033,293.099477 C92.7941442,294.847698 92.8492197,296.691379 92.8732964,298.599017 C92.8991788,300.506339 92.9497399,302.476986 92.9575648,304.480084 C92.9717099,306.482867 92.9858549,308.51747 93,310.552073 C92.9951847,312.586676 92.9903693,314.621279 92.985554,316.624377 C92.9894664,318.62716 92.9452255,320.598438 92.9283718,322.506075 C92.912421,324.413397 92.8675781,326.257394 92.8299583,328.006245 L92.8230362,328.332954 L92.8191238,328.499301 C92.8170171,328.566722 92.8143084,328.630362 92.8085902,328.700304 C92.79595,328.839872 92.7769896,328.993617 92.7192055,329.1691 C92.6647319,329.340804 92.5587944,329.542437 92.3929662,329.696182 C92.2987661,329.780616 92.2530203,329.813381 92.1227052,329.882062 C92.0270003,329.92932 91.9324992,329.956414 91.8434155,329.974687 C91.6652479,330.009028 91.5147685,330.002412 91.3844533,329.98981 C91.1178039,329.95862 90.9537813,329.912307 90.7539447,329.874501 C89.9822864,329.71666 89.2368116,329.56386 88.5211316,329.417361 C87.0888688,329.129089 85.7787953,328.846803 84.6176964,328.595392 C83.4559955,328.349651 82.4456769,328.118088 81.612924,327.930948 C80.7798702,327.747273 80.1282944,327.584076 79.6825745,327.480739 C79.2374565,327.375197 79,327.318803 79,327.318803 C79,327.318803 79.2425728,327.342747 79.6967195,327.388114 C80.1508663,327.435687 80.8186938,327.493656 81.6649899,327.591322 C82.5115869,327.685523 83.5405649,327.795791 84.7176147,327.94229 C85.8955673,328.083118 87.2243003,328.242849 88.6710091,328.437236 C89.394514,328.532066 90.1484157,328.630362 90.9288018,328.732439 C91.1175029,328.755123 91.3423191,328.791669 91.4738381,328.7986 C91.5418548,328.802065 91.5945226,328.795764 91.6137839,328.788203 C91.6231136,328.784422 91.6264242,328.782532 91.6213079,328.782532 C91.5815813,328.804901 91.6222108,328.780327 91.6020465,328.791984 C91.5863967,328.802065 91.5848919,328.812147 91.5924158,328.780957 C91.5996388,328.753232 91.6071628,328.691797 91.6092695,328.616815 L91.6095705,328.49426 L91.605959,328.335789 L91.5972312,328.009081 C91.5517864,326.260859 91.4988177,324.416863 91.47444,322.509225 C91.4491595,320.602218 91.3958898,318.631256 91.3910744,316.628158 C91.3775313,314.625375 91.3633862,312.590772 91.3498431,310.556169 C91.3546584,308.521566 91.3597747,306.486963 91.364891,304.48418 C91.3636872,302.481082 91.4058214,300.509804 91.4229761,298.602482 C91.4383249,296.694845 91.4855755,294.850848 91.5219915,293.102312 C91.5532912,291.353776 91.6050561,289.700385 91.6529086,288.174275 C91.6947418,286.648166 91.7513221,285.249337 91.8012812,284.008979 C91.8461241,282.769251 91.9027043,281.687994 91.9451395,280.797973 C91.9842642,279.907637 92.0339224,279.208223 92.0592029,278.73092 C92.087493,278.254247 92.10224,278 92.10224,278" id="Fill-24" fill="#4B444F"></path>
                            <path d="M106.276837,63.6639343 C106.415703,64.9567188 106.483251,65.8213158 106.462201,66.4107851 C106.373917,69.1108325 105.670474,70.9756931 104.428215,74.1927912 C103.725086,76.0111646 102.988025,77.6344188 102.213263,79.1305448 C102.192213,79.1732371 102.166765,79.2156131 102.146029,79.2579891 C102.061515,79.4148436 101.981714,79.5754929 101.897515,79.7282363 C101.808917,79.8936292 101.720633,80.0545948 101.632035,80.2114493 C101.543751,80.3768422 101.451068,80.5378078 101.36247,80.6990896 C101.236485,80.9191919 101.109871,81.1399266 100.983572,81.3518067 C100.718406,81.8011821 100.452926,82.2417028 100.179277,82.6784287 C100.010878,82.9456506 99.8424788,83.2084451 99.6696811,83.4668122 C99.0887667,84.3611357 98.4864882,85.2298439 97.8634739,86.0988683 C97.6526607,86.3869619 97.4421617,86.6794829 97.2316627,86.9678927 C96.5957672,87.8410282 95.9347375,88.7185911 95.2526579,89.6296753 C94.0060011,91.2956216 92.2164453,93.4953792 89.1507,94.9152917 C89.0705847,94.9494455 89.0033507,94.9788558 88.9486838,95.0044711 C87.7189926,95.5256328 86.506267,95.7969657 85.3818252,95.9199826 C82.8256761,96.1954267 80.7370232,95.6869146 79.9748283,95.4921114 C79.1032996,95.2672656 78.2484223,94.9576677 70.0326773,89.1423512 C66.3398335,86.5270557 65.5817229,85.9293643 64.6973129,84.7513745 C63.4930701,83.144881 62.8867073,81.4536356 62.4823607,79.864219 C62.242329,78.9186648 62.0739297,78.0116917 61.8885649,77.1765049 C61.5476822,75.6041652 60.8737712,73.7687148 59.5262634,70.0984465 C58.0229234,65.9993583 57.3574952,65.0032059 56.9911641,63.9014296 C56.8566961,63.4900029 56.7596152,63.0621317 56.6757298,62.4473633 C56.2836361,59.5398632 57.0417467,58.7938557 56.6081816,54.9408013 C56.3511843,52.6392148 55.8249368,51.2234134 55.5933879,50.0239194 C53.8415334,41.0550688 56.4312996,32.8619522 57.4124763,30.1362894 C58.7640685,26.3850639 59.5177806,24.5496135 61.4675669,23.33747 C62.2467274,22.8498296 64.3184147,21.7822072 70.9255702,22.8839834 C76.91788,23.884247 77.3137438,25.1137837 80.8297056,25.6052189 C89.3655975,26.7920634 92.456477,20.3069529 97.9432751,22.4304969 C101.7753,23.9098623 103.552602,28.4621208 105.152395,32.8575249 C106.028322,35.2694787 107.927526,40.495326 106.462201,46.1329163 C105.948521,48.1211101 105.194809,49.4559544 105.038977,52.2745914 C104.954777,53.8007602 105.114694,54.4914259 105.649424,58.6240354 C105.927471,60.7858443 106.13797,62.4220642 106.276837,63.6639343" id="Fill-26" fill="#E6998B"></path>
                            <path d="M57.999046,25.3623223 C57.9872715,28.0667808 57.8886601,29.9350048 57.7149861,33.1570418 C57.6163747,34.9783859 57.5139365,36.6042919 57.4035505,38.103179 C57.3994295,38.1456242 57.3994295,38.1880695 57.3956027,38.2305147 C57.3835339,38.3876254 57.3717594,38.5491707 57.3599849,38.7018469 C57.3482104,38.86751 57.3364359,39.0287386 57.324367,39.1858493 C57.3087658,39.3515124 57.2966969,39.512741 57.2849224,39.6742863 C57.2693212,39.8947481 57.2495989,40.1155267 57.2337033,40.3277529 C57.1942587,40.7778625 57.1589352,41.2194196 57.1191963,41.6565422 C57.0956473,41.9242006 57.0720983,42.1874245 57.0482549,42.4465305 C56.9652447,43.342315 56.8825288,44.2127592 56.7956918,45.0828865 C56.764195,45.3717676 56.7365249,45.6647664 56.7050281,45.9533307 C56.6181912,46.8278926 56.5234064,47.7065724 56.428916,48.6194617 C56.2514154,50.287813 56.002679,52.4911643 55.5726153,53.9137132 C55.5608408,53.9476061 55.552893,53.9773811 55.5449452,54.0027215 C55.3715657,54.5247346 55.2020128,54.7968276 55.0439401,54.9197287 C54.6848178,55.1959395 54.3931045,54.6862799 54.2865452,54.4911585 C54.1640904,54.2659454 54.0419299,53.9561585 52.8897948,48.1313415 C52.3728941,45.5114567 52.2663348,44.9131056 52.1441744,43.7328746 C51.9743272,42.1237566 51.8874902,40.4297482 51.8324444,38.837735 C51.7968265,37.8909528 51.7732775,36.982498 51.7497285,36.1459467 C51.7020418,34.5707216 51.6075514,32.7325894 51.4182763,29.0560083 C51.2048634,24.9502234 51.1141997,23.9527603 51.063275,22.8488674 C51.0432583,22.4370853 51.0273627,22.0081983 51.0155882,21.3927424 C50.9761437,19.2486243 51.023536,18.2765017 51.0273627,16.3743849 C52.9292394,13.1054681 55.4345593,10.7152311 57.837441,9 C57.8215454,9.63667856 57.8056498,10.3541298 57.8018231,11.2033513 C57.7900486,12.7316966 57.8097709,13.4238074 57.884539,17.5631683 C57.9242779,19.7285089 57.9557747,21.3674019 57.975497,22.610984 C57.9952193,23.9058805 58.0028727,24.7722068 57.999046,25.3623223" id="Fill-28" fill="#36272C"></path>
                            <path d="M68.8953102,47.3297587 C71.6509185,46.8207368 71.5399188,46.7662196 72.2478159,46.6793419 C76.3454271,46.1744015 78.6373378,48.1720062 79.6504061,47.259207 C80.0596982,46.8907055 80.326723,45.9875269 79.1676353,43.4333799 C78.2683808,43.3902325 76.735646,43.3147247 74.8230105,43.2083141 C70.4464929,42.965173 69.6347875,42.8707154 68.6139023,43.284405 C67.8347152,43.6001385 66.0487133,44.5709534 65,48 C65.905508,47.8559812 67.2565784,47.6326646 68.8953102,47.3297587" id="Fill-30" fill="#47404A"></path>
                            <path d="M102.104657,46.3300502 C99.3490261,45.8207368 99.4600268,45.7662196 98.7524364,45.6793419 C94.6547911,45.1744015 92.3625486,47.1720062 91.3494719,46.259207 C90.940489,45.8907055 90.6731493,44.9875269 91.8322467,42.4336714 C92.7315087,42.3902325 94.2642563,42.3147247 96.1769077,42.2083141 C100.553462,41.965173 101.365487,41.8707154 102.386068,42.284405 C103.165261,42.6001385 104.951278,43.5709534 106,47 C105.094484,46.8559812 103.743715,46.6326646 102.104657,46.3300502" id="Fill-32" fill="#47404A"></path>
                            <path d="M83.1845012,64.263061 C83.1845012,64.263061 83.1299327,64.3265484 83.0347787,64.4520535 C82.9396248,64.5760889 82.8059318,64.766551 82.6616662,65.0225579 C82.5187647,65.2779769 82.3721117,65.6124612 82.3008315,66.0110207 C82.2674083,66.2061855 82.2595641,66.4342697 82.2888947,66.6356069 C82.3004905,66.6917462 82.3079937,66.7616998 82.3233411,66.8081397 C82.3407348,66.8566369 82.3475559,66.9027828 82.3721117,66.9548072 C82.412015,67.0567985 82.4611267,67.1584958 82.5259269,67.2499058 C82.6510935,67.4353712 82.8188918,67.6023194 83.0153387,67.6987261 C83.1115158,67.7531019 83.215196,67.7780853 83.31683,67.7966025 C83.4184639,67.8013052 83.5204389,67.798366 83.6138876,67.7575107 C83.6592477,67.7416389 83.7093826,67.7090134 83.7458753,67.6872631 C83.7721364,67.6672764 83.8079471,67.6443504 83.826705,67.6261272 L83.8891178,67.569694 C83.9825665,67.4823989 84.0756741,67.3759988 84.1766259,67.2628384 C84.2779188,67.1496781 84.3853507,67.027994 84.5258647,66.9160094 C84.661263,66.8054944 84.8570277,66.6964489 85.0824641,66.703797 C85.1383969,66.7020335 85.1912602,66.7143782 85.2444645,66.7273109 C85.3017615,66.7399495 85.3382542,66.7555275 85.3993028,66.7858015 C85.4971852,66.837238 85.5780149,66.9042525 85.6455435,66.9697973 C85.7140952,67.0362239 85.7707101,67.1020626 85.8228913,67.1608472 L85.8423313,67.1828914 L85.8518808,67.1934726 C85.8491524,67.1905334 85.8648409,67.2078748 85.8471061,67.1878881 L85.8522219,67.1934726 L85.8941715,67.2355036 L85.9777296,67.3204473 C86.0916415,67.4453646 86.1987323,67.5209028 86.3058231,67.6117249 C86.4204171,67.6937294 86.5394448,67.7845516 86.6656346,67.8550931 C86.9139215,68.0085209 87.1874465,68.1105122 87.4630177,68.1978073 C87.7437048,68.267467 88.0298487,68.3189035 88.318721,68.3200792 C88.6058881,68.3230184 88.8964657,68.3047952 89.1751064,68.2313145 C89.3169847,68.2060371 89.4510187,68.1490161 89.5881222,68.1063972 C89.7184047,68.0437916 89.8558492,67.9988214 89.9776053,67.9194623 L90.1645027,67.8104168 L90.3404863,67.6828543 C90.4578087,67.6052586 90.5727437,67.4979768 90.6992746,67.3953977 C90.8254644,67.2916429 90.9635911,67.184361 91.122181,67.0985355 C91.1617432,67.0770791 91.2026696,67.0570924 91.2446192,67.0391631 L91.2763372,67.0259365 L91.3046446,67.0147675 L91.3179457,67.0106526 L91.3711501,66.993605 C91.4287881,66.9721487 91.5508853,66.9456956 91.6262581,66.9359961 C91.9608316,66.8913198 92.2555018,66.9309994 92.5235699,66.9430503 C92.7892506,66.9548072 93.0290112,66.9401111 93.2118159,66.8301839 C93.5849285,66.6300224 93.6913372,66.059224 93.5856106,65.6062888 C93.537181,65.3764411 93.4461197,65.1671679 93.3294794,64.9975744 C93.2987846,64.9584827 93.2684308,64.9196848 93.2384181,64.8814749 C93.2009022,64.8432649 93.1623632,64.7988825 93.1268936,64.7668449 C93.0586829,64.701888 92.9833101,64.6392824 92.9069141,64.5857884 C92.5996248,64.3703429 92.2851735,64.25924 92.0256318,64.1834079 C91.7640437,64.1113968 91.5529316,64.0670144 91.409348,64.0402674 C91.2647414,64.0138144 91.1880043,64 91.1880043,64 C91.1880043,64 91.2661056,64.0011757 91.4124175,64.0032332 C91.5583884,64.0085238 91.7739343,64.0108751 92.0474592,64.0502608 C92.3196199,64.0919979 92.6586271,64.156367 93.0180975,64.3577042 C93.1074535,64.4076711 93.1968096,64.4661618 93.2895761,64.5384668 C93.3356184,64.5731497 93.3721111,64.6081265 93.4147428,64.6436912 C93.4641955,64.690425 93.5017114,64.7333377 93.5463894,64.7800715 C93.7097541,64.9737667 93.8362849,65.2209558 93.9167736,65.4995948 C93.9972622,65.7776459 94.0293212,66.0944948 93.9679316,66.4242763 C93.9368957,66.5876975 93.8799398,66.7552335 93.785468,66.9030768 C93.7462468,66.9780271 93.6770129,67.0535653 93.613918,67.1249886 L93.5351347,67.1955301 L93.5156946,67.2125776 L93.5058041,67.2213953 L93.5010293,67.2258041 L93.479884,67.2413821 L93.4266796,67.276065 C93.1388305,67.4691723 92.8080086,67.497095 92.5174309,67.5038552 C92.2254891,67.5106155 91.94412,67.4821049 91.6992435,67.5294265 C91.4588008,67.5676365 91.2630361,67.6951991 91.0345302,67.9024147 C90.8121633,68.1040459 90.5335226,68.3500593 90.236806,68.5073081 C90.0925404,68.6016574 89.9336094,68.6589723 89.7804764,68.732747 C89.6215455,68.785947 89.4643198,68.8523736 89.299932,68.8855869 C88.975249,68.9734699 88.6399934,69.0016865 88.3067841,68.9999229 C87.9725517,68.9940445 87.6417297,68.9320267 87.3187521,68.8456134 C86.999526,68.7415647 86.6843925,68.6178231 86.3955202,68.435297 C86.3204884,68.3962052 86.2515956,68.3441809 86.1816796,68.2948018 C86.1124457,68.2430714 86.0415066,68.2007465 85.9743191,68.1407862 C85.8406261,68.0223353 85.6987478,67.9018269 85.6001833,67.7848455 L85.5190126,67.6969626 L85.4784272,67.6528742 L85.4484145,67.6187791 L85.4289745,67.5949713 C85.3774754,67.5326597 85.3314332,67.4765204 85.2881194,67.4318441 C85.1994455,67.3380827 85.1383969,67.3083965 85.0637062,67.3010484 C84.9293311,67.2737136 84.7158316,67.462706 84.5125637,67.6710974 C84.4085423,67.7751461 84.3004284,67.8865429 84.176967,67.9900038 C84.1462722,68.0164568 84.1080742,68.0443795 84.0736278,68.0705386 C84.0378171,68.0984613 84.0129202,68.1111 83.9818844,68.1319685 C83.8986673,68.1792901 83.826364,68.2163244 83.7441701,68.2416018 C83.5821696,68.2974471 83.4150534,68.2948018 83.259533,68.2733455 C83.1064,68.2383686 82.959747,68.1881078 82.8349214,68.103458 C82.5791312,67.9465032 82.3857539,67.718419 82.2445577,67.4718176 C82.1719133,67.3498396 82.1183679,67.2169865 82.0767594,67.0838394 C82.0528856,67.0209399 82.0416309,66.9418746 82.0256013,66.8728027 C82.0099129,66.8007916 82.0116182,66.7472976 82.0037739,66.684986 C81.9880855,66.406347 82.0228729,66.1715026 82.0791467,65.9495908 C82.1951049,65.5119395 82.3915518,65.1868608 82.5654891,64.9437865 C82.7397674,64.6986548 82.9021089,64.5361154 83.0119281,64.4258943 C83.1227705,64.3168489 83.1845012,64.263061 83.1845012,64.263061" id="Fill-34" fill="#C78275"></path>
                            <path d="M85.3616314,77.4902093 C90.214366,77.1873191 94.1880034,76.0531413 97,75 C96.7040176,76.2583893 95.5331991,80.5682647 91.6870669,83.1302112 C91.0859243,83.5307436 89.6450178,84.4693048 87.5128301,84.8436 C86.9995317,84.9336036 84.811622,85.2776762 82.5624181,84.5221113 C77.805722,82.9239668 76.1645439,77.5470012 76,76.9774215 C78.4937254,77.4088407 81.6813542,77.7197018 85.3616314,77.4902093" id="Fill-36" fill="#FBEEE8"></path>
                            <path d="M76.864371,76.9269865 C77.3610383,78.4235644 79.0400821,82.5409262 82.8165151,83.8845717 C83.6915807,84.1961759 84.6575498,84.3541724 85.6870572,84.3541724 C86.2784027,84.3541724 86.8779264,84.3008317 87.4211464,84.1995519 C89.4468193,83.8231286 90.8025104,82.8667096 91.3127031,82.5064911 C94.3571889,80.3580088 95.6446235,76.8942393 96.1403472,75.0246141 C92.6781451,76.3372004 89.0765993,77.1244821 85.426299,77.3658656 C84.6264098,77.4185311 83.8142534,77.4452015 83.0127915,77.4452015 L83.012477,77.4452015 C80.9622695,77.4452015 78.8963348,77.2713378 76.864371,76.9269865 M85.6870572,85 C84.593068,85 83.5635607,84.8312003 82.6268442,84.4979897 C77.9533274,82.8349753 76.3073109,77.2446675 76.1352546,76.6126815 L76,76.116748 L76.4746491,76.203511 C78.631173,76.5988399 80.8307895,76.7993739 83.012477,76.7993739 L83.0127915,76.7993739 C83.8019861,76.7993739 84.6015607,76.7730412 85.3894972,76.7210509 C89.1712775,76.4708897 92.9002142,75.6258785 96.4721927,74.208974 L97,74 L96.8694636,74.5870853 C96.3995327,76.7004573 95.0960562,80.6098579 91.6432904,83.0463125 C91.104474,83.426787 89.6729775,84.4365467 87.5236883,84.8362643 C86.9474409,84.9432833 86.3123736,85 85.6870572,85" id="Fill-38" fill="#DB917F"></path>
                            <path d="M78,52.2821597 C78,52.2821597 77.8456366,52.1345951 77.5761438,51.8767413 C77.3066511,51.6211932 76.9233153,51.2545874 76.4354627,50.8557018 C76.1884812,50.658949 75.9119135,50.4591219 75.611548,50.2669805 C75.3073235,50.0794505 74.969332,49.9153617 74.6133314,49.7912384 L74.4789066,49.7447401 L74.3409443,49.710539 C74.2489694,49.6863291 74.156673,49.6632722 74.0621254,49.652128 C73.968221,49.6382938 73.8743166,49.6190796 73.7791259,49.6183111 L73.6369829,49.6079354 L73.6009648,49.6048612 L73.5832773,49.603324 L73.578775,49.603324 C73.5504751,49.6029398 73.6122204,49.6029398 73.6038591,49.6029398 L73.5938898,49.603324 L73.5134922,49.6067826 C73.3012425,49.6167739 73.0658383,49.6163897 72.9146908,49.6636565 C72.8291478,49.684792 72.7445695,49.6870977 72.6561321,49.7209146 L72.3921064,49.8108368 C72.3007747,49.8338937 72.2203771,49.8823134 72.1345125,49.918436 C72.0512206,49.9599385 71.96214,49.9906811 71.8830288,50.0398693 C71.7241631,50.1367086 71.5588657,50.2224037 71.4112557,50.3353828 C71.1073527,50.5436641 70.816635,50.7738496 70.5400672,51.0028821 C70.2663938,51.2346047 69.9917556,51.4582573 69.728373,51.6696128 C69.5936267,51.7737535 69.4624178,51.8744356 69.3353896,51.9724277 C69.2009648,52.0646556 69.0707207,52.1534249 68.9459436,52.2387357 C68.6877065,52.4020559 68.4442625,52.5450091 68.2066072,52.6456912 C67.9834235,52.7628975 67.7550943,52.8201556 67.5814355,52.8812566 C67.4039176,52.9365933 67.2482678,52.9496589 67.1514691,52.9723316 C67.0524192,52.9903929 67,53 67,53 C67,53 67.0469522,52.9788644 67.1357112,52.9396676 C67.222219,52.898165 67.3550358,52.8493611 67.5084344,52.7671246 C67.6573308,52.6768181 67.8457828,52.584206 68.03327,52.4420213 C68.2300833,52.3129023 68.4275398,52.1411279 68.6455781,51.9593621 C68.8571846,51.7699107 69.0765093,51.5562494 69.3103055,51.3295225 C69.541529,51.0985685 69.7801491,50.8499376 70.0470691,50.6009223 C70.1811723,50.4764146 70.3127028,50.3476799 70.4606344,50.2235565 C70.5329923,50.1605342 70.6059933,50.0967432 70.6793159,50.0333365 L70.9211519,49.854645 C71.0771232,49.7305217 71.2642888,49.6259967 71.4418068,49.5141704 C71.5299225,49.4572966 71.6357258,49.415794 71.7328461,49.3658373 C71.8341471,49.3208762 71.9258003,49.2640023 72.0390001,49.2324911 L72.3683087,49.1275819 C72.4750767,49.0903065 72.6107879,49.0783937 72.7310627,49.0549524 C72.9925157,49.0003843 73.196404,49.0099914 73.413156,49.0023057 L73.4938752,49.0003843 L73.5041661,49 C73.4990206,49 73.5643035,49.0003843 73.5392194,49.0003843 L73.545008,49.0007686 L73.5675194,49.0030743 L73.6128636,49.0069171 L73.793919,49.0242098 C73.9145154,49.0334326 74.0325391,49.061101 74.1499196,49.0849265 C74.2682649,49.1056778 74.3817863,49.1391104 74.4940213,49.1748487 L74.6615699,49.2259583 L74.821722,49.2897493 C75.2484724,49.4561437 75.6150855,49.6828706 75.9299225,49.9153617 C76.2441164,50.1490057 76.505891,50.3945624 76.7326122,50.6266692 C76.9574039,50.8603132 77.146499,51.082813 77.302792,51.2837929 C77.4639088,51.4828514 77.5883643,51.6634643 77.6919164,51.8106446 C77.7964333,51.9582092 77.8694343,52.0781055 77.9208888,52.1584206 C77.9723432,52.23912 78,52.2821597 78,52.2821597" id="Fill-40" fill="#4D4442"></path>
                            <path d="M72.3993667,53.9039203 C72.8500856,54.1121645 72.9774091,53.930313 74.8798623,53.8405137 C76.1586462,53.7800038 76.3787648,53.8488821 76.6253962,53.6116704 C77.2182365,53.0410107 77.0964622,51.5388847 76.3377623,50.7133109 C75.7051527,50.0245281 74.8185127,50.0119755 74.118696,50.0019978 C73.4808455,49.9929857 71.5293743,49.9653057 71.0879041,51.1848375 C70.7376875,52.1507428 71.4868304,53.4822823 72.3993667,53.9039203" id="Fill-42" fill="#4D4442"></path>
                            <path d="M91,47 C91,47 90.9753176,47.0402627 90.9288913,47.1163144 C90.8821711,47.1906455 90.8095932,47.3007657 90.7349585,47.4449543 C90.5780492,47.726793 90.3838226,48.154541 90.2269133,48.6917209 C90.1434634,48.958074 90.0832267,49.259528 90.0159379,49.5740587 C89.9583457,49.8937513 89.9095687,50.2323707 89.8675499,50.5864759 C89.8255311,50.9409251 89.8008487,51.3105159 89.7729342,51.6883657 C89.7456073,52.0686244 89.7265078,52.4481948 89.7112283,52.8429067 C89.6941857,53.2300479 89.677437,53.6168449 89.6606882,53.9974477 C89.6498162,54.3777064 89.6324798,54.7510826 89.6342428,55.1117261 C89.633949,55.4727137 89.6377689,55.8206246 89.6477594,56.1509851 C89.6636266,56.4803132 89.6792,56.792435 89.7038823,57.0801239 C89.7309154,57.3671245 89.7597115,57.6310688 89.7908583,57.86473 C89.8249434,58.097703 89.8549149,58.3028018 89.8869432,58.4697026 C89.9145639,58.6386682 89.9448292,58.7690918 89.9618718,58.8602851 C89.9789143,58.9511342 89.9880233,59 89.9880233,59 C89.9880233,59 89.9662793,58.9573284 89.9254359,58.8774913 C89.8884124,58.7955895 89.8205359,58.6809957 89.7591238,58.5223538 C89.6912473,58.366465 89.6136742,58.1740988 89.5396271,57.9455995 C89.4641109,57.7177884 89.3856562,57.456253 89.3198366,57.1644346 C89.2507848,56.8736486 89.1890789,56.5546443 89.1426525,56.2129276 C89.0974015,55.8722434 89.0518567,55.5102234 89.035108,55.1354707 C89.0148332,54.7607181 88.9960276,54.3732328 89.000729,53.9809297 C88.9992598,53.5889708 89.0154208,53.1908176 89.0324634,52.7950733 C89.0550889,52.4062115 89.0835912,52.0025523 89.1194394,51.6136905 C89.1514677,51.2220757 89.2164058,50.8373434 89.2789932,50.4663761 C89.3398176,50.0947205 89.4347271,49.7413037 89.5296366,49.4102549 C89.6310106,49.0802386 89.7414936,48.7739669 89.8716636,48.5069255 C89.9924309,48.2354105 90.1320037,48.0045023 90.2615861,47.8093832 C90.393813,47.6156405 90.5198694,47.4590634 90.6338783,47.3403401 C90.7411291,47.2147343 90.8386832,47.1414356 90.9012706,47.0839666 C90.965621,47.0292507 91,47 91,47" id="Fill-44" fill="#C78275"></path>
                            <path d="M105,74.2853982 C104.288526,76.1027181 103.542719,77.7250316 102.758762,79.2202908 C102.737463,79.2629583 102.711712,79.3053097 102.690412,79.3476612 C102.605214,79.5044248 102.524466,79.664981 102.439267,79.8176359 C102.349617,79.982933 102.260286,80.1438053 102.170636,80.3005689 C102.081304,80.465866 101.987522,80.6267383 101.897873,80.7879267 C101.770074,81.0082174 101.642276,81.2285082 101.514478,81.4402655 C101.245847,81.8893805 100.977535,82.329646 100.700638,82.7661188 C100.530241,83.0331858 100.359843,83.2958281 100.184995,83.5540455 C99.5971865,84.4478508 98.9877606,85.3160556 98.357035,86.1845765 C98.1440379,86.4728192 97.9310409,86.7648546 97.7180438,87.0530973 C97.074602,87.9257269 96.4057276,88.8027813 95.7152356,89.7133375 C94.4541023,91.3783186 92.6429915,93.5768015 89.5411821,94.9958913 C89.460116,95.0300253 89.3920841,95.0594185 89.3364506,95.085019 C88.0924842,95.6058786 86.8653668,95.8770544 85.727581,96 C80.1543699,94.0723767 75.7993748,92.0176991 72.7229979,90.4083439 C69.5913053,88.7686473 68.3343047,87.874842 67.1838027,86.8075221 C65.3173762,85.0790139 64.0689591,83.2067004 62.5563621,79.9535398 C62.3134819,79.0085335 62.1430842,78.102086 61.9555196,77.2676991 C61.6105916,75.6959545 60.9286831,73.8615676 59.565184,70.193426 C58.0440035,66.096713 57.3706785,65.1011378 57,64 C59.3680822,65.2436789 60.6781731,66.682048 61.4316105,67.7446271 C63.1409913,70.1558154 63.3616181,72.5726928 65.7564045,73.9800885 C66.4809124,74.4061315 67.1602776,74.5957649 67.5843643,74.687737 C67.6864122,73.9845133 67.95091,73.0271808 68.7008504,72.2730721 C70.1921477,70.7648546 72.6508332,71.0401391 74.0992132,71.1716182 C76.9117281,71.4301517 80.7892283,71.5824905 86.1240099,71.2945638 C86.4562217,72.1036662 86.8481999,73.4339444 86.2473574,74.4674463 C85.8639627,75.1201011 84.9903568,75.8062579 80.3546507,76.0518331 C78.6246059,76.1450695 76.1830874,76.187421 73.230058,75.9415297 C73.5028214,76.4965234 73.6306197,77.1491783 73.7924338,77.7588496 C74.9089199,81.9358407 78.4243251,84.9857775 81.7562985,87.7607459 C82.5275386,88.4045512 83.3540944,89.0654235 84.2915993,89.3871681 C84.2874666,89.2939317 84.2788831,89.1501264 84.2702996,88.9677623 C84.1851008,87.1295828 84.1383686,86.9342604 84.2830159,86.7863464 C84.6368453,86.426043 85.4293851,87.0575221 86.5713037,87.1125158 C87.7857048,87.1716182 88.7912417,86.5575221 89.4346836,86.0575221 C89.4302329,86.7522124 89.4261001,87.4472187 89.4261001,88.1460177 C94.4541023,85.2146018 97.8331258,79.5720607 97.8884415,73.7601138 C96.7805389,74.3359671 94.8247808,75.17067 92.2595968,75.3230088 C90.3550216,75.4333123 88.7785254,75.1283186 87.717355,74.8318584 C87.5940075,73.6115676 87.470342,72.391909 87.3511272,71.1716182 C89.1873526,70.9469027 91.8377354,70.6295828 95.0930935,70.2863464 C98.8892097,69.88622 100.171325,70.073641 101.484595,70.7098609 C103.390442,71.6333755 104.456699,73.2563211 105,74.2853982" id="Fill-46" fill="#3B2B26"></path>
                            <g id="Group-50" stroke-width="1" fill="none" transform="translate(11.000000, 100.000000)">
                                <mask id="mask-10" fill="white">
                                    <use xlink:href="#path-9"></use>
                                </mask>
                                <g id="Clip-49"></g>
                                <path d="M137.73373,236.000063 L95.7454811,236.000063 C92.9155272,235.861054 90.0982922,235.870532 87.3160341,236.000063 L8.70055023,236.000063 C8.87543502,227.469943 9.38737051,220.367828 9.85478986,215.268711 C9.57815392,202.132326 9.53999724,190.022714 9.66400645,178.911442 L9.66400645,178.772117 C9.89930599,158.328261 10.6974166,141.287292 11.6322553,127.519046 C11.6735917,126.940893 11.7117484,126.369059 11.7499051,125.803544 C11.9057115,123.585712 12.0646977,121.459501 12.2236839,119.418591 C12.2904581,118.546307 12.3508728,117.674655 12.3985687,116.802687 C12.6561263,112.483919 12.716541,108.146194 12.7006424,103.804995 L12.7006424,103.625231 C12.7006424,103.249273 12.6974627,102.869841 12.6974627,102.4942 C12.6911032,101.975758 12.6879235,101.454789 12.6815641,100.936663 C12.6720249,100.045739 12.6624857,99.1548155 12.6497668,98.2670511 C12.6179696,95.6922185 12.5734535,93.1173858 12.5480157,90.5457124 C12.5448359,90.2518972 12.5416562,89.9580819 12.5416562,89.6642667 C12.5257576,88.1790779 12.5193982,86.694521 12.5257576,85.2096482 C12.5480157,76.6668905 12.9391217,68.1712064 14.6052968,59.8151636 C14.6052968,56.2609467 14.6052968,51.086007 14.0106885,45.5129949 C13.4192599,39.9431422 12.2300433,33.9815357 9.85478986,28.8603041 C7.10114931,22.9239722 3.62571152,20.0044594 1.67654101,17.7300766 C0.563637788,16.4284434 -0.0500488479,15.3384835 0.252024885,14.0178945 C0.287001843,13.8725665 0.328338249,13.7237633 0.385573272,13.5724327 C0.595435023,12.9974394 0.942024885,12.4445612 1.38718618,11.923276 C2.90391429,10.1316348 5.54626452,8.65971513 7.78478986,7.6041917 C8.27446728,7.37387845 8.78322304,7.14640857 9.30787742,6.92209799 C10.5734074,6.37553842 11.9247899,5.84477537 13.3397668,5.35160803 C16.5353889,4.239849 20.0394442,3.30153574 23.4989834,2.74233896 C23.6102737,2.72338313 23.7183843,2.71074592 23.8996286,2.67883695 C26.1063567,2.33162945 30.8568636,1.66501633 42.1194442,0.284084605 C42.2116562,0.736180991 42.3356654,1.28274056 42.5010111,1.91144203 C42.8952968,3.41211138 43.524882,5.36772048 44.5392138,7.52868434 C44.5392138,7.52868434 47.0639143,12.85843 51.5886608,17.2214286 C61.2518406,26.5350565 78.7307806,26.800438 79.6942369,26.800438 C82.463776,25.2460605 86.5974166,22.4563952 90.3049742,17.7803095 C94.1079235,12.9911207 95.9903198,8.07808728 96.9474166,4.35674324 C97.1159419,3.69644873 97.2558498,3.07374993 97.3734995,2.49559732 C97.5515641,1.61415154 97.6755733,0.834119411 97.7646055,0.186462115 C101.459444,1.32065221 105.847463,2.97928675 110.531195,5.47513681 C111.380182,5.92375797 112.238707,6.40397216 113.106771,6.91577938 C113.189444,6.96316894 113.272117,7.01024257 113.35479,7.06110736 C113.380228,7.07374458 113.402486,7.08922517 113.427924,7.10186238 C113.440642,7.11165622 113.453361,7.1176589 113.46608,7.12745274 C117.933592,9.78442731 121.701564,12.681509 124.833592,15.5122452 C126.518845,17.0318704 128.022854,18.5356991 129.351979,19.9668637 C130.738338,21.4580552 131.937094,22.8731074 132.957785,24.1561007 C132.852854,24.3519775 132.751103,24.5478544 132.646172,24.7434153 C131.587324,26.7404112 130.528476,28.7370913 129.469629,30.7334554 C128.929076,31.7510672 128.388523,32.7683631 127.84797,33.7888182 C126.515665,36.6732627 125.329629,39.9586228 124.50608,43.642687 C122.630043,52.0559133 123.253269,59.913102 124.808154,66.5378463 C125.037094,67.5207058 125.288292,68.4779748 125.552209,69.4036509 C127.278799,75.4063282 129.644513,80.1737178 131.266172,83.1115545 C130.897324,85.5540123 130.557094,87.951924 130.248661,90.3056054 C129.972025,92.39043 129.720827,94.4379748 129.495066,96.4504514 C129.215251,98.8954367 128.970412,101.287346 128.754191,103.625231 C128.700135,104.203383 128.64926,104.775217 128.598384,105.347051 C128.585665,105.511335 128.569767,105.675619 128.557048,105.839903 C128.436218,107.242633 128.324928,108.622933 128.226357,109.984909 C128.1882,110.496716 128.153223,111.008524 128.118246,111.514012 C127.971979,113.646542 127.84797,115.728524 127.749398,117.759956 C127.717601,118.388342 127.688983,119.0142 127.663546,119.633423 C127.644467,120.066248 127.625389,120.499073 127.60949,120.928738 C127.421887,125.695812 127.358292,130.17602 127.38055,134.355779 C127.38055,134.813878 127.38373,135.268818 127.390089,135.720599 C127.393269,135.948069 127.393269,136.172379 127.396449,136.396374 C127.463223,141.982339 127.682624,147.011951 127.971979,151.456775 C128.321748,156.837386 129.142117,166.991073 130.417186,178.772117 C130.499859,179.543303 130.585712,180.317332 130.671564,181.100524 C132.461748,197.159581 133.714559,208.409862 134.569905,215.666783 C135.145435,220.535271 135.5429,223.606114 135.797278,225.119421 C136.515896,229.346253 137.205896,232.957654 137.73373,236.000063" id="Fill-48" fill="#66B8FF" mask="url(#mask-10)"></path>
                            </g>
                            <path d="M99.9144736,16.9551423 C99.8996986,16.0150911 99.8428469,14.972812 99.1689782,14.3096013 C98.6826878,13.8311625 97.9760571,13.6594071 97.3047579,13.5187645 C86.1059462,11.1738748 74.5069245,12.0269372 63.0929116,12.8904763 C62.716149,12.9190493 62.3040548,12.9625437 62.0371411,13.2276375 C61.7911052,13.4714604 61.7201209,13.7803661 61.6915345,13.9521215 C61.561129,14.7356563 61.2881126,18.2406092 61,23.0199174 C65.4498462,26.0229382 72.6253597,29.7450458 81.7068489,29.9872813 C89.7264649,30.2012612 98.8802232,27.6912831 99.7159746,24.2672869 C99.8001279,23.9221888 100.010511,23.0618244 99.9995904,22.3601989 C99.9713252,20.5585133 99.9427388,18.7568278 99.9144736,16.9551423" id="Fill-51" fill="#36272C"></path>
                            <path d="M62.6569861,19 C62.3642132,18.6555104 62.0882838,18.2850096 61.8711541,17.867879 C61.7593736,17.6626444 61.6512681,17.4542377 61.56705,17.2344114 C61.4711944,17.0187089 61.4007574,16.7934901 61.3297079,16.5666853 C61.2485522,16.3424181 61.21119,16.1070486 61.1502466,15.8751684 C61.1040032,15.6410677 61.0752159,15.4028433 61.0427536,15.1646189 C61.0029414,14.6865841 60.9805853,14.2015706 61.0225413,13.717826 L61.0559223,13.354621 L61.1153344,12.9945881 C61.1487154,12.7525572 61.2127212,12.5171877 61.2709083,12.2792805 C61.3251142,12.0404217 61.417601,11.8126652 61.490488,11.5779301 C61.5789936,11.3489048 61.6791367,11.123686 61.7863234,10.9022737 C62.0175406,10.4657933 62.2634576,10.0435874 62.5877741,9.65437121 L62.8006164,9.39045283 L62.9068844,9.25849364 L63.0388772,9.12336236 C63.2155822,8.94635941 63.3941247,8.75698529 63.5800172,8.59964934 L64.1453507,8.145088 L64.7455965,7.7479416 C65.1587249,7.51003441 65.578897,7.28576724 66.013769,7.10686103 C66.2284487,7.00598838 66.4510909,6.93778832 66.6703644,6.85689988 C66.8899441,6.77379097 67.1119738,6.70654253 67.3352285,6.64500387 C67.7799004,6.5101898 68.2310035,6.41915065 68.6802691,6.32938034 C69.1304535,6.24278212 69.5824753,6.18822207 70.0332722,6.13683412 C70.484069,6.09337641 70.9345596,6.05309079 71.383519,6.03088612 C71.8327846,6.00138563 72.281744,6.00519214 72.7285596,6 C73.1759877,5.99948237 73.6212721,6.00106842 74.0665565,6.01407401 L75,6.04071961 L74.4071041,6.71954813 C74.1336248,7.03263399 73.8742329,7.3606287 73.6301533,7.70194621 L73.2727621,8.22185272 C73.1557754,8.39790404 73.0424637,8.57649304 72.9322144,8.75793692 C72.7153909,9.12241073 72.5092861,9.49640083 72.3154312,9.87990722 L72.0370519,10.4638901 C71.9473213,10.6608772 71.8627969,10.8607193 71.776435,11.0611957 C71.8435033,10.6278874 71.9372151,10.1971168 72.0591018,9.77364201 C72.1770072,9.34889838 72.3209437,8.93018172 72.4899925,8.52129857 C72.6578163,8.111781 72.8415651,7.70606994 73.0562448,7.3178054 C73.2684746,6.92763761 73.4993855,6.54730332 73.7486712,6.17838857 L74.0892189,6.8841799 L72.7744968,6.99900977 C72.3377873,7.04088144 71.9026091,7.09036613 71.4704934,7.14207129 C71.0371527,7.18774947 70.6080994,7.25119139 70.1802711,7.31653657 L69.5432756,7.42978039 L68.9133237,7.56237399 C68.4965204,7.65753687 68.0803295,7.75682347 67.6779198,7.88719661 C67.4739588,7.94524596 67.2718352,8.00837067 67.0761428,8.08513539 C66.8798379,8.15999685 66.6774081,8.22280435 66.4896781,8.31447792 C66.1013558,8.47308271 65.7320209,8.66499451 65.3697297,8.86864306 L64.8454334,9.20107871 L64.352068,9.57633765 C64.1915942,9.70290427 64.0611326,9.84469696 63.9083149,9.97284963 L63.7968407,10.0715018 L63.6838352,10.1971168 L63.457518,10.448664 C63.1852637,10.7379591 62.9515966,11.0929167 62.7387543,11.4469226 C62.6373863,11.6293181 62.5467369,11.818375 62.4502688,12.0052114 C62.3721756,12.2006125 62.2729513,12.389035 62.2092517,12.5923664 C62.1412647,12.7937945 62.0659277,12.9936365 62.0193781,13.2036293 L61.9394474,13.5154463 L61.8824853,13.8336075 C61.7970421,14.2573995 61.7627424,14.6916594 61.7468175,15.1294086 C61.74988,15.565889 61.7664173,16.0071276 61.8319544,16.445194 C61.8656416,16.6640686 61.8984102,16.8848465 61.9572098,17.0992802 C61.9850783,17.2068142 62.0040657,17.3181548 62.034078,17.4256888 L62.1333023,17.7463877 C62.1914894,17.9665312 62.2894887,18.1628839 62.3663569,18.377952 C62.4496563,18.5901652 62.5638868,18.7903245 62.6569861,19" id="Fill-53" fill="#573F47"></path>
                            <path d="M100.5,8 C100.5,8 100.543266,8.14060547 100.59893,8.38650882 C100.655808,8.63272462 100.724354,8.9842383 100.788524,9.40636717 C100.916136,10.25 100.999509,11.3751562 101,12.4996875 C101.000724,13.6248438 100.918081,14.75 100.789983,15.5936328 C100.725812,16.0154492 100.65678,16.3669629 100.599659,16.6128663 C100.543753,16.8593945 100.5,17 100.5,17 C100.5,17 100.456247,16.8593945 100.400584,16.6128663 C100.34322,16.3669629 100.274431,16.0154492 100.21026,15.5936328 C100.081919,14.75 99.9992756,13.6248438 100,12.4996875 C100.000491,11.3751562 100.084107,10.25 100.211476,9.40636717 C100.275646,8.9842383 100.344192,8.63272462 100.40107,8.38650882 C100.456734,8.14060547 100.5,8 100.5,8" id="Fill-55" fill="#573F47"></path>
                            <path d="M81,113.465392 C81,113.465392 81.0507812,113.436388 81.1462984,113.382004 C81.24242,113.330257 81.3796503,113.248517 81.5721959,113.172709 C81.7629278,113.08998 81.995373,113.00033 82.2734608,112.931773 C82.5500372,112.85267 82.8698382,112.794331 83.2234933,112.764338 C83.5765439,112.73797 83.9658668,112.723138 84.374535,112.773896 C84.7825986,112.821688 85.215146,112.90145 85.6476935,113.050428 C86.0808454,113.195122 86.5185314,113.391892 86.9386858,113.646671 C87.3772786,113.905076 87.7285156,114.209954 88.0646391,114.408372 C88.4016695,114.620962 88.6679688,114.699736 88.9288272,114.660844 C89.2054036,114.620303 89.5451544,114.429466 89.8994141,114.203691 C90.6269764,113.745221 91.3203823,113.33586 91.9285482,113.011206 C92.5312733,112.676335 93.0499674,112.425181 93.4166202,112.25445 C93.7826683,112.084047 94,112 94,112 C94,112 93.8422154,112.182927 93.5517346,112.480554 C93.261556,112.778181 92.8420061,113.195122 92.3190802,113.663151 C91.8015951,114.140409 91.1816406,114.667106 90.5018369,115.211602 C90.3298456,115.351351 90.1385091,115.494726 89.918457,115.630191 C89.6987072,115.765326 89.4441964,115.891233 89.1458566,115.955175 C89.0844959,115.971655 88.9647972,115.986816 88.9076683,115.992749 L88.8659552,115.996374 L88.8454009,115.998352 L88.8009673,116 L88.6833845,116 C88.526809,115.998682 88.3726516,115.972973 88.22726,115.933751 C87.9358724,115.854977 87.6786412,115.727423 87.4546596,115.58998 C87.0079055,115.309822 86.6566685,114.997363 86.3277995,114.77884 C85.9859328,114.547792 85.6316732,114.347726 85.2752976,114.178972 C84.5604306,113.844759 83.8395182,113.649308 83.2032413,113.539552 C83.0439453,113.51648 82.8900902,113.494726 82.7425828,113.481543 C82.5947731,113.461437 82.4539156,113.449901 82.320917,113.445287 C82.1870117,113.43441 82.0624767,113.438365 81.9451962,113.43441 C81.8276135,113.429466 81.7203078,113.429796 81.6238839,113.435069 C81.4310361,113.440343 81.2708333,113.446276 81.1647368,113.457152 C81.0571289,113.462426 81,113.465392 81,113.465392" id="Fill-57" fill="#C78275"></path>
                            <path d="M50,104.277822 C50.5087482,105.262945 51.0547523,106.218374 51.6085834,107.167278 C51.8969262,107.635203 52.1761898,108.107044 52.4704811,108.568444 L53.3724524,109.93861 L54.3063575,111.280062 C54.6256948,111.720904 54.9603728,112.14902 55.2856586,112.583009 C55.6037436,113.022872 55.9634676,113.428799 56.3022157,113.850389 C56.6440944,114.269042 56.9756417,114.696179 57.3435057,115.090685 L58.4192341,116.295087 L59.5494377,117.441081 L60.1148526,118.011793 L60.7046874,118.55379 L61.8818524,119.638111 C62.2872855,119.982692 62.7046156,120.311937 63.1147448,120.649339 C63.5280049,120.981847 63.9284288,121.331975 64.3689265,121.625979 C65.2355202,122.232585 66.0751895,122.876064 66.9824832,123.411209 L68.3190037,124.24982 C68.7776597,124.504667 69.2450819,124.742545 69.7071818,124.989887 L70.4015839,125.357635 C70.6341992,125.47739 70.8599268,125.611829 71.1038129,125.707111 L72.5414569,126.330359 L73.2590266,126.642636 L73.438419,126.72095 L73.5276456,126.760759 L73.5389163,126.76598 C73.5339071,126.764022 73.5658409,126.777075 73.5304633,126.762717 L73.553944,126.771854 L73.6012184,126.789474 L73.9781617,126.931418 L74.7323613,127.215306 C74.9843873,127.311241 75.2207595,127.381071 75.4655848,127.465584 L76.1959906,127.707378 L76.9439286,127.927636 C77.4404668,128.082632 77.9473365,128.198472 78.4482578,128.335521 C79.456988,128.583515 80.4729189,128.801162 81.4979291,128.963337 C82.5213738,129.136933 83.5526455,129.257341 84.5857956,129.352949 C85.6195719,129.446273 86.6577312,129.484451 87.6958905,129.496851 C88.7340498,129.510556 89.7734614,129.482493 90.8113077,129.41299 L90.2947326,129.58267 C91.4837945,128.846193 92.6587679,128.080675 93.7858408,127.239779 C94.3503164,126.821126 94.9082175,126.392031 95.451717,125.943358 C95.7259714,125.721795 95.996782,125.49599 96.2625833,125.263985 C96.5318285,125.036222 96.7976299,124.803238 97.0577958,124.564381 C97.3214057,124.329439 97.5825109,124.090908 97.8370415,123.844872 C98.0928244,123.600468 98.3558081,123.363568 98.6056425,123.112311 C99.1162692,122.621218 99.6093635,122.11022 100.097449,121.593348 L100.818149,120.80662 L101.517874,119.999008 C101.751428,119.729478 101.97152,119.447874 102.199126,119.172796 C102.308077,119.037705 102.435186,118.889235 102.528482,118.764912 L102.861282,118.330922 C103.321816,117.754336 103.731319,117.184603 104.153346,116.610627 C104.560657,116.019684 104.975483,115.43135 105.358687,114.820828 C105.556238,114.519646 105.74878,114.214548 105.932555,113.903577 C106.118522,113.594237 106.309812,113.287508 106.488891,112.972947 C106.858633,112.351004 107.208026,111.716009 107.552722,111.076446 L108.050826,110.106333 L108.527014,109.122841 L108.989427,108.130212 L109.431803,107.125837 C109.716389,106.450706 109.9872,105.768722 110.251123,105.08217 C110.517237,104.395619 110.756427,103.698625 111,103 C110.865064,103.729298 110.709153,104.455333 110.533204,105.177126 C110.364143,105.901203 110.1572,106.614186 109.948065,107.328474 C109.730478,108.039172 109.503185,108.748566 109.253037,109.450127 L108.86044,110.495618 L108.443423,111.531645 C108.15195,112.216892 107.853901,112.900507 107.533625,113.57368 C107.382096,113.914998 107.202078,114.240653 107.035834,114.574466 C106.869591,114.908279 106.693956,115.236871 106.512998,115.5622 C106.162979,116.221015 105.7804,116.858947 105.402205,117.502426 C105.003033,118.137422 104.605427,118.787427 104.193106,119.380328 L103.882848,119.832265 C103.765132,120.00586 103.66119,120.138668 103.549422,120.294316 C103.327765,120.592888 103.113308,120.898312 102.885389,121.191989 L102.200066,122.072694 L101.491575,122.934473 C101.010691,123.500944 100.522919,124.063172 100.016049,124.605822 C99.5145016,125.154672 98.9913519,125.681985 98.45474,126.19331 C98.1892517,126.453051 97.9187543,126.706266 97.6438737,126.954586 C97.372437,127.207801 97.095678,127.453511 96.8154752,127.695958 C96.2594526,128.185746 95.6877762,128.655955 95.1082729,129.116049 C93.9489532,130.035911 92.745803,130.898669 91.4978829,131.686376 L91.2683983,131.831257 L90.9813078,131.856056 C88.7922819,132.043357 86.586663,132.047925 84.3926278,131.869435 C83.2968626,131.774153 82.2007842,131.656356 81.1153505,131.46155 C80.0277252,131.282734 78.9491791,131.045834 77.879086,130.775977 C77.3465441,130.630118 76.8102453,130.497963 76.2852172,130.323388 L75.4943877,130.076047 L74.7004275,129.798359 C74.4396354,129.70373 74.1638156,129.613995 73.9152334,129.514471 L73.16573,129.218184 L72.7909783,129.069714 L72.6773318,129.023378 L72.5827829,128.979653 L72.3946243,128.891223 L71.6426163,128.535548 L70.1411048,127.823544 C69.8868873,127.713252 69.6514543,127.563803 69.4088205,127.428711 L68.6856155,127.015932 C68.2050441,126.738244 67.7197766,126.470019 67.2445276,126.184173 L65.8607326,125.253217 C64.9186875,124.664231 64.0689999,123.935912 63.1955184,123.248708 C62.7512639,122.914569 62.3492745,122.525936 61.9350753,122.154271 C61.5246329,121.778365 61.1073029,121.410616 60.7034351,121.027857 L59.5356624,119.832265 C59.3424946,119.632238 59.1443177,119.436779 58.955846,119.232184 L58.4117203,118.59621 C58.0504309,118.171358 57.6841322,117.752378 57.3291042,117.32361 L56.3087902,115.999126 C55.960963,115.565137 55.6503919,115.100474 55.3307415,114.644622 C55.0151611,114.185181 54.692693,113.732265 54.4059156,113.252593 C54.1138159,112.777489 53.8135762,112.308911 53.5296165,111.830217 L52.705601,110.376842 C52.4432435,109.885422 52.197479,109.384213 51.9435745,108.889857 C51.69781,108.39028 51.4686385,107.881892 51.2313271,107.379704 C50.7880118,106.358034 50.3597241,105.329512 50,104.277822" id="Fill-59" fill="#62B1F5"></path>
                            <path d="M111,42.7829083 C108.579939,40.0553218 99.989775,31.0729788 86.4136983,29.7951455 C83.7285344,29.5438299 77.7125165,29.0368227 71.0208213,31.8897543 C58.462408,37.2402125 54.3876071,49.7669175 53.7033162,52 C53.318582,51.6439696 52.8738726,51.1997913 52.4164026,50.6718411 C51.5997197,49.7250316 50.7361414,48.4975239 50.0687584,46.9724386 C48.709109,43.8719423 49.3334248,42.2340151 48.3585096,38.8028076 C47.0888229,34.3407062 45.1172994,33.8840245 44.2964693,31.0520358 C43.9117351,29.7323166 43.9244958,28.3872782 44.2023594,27.0634954 C44.9935209,23.2887608 47.9437878,19.6478111 50.0687584,17.0168123 C61.186173,3.28729351 77.8876567,0.844781392 81.4966932,0.46780806 C87.1148971,-0.1185949 90.0227348,-0.386789858 93.4687537,1.09640953 C100.613772,4.16721053 103.376138,11.855466 106.510477,20.5780537 C108.301756,25.5637292 110.439807,33.1216382 111,42.7829083" id="Fill-61" fill="#66B8FF"></path>
                            <path d="M86,21.5891721 C75.5809591,22.8414546 64.6890151,24.2693315 56.0761106,30.3167184 C55.3786793,30.8063208 54.6728863,31.3509137 54.2953691,32.1132813 C53.9423178,32.8206584 53.9008188,33.6414533 53.8676815,34.4328783 C53.6351012,39.9525443 53.3984948,45.4762722 53.1702502,51 C52.3774331,50.0536019 51.539091,48.8266276 50.8915205,47.3022049 C49.571604,44.2030559 50.1776755,42.5658403 49.2309404,39.1358112 C47.9983576,34.675961 46.0847573,34.2194778 45.2879142,31.3884072 C44.9141134,30.0695738 44.9268108,28.7251199 45.1965544,27.4019123 C45.8274015,28.0967915 46.6078308,28.6623183 47.4628964,29.018194 C49.9989819,30.0736356 52.9339536,29.6087164 55.4616774,28.5364027 C57.9897109,27.4603396 60.2309676,25.8187498 62.601057,24.4283664 C69.6410249,20.2993962 78.4827934,18.4272215 86,21.5891721" id="Fill-63" fill="#62B1F5"></path>
                            <path d="M92,52.2821597 C92,52.2821597 92.1540418,52.1345951 92.4238562,51.8767413 C92.6930273,51.6211932 93.0766847,51.2545874 93.5645373,50.8557018 C93.8115188,50.658949 94.0877649,50.4591219 94.388452,50.2669805 C94.6923549,50.0794505 95.030668,49.9153617 95.3866686,49.7912384 L95.5207718,49.7447401 L95.6587341,49.710539 C95.750709,49.6863291 95.8430054,49.6632722 95.937553,49.652128 C96.0314574,49.6382938 96.1253618,49.6190796 96.2205526,49.6183111 L96.3630171,49.6079354 L96.3987136,49.6048612 L96.4167227,49.603324 L96.421225,49.603324 C96.4492033,49.6029398 96.3877796,49.6029398 96.3958193,49.6029398 L96.4061102,49.603324 L96.4861862,49.6067826 C96.6984359,49.6167739 96.9341617,49.6163897 97.0849876,49.6636565 C97.1708522,49.684792 97.2551089,49.6870977 97.3435463,49.7209146 L97.607572,49.8108368 C97.6992253,49.8338937 97.7796229,49.8823134 97.8654875,49.918436 C97.9487794,49.9599385 98.0375384,49.9906811 98.1169712,50.0398693 C98.2755153,50.1367086 98.4411343,50.2224037 98.5884227,50.3353828 C98.8926473,50.5436641 99.183365,50.7738496 99.4599328,51.0028821 C99.7336062,51.2346047 100.007923,51.4582573 100.271305,51.6696128 C100.406373,51.7737535 100.537582,51.8744356 100.664289,51.9724277 C100.799035,52.0646556 100.929279,52.1534249 101.053735,52.2387357 C101.312294,52.4020559 101.555737,52.5450091 101.793393,52.6456912 C102.016577,52.7628975 102.244906,52.8201556 102.418243,52.8812566 C102.596082,52.9365933 102.751732,52.9496589 102.848209,52.9723316 C102.947259,52.9903929 103,53 103,53 C103,53 102.952726,52.9788644 102.864289,52.9396676 C102.777781,52.898165 102.644643,52.8493611 102.491566,52.7671246 C102.342348,52.6768181 102.153896,52.584206 101.96673,52.4420213 C101.769595,52.3129023 101.57246,52.1411279 101.3541,51.9593621 C101.142815,51.7699107 100.923169,51.5562494 100.689694,51.3295225 C100.458471,51.0985685 100.219529,50.8499376 99.9529309,50.6009223 C99.8188277,50.4764146 99.6872972,50.3476799 99.5393656,50.2235565 C99.4666862,50.1605342 99.3936851,50.0967432 99.3203625,50.0333365 L99.0788481,49.854645 C98.9228768,49.7305217 98.7357112,49.6259967 98.5581932,49.5141704 C98.4697559,49.4572966 98.3639526,49.415794 98.2671539,49.3658373 C98.1658529,49.3208762 98.0741997,49.2640023 97.9609999,49.2324911 L97.6316913,49.1275819 C97.5249233,49.0903065 97.3888905,49.0783937 97.2686157,49.0549524 C97.0074843,49.0003843 96.803596,49.0099914 96.5865224,49.0023057 L96.5058032,49.0003843 L96.4958339,49 C96.5009794,49 96.4356965,49.0003843 96.460459,49.0003843 L96.454992,49.0007686 L96.432159,49.0030743 L96.3868148,49.0069171 L96.206081,49.0242098 C96.0854846,49.0334326 95.9674609,49.061101 95.8500804,49.0849265 C95.7317351,49.1056778 95.6178921,49.1391104 95.5059787,49.1748487 L95.3381085,49.2259583 L95.178278,49.2897493 C94.751206,49.4561437 94.3849145,49.6828706 94.0697559,49.9153617 C93.7555621,50.1490057 93.4937875,50.3945624 93.2670662,50.6266692 C93.0425961,50.8603132 92.853501,51.082813 92.6968864,51.2837929 C92.5360912,51.4828514 92.4113141,51.6634643 92.3080836,51.8106446 C92.2032451,51.9582092 92.1305657,52.0781055 92.0787897,52.1584206 C92.0273352,52.23912 92,52.2821597 92,52.2821597" id="Fill-65" fill="#4D4442"></path>
                            <path d="M99.6006333,53.9039203 C99.1499144,54.1121645 99.0225909,53.930313 97.1201377,53.8405137 C95.8413538,53.7800038 95.6212352,53.8488821 95.3746038,53.6116704 C94.7817635,53.0410107 94.9035378,51.5388847 95.6622377,50.7133109 C96.2948473,50.0245281 97.1814873,50.0119755 97.881304,50.0019978 C98.5191545,49.9929857 100.470626,49.9653057 100.912096,51.1848375 C101.262313,52.1507428 100.51317,53.4822823 99.6006333,53.9039203" id="Fill-67" fill="#4D4442"></path>
                            <path d="M63.176117,64 C63.176117,64 60.7924798,58.5215302 58.408542,53.0430604 C58.1071315,52.3590471 57.8192438,51.6619898 57.5172323,51.0396967 C57.2086096,50.4126314 56.8825573,49.8495134 56.4474203,49.3872477 C56.0297128,48.9243456 55.5440903,48.5587961 55.0275154,48.2711924 C54.514246,47.9851794 53.9853502,47.7831568 53.4847022,47.6336283 C52.4798002,47.3336169 51.5923971,47.2362643 50.9757527,47.1758166 C50.3567042,47.1233225 50,47.1128237 50,47.1128237 C50,47.1128237 50.3536991,47.069874 50.9778562,47.0291514 C51.6014124,46.9973368 52.5008358,46.958523 53.5862743,47.111233 C54.128092,47.1888605 54.7176906,47.316437 55.3253198,47.5451838 C55.9278403,47.7707491 56.5622148,48.1124377 57.1364874,48.5915651 C57.7134647,49.0528765 58.2093045,49.6821688 58.6333227,50.3124155 C59.061548,50.9534792 59.4314746,51.5907251 59.8206337,52.2216081 L66,62.3574135 L63.176117,64 Z" id="Fill-69" fill="#E0E0E0"></path>
                            <path d="M64.8716204,84 C64.8716204,84 64.7355626,83.617439 64.4976992,82.9479574 C64.3806704,82.6300011 64.2385866,82.2433231 64.0571761,81.7929906 C63.8795714,81.3448749 63.6705688,80.8419719 63.4288996,80.2991661 C62.9487326,79.2122876 62.3347279,77.9651642 61.5910083,76.6727541 C61.2196242,76.0263908 60.8152564,75.36926 60.3810764,74.7156128 C59.9465792,74.0587987 59.4816356,73.4152855 58.9922712,72.7537211 C58.505127,72.0924733 57.9967336,71.3925895 57.5796797,70.6417186 C57.3706771,70.2677082 57.1845093,69.8848306 57.0214936,69.5016362 L56.9044648,69.2137654 C56.8518177,69.0883564 56.8334229,69.0196348 56.7966334,68.9201942 C56.7332032,68.7314473 56.663747,68.5645519 56.6066598,68.3602871 C56.3554761,67.5752138 56.2070493,66.8325768 56.1150754,66.1086245 C56.0237359,65.3891059 55.9942408,64.7072733 56.000901,64.0818115 C56.0234187,62.8299377 56.1842144,61.8073472 56.3224923,61.1014462 C56.3916313,60.7483374 56.4537929,60.4731342 56.500097,60.2862873 C56.5454496,60.0994405 56.5695531,60 56.5695531,60 C56.5695531,60 56.5584528,60.1016573 56.5375209,60.2929378 C56.5162717,60.4832682 56.4899482,60.7635385 56.4674304,61.1201309 C56.4214435,61.832049 56.3963886,62.8546395 56.531495,64.0558429 C56.6034883,64.6556529 56.7163941,65.298216 56.8895587,65.9594637 C57.0595518,66.6162778 57.2999524,67.3114114 57.6037832,67.956508 C57.6691164,68.1161195 57.7715562,68.2966325 57.8552842,68.468595 C57.896831,68.547134 57.9491609,68.6608255 57.9824618,68.7124459 L58.1210569,68.9562968 C58.3113476,69.2790035 58.5181302,69.5928428 58.744259,69.8965481 C59.1942966,70.5052254 59.7290135,71.072733 60.2951284,71.6627256 C60.8618776,72.2514515 61.4428987,72.868046 61.9845929,73.4931912 C62.5291416,74.1189697 63.0445123,74.7545656 63.5246792,75.3844611 C64.4859646,76.6436187 65.3083377,77.8790246 65.9680122,78.9652697 C66.6295896,80.0540483 67.1332257,80.9762483 67.4833607,81.6542806 C67.8119293,82.2996939 68,82.6683205 68,82.6683205 L64.8716204,84 Z" id="Fill-71" fill="#E0E0E0"></path>
                            <path d="M54.3418772,49.5982453 C52.3200043,47.8846168 51.243887,47.9716907 50.9094395,48.018429 C49.5589929,48.208263 48.4211752,49.3837616 48.1155212,50.5810287 C47.7456355,52.0311944 48.3268844,53.5431443 48.9698337,54.8921505 C49.9181206,56.8817267 50.6468175,58.7512561 52.59465,61.0475119 C54.2210078,62.9647398 57.3360843,66.6372125 58.9478872,65.9047668 C60.7210603,65.0996527 60.0363446,59.2551326 58.4944688,55.3508895 C58.2821563,54.81372 57.1120646,51.9463613 54.3418772,49.5982453" id="Fill-73" fill="#E6998B"></path>
                            <path d="M138.505355,220.946028 C138.148755,221.308688 137.809383,221.661178 137.498263,222 C136.777484,205.927878 136.171093,192.140104 135.731115,181.837813 C135.538861,177.326011 135.381062,173.475643 135.254615,170.40908 C135.254615,170.342651 135.254271,170.276221 135.249792,170.216784 C135.24738,170.187543 135.247036,170.121113 135.241178,170.013682 C135.243246,169.9107 135.239456,169.766399 135.225329,169.589042 C135.22154,169.445058 135.210859,169.278508 135.205691,169.08653 C135.20638,168.935236 135.200178,168.761693 135.190531,168.576707 C135.167447,167.930211 135.141262,167.121615 135.098883,166.171896 C135.098539,166.039037 135.098194,165.906178 135.086824,165.758063 C135.089236,165.636646 135.081312,165.499973 135.073043,165.362982 C135.07132,165.182446 135.066152,164.99015 135.057538,164.787048 C135.046168,164.354779 135.032042,163.893269 135.01516,163.420635 C135.006202,163.150785 135.005168,162.885385 135,162.626977 C139.000115,153.084651 142.999885,143.542644 147,134 C144.168566,162.982327 141.336788,191.964019 138.505355,220.946028" id="Fill-75" fill="#62B1F5"></path>
                            <path d="M108,62.4103639 C107.554047,64.3232393 107.223901,66.1178733 106.979491,67.7911295 C106.833613,68.7957105 106.717806,69.7541869 106.627911,70.6624812 C106.469237,72.246978 106.392139,73.6846925 106.362067,74.9668427 C106.340633,75.6101133 106.336155,76.2113565 106.340633,76.7702586 L106.340633,76.8712499 C106.349271,77.8504262 106.379342,78.6831339 106.413572,79.4186139 C106.516263,81.9073278 106.619274,83.2525192 105.787511,85.1653945 C105.6845,85.4047 105.568693,85.644319 105.431453,85.888329 C105.40586,85.9344338 105.380267,85.9849294 105.350196,86.0313478 C104.033771,88.2550379 101.787052,90.6722424 96.2558296,93.4256663 C91.4188092,95.8344026 89.000619,97.0409662 86.0120314,96.9989388 C84.0481115,96.9735342 81.8916066,96.0696308 77.6505762,94.2662149 C66.2966945,89.4321196 64.5858225,86.1069344 64.0240627,84.2533366 C63.9511235,84.0134038 63.9040969,83.8158122 63.8740255,83.6856526 C63.8740255,83.6771844 63.865388,83.660248 63.865388,83.6520934 C63.826679,83.4501108 63.7969275,83.2569101 63.7796524,83.071864 C63.556676,80.8397056 64.8001613,79.6921059 65.4649317,76.8082087 C65.5721012,76.3499843 65.6619955,75.8412642 65.7307759,75.2823621 C65.7349347,75.2613484 65.7349347,75.2444119 65.7349347,75.2233982 C65.8334666,74.3910042 65.8635381,73.5711557 65.8334666,72.7726345 C65.7905989,71.4315204 65.5848975,70.1452929 65.267548,68.9221065 C65.0359341,68.022594 64.7444972,67.1607181 64.4143514,66.3367923 C63.7195096,64.6089631 62.8535166,63.0573982 62,61.7376114 C69.1051735,61.3088689 74.4649248,59.9677548 78.1611506,58.7574275 C80.7808834,57.9040198 82.8862029,57 86.1748649,57 C88.5204359,56.9916482 90.2313079,57.4457954 92.3580614,58.1643389 C92.4825059,58.2022891 92.615268,58.2527847 92.7393926,58.2904212 C93.1984617,58.4459855 93.6786447,58.6100179 94.1844204,58.7865958 C94.7807304,58.9926557 95.4195882,59.211261 96.1227476,59.438021 C98.8240571,60.3168334 102.854588,61.4769786 108,62.4103639" id="Fill-77" fill="#FFFFFF"></path>
                            <path d="M108,62.5150857 C107.554047,64.4649861 107.223901,66.2943566 106.979491,68 C103.935559,65.3237224 101.016392,63.6813813 98.9184302,62.6896464 C96.742091,61.6601859 93.2397299,60.0434214 88.4983622,59.7141219 C87.5053654,59.6450649 84.7992573,59.517821 79.8643448,60.6067473 C76.1009382,61.4373492 70.6384962,63.0643444 64.4143514,66.517513 C63.7195096,64.7562403 62.8535166,63.1746437 62,61.8293115 C69.1051735,61.3922704 74.4649248,60.025198 78.1611506,58.7914439 C80.7808834,57.9215179 82.8862029,57.0001187 86.1748649,57.0001187 C88.5204359,56.9914866 90.2313079,57.4541044 92.3580614,58.1871954 C92.4825059,58.2255604 92.615268,58.2770334 92.7393926,58.3153984 C93.1984617,58.4739737 93.6786447,58.6411811 94.1844204,58.8211768 C94.7807304,59.0312251 95.4192682,59.2540617 96.1227476,59.4852108 C98.8240571,60.3810332 102.854588,61.563634 108,62.5150857" id="Fill-79" fill="#E0E0E0"></path>
                            <path d="M74,67 C71.4794607,68.6108665 68.9966587,70.2802363 66.5563112,72 C66.5141712,70.7612952 66.3116475,69.5738531 66,68.4440454 C68.6007312,67.7063832 71.2898306,67.2212697 74,67" id="Fill-81" fill="#E0E0E0"></path>
                            <path d="M71,74.1191385 C69.3371695,74.7710913 67.6704093,75.3977976 66,76 C66.0940324,75.4575723 66.1731881,74.8553699 66.2332566,74.1937641 C66.2369056,74.1688889 66.2369056,74.1488402 66.2369056,74.123965 C67.8208612,73.9594917 69.4123954,73.9594917 71,74.1191385" id="Fill-83" fill="#E0E0E0"></path>
                            <path d="M105,85.6287829 C104.974808,85.6715226 104.949301,85.7189461 104.920015,85.7619785 C103.624191,87.8377802 101.412315,90.0939083 95.9676495,92.6635582 C91.2066375,94.9120751 88.826289,96.0382363 85.8844692,95.9990095 C83.9512823,95.9752978 81.828524,95.1316282 77.6538606,93.4483875 C66.4773385,88.9364241 64.7935545,85.8325282 64.2405856,84.1024495 C64.1687878,83.8785053 64.1221822,83.6943734 64.0928963,83.5728873 C64.0928963,83.5646907 64.0843939,83.5491756 64.0843939,83.5412717 C64.0462907,83.3530414 64.0170047,83.1724224 64,83 C68.0348467,84.2280339 71.2427592,85.4010331 73.5135216,86.2839295 C78.4389127,88.1984329 81.0897626,89.5836668 84.8292306,89.1325583 C87.2646871,88.8380643 89.1427661,87.8925221 90.3160931,87.1706314 C91.5653116,87.7590338 93.9755758,88.6849626 97.0691787,88.5438631 C100.576878,88.3828575 103.265202,86.9311721 105,85.6287829" id="Fill-85" fill="#E0E0E0"></path>
                            <path d="M106,69 C105.848707,70.4726412 105.775195,71.8085974 105.746523,73 C104.103038,72.3046266 102.516593,71.4920947 101,70.5661931 C102.631284,69.9532969 104.303441,69.4298725 106,69" id="Fill-87" fill="#E0E0E0"></path>
                            <path d="M106,78 C104.616746,77.4603546 103.281144,76.8364935 102,76.1383896 C103.288496,75.7025363 104.605854,75.3217188 105.937917,75 C105.945269,76.1531642 105.970865,77.1334647 106,78" id="Fill-89" fill="#E0E0E0"></path>
                            <path d="M26.9945521,121 C24.8374746,115.939777 21.6926241,111.358359 18,107.235366 C19.674795,106.453035 21.5533758,105.691399 23.5534015,105 C23.8020138,106.394713 24.1539497,107.769357 24.6098449,109.10857 C25.2812889,111.09591 26.1778193,113.01897 26.6127319,115.070277 C27.0241185,117.013718 27.0091763,119.015482 26.9945521,121" id="Fill-91" fill="#62B1F5"></path>
                            <path d="M123,107.484835 C122.970419,107.501382 122.940838,107.520589 122.911257,107.539796 C119.974785,109.27757 117.44386,111.623462 115.401498,114.304734 C114.045543,116.081217 112.905879,118.006036 112,120 C113.216638,114.739104 116.108897,109.833091 120.172946,106 C121.105543,106.46185 122.046728,106.956795 123,107.484835" id="Fill-93" fill="#62B1F5"></path>
                            <path d="M55,208.652622 C52.6407901,212.143994 50.7050518,215.038577 49.4014478,217 C49.0001024,215.480902 48.3695047,213.58937 47.3689072,211.635606 C46.1178529,209.203454 44.7272805,207.540745 43.7153125,206.497482 C43.7153125,206.497482 41.6833865,204.359894 38.0912536,202.156884 C37.9775494,202.087312 37.8641524,202.017739 37.7507555,201.947848 C37.5688286,201.838065 37.3872091,201.7286 37.2046677,201.626795 C37.1364451,201.586903 37.0682226,201.546691 37,201.50648 C42.9408943,179.877529 46.2899459,157.479455 46.9432844,135 C51.3245864,158.728242 53.5940621,182.882853 53.7025421,207.050868 C54.1813293,207.572978 54.6192444,208.107534 55,208.652622" id="Fill-95" fill="#62B1F5"></path>
                            <path d="M24,212 C26.7106348,213.641568 30.9719238,215.714859 36.3846385,216.147856 C41.4063627,216.54997 44.4607776,215.30383 49.9485853,214.370021 C54.1328802,213.65876 60.3215557,213.028368 68.2307159,213.777834 C88.3556346,216.480245 93.0066467,218.691713 93,220.296348 C92.9847842,224.017256 67.9271755,224.79474 46.4103435,239.259066 C41.7406374,242.398612 35.6920087,247.221115 32.4395638,255.048808 C30.8043112,258.984304 30.7174948,261.653921 29.8974922,267.111274 C29.0122188,273.001942 27.3630249,281.54408 24,292 C24.1451164,278.920628 24.2186251,265.842529 24.2214768,252.766022 C24.2243284,239.178197 24.1505028,225.589735 24,212" id="Fill-97" fill="#62B1F5"></path>
                            <path d="M86.8928081,200.017828 C108.2907,200.73591 127.474797,215.349623 125.910531,220.72586 C124.803952,224.528293 112.73131,225.715877 104.037166,224.275899 C96.6763802,223.056527 93.7841552,220.293231 86.8928081,221.317427 C85.0096538,221.597158 79.6072976,222.473224 75.6605825,226.642168 C72.0803979,230.424257 71.7840607,234.712722 70.9312577,237.883853 C69.3933538,243.599899 64.6217859,250.978437 50.2400651,258 C52.4319435,249.209457 53.9981154,236.726784 47.2839989,227.825303 C39.6789653,217.742594 25.8225838,218.053476 26.0017201,214.217349 C26.1243204,211.595825 32.6653354,209.985148 65.019443,203.567549 C82.2937065,200.141164 83.8754417,199.916425 86.8928081,200.017828" id="Fill-99" fill="#62B1F5"></path>
                            <path d="M137.141938,237.485296 C132.730442,240.611619 127.561827,245.196894 124.640422,252.18203 C123.002592,256.102703 122.913632,258.762377 122.091699,264.200689 C121.204634,270.069802 119.548694,278.58146 116.178356,289 C115.818383,273.10508 116.060483,259.778155 116.399804,249.905571 C117.268759,224.643101 118.945986,217.014618 120.817337,210.988793 C125.406119,196.211482 134.300598,180.958005 137.966731,182.055946 C139.785341,182.600951 141.493069,187.52154 137.860296,212.500087 C137.227722,221.770247 137.050118,230.113771 137.141938,237.485296" id="Fill-101" fill="#62B1F5"></path>
                            <path d="M59.837705,207.783038 C114.773383,231.709039 142.241379,243.671724 158.527811,230.655797 C159.974404,229.500077 165.517899,225.0695 164.960816,220.059165 C164.031402,211.698696 146.737633,207.320939 135.949137,204.702382 C117.14185,200.13675 88.4635416,193.721142 49.7373149,187 C47.637492,188.749078 44.9504225,191.576386 45,194.955619 C45.0946419,201.262106 54.878629,205.6231 59.837705,207.783038" id="Fill-103" fill="#DE8E7F"></path>
                            <path d="M73.922097,215.754983 C71.1170594,217.296101 66.9412242,211.316257 52.1850284,204.854968 C48.5691276,203.271316 46.7627553,202.479798 45.2117308,202.126882 C36.0526692,200.04175 24.0828886,203.030593 18.4166306,201.639272 C17.247523,201.35509 15.9666811,200.942071 15.396962,199.903666 C15.3669768,199.849419 14.7013052,198.661525 15.1618149,197.574729 C15.3152129,197.213183 15.5917081,196.92407 16.1450142,196.345842 C16.9492491,195.505625 17.3037058,195.386959 17.3198032,195.007536 C17.3437913,194.457665 16.6190961,194.276738 16.4249813,193.759539 C16.2005657,193.160969 16.6866418,192.110543 19.2858861,190.148393 C19.1773081,190.082125 19.06873,190.016165 18.9629927,189.953287 C17.6676316,189.141427 16.6512908,188.243572 16.7923791,187.431711 C16.9890189,186.295907 19.3594288,185.782407 25.6427508,184.681124 C31.8730464,183.588164 36.2379463,182.916853 36.2174301,182.386092 C36.205436,182.059375 34.5518305,182.090506 32.4427654,181.872592 C29.6670818,181.588718 26.1098889,180.877338 24.4676462,178.370249 C24.4060976,178.275624 24.3237172,178.152335 24.2384961,178.005928 C23.9361189,177.492428 23.5863966,176.715397 23.8802517,176.075833 C24.1756849,175.432571 27.2723682,174.015975 37.3925347,176.075833 C55.139992,179.687288 57.9002096,186.492554 72.5434085,188.314463 C77.9009766,188.980842 83.925479,188.865567 84,189.844176 C84.0583608,190.629221 80.1618616,190.460623 77.4392044,192.712504 C70.6164642,198.356384 78.1793657,213.415259 73.922097,215.754983" id="Fill-105" fill="#FFFFFF"></path>
                            <path d="M118.986964,201.724428 C82.7819807,217.592056 58.3217921,222.202215 58.280463,222.2101 C58.2524863,222.215462 58.2810988,222.209785 58.280463,222.2101 C16.3145125,232.65069 8.96427974,222.769615 8.96427974,222.769615 C5.98222163,218.760917 6.85490282,212.634329 8.55893602,208.798154 C13.5909206,197.47256 30.7959335,195.293166 40.9037752,193.684325 C72.6909885,188.624725 102.373912,184.447606 129.206394,181 C131.331031,182.744146 134.049854,185.563481 134,188.933183 C133.908381,194.969253 124.987004,199.094647 118.986964,201.724428" id="Fill-107" fill="#E6998B"></path>
                            <path d="M162.92068,192.214457 C163.039058,193.015793 163.070144,193.876861 162.687691,194.591116 C162.12186,195.648038 160.846387,196.069297 159.684582,196.361035 C154.045745,197.777914 142.137872,194.731326 133.028065,196.85743 C131.483492,197.218016 129.68552,198.024697 126.089263,199.638373 C110.894423,206.456493 107.921144,212.277736 104.464931,210.755856 C100.881862,209.178333 102.357354,202.164988 102.047749,186.590325 C102.037073,186.065323 102.00316,184.715405 102.8428,183.534306 C103.373148,182.788299 104.213416,182.335602 105.022912,181.909627 C109.38596,179.61219 113.749009,177.314438 118.112058,175.017316 C121.859978,173.043997 125.654999,171.052444 129.767788,170.043307 C133.671453,169.085099 137.732747,169.043916 141.75165,169.007763 C147.842963,168.952748 154.493511,169.086356 159.186576,172.973892 C160.7682,174.283884 161.754479,177.26854 159.840954,178.011718 C160.561902,179.203505 161.306085,180.475144 161.300433,181.868759 C161.295095,183.261745 160.206452,184.749043 158.819194,184.639327 C161.012494,186.581523 162.492382,189.314052 162.92068,192.214457" id="Fill-109" fill="#FFFFFF"></path>
                            <path d="M42.9445403,182.766103 C44.8006461,183.176958 48.0227131,183.871694 48,183.98446 C47.9754815,184.104784 44.2770328,183.504071 41.0136773,182.952938 C34.4284743,182.591361 29.5967814,181.622117 27.7572535,180.892917 C26.9255405,180.563084 25.2705598,179.94272 24.2270868,178.357344 C24.1657796,178.264532 24.0844538,178.143603 24,178 C32.1810661,180.281623 38.5310498,181.789604 42.9445403,182.766103" id="Fill-111" fill="#EDEDED"></path>
                            <path d="M38,188 C33.9063819,188.673028 30.6896956,189.164856 28.5283109,189.487147 C23.8081769,190.190328 22.6376649,190.305533 20.4550155,190.987095 C18.7478073,191.519885 17.1437488,192.17357 17.0088606,191.957666 C16.8784158,191.748589 18.2130153,190.854253 19.3797187,190.120635 C19.2705386,190.059477 19.1613586,189.998603 19.0550349,189.940573 C25.3700233,189.292009 31.6850116,188.646004 38,188" id="Fill-113" fill="#EDEDED"></path>
                            <g id="Group-117" stroke-width="1" fill="none" transform="translate(99.000000, 316.000000)">
                                <mask id="mask-12" fill="white">
                                    <use xlink:href="#path-11"></use>
                                </mask>
                                <g id="Clip-116"></g>
                                <path d="M48.7369705,21.0000646 L43.4663295,21.0000646 C40.9032526,19.0745262 38.2742141,17.2459108 35.5195346,15.6305262 C35.4912654,15.6143723 35.4661372,15.5978954 35.4378679,15.5817415 C24.8588936,9.39837231 12.2445346,6.66837231 0.226970513,8.14483385 C6.0315859,6.75528 11.927291,5.68912615 17.8512654,4.72991077 C23.068509,3.88344923 28.3108808,3.12421846 33.5312654,2.30037231 C37.5769064,1.66358769 41.6099833,0.98868 45.61165,0.206833846 C46.1801756,5.18544923 46.5728038,8.32575692 46.8240859,9.87329538 C47.5339577,14.1957415 48.2155603,17.8888338 48.7369705,21.0000646" id="Fill-115" fill="#62B1F5" mask="url(#mask-12)"></path>
                            </g>
                            <g id="Group-120" stroke-width="1" fill="none" transform="translate(19.000000, 279.000000)">
                                <mask id="mask-14" fill="white">
                                    <use xlink:href="#path-13"></use>
                                </mask>
                                <g id="Clip-119"></g>
                                <path d="M22.0414484,51.4474866 C28.6923401,52.3974883 35.3463529,53.3474901 41.9972446,54.3006272 C38.8980726,55.2286817 35.8269898,56.2570664 32.7933592,57.3763754 L0.113168153,57.3763754 C0.284824204,48.9110132 0.78730828,41.8628153 1.24609809,36.8024099 C0.974569427,23.765752 0.937117197,11.748073 1.05883694,0.721154803 C1.15558854,0.670989694 1.25546115,0.623959904 1.35533376,0.583200752 C1.82348662,0.373134356 2.31972866,0.225774346 2.84093885,0.150526682 C3.53068408,0.0501964628 4.20170318,0.087506763 4.84775414,0.235180304 C5.21291338,0.316698607 5.56870955,0.435840743 5.91514268,0.583200752 C6.61112994,0.88105609 7.26654395,1.29805356 7.87514268,1.80283998 C9.16724459,2.87198388 10.2377541,4.32018788 10.9867987,5.80946457 C12.5785185,8.97645065 13.3806204,12.5914739 15.602786,15.3474196 C20.6089006,21.5584872 30.146735,20.790334 37.4249516,24.0259835 C43.1894739,26.5906748 47.611958,32.0085066 48.9883274,38.1913563 C38.5110662,29.1867192 22.7249516,26.9700484 10.1846968,32.7453066 C11.3738051,37.3322788 11.3269898,42.9037413 13.5023401,46.7476428 C14.2451427,48.0578928 15.2469898,49.1681094 16.6420854,49.9676158 C18.2743783,50.8988057 20.181321,51.1841197 22.0414484,51.4474866" id="Fill-118" fill="#62B1F5" mask="url(#mask-14)"></path>
                            </g>
                        </g>
                    </g>
                </g>
            </g>
        </g>
    </g>
</svg>