<?xml version="1.0" encoding="UTF-8"?>
<svg width="298px" height="298px" viewBox="0 0 298 298" version="1.1" xmlns="http://www.w3.org/2000/svg" xmlns:xlink="http://www.w3.org/1999/xlink">
    <!-- Generator: Sketch 61.1 (89650) - https://sketch.com -->
    <title>Group 21</title>
    <desc>Created with Sketch.</desc>
    <g id="Page-1" stroke="none" stroke-width="1" fill="none" fill-rule="evenodd">
        <g id="Slide_3-Copy" transform="translate(-571.000000, -412.000000)">
            <g id="Group-2" transform="translate(571.000000, 412.000000)">
                <g id="Group">
                    <circle id="Oval" fill="#34A853" opacity="0.14" cx="149" cy="149" r="149"></circle>
                    <circle id="Oval" stroke="#34A853" stroke-width="16" cx="149" cy="149" r="141"></circle>
                </g>
                <circle id="Oval" stroke="#979797" fill="#D8D8D8" cx="166" cy="174" r="5.5"></circle>
                <g id="Sample-03" transform="translate(67.000000, 63.000000)" fill-rule="nonzero">
                    <path d="M17.1639997,10.9409998 L145.382998,10.9409998 C151.352091,10.9409998 156.190997,15.7799062 156.190997,21.7489996 L156.190997,172.843997 L6.35599989,172.843997 L6.35599989,21.7489996 C6.35599989,15.7799062 11.1949062,10.9409998 17.1639997,10.9409998 Z" id="Path" fill="#FFCD69" transform="translate(81.273499, 91.892498) rotate(180.000000) translate(-81.273499, -91.892498) "></path>
                    <path d="M3.11499995,19.7679997 L154.202997,19.7679997 C157.090894,19.7679997 159.431997,22.1091027 159.431997,24.9969996 L159.431997,153.215997 C159.431997,154.602814 158.881086,155.932831 157.900459,156.913459 C156.919831,157.894086 155.589814,158.444997 154.202997,158.444997 L3.11499995,158.444997 L3.11499995,19.7679997 Z" id="Path" fill="#FFE197" transform="translate(81.273499, 89.106498) rotate(90.000000) translate(-81.273499, -89.106498) "></path>
                    <path d="M150.611997,84.3569986 L150.611997,162.056997 C150.608153,164.944435 148.270428,167.28529 145.382998,167.292997 L17.1639997,167.292997 C14.2765696,167.28529 11.9388446,164.944435 11.9349998,162.056997 L11.9349998,84.3569986 L150.611997,84.3569986 Z" id="Path" fill="#FAF3DE"></path>
                    <path d="M132.572998,85.0429986 L147.272997,86.7859985 C147.815734,86.8972354 148.377125,86.8780425 148.910997,86.7299985 C150.618997,86.1139985 149.512997,85.0009986 148.406997,84.8679986 C146.712697,84.7970931 145.015673,84.8274806 143.324998,84.9589986 L132.572998,85.0429986 Z" id="Path" fill="#AD1F21"></path>
                    <path d="M59.331999,162.637022 C89.6629985,161.937022 120.063998,161.237022 150.289997,163.918022 C144.689998,163.421022 137.948998,165.395022 132.271998,165.780022 C126.018665,166.200022 119.760665,166.391355 113.497998,166.354022 C107.897998,166.319022 101.842998,165.332022 96.3129984,166.137022 C90.7254591,166.950307 85.064046,167.131116 79.4359986,166.676022 C72.5985528,166.12922 65.850087,164.773418 59.331999,162.637022 Z" id="Path" fill="#AD1F21"></path>
                    <path d="M27.9999995,116.899998 L92.7919984,123.899998 L121.239998,126.951998 C122.016998,127.035998 122.884998,127.175998 123.339998,127.812998 C123.878998,128.603998 123.409998,129.751998 122.639998,130.276998 C121.794715,130.725002 120.844617,130.937746 119.888998,130.892998 C104.446998,131.473998 88.9139985,129.961998 73.5769987,131.830998 C53.6479991,134.259998 34.3769994,142.330998 14.3219998,141.728998 C12.0623204,135.376404 13.7732236,128.288693 18.682103,123.666519 C23.5909824,119.044345 30.7687171,117.762563 36.9739994,120.399998" id="Path" fill="#AD1F21" opacity="0.2"></path>
                    <path d="M139.726998,88.6199985 L115.814998,93.7019984 L88.9559985,91.2939984 C74.5709987,89.9989985 59.975999,88.7179985 45.7659992,91.2939984 C59.926999,84.6229986 75.6839987,85.9039985 90.8389985,86.7299985 C98.5389983,87.1569985 106.329998,87.3599985 114.064998,87.6539985 C121.799998,87.9479985 132.215998,90.2159985 139.726998,88.6199985 Z" id="Path" fill="#AD1F21"></path>
                    <rect id="Rectangle" fill="#FFFFFF" transform="translate(44.908499, 67.000000) rotate(180.000000) translate(-44.908499, -67.000000) " x="8.53999985" y="47" width="72.7369988" height="40"></rect>
                    <g id="Group" style="mix-blend-mode: multiply;" transform="translate(9.800000, 55.699999)" fill="#CFECFF">
                        <rect id="Rectangle" transform="translate(33.421499, 0.550001) rotate(180.000000) translate(-33.421499, -0.550001) " x="0.538999991" y="0.300001442" width="65.7649989" height="1"></rect>
                        <rect id="Rectangle" transform="translate(33.421499, 11.550001) rotate(180.000000) translate(-33.421499, -11.550001) " x="0.538999991" y="11.3000014" width="65.7649989" height="1"></rect>
                        <rect id="Rectangle" transform="translate(33.421499, 23.550001) rotate(180.000000) translate(-33.421499, -23.550001) " x="0.538999991" y="23.3000014" width="65.7649989" height="1"></rect>
                    </g>
                    <path d="M27.6429995,10.9479998 L27.6429995,162.035997 C27.6429983,168.006224 32.4807737,172.847133 38.4509993,172.850997 L17.1639997,172.850997 C11.1937741,172.847133 6.35599989,168.006224 6.35599989,162.035997 L6.35599989,10.9479998 L27.6429995,10.9479998 Z" id="Path" fill="#E8E8E8" style="mix-blend-mode: multiply;"></path>
                    <rect id="Rectangle" fill="#616161" style="mix-blend-mode: screen;" transform="translate(130.889498, 68.872999) rotate(180.000000) translate(-130.889498, -68.872999) " x="117.480998" y="28.3779995" width="26.8169995" height="80.9899986"></rect>
                    <rect id="Rectangle" fill="#616161" style="mix-blend-mode: screen;" transform="translate(130.889498, 132.257998) rotate(180.000000) translate(-130.889498, -132.257998) " x="117.480998" y="119.321998" width="26.8169995" height="25.8719996"></rect>
                    <rect id="Rectangle" fill="#FFB338" transform="translate(81.273499, 27.706000) rotate(180.000000) translate(-81.273499, -27.706000) " x="0.0979999983" y="24.6889996" width="162.350997" height="6.0339999" rx="1.17599998"></rect>
                    <path d="M2.16299996,24.6889996 L2.16299996,2.98899995 C2.16685862,1.55358491 3.3315797,0.391999993 4.76699992,0.391999993 L157.786997,0.391999993 C159.221281,0.391999993 160.383997,1.55471648 160.383997,2.98899995 L160.383997,24.6889996 L2.16299996,24.6889996 Z" id="Path" fill="#FFB338"></path>
                    <rect id="Rectangle" fill="#DFA100" transform="translate(81.269999, 12.537000) rotate(180.000000) translate(-81.269999, -12.537000) " x="79.2749986" y="3.35999994" width="3.98999993" height="18.3539997"></rect>
                    <rect id="Rectangle" fill="#DFA100" transform="translate(98.965998, 12.537000) rotate(180.000000) translate(-98.965998, -12.537000) " x="96.9709983" y="3.35999994" width="3.98999993" height="18.3539997"></rect>
                    <rect id="Rectangle" fill="#DFA100" transform="translate(116.647998, 12.537000) rotate(180.000000) translate(-116.647998, -12.537000) " x="114.652998" y="3.35999994" width="3.98999993" height="18.3539997"></rect>
                    <rect id="Rectangle" fill="#DFA100" transform="translate(134.329998, 12.537000) rotate(180.000000) translate(-134.329998, -12.537000) " x="132.334998" y="3.35999994" width="3.98999993" height="18.3539997"></rect>
                    <rect id="Rectangle" fill="#DFA100" transform="translate(152.018997, 12.537000) rotate(180.000000) translate(-152.018997, -12.537000) " x="150.023997" y="3.35999994" width="3.98999993" height="18.3539997"></rect>
                    <rect id="Rectangle" fill="#DFA100" transform="translate(10.528000, 12.537000) rotate(180.000000) translate(-10.528000, -12.537000) " x="8.53299985" y="3.35999994" width="3.98999993" height="18.3539997"></rect>
                    <rect id="Rectangle" fill="#DFA100" transform="translate(28.217000, 12.537000) rotate(180.000000) translate(-28.217000, -12.537000) " x="26.2219996" y="3.35999994" width="3.98999993" height="18.3539997"></rect>
                    <rect id="Rectangle" fill="#DFA100" transform="translate(45.898999, 12.537000) rotate(180.000000) translate(-45.898999, -12.537000) " x="43.9039993" y="3.35999994" width="3.98999993" height="18.3539997"></rect>
                    <rect id="Rectangle" fill="#DFA100" transform="translate(63.587999, 12.537000) rotate(180.000000) translate(-63.587999, -12.537000) " x="61.592999" y="3.35999994" width="3.98999993" height="18.3539997"></rect>
                    <rect id="Rectangle" fill="#DEDEDE" style="mix-blend-mode: multiply;" x="6.35599989" y="30.7229995" width="149.834997" height="4.24899993"></rect>
                </g>
                <circle id="Oval" fill="#FFF0C2" cx="157" cy="166" r="3"></circle>
                <circle id="Oval-Copy-3" fill="#FFF0C2" cx="195.5" cy="163.5" r="1.5"></circle>
                <circle id="Oval-Copy" fill="#FFF0C2" cx="114" cy="164" r="2"></circle>
                <circle id="Oval-Copy-2" fill="#FFF0C2" cx="159" cy="198" r="2"></circle>
            </g>
        </g>
    </g>
</svg>