<?xml version="1.0" encoding="UTF-8"?>
<svg width="298px" height="298px" viewBox="0 0 298 298" version="1.1" xmlns="http://www.w3.org/2000/svg" xmlns:xlink="http://www.w3.org/1999/xlink">
    <!-- Generator: Sketch 61.1 (89650) - https://sketch.com -->
    <title>Group 21</title>
    <desc>Created with Sketch.</desc>
    <g id="Page-1" stroke="none" stroke-width="1" fill="none" fill-rule="evenodd">
        <g id="Slide_4-Copy" transform="translate(-571.000000, -412.000000)">
            <g id="Group-2" transform="translate(571.000000, 412.000000)">
                <g id="Group">
                    <circle id="Oval" fill="#34A853" opacity="0.14" cx="149" cy="149" r="149"></circle>
                    <circle id="Oval" stroke="#34A853" stroke-width="16" cx="149" cy="149" r="141"></circle>
                </g>
                <g id="Sample-04" transform="translate(67.000000, 62.000000)" fill-rule="nonzero">
                    <path d="M17.1639997,10.9409998 L145.382998,10.9409998 C151.352091,10.9409998 156.190997,15.7799062 156.190997,21.7489996 L156.190997,172.843997 L6.35599989,172.843997 L6.35599989,21.7489996 C6.35599989,15.7799062 11.1949062,10.9409998 17.1639997,10.9409998 Z" id="Path" fill="#FFCD69" transform="translate(81.273499, 91.892498) rotate(180.000000) translate(-81.273499, -91.892498) "></path>
                    <path d="M3.11499995,19.7679997 L154.202997,19.7679997 C157.090894,19.7679997 159.431997,22.1091027 159.431997,24.9969996 L159.431997,153.215997 C159.431997,154.602814 158.881086,155.932831 157.900459,156.913459 C156.919831,157.894086 155.589814,158.444997 154.202997,158.444997 L3.11499995,158.444997 L3.11499995,19.7679997 Z" id="Path" fill="#FFE197" transform="translate(81.273499, 89.106498) rotate(90.000000) translate(-81.273499, -89.106498) "></path>
                    <g id="Group" transform="translate(41.299999, 99.399998)">
                        <path d="M13.3699998,40.4879993 C-5.52999991,46.1789992 0.104999998,58.526999 7.54599987,64.5539989 C21.7209996,76.0199987 69.7829988,77.2659987 84.3709986,63.1539989 C92.9879984,54.8029991 80.4369986,39.6409993 65.8769989,39.5429993 C51.3169991,39.4449993 13.3699998,40.4879993 13.3699998,40.4879993 Z" id="Path" fill="#4D2314"></path>
                        <path d="M57.665999,0.804999986 C43.0009993,13.3559998 69.5659988,11.8439998 73.2549988,25.2629996 C76.9439987,38.6819993 14.4549998,42.0629993 18.7039997,25.2629996 C21.7769996,13.0339998 33.9639994,-1.57499997 57.665999,0.804999986 Z" id="Path" fill="#4D2314"></path>
                        <path d="M22.3999996,25.4729996 C7.80499987,24.4089996 1.04299998,33.7819994 8.99499985,42.9169993 C16.9469997,52.0519991 73.0729988,56.685999 81.4939986,42.9169993 C89.9149985,29.1479995 70.1049988,21.5599996 53.7249991,21.9169996 C43.2025217,22.2278823 32.7244122,23.4173526 22.3999996,25.4729996 Z" id="Path" fill="#4D2314"></path>
                        <path d="M80.1079986,44.5969992 C68.8729988,58.687999 29.7079995,55.6709991 29.7079995,55.6709991 C29.7079995,55.6709991 67.0809989,65.3589989 83.4469986,47.8029992 C83.1809986,47.4739992 80.8219986,44.8559992 80.1079986,44.5969992 Z" id="Path" fill="#D6D6D6" style="mix-blend-mode: multiply;"></path>
                        <path d="M18.7039997,25.2629996 C17.3949997,29.1129995 32.3889994,33.7679994 44.5269992,32.1369995 C30.3589995,35.6369994 16.9959997,31.5139995 16.2539997,25.6759996 L18.7039997,25.2629996 Z" id="Path" fill="#D6D6D6" style="mix-blend-mode: multiply;"></path>
                        <path d="M73.2549988,25.2629996 C73.2969988,25.4309996 73.3319988,25.5919996 73.3599988,25.7529996 L71.1619988,30.0929995 C71.1619988,30.0929995 72.2119988,22.7359996 58.323999,19.9009997 C44.4359992,17.0659997 49.2659992,3.10099995 57.665999,0.804999986 C43.0009993,13.3559998 69.5729988,11.8439998 73.2549988,25.2629996 Z" id="Path" fill="#D6D6D6" style="mix-blend-mode: multiply;"></path>
                        <path d="M6.1249999,43.6589993 C-5.6699999,55.859999 20.9229996,71.5889988 45.0869992,73.4439987 C29.6869995,73.3669988 14.5249998,70.1959988 7.54599987,64.5539989 C1.28799998,59.499999 -3.67499994,49.9519991 6.1249999,43.6589993 Z" id="Path" fill="#D6D6D6" style="mix-blend-mode: multiply;"></path>
                        <path d="M50.1129991,23.3659996 C51.8769991,24.3039996 54.0399991,22.5469996 51.6949991,21.4549996 C49.3499992,20.3629997 48.4189992,17.6889997 48.0339992,20.2509997 C47.6489992,22.8129996 48.6359992,24.2339996 49.5669992,24.2339996 C50.4979991,24.2339996 49.2939992,22.9249996 50.1129991,23.3659996 Z" id="Path" fill="#E3E3E3" style="mix-blend-mode: multiply;"></path>
                        <path d="M66.0029989,44.4709992 C67.5219989,43.1619993 66.6609989,40.5089993 64.7919989,42.3009993 C62.9229989,44.0929992 60.101999,43.9949993 62.3559989,45.2759992 C64.6099989,46.5569992 66.2829989,46.1579992 66.6189989,45.2759992 C66.9549989,44.3939992 65.3029989,45.0729992 66.0029989,44.4709992 Z" id="Path" fill="#AD1F21"></path>
                        <path d="M29.8549995,67.1999989 C31.0379995,66.1709989 30.3659995,64.0919989 28.9029995,65.4989989 C27.4399995,66.9059989 25.2209996,66.8289989 26.9849995,67.8369988 C28.7489995,68.8449988 30.0719995,68.5369988 30.3379995,67.8369988 C30.6039995,67.1369989 29.3019995,67.6549988 29.8549995,67.1999989 Z" id="Path" fill="#E3E3E3" style="mix-blend-mode: multiply;"></path>
                        <path d="M34.3979994,15.2249997 C37.5899994,16.8839997 41.3979993,16.8209997 44.9679992,16.4569997 C46.6129992,16.2889997 48.3069992,16.0719997 49.8679992,16.5269997 C51.7369991,17.0659997 53.2209991,18.4659997 54.9219991,19.4109997 C57.868999,21.0419996 61.368999,21.2729996 64.5889989,22.2949996 C67.8089988,23.3169996 71.0779988,25.6759996 71.2949988,29.0429995 C61.494999,24.9619996 50.1899991,27.3139995 39.7249993,25.3889996 C37.0649994,24.8989996 34.3279994,24.0589996 32.4449994,22.1129996 C30.5619995,20.1669997 27.6989995,14.1679998 28.4549995,11.5219998 C29.0849995,9.30999984 29.9319995,10.5069998 30.7159995,11.6689998 C31.610038,13.1568862 32.8798969,14.3832898 34.3979994,15.2249997 L34.3979994,15.2249997 Z" id="Path" fill="#AD1F21"></path>
                        <path d="M44.4779992,3.73099994 C48.7995728,3.87009997 53.1039812,3.12451069 57.126999,1.53999997 C56.293999,1.86899997 53.4869991,1.19699998 52.5419991,1.08499998 C51.5969991,0.972999983 50.6869991,0.664999989 49.7419992,0.58099999 C47.7539992,0.398999993 44.6879992,1.35099998 44.4779992,3.73099994 Z" id="Path" fill="#AD1F21"></path>
                        <path d="M85.6799985,54.1799991 C82.5999986,62.1249989 75.5999987,66.4579989 67.5569988,67.9839988 C68.2569988,68.0819988 68.9569988,68.1869988 69.7059988,68.2779988 C73.9689987,68.8099988 78.6659987,69.0409988 82.1729986,66.5629989 C84.8893098,64.5271974 86.4643359,61.3120615 86.4079985,57.917999 C86.4254828,56.6351477 86.1776318,55.3625279 85.6799985,54.1799991 L85.6799985,54.1799991 Z" id="Path" fill="#911C22"></path>
                        <path d="M85.6799985,54.1799991 C84.9860835,52.7260099 84.0565492,51.3967521 82.9289986,50.2459991 C82.6419986,51.1069991 82.3549986,51.9679991 82.0609986,52.8359991 C80.4089986,57.791999 74.6199987,61.550999 69.5589988,62.8389989 C64.4979989,64.1269989 59.177999,63.7979989 53.9628067,63.4479989 C53.9526789,64.2270135 54.3581188,64.9525375 55.0269991,65.3519989 C55.6759477,65.7294209 56.3871298,65.9878171 57.126999,66.1149989 C60.563999,66.8709989 64.0359989,67.5149989 67.5219989,67.9839988 C75.5999987,66.4579989 82.5999986,62.1249989 85.6799985,54.1799991 Z" id="Path" fill="#AD1F21"></path>
                    </g>
                    <rect id="Rectangle" fill="#FFFFFF" transform="translate(44.155999, 73.206000) rotate(180.000000) translate(-44.155999, -73.206000) " x="8.53999985" y="54.2059996" width="71.2319988" height="38"></rect>
                    <g id="Group" style="mix-blend-mode: multiply;" transform="translate(9.800000, 60.699999)" fill="#CFECFF">
                        <rect id="Rectangle" transform="translate(32.700499, 1.506001) rotate(180.000000) translate(-32.700499, -1.506001) " x="0.496999992" y="0.50600103" width="64.4069989" height="2"></rect>
                        <rect id="Rectangle" transform="translate(32.700499, 12.506001) rotate(180.000000) translate(-32.700499, -12.506001) " x="0.496999992" y="11.506001" width="64.4069989" height="2"></rect>
                        <rect id="Rectangle" transform="translate(32.700499, 23.506001) rotate(180.000000) translate(-32.700499, -23.506001) " x="0.496999992" y="22.506001" width="64.4069989" height="2"></rect>
                    </g>
                    <path d="M27.6429995,10.9479998 L27.6429995,162.035997 C27.6429983,168.006224 32.4807737,172.847133 38.4509993,172.850997 L17.1639997,172.850997 C11.1937741,172.847133 6.35599989,168.006224 6.35599989,162.035997 L6.35599989,10.9479998 L27.6429995,10.9479998 Z" id="Path" fill="#E8E8E8" style="mix-blend-mode: multiply;"></path>
                    <rect id="Rectangle" fill="#616161" style="mix-blend-mode: screen;" transform="translate(130.889498, 68.872999) rotate(180.000000) translate(-130.889498, -68.872999) " x="117.480998" y="28.3779995" width="26.8169995" height="80.9899986"></rect>
                    <rect id="Rectangle" fill="#616161" style="mix-blend-mode: screen;" transform="translate(130.889498, 132.257998) rotate(180.000000) translate(-130.889498, -132.257998) " x="117.480998" y="119.321998" width="26.8169995" height="25.8719996"></rect>
                    <rect id="Rectangle" fill="#FFB338" transform="translate(81.273499, 27.706000) rotate(180.000000) translate(-81.273499, -27.706000) " x="0.0979999983" y="24.6889996" width="162.350997" height="6.0339999" rx="1.17599998"></rect>
                    <path d="M2.16299996,24.6889996 L2.16299996,2.98899995 C2.16685862,1.55358491 3.3315797,0.391999993 4.76699992,0.391999993 L157.786997,0.391999993 C159.221281,0.391999993 160.383997,1.55471648 160.383997,2.98899995 L160.383997,24.6889996 L2.16299996,24.6889996 Z" id="Path" fill="#FFB338"></path>
                    <rect id="Rectangle" fill="#DFA100" transform="translate(81.269999, 12.537000) rotate(180.000000) translate(-81.269999, -12.537000) " x="79.2749986" y="3.35999994" width="3.98999993" height="18.3539997"></rect>
                    <rect id="Rectangle" fill="#DFA100" transform="translate(98.965998, 12.537000) rotate(180.000000) translate(-98.965998, -12.537000) " x="96.9709983" y="3.35999994" width="3.98999993" height="18.3539997"></rect>
                    <rect id="Rectangle" fill="#DFA100" transform="translate(116.647998, 12.537000) rotate(180.000000) translate(-116.647998, -12.537000) " x="114.652998" y="3.35999994" width="3.98999993" height="18.3539997"></rect>
                    <rect id="Rectangle" fill="#DFA100" transform="translate(134.329998, 12.537000) rotate(180.000000) translate(-134.329998, -12.537000) " x="132.334998" y="3.35999994" width="3.98999993" height="18.3539997"></rect>
                    <rect id="Rectangle" fill="#DFA100" transform="translate(152.018997, 12.537000) rotate(180.000000) translate(-152.018997, -12.537000) " x="150.023997" y="3.35999994" width="3.98999993" height="18.3539997"></rect>
                    <rect id="Rectangle" fill="#DFA100" transform="translate(10.528000, 12.537000) rotate(180.000000) translate(-10.528000, -12.537000) " x="8.53299985" y="3.35999994" width="3.98999993" height="18.3539997"></rect>
                    <rect id="Rectangle" fill="#DFA100" transform="translate(28.217000, 12.537000) rotate(180.000000) translate(-28.217000, -12.537000) " x="26.2219996" y="3.35999994" width="3.98999993" height="18.3539997"></rect>
                    <rect id="Rectangle" fill="#DFA100" transform="translate(45.898999, 12.537000) rotate(180.000000) translate(-45.898999, -12.537000) " x="43.9039993" y="3.35999994" width="3.98999993" height="18.3539997"></rect>
                    <rect id="Rectangle" fill="#DFA100" transform="translate(63.587999, 12.537000) rotate(180.000000) translate(-63.587999, -12.537000) " x="61.592999" y="3.35999994" width="3.98999993" height="18.3539997"></rect>
                    <rect id="Rectangle" fill="#DEDEDE" style="mix-blend-mode: multiply;" x="6.35599989" y="30.7229995" width="149.834997" height="4.24899993"></rect>
                </g>
            </g>
        </g>
    </g>
</svg>