<?xml version="1.0" encoding="UTF-8"?>
<svg width="298px" height="316px" viewBox="0 0 298 316" version="1.1" xmlns="http://www.w3.org/2000/svg" xmlns:xlink="http://www.w3.org/1999/xlink">
    <!-- Generator: Sketch 61.1 (89650) - https://sketch.com -->
    <title>Group</title>
    <desc>Created with Sketch.</desc>
    <defs>
        <path d="M149,348 C231.290428,348 298,281.290428 298,199 C298,116.709572 231.290428,0 149,0 C66.7095723,0 0,116.709572 0,199 C0,281.290428 66.7095723,348 149,348 Z" id="path-1"></path>
        <polygon id="path-3" points="0.128289648 0.11410598 92.8361644 0.11410598 92.8361644 109 0.128289648 109"></polygon>
        <polygon id="path-5" points="0 0.0950713556 28.8971686 0.0950713556 28.8971686 44.9656531 0 44.9656531"></polygon>
        <polygon id="path-7" points="0.139920965 0.150628272 77.9007206 0.150628272 77.9007206 34.9818539 0.139920965 34.9818539"></polygon>
        <polygon id="path-9" points="0.110769672 0.0430289125 66.9915792 0.0430289125 66.9915792 68.9624984 0.110769672 68.9624984"></polygon>
        <polygon id="path-11" points="0.00217810761 0.190648531 31.7260976 0.190648531 31.7260976 30 0.00217810761 30"></polygon>
    </defs>
    <g id="Page-1" stroke="none" stroke-width="1" fill="none" fill-rule="evenodd">
        <g id="Slide_5" transform="translate(-571.000000, -394.000000)">
            <g id="Group" transform="translate(571.000000, 362.000000)">
                <circle id="Oval" fill="#FEF4DB" cx="149" cy="199" r="149"></circle>
                <circle id="Oval" stroke="#F7B500" stroke-width="16" cx="149" cy="199" r="141"></circle>
                <g id="Group-83">
                    <mask id="mask-2" fill="white">
                        <use xlink:href="#path-1"></use>
                    </mask>
                    <g id="Mask" opacity="0.0748000372"></g>
                    <g mask="url(#mask-2)">
                        <g transform="translate(45.000000, 32.000000)">
                            <g id="Group-3" stroke-width="1" fill="none" transform="translate(105.000000, 212.000000)">
                                <mask id="mask-4" fill="white">
                                    <use xlink:href="#path-3"></use>
                                </mask>
                                <g id="Clip-2"></g>
                                <path d="M92.8361644,10.8118585 C92.8361644,10.5833568 92.8341741,10.3557605 92.8303745,10.1290694 C87.2594212,10.173611 81.67725,10.0117405 76.1193239,9.80623389 C52.2389504,8.9233701 28.0062986,7.19294983 5.28118774,0.11410598 L0.460386187,55.8585528 C-0.958135214,72.263596 2.1857714,88.7412455 9.54435117,103.469101 L12.3079348,109.000036 L41.4408181,109.000036 C33.9691547,90.1294565 33.1482578,69.2740628 39.113285,49.8736924 L44.1893842,33.3649 L44.1893842,58.4160694 C44.1893842,73.2042189 47.8612558,87.7606076 54.8747947,100.777236 L59.3056839,109.000036 L87.0645554,109.000036 L86.9458628,108.710154 C79.2384426,89.8560512 78.2091099,68.9325777 84.0250477,49.4110761 C88.4720399,34.4838701 92.8361644,18.0033236 92.8361644,10.8118585" id="Fill-1" fill="#F7B500" mask="url(#mask-4)"></path>
                            </g>
                            <path d="M198,221.992406 C197.758119,207.351032 189.99428,196 189.99428,196 L110.43284,206.675763 L110,211.762199 C132.84231,218.993183 157.19956,220.760979 181.203082,221.662817 C186.789445,221.872741 192.40036,222.037905 198,221.992406" id="Fill-4" fill="#F1890E"></path>
                            <g id="Group-8" stroke-width="1" fill="none" transform="translate(0.000000, 65.000000)">
                                <mask id="mask-6" fill="white">
                                    <use xlink:href="#path-5"></use>
                                </mask>
                                <g id="Clip-7"></g>
                                <path d="M28.8971686,41.3399388 C26.481961,39.1898571 24.3744453,36.6900612 22.6599799,33.9410204 C22.2366528,33.2625306 21.8251811,32.526 21.8233572,31.7248163 C21.8218981,31.0397143 22.1215648,30.3946531 22.4206843,29.7795306 C23.9974453,26.5376939 25.7441937,23.3797959 27.6514453,20.3234694 C28.1023132,19.6010816 28.574156,18.8509592 28.6695459,18.0031224 C28.8729107,16.1919184 27.3632692,14.7148163 26.1252063,13.3852041 C24.0585459,11.1656939 22.3652377,8.20028571 22.9193384,5.20916327 C23.0867723,4.3047551 23.4548352,3.43744898 23.5144767,2.51944898 C23.5739358,1.60126531 23.2151748,0.555795918 22.3683384,0.210857143 C21.3560742,-0.201489796 20.2673887,0.561122449 19.496244,1.33971429 C18.7252818,2.11812245 17.864766,3.03134694 16.7740742,2.98102041 C16.3775585,2.96283673 16.0007409,2.81314286 15.6162629,2.71414286 C13.990439,2.29555102 12.2856403,2.78871429 10.6795145,3.27857143 C8.62726289,3.90453061 6.57501132,4.53030612 4.52294214,5.15626531 C3.96884151,5.32506122 3.40014969,5.50157143 2.94691069,5.86414286 C2.46138868,6.25242857 2.1529673,6.81777551 1.87336352,7.37485714 C0.702602516,9.70695918 -0.211718239,12.2840816 0.0427157233,14.8845306 C0.248998742,16.992 1.20271572,18.9404082 2.13144528,20.8403265 C6.0225522,28.8012857 9.74586038,36.845449 13.2979044,44.9656531 L28.8971686,41.3399388 Z" id="Fill-6" fill="#F7A87E" mask="url(#mask-6)"></path>
                            </g>
                            <path d="M118.101173,65 C115.727357,75.4597797 108.651013,90.6260323 97,82.2124887 C97.4597768,85.1124856 97.7920601,88.0420572 97.9246461,91.0404505 C99.5253168,92.944021 100.823713,94.8905586 102.531326,96.6987088 C104.238938,98.506859 106.294294,100.086224 108.697755,100.724591 C111.101034,101.362959 113.892433,100.913758 115.640421,99.1444825 C117.287288,97.4773238 117.752157,95.0194597 118.371437,92.7589465 C119.249523,89.5537161 120.259832,86.1898239 122,83.3588347 C119.450858,77.5740933 118.443095,71.341453 118.101173,65" id="Fill-9" fill="#F7A87E"></path>
                            <path d="M118,64.741795 C117.743502,60.1751064 117.853377,55.5508353 117.979213,51 C109.709107,55.8751921 101.269735,61.2904929 93,66.1655027 C94.3225785,71.3625004 95.6130484,76.4346755 96.4666182,81.6043398 C108.356276,89.8468292 115.577562,74.9889188 118,64.741795" id="Fill-11" fill="#E98870"></path>
                            <path d="M124.875082,82.5244606 L119.57091,79 L108.970732,94.5166746 L96.4439901,84.7842307 C96.4439901,84.7842307 95.7070375,88.3944269 94.1375209,89.2415671 C94.0930716,89.2654636 94.0451751,89.2893601 94,89.3132566 C103.344166,129.637968 126.918665,109.09719 124.875082,82.5244606" id="Fill-13" fill="#FFFFFF"></path>
                            <path d="M200,137.226181 C200,137.226181 165.16436,95.5916991 154.030735,90.1810446 C142.897291,84.7705715 125.52269,83.0292281 125.52269,83.0292281 L125.484374,83 C127.529834,109.445473 103.933688,129.887741 94.5811232,89.7562381 C90.1845841,92.0618116 81.1142141,94.3074765 75.1902995,101.573482 C67.0407857,111.569324 55.8968095,133.075786 51.5353179,138.354097 C51.0619059,133.33775 36.9955596,112.722292 32.0831159,105.655074 C31.0077244,104.108161 29.4462094,102.966267 27.6464449,102.408209 L26.1374102,101.940377 L23.7572757,97.7449596 L10,105.353171 C10,105.353171 25.4557115,169.58191 45.9631482,173.93073 C62.9489591,177.532871 86.6533339,150.959775 86.6533339,150.959775 L100.925969,185.501623 C100.925969,185.501623 101.328528,218.49571 112,222 C122.671835,225.50429 192.408492,227.186618 195,209 C197.591508,190.813382 181.129802,158.84883 181.129802,158.84883 L200,137.226181 Z" id="Fill-15" fill="#2A485E"></path>
                            <path d="M186.199466,154 C174.635332,159.587952 164.197493,167.280176 152.664478,172.934107 C140.76786,178.766581 127.758232,182.403426 116.594644,189.530294 C115.699104,190.101995 114.693646,191.049271 115.088185,192.033163 C115.199377,192.310494 115.411752,192.53399 115.626492,192.742442 C119.295095,196.302975 124.820839,197.306624 129.928566,196.923436 C135.036294,196.540066 139.970591,194.963085 145.015353,194.078707 C152.923076,192.692776 161.016423,193.020498 169.044438,193.149557 C177.729049,193.289491 186.491003,193.180915 195,191.504602 C192.699912,175.585792 181.55161,159.306089 181.55161,159.306089 L186.199466,154 Z" id="Fill-17" fill="#243F52"></path>
                            <path d="M152,130 C152,130 162.753924,148.393334 174,152 C174,152 156.085513,150.709076 152,130" id="Fill-19" fill="#243F52"></path>
                            <path d="M149.623449,243 C149.520179,243 149.417655,242.958282 149.342905,242.87705 C144.435144,237.491346 141.118752,230.584302 140.004402,223.427683 C139.972899,223.225156 140.113824,223.03531 140.319619,223.004435 C140.523923,222.973008 140.717601,223.111947 140.748918,223.315209 C141.841085,230.3305 145.092234,237.101546 149.903621,242.380474 C150.042496,242.533012 150.02982,242.767884 149.875101,242.904985 C149.802961,242.968573 149.712925,243 149.623449,243" id="Fill-21" fill="#FA6400"></path>
                            <path d="M145.625346,243 C145.58067,243 145.535251,242.992625 145.49076,242.977204 C140.076354,241.093018 134.9187,238.616471 130.160356,235.616624 C129.990733,235.509684 129.949022,235.298486 130.067295,235.145116 C130.185938,234.991411 130.419332,234.953865 130.589141,235.06114 C135.297618,238.029811 140.401882,240.480544 145.760118,242.345454 C145.952913,242.412334 146.049126,242.608446 145.974974,242.782936 C145.917691,242.917532 145.775875,243 145.625346,243" id="Fill-23" fill="#FA6400"></path>
                            <path d="M77.4378525,52.9364417 C74.6081773,50.4712508 72.2293894,47.4323021 70.9616196,43.937644 C69.6936689,40.4429859 69.6071477,36.4697532 71.138101,33.0775455 C74.2934069,32.6877731 76.8450561,31.3897724 80,31 C79.7634245,37.7675766 78.2259549,44.6117252 79.6329187,51.2414014 C79.7847832,51.956959 79.6868587,53.0337519 78.9414738,52.9991882 C78.4252431,52.9752594 77.9537211,52.9648017 77.4378525,52.9364417" id="Fill-25" fill="#331B14"></path>
                            <path d="M121.449072,46.4352272 C122.388236,57.4153914 117.655356,68.7299262 109.18344,75.7578939 C106.140693,78.2821449 102.361692,80.3411532 98.4302811,79.9527229 C95.8078873,79.6935267 93.4229185,78.3777053 91.12242,77.089551 C87.3748456,74.9908623 83.4988399,72.7787753 81.0268577,69.2614241 C78.9383524,66.2897683 78.0507785,62.6608389 77.204804,59.1263779 C76.7555674,57.2488433 76.3057858,55.3702166 75.9604567,53.4708397 C74.1914853,43.7457021 75.176427,33.6377769 73,23.9960044 C74.3409886,22.7124005 75.12302,21.5651295 76.8273217,20.8326817 C87.3822935,16.2962015 99.0382856,14.1878658 110.470658,15.2861734 C114.011689,15.6263685 117.854815,16.4583812 120.054858,19.2593023 C122.567894,22.4590289 122.049265,26.9895025 121.717015,31.0474526 C121.305563,36.0701079 121.019636,41.4142101 121.449072,46.4352272" id="Fill-27" fill="#F7A87E"></path>
                            <path d="M128.21585,30.1649205 C130.012806,36.6471599 128.678453,43.8378611 124.653484,49.3641122 C123.287964,51.2385953 121.623612,52.9426709 120.598291,55 C115.853822,47.4034481 113.211184,38.6563342 113,29.8479163 C116.571811,28.5855854 120.766785,27.659272 124.550914,28.1202076 C125.900945,28.2845736 127.148783,29.3697445 128.21585,30.1649205" id="Fill-29" fill="#331B14"></path>
                            <path d="M105.125183,53 C105.054567,53 104.982989,52.983751 104.917183,52.9498701 C103.450793,52.1913534 100.321943,51.2910901 100.290771,51.2821013 C100.122601,51.2338729 100.00619,51.0961022 100.000226,50.9375881 C99.9944532,50.7792468 100.099896,50.6345617 100.263641,50.5763073 C101.638827,50.0871089 103.455603,49.9043942 105.515977,50.0471779 L105.596791,50.0523637 C105.823455,50.0615254 106.004902,50.2316212 105.999899,50.4355979 C105.994704,50.6392289 105.813834,50.8022374 105.586978,50.8022374 C105.570238,50.8022374 105.524058,50.7998174 105.45171,50.7948044 C104.113853,50.7018048 102.861235,50.7579848 101.805073,50.9517627 C102.880862,51.2945473 104.396317,51.8152065 105.33376,52.3000833 C105.533486,52.4032817 105.602178,52.6324962 105.487115,52.8120994 C105.409956,52.9324111 105.269494,53 105.125183,53" id="Fill-31" fill="#4B281D"></path>
                            <path d="M82.8748428,53 C82.9454609,53 83.0170412,52.983751 83.0828489,52.9498701 C84.5492824,52.1913534 87.6780331,51.2910901 87.7093975,51.2821013 C87.8775727,51.2338729 87.9939868,51.0961022 87.9997594,50.9375881 C88.0057245,50.7792468 87.9002783,50.6345617 87.7365288,50.5763073 C86.3613024,50.0871089 84.5444719,49.9043942 82.4840375,50.0471779 L82.4030287,50.0523637 C82.1765502,50.0615254 81.9950981,50.2316212 82.000101,50.4355979 C82.0052964,50.6392289 82.1861712,50.8022374 82.4130345,50.8022374 C82.4297751,50.8022374 82.4759559,50.7998174 82.5483059,50.7948044 C83.8862027,50.7018048 85.1388575,50.7579848 86.1950514,50.9517627 C85.1192307,51.2945473 83.6035376,51.8152065 82.6662594,52.3000833 C82.4665273,52.4032817 82.3978333,52.6324962 82.5129006,52.8120994 C82.590061,52.9324111 82.7305277,53 82.8748428,53" id="Fill-33" fill="#4B281D"></path>
                            <path d="M109.983413,48.2427891 C110.09167,48.7151734 109.651936,49.1180217 109.190743,48.9682227 C106.060683,47.949704 102.86107,47.144965 99.6217957,46.5610934 C99.4491595,46.5300609 99.2638775,46.49309 99.1429747,46.3658949 C98.9873914,46.2019205 98.9916067,45.9479134 99.0073183,45.7224486 C99.05407,45.0506515 99.1167248,44.3800037 99.1950913,43.7112716 C99.2489323,43.252488 99.6712298,42.9404386 100.128016,43.0095913 C101.357162,43.1957866 102.612367,43.3503746 103.825993,43.554768 C105.54584,43.844405 107.24461,44.3706174 108.564961,45.5098182 C109.362421,46.1982809 109.776671,47.3418876 109.983413,48.2427891" id="Fill-35" fill="#4B281D"></path>
                            <path d="M78.0165872,48.2428944 C77.9083304,48.7152877 78.3480639,49.1181438 78.8092573,48.9681503 C81.9393171,47.9498036 85.1389296,47.1448576 88.3782043,46.5611664 C88.5508405,46.5301333 88.7361225,46.4931617 88.8570253,46.3657726 C89.0126086,46.201795 89.0083933,45.9479746 88.9926817,45.7223139 C88.94593,45.0506954 88.8832752,44.3800348 88.8049087,43.7112898 C88.7510677,43.2523059 88.3287702,42.940442 87.8719838,43.0095961 C86.6428375,43.1956033 85.3876329,43.3501943 84.1740066,43.5547832 C82.4541598,43.8444258 80.755198,44.3706482 79.4350393,45.5098709 C78.6375791,46.1981553 78.2233291,47.3419755 78.0165872,48.2428944" id="Fill-37" fill="#4B281D"></path>
                            <path d="M92.0005871,57 C92.0005871,57.0056917 92,57.0112541 92,57.0168165 C92,58.1120885 93.3430528,59 95,59 C96.6569472,59 98,58.1120885 98,57.0168165 C98,57.0112541 97.9994129,57.0056917 97.9994129,57 L92.0005871,57 Z" id="Fill-39" fill="#F17D6F"></path>
                            <path d="M116,59.9793604 C118.85666,60.1424982 121.793125,59.3386704 124.060663,57.563315 C126.32838,55.7879595 127.869244,53.0180839 127.993166,50.1095229 C128.061494,48.5060643 127.624629,46.7520592 126.357971,45.7960424 C125.390447,45.0659368 124.105139,44.9252442 122.905194,45.031448 C122.888516,45.0329078 122.871838,45.0343677 122.855339,45.03601 C120.54745,45.2546219 118.666563,47.019211 118.191678,49.3274103 L116,59.9793604 Z" id="Fill-41" fill="#F7A87E"></path>
                            <path d="M122.355522,49.9466003 C122.490112,50.023344 122.621302,50.1198317 122.747123,50.2358915 C123.260608,50.7092302 123.566838,51.3722821 123.58742,52.0549063 C123.608181,52.7375304 123.342758,53.4163774 122.858984,53.9175293 C122.804754,53.9738423 122.730299,54.0014838 122.656382,53.9999386 C122.593203,53.9985651 122.530382,53.9759026 122.480269,53.9314359 C122.37163,53.8349482 122.365186,53.6725332 122.465772,53.5683197 C122.854867,53.1652006 123.068387,52.6188953 123.051921,52.0698429 C123.035276,51.520619 122.788825,50.9871901 122.375925,50.6063902 C122.225048,50.4673244 121.994525,50.301819 121.728387,50.2597559 C120.736138,50.8419436 119.938796,51.7487898 119.517843,52.786976 C119.475604,52.8905027 119.371439,52.9533399 119.262084,52.9509363 C119.231658,52.9502495 119.200874,52.9445839 119.170806,52.9334243 C119.032994,52.8819184 118.964625,52.7328949 119.018318,52.6006965 C119.521243,51.3607791 120.510985,50.2899726 121.734472,49.6631465 C122.958137,49.0363204 124.435771,48.842315 125.790089,49.1305761 C125.934523,49.1614796 126.025623,49.2986568 125.993586,49.4373792 C125.96137,49.5757583 125.818904,49.6626314 125.673754,49.6324147 C124.576088,49.3985781 123.388756,49.5144663 122.355522,49.9466003" id="Fill-43" fill="#E4876D"></path>
                            <path d="M118.032391,55.1591758 C118.099412,55.0341137 118.24882,54.991091 118.366352,55.062331 C119.686995,55.8679188 121.345848,55.3829985 122.457745,54.6604951 C123.168659,54.1987409 124.104339,53.3919338 124.525427,52.1707498 C124.572179,52.0355852 124.712596,51.9664353 124.839773,52.0160769 C124.966459,52.0657186 125.031518,52.2155144 124.984931,52.3508531 C124.515129,53.7129497 123.490033,54.600751 122.712588,55.1058763 C121.918797,55.6214525 120.867547,56.023811 119.81695,55.9989031 C119.237626,55.9853169 118.658302,55.8414433 118.123278,55.5150278 C118.005909,55.4436136 117.965206,55.2842378 118.032391,55.1591758" id="Fill-45" fill="#E4876D"></path>
                            <g id="Group-49" stroke-width="1" fill="none" transform="translate(56.000000, 0.000000)">
                                <mask id="mask-8" fill="white">
                                    <use xlink:href="#path-7"></use>
                                </mask>
                                <g id="Clip-48"></g>
                                <path d="M51.110752,5.79286649 C48.409394,5.26823298 45.6336388,5.18210733 42.9555187,4.54606021 C39.4891122,3.72291885 36.2916527,2.00498691 32.88217,0.965248691 C29.4725072,-0.0743062827 25.5640406,-0.35723822 22.5436573,1.55878272 C21.2472,2.38100785 20.1950106,3.56001309 18.8863039,4.3622644 C16.6916758,5.70747382 14.0202208,5.86506545 11.4874725,6.25959424 C8.88447021,6.6651178 6.24021617,7.39828534 4.18717691,9.07553665 C2.13377737,10.7526047 0.798410162,13.5544372 1.44907067,16.1501178 C1.66379584,17.0064267 2.07937552,17.8084948 2.20691363,18.6825785 C2.63168037,21.5936257 -0.190730716,24.2175262 0.172248499,27.1371859 C0.393098383,28.914856 1.75566651,30.3176047 3.18488591,31.3650393 C6.44737552,33.7562173 10.4776157,35.0437042 14.4979483,34.9795681 C18.4642393,34.9163482 22.3301931,33.5843325 26.2963039,33.5015052 C28.8971446,33.4472644 31.5230245,33.9306675 34.0862162,33.4795157 C35.389879,33.2500916 36.6477866,32.7826309 37.9600961,32.6123953 C42.7580868,31.9904581 47.9430152,35.3286518 52.2286919,33.047788 C53.4448074,32.4005628 54.614267,31.3016361 55.9687289,31.5277618 C56.5784979,31.6298298 57.1082855,31.9952225 57.6369921,32.3206675 C59.9384425,33.7371597 62.6055741,34.5320812 65.2945025,34.6031806 C66.4648628,34.6341492 67.6816988,34.517055 68.6978605,33.9253534 C69.7568952,33.3085471 70.4915002,32.2400393 71.5002762,31.5409555 C72.998849,30.5025 74.9983871,30.3472906 76.3789691,29.1514267 C77.9060037,27.8287565 78.2707843,25.4359293 77.5318559,23.5393325 C76.7927473,21.6427356 75.1244841,20.2335733 73.2733801,19.4483639 C72.5805672,19.1544372 71.8238051,18.9147513 71.3241007,18.344856 C70.9377035,17.9041492 70.7568443,17.3221597 70.5426596,16.7735209 C69.1345164,13.1643063 65.7135048,10.5310602 61.986618,9.85799738 C59.9388028,9.48820681 59.0411723,9.84315445 57.3947058,8.54155759 C55.5331538,7.07045812 53.4188674,6.24108639 51.110752,5.79286649" id="Fill-47" fill="#4B281D" mask="url(#mask-8)"></path>
                            </g>
                            <path d="M110,60.5 C110,62.4329401 108.432904,64 106.500081,64 C104.566934,64 103,62.4329401 103,60.5 C103,58.5670599 104.566934,57 106.500081,57 C108.432904,57 110,58.5670599 110,60.5" id="Fill-50" fill="#F38E77"></path>
                            <path d="M88,60.5 C88,62.4329401 86.4329038,64 84.5000813,64 C82.5669337,64 81,62.4329401 81,60.5 C81,58.5670599 82.5669337,57 84.5000813,57 C86.4329038,57 88,58.5670599 88,60.5" id="Fill-52" fill="#F38E77"></path>
                            <path d="M91.4076203,65.0126967 C92.6522715,63.8681881 94.488346,63.8516473 96.0971219,64.1962155 C97.426661,64.4811967 98.7370258,64.9814086 99.8247459,65.8477117 C100.912652,66.7142141 101.763207,67.975306 102,69.4045966 C99.9243404,69.7766665 90.6929605,70.3219173 90.2249598,69.7553427 C89.8062908,69.2485544 90.0764058,67.8352068 90.2044824,67.2516928 C90.3925018,66.3957526 90.7780346,65.5916272 91.4076203,65.0126967" id="Fill-54" fill="#FFFFFF"></path>
                            <path d="M114.981127,100.472577 L109.735106,95 L105,100.787668 L108.542846,104.799169 L106.927938,111.376039 C109.669145,112.443067 112.44257,112.098644 115,110.670406 L112.417787,104.827948 L114.981127,100.472577 Z" id="Fill-56" fill="#D75555"></path>
                            <path d="M7.98874447,81 C6.78121758,81 5.5784434,80.2934002 4.97332204,79.1691818 C4.21271928,77.7558009 4.43898205,75.9925626 4.6041386,74.7049203 C4.62976926,74.5047171 4.80256409,74.3648465 4.99046573,74.3918423 C5.17802789,74.4193815 5.30940627,74.6040034 5.28360587,74.8043879 C5.08687777,76.3380718 4.9723036,77.6976423 5.56808929,78.8044675 C6.13417056,79.8565766 7.3547674,80.4513887 8.47114417,80.2187543 C8.56857465,80.198281 8.6899384,80.1669369 8.76445404,80.1051547 C8.85916869,80.0265229 8.92180257,79.8696215 8.98817072,79.6875361 C9.47905739,78.3430035 9.87726629,76.9475595 10.1717643,75.5392517 C10.319268,74.8341013 10.4158498,74.1073905 10.1247465,73.5705559 C9.86843983,73.0976775 9.33036558,72.8163058 8.80128752,72.5684524 C7.25818561,71.8457276 6.01738978,71.3108859 4.24021708,70.7153491 C4.05961424,70.6548351 3.95912845,70.4495588 4.01582145,70.2566027 C4.07268419,70.0634654 4.26533853,69.9563884 4.44577163,70.0169023 C6.252479,70.622404 7.51194618,71.1652176 9.07677475,71.8980884 C9.71007287,72.1943168 10.3583081,72.5394637 10.7184953,73.2036675 C11.1273978,73.9580987 11.0192737,74.8487768 10.841217,75.6988707 C10.5390806,77.1430521 10.1308571,78.5745508 9.62723999,79.9533264 C9.5517059,80.1607768 9.43730147,80.4742173 9.18540804,80.6831172 C8.99631822,80.8400186 8.77463842,80.9012572 8.60252255,80.9371307 C8.39985357,80.9795267 8.19412928,81 7.98874447,81" id="Fill-58" fill="#E98870"></path>
                            <path d="M11.5515087,81 C10.9635975,81 10.375521,80.7765766 9.92764374,80.3385097 C9.78810576,80.2021392 9.77289546,79.963771 9.89358589,79.8061043 C10.014607,79.6484376 10.2255672,79.6312512 10.3647746,79.7678085 C10.9540084,80.3439271 11.9187052,80.4048268 12.5608444,79.9058603 C13.3092904,79.3243241 13.5885317,78.2116903 13.8305739,77.0258274 C14.1266788,75.5728277 14.4331994,74.0706973 14.2991173,72.5868742 C14.2748139,72.3176826 14.2311669,72.0150522 14.0914636,71.8106832 C13.9165451,71.5541946 13.590185,71.4344501 13.2130687,71.3148924 L8.24392956,69.7410274 C8.06636583,69.6847979 7.96270432,69.476506 8.01246846,69.2756864 C8.06239793,69.0750536 8.24723615,68.9577376 8.42430389,69.0141539 L13.3934431,70.588019 C13.7743619,70.7088843 14.2961414,70.8740234 14.6205176,71.3496389 C14.8625597,71.7042021 14.9300141,72.1353571 14.9637413,72.5100958 C15.1092311,74.1185204 14.7901455,75.6824846 14.4816409,77.1952631 C14.2197592,78.4786402 13.8848019,79.7934013 12.939614,80.5277471 C12.5320771,80.8443882 12.0420409,81 11.5515087,81" id="Fill-60" fill="#E98870"></path>
                            <path d="M16.6323075,70 C16.4847094,70 16.345665,69.9331682 16.2892464,69.8241412 C16.1360064,69.5280942 15.8408101,69.4329508 15.2888184,69.2771007 C15.1648796,69.2419834 15.0369369,69.2059133 14.9069923,69.1649431 C14.453278,69.02216 13.7374906,68.8743406 13.1622035,68.7553773 C12.2607809,68.56931 12.1224645,68.5407262 12.0312848,68.3856928 C11.949387,68.2467208 12.0338328,68.0843373 12.219832,68.0232223 C12.3470467,67.9815715 12.488093,67.9979052 12.5914663,68.0565701 C12.7063053,68.0907346 13.0652,68.1649165 13.3578484,68.2252149 C13.953519,68.3482616 14.6947858,68.5015255 15.1923609,68.6580561 C15.3135697,68.6961679 15.4329586,68.729788 15.5485256,68.7624552 C16.112711,68.9218442 16.6961879,69.0865417 16.9751866,69.6256876 C17.0483487,69.7673819 16.9542572,69.9266348 16.7648001,69.9813524 C16.7213032,69.994011 16.6763504,70 16.6323075,70 L16.6323075,70 Z" id="Fill-62" fill="#E98870"></path>
                            <path d="M15.3832703,85 C15.3702025,85 15.3569453,84.9994754 15.3436881,84.9982512 C15.1334666,84.978315 14.9804405,84.8048351 15.0020308,84.6107196 C15.1219139,83.5306675 15.6433011,82.5107737 16.4703618,81.7390331 C17.2443936,81.017133 18.080545,80.5573764 18.962339,80.3679825 L18.7316635,79.7747933 C18.6013641,79.44025 18.3585677,78.8168067 18.6750363,78.2890221 C18.7223835,78.209802 18.7773062,78.1417741 18.8256003,78.0817907 C18.8750308,78.0202333 18.9312793,77.9504566 18.9386654,77.9121581 C18.9515439,77.8476278 18.8606373,77.7042271 18.8119643,77.6272804 C17.7727883,75.9898892 16.8279278,74.3698111 16.6786894,72.5584154 C16.5459279,70.9469063 16.9635301,69.696872 17.4468502,68.2492244 C17.5095379,68.0628035 17.7244941,67.9585757 17.9254356,68.0155862 C18.1275134,68.0732962 18.2407679,68.2709094 18.178459,68.4575052 C17.7178655,69.8364253 17.3201491,71.0270009 17.4417367,72.5049025 C17.5786648,74.1659023 18.4803446,75.7067603 19.4723629,77.2701777 C19.5780419,77.4370121 19.7551203,77.7162937 19.6918645,78.0380709 C19.6524716,78.2393565 19.5344824,78.3859051 19.4395987,78.5035986 C19.4060769,78.5452197 19.3714187,78.5864912 19.3445255,78.6312602 C19.2075975,78.8598269 19.3280487,79.2179789 19.4517196,79.5359087 L20,80.9450829 L19.5193313,80.9952732 C18.6293936,81.0881338 17.8099085,81.4940278 17.0142863,82.236039 C16.3097601,82.8937585 15.8654541,83.7625569 15.7633736,84.6827697 C15.743109,84.8644689 15.577015,85 15.3832703,85" id="Fill-64" fill="#E98870"></path>
                            <path d="M16.5835023,80 C16.5327462,80 16.4821831,79.9985527 16.431427,79.9958648 C15.5160801,79.9464493 14.6370151,79.4514677 14.0802418,78.6715717 C13.9493953,78.4881762 13.9820104,78.2260055 14.1529987,78.0860295 C14.3241799,77.9458467 14.56889,77.9805822 14.6995435,78.1639777 C15.1191017,78.7513808 15.781054,79.1243745 16.4704107,79.1613844 C17.1626623,79.1973605 17.853563,78.8983866 18.3256141,78.3587449 C18.4726717,78.1902361 18.7193117,78.1815522 18.8767907,78.3397231 C19.0338838,78.4974804 19.0417963,78.7617187 18.8945457,78.9302275 C18.3024554,79.6069506 17.4479001,80 16.5835023,80" id="Fill-66" fill="#E98870"></path>
                            <path d="M151,183.788277 C150.53002,183.906544 150.06004,184.024811 149.59006,184.143258 C148.422632,184.436862 147.237079,184.738183 146.20142,185.347287 C144.194444,186.527446 142.997835,188.707225 141.137671,190.103998 C139.031733,191.685441 136.298672,192.116515 133.700823,192.598019 C129.394335,193.39574 125.138778,194.463196 120.968408,195.792132 C120.549359,195.925474 120.106385,196.062944 119.676643,195.969084 C118.799577,195.777057 118.421671,194.771516 118.190035,193.912239 C117.125737,194.651454 115.418548,194.139621 114.947481,192.940079 C113.084417,194.088832 110.209438,192.145947 113.504372,188.84631 C113.431691,186.716602 116.859119,180.507842 126.128944,176.286832 C124.211505,176.247529 122.179517,175.504007 121.175576,173.885954 C120.171635,172.268079 120.69454,169.737268 122.492898,169.077018 C122.663272,169.014564 122.852134,168.969518 123.024865,169.025332 C123.244358,169.0964 123.379026,169.30763 123.514782,169.492479 C124.814885,171.262539 127.425784,171.455643 129.589722,171.009135 C130.741744,170.771344 131.870928,170.40039 133.043068,170.297916 C137.490206,169.908478 141.560889,173.38758 146.016364,173.108513 C147.966608,176.532878 149.92084,180.004982 151,183.788277" id="Fill-68" fill="#F7A87E"></path>
                            <path d="M114.339578,189 L114,188.603365 C116.075442,186.818051 117.326739,185.741445 119.602766,184.275159 C120.735783,183.545219 122.013607,182.83102 123.624649,182.027135 C123.753649,181.963073 123.908994,182.016336 123.972948,182.145924 C124.036722,182.275329 123.98385,182.432555 123.855214,182.4968 C122.261976,183.291717 120.999596,183.996947 119.88275,184.716637 C117.637065,186.163155 116.395942,187.230976 114.339578,189" id="Fill-70" fill="#E98870"></path>
                            <path d="M115.259564,193 C115.172212,193 115.087036,192.954897 115.038104,192.872857 C114.963439,192.747942 115.001859,192.584606 115.124006,192.507763 C115.734016,192.125779 116.300531,191.596606 116.848199,191.085437 C117.073464,190.875141 117.298004,190.665217 117.525625,190.464759 C119.899335,188.375537 122.819807,187.177799 125.644229,186.019038 C125.777068,185.964654 125.927667,186.030731 125.981311,186.166969 C126.034591,186.303021 125.970075,186.457633 125.837054,186.512388 C123.051777,187.65463 120.171901,188.835849 117.863613,190.867903 C117.639798,191.064463 117.419064,191.271047 117.197423,191.477816 C116.631814,192.006061 116.046995,192.552495 115.394578,192.961022 C115.352352,192.987564 115.305595,193 115.259564,193" id="Fill-72" fill="#E98870"></path>
                            <path d="M118.263997,194 C118.15642,194 118.0553,193.937343 118.016181,193.836115 C117.965991,193.706612 118.036479,193.563147 118.173396,193.515675 C118.444277,193.421951 118.713313,193.322468 118.98198,193.22316 L127.639661,190.017364 C127.774364,189.966749 127.928441,190.030628 127.981769,190.159083 C128.034912,190.287364 127.967929,190.432225 127.83212,190.482665 L119.174439,193.688112 C118.902081,193.788817 118.629355,193.889696 118.354783,193.984816 C118.324706,193.995113 118.294259,194 118.263997,194" id="Fill-74" fill="#E98870"></path>
                            <path d="M86.6183485,152 C86.491324,152 86.3671349,151.939333 86.2945495,151.828535 C83.7947001,148.009082 82.2169124,142.383253 81.3334118,138.33639 C80.3786489,133.96458 80.0057035,130.439196 80.001923,130.40414 C79.9809413,130.202524 80.1340512,130.022522 80.3440574,130.002542 C80.5517954,129.978384 80.7408199,130.129324 80.7621797,130.331123 C80.7765455,130.469893 82.2636015,144.290981 86.9412024,151.437472 C87.053672,151.609118 87,151.835982 86.8211718,151.943511 C86.7580376,151.981836 86.6877205,152 86.6183485,152" id="Fill-76" fill="#243F52"></path>
                            <g id="Group-80" stroke-width="1" fill="none" transform="translate(142.000000, 117.000000)">
                                <mask id="mask-10" fill="white">
                                    <use xlink:href="#path-9"></use>
                                </mask>
                                <g id="Clip-79"></g>
                                <path d="M39.812297,0.0430289125 C39.812297,0.0430289125 67.5572533,26.233379 66.9828107,38.8854533 C66.5308352,48.8406708 38.6059309,61.7508088 26.7214855,66.8022676 C23.3885101,68.2190554 19.6599418,68.4002491 16.2030347,67.3202252 L13.128174,66.3595329 L6.61965492,68.9624984 L0.110769672,55.166708 L32.3943352,36.4254294 L19.8973708,19.2457106 L39.812297,0.0430289125 Z" id="Fill-78" fill="#2A485E" mask="url(#mask-10)"></path>
                            </g>
                            <path d="M144.088297,175 C143.9529,175 143.82245,174.926443 143.757408,174.798715 L142,171.349517 L142.165994,171.163814 C142.307437,171.005467 156.501001,155.314679 172.57656,153.0038 C172.778097,152.974993 172.96681,153.113048 172.996125,153.313427 C173.025439,153.513444 172.885279,153.699328 172.683008,153.728316 C157.808064,155.866536 144.523984,169.706447 142.888598,171.466013 L144.418818,174.46934 C144.51061,174.649609 144.43714,174.869917 144.254473,174.961048 C144.200974,174.987499 144.144544,175 144.088297,175" id="Fill-81" fill="#243F52"></path>
                        </g>
                    </g>
                </g>
                <g id="Group-10" transform="translate(59.000000, 220.000000)">
                    <path d="M67.4771518,3.51240452 C64.0573607,1.41423533 59.5354277,0.752320916 55.4682541,1.83650499 C53.0853146,2.47179221 50.9466459,3.59954806 48.5562354,4.22165617 C46.1271703,4.85344689 43.5710974,5.10223634 41.0319155,4.94193524 C31.9783046,4.36985399 24.2516168,-1.17667144 14.8796743,0.226770014 C13.3393391,0.457539038 13.9919189,2.40186221 15.5270569,2.17190007 C24.200294,0.873084659 32.0231309,6.22515088 40.4663897,6.9185338 C44.9730558,7.28862491 49.1594413,6.36581778 53.211348,4.79884769 C55.351316,3.97098399 57.4367129,3.27437353 59.8401165,3.33381403 C62.1954456,3.39190973 64.3682213,4.10089242 66.2476771,5.25419962 C67.5083353,6.02773309 68.7244919,4.27760017 67.4771518,3.51240452" id="Fill-1" fill="#E02020"></path>
                    <path d="M57.8318666,24.6775059 C56.0145376,26.6199939 53.9833472,28.0735267 50.9909304,28.0584552 C48.1949638,28.044543 45.4952512,27.1074998 42.8454725,26.422325 C40.5386605,25.8255505 38.0866461,25.253702 35.9365343,26.5310139 C34.165197,27.5828326 33.2381358,29.34823 32.0577918,30.8501656 C28.8291747,34.9588957 23.5368446,36.4735841 18.0684319,36.0240469 C12.1998915,35.5411783 5.92728123,33.8560657 0.566620567,36.9425405 C-0.755969201,37.7039424 0.477265272,39.5873036 1.81003892,38.8195252 C6.51794601,36.109259 12.3106001,37.6430766 17.4649552,38.1427557 C22.3811389,38.6195377 27.115984,37.8140805 31.0154228,35.0122257 C32.7332127,33.7778097 33.9572488,32.267179 35.1385784,30.6339472 C35.7039477,29.8525465 36.3061104,28.95695 37.1799526,28.4079986 C38.3954474,27.644278 39.7682996,27.932376 41.1043583,28.2465594 C45.8001105,29.3511284 50.9955296,31.4675186 55.7077073,29.2476566 C58.0105772,28.1625067 59.5214044,26.2365394 61.1380125,24.4989663 C62.9109924,22.5932877 65.5459881,20.4340017 68.5308491,21.5336434 C69.992071,22.0724505 70.629713,19.9696827 69.1855738,19.4375419 C64.3058549,17.6396826 60.5453767,21.7776862 57.8318666,24.6775059 Z" id="Fill-3" fill="#E02020"></path>
                    <path d="M69.6973135,37.5006858 C68.1916157,39.636148 65.6064476,40.7415275 62.8645926,41.3433421 C60.694857,41.8194754 57.4616795,41.5779098 55.7476113,42.9248549 C54.1270972,44.1981827 53.7204966,46.5197875 53.1127221,48.2398577 C52.2455475,50.6935818 50.836675,52.2031568 47.8638788,52.9300929 C46.3483677,53.3006987 46.9927789,55.3272745 48.5158135,54.9544293 C50.9351358,54.3629715 53.068889,53.2917415 54.3066818,51.3544583 C54.8994092,50.4271039 55.2742798,49.4034593 55.6161122,48.3929705 C55.9913099,47.2847919 56.2454761,45.8183236 57.0619483,44.8772535 C57.981788,43.81722 60.1044194,43.9462603 61.513619,43.7307267 C63.0369808,43.4975585 64.5377718,43.1804162 65.9711777,42.6757317 C68.3885373,41.8250737 70.4549054,40.4901649 71.8156924,38.5601594 C72.6334731,37.4004766 70.5128043,36.3438021 69.6973135,37.5006858" id="Fill-5" fill="#E02020"></path>
                    <g id="Group-9" transform="translate(48.000000, 54.000000)">
                        <mask id="mask-12" fill="white">
                            <use xlink:href="#path-11"></use>
                        </mask>
                        <g id="Clip-8"></g>
                        <path d="M29.1689095,1.22425714 C29.2372884,2.84225714 29.3033095,4.52825714 28.7134989,6.0894 C27.9727832,8.04968571 26.1457516,8.67054286 24.2338358,9.67311429 C21.06112,11.3371143 19.1239411,13.9371143 18.2036884,16.9565429 C17.7085305,18.5825429 17.3659621,20.4382571 15.7144253,21.5385429 C14.1595621,22.5742571 12.0340884,22.7794 10.1561937,23.1122571 C6.21514105,23.8114 2.78608842,25.3819714 0.290425263,28.1108286 C-0.694501053,29.1871143 1.08065684,30.7145429 2.07636211,29.6256857 C3.44798316,28.1268286 5.13050947,26.9008286 7.17446737,26.1048286 C9.11770947,25.3479714 11.2485726,25.1711143 13.3006147,24.7311143 C15.0683621,24.3519714 16.8293726,23.7514 18.0948884,22.5948286 C19.4948042,21.3154 20.0222989,19.6051143 20.5113937,17.9585429 C21.04832,16.1516857 21.7577095,14.4951143 23.2721516,13.1002571 C24.7704253,11.7202571 26.7449937,11.1299714 28.4645726,10.0188286 C31.6676042,7.94997143 31.8276042,4.35168571 31.6952253,1.22425714 C31.6369516,-0.1506 29.1102989,-0.157171429 29.1689095,1.22425714" id="Fill-7" fill="#E02020" mask="url(#mask-12)"></path>
                    </g>
                </g>
                <path d="" id="Path-5" stroke="#979797"></path>
            </g>
        </g>
    </g>
</svg>