<svg xmlns="http://www.w3.org/2000/svg" xmlns:xlink="http://www.w3.org/1999/xlink" width="298" height="348" viewBox="0 0 298 348">
  <defs>
    <clipPath id="clip-path">
      <path id="Mask" d="M149,348A149,149,0,0,0,298,199C298,116.71,231.29,0,149,0S0,116.71,0,199A149,149,0,0,0,149,348Z" fill="none" opacity="0.075"/>
    </clipPath>
    <clipPath id="clip-path-2">
      <path id="Clip_2" data-name="Clip 2" d="M0,0H92.708V108.886H0Z" transform="translate(0.128 0.114)" fill="none"/>
    </clipPath>
    <clipPath id="clip-path-3">
      <path id="Clip_7" data-name="Clip 7" d="M0,0H28.9V44.871H0Z" transform="translate(0 0.095)" fill="none"/>
    </clipPath>
    <clipPath id="clip-path-4">
      <path id="Clip_48" data-name="Clip 48" d="M0,0H77.761V34.831H0Z" transform="translate(0.14 0.151)" fill="none"/>
    </clipPath>
    <clipPath id="clip-path-5">
      <path id="Clip_79" data-name="Clip 79" d="M0,0H66.881V68.919H0Z" transform="translate(0.111 0.043)" fill="none"/>
    </clipPath>
    <clipPath id="clip-path-6">
      <path id="Clip_8" data-name="Clip 8" d="M0,0H31.724V29.809H0Z" transform="translate(0.002 0.191)" fill="none"/>
    </clipPath>
  </defs>
  <g id="Group_522" data-name="Group 522" transform="translate(-571 -362)">
    <g id="Group_521" data-name="Group 521">
      <circle id="Oval" cx="149" cy="149" r="149" transform="translate(571 412)" fill="#f7b500" opacity="0.14"/>
      <g id="Oval-2" data-name="Oval" transform="translate(571 412)" fill="none" stroke="#f7b500" stroke-miterlimit="10" stroke-width="16" opacity="0.075">
        <circle cx="149" cy="149" r="149" stroke="none"/>
        <circle cx="149" cy="149" r="141" fill="none"/>
      </g>
      <g id="Group_83" data-name="Group 83" transform="translate(571 362)">
        <path id="Mask-2" data-name="Mask" d="M149,348A149,149,0,0,0,298,199C298,116.71,231.29,0,149,0S0,116.71,0,199A149,149,0,0,0,149,348Z" fill="none" opacity="0.075"/>
        <g id="Group_83-2" data-name="Group 83" clip-path="url(#clip-path)">
          <g id="Group_83-3" data-name="Group 83" transform="translate(45 32)">
            <g id="Group_3" data-name="Group 3" transform="translate(105 212)">
              <path id="Clip_2-2" data-name="Clip 2" d="M0,0H92.708V108.886H0Z" transform="translate(0.128 0.114)" fill="none"/>
              <g id="Group_3-2" data-name="Group 3" clip-path="url(#clip-path-2)">
                <path id="Fill_1" data-name="Fill 1" d="M92.708,10.7q0-.343-.006-.683c-5.571.045-11.153-.117-16.711-.323C52.111,8.809,27.878,7.079,5.153,0L.332,55.744a89.31,89.31,0,0,0,9.084,47.611l2.764,5.531H41.313A89.314,89.314,0,0,1,38.985,49.76l5.076-16.509V58.3a89.307,89.307,0,0,0,10.685,42.361l4.431,8.223H86.936l-.119-.29A89.318,89.318,0,0,1,83.9,49.3c4.447-14.927,8.811-31.408,8.811-38.6" transform="translate(0.128 0.114)" fill="#f7b500"/>
              </g>
            </g>
            <path id="Fill_4" data-name="Fill 4" d="M88,25.992A52.391,52.391,0,0,0,79.994,0L.433,10.676,0,15.762c22.842,7.231,47.2,9,71.2,9.9,5.586.21,11.2.375,16.8.33" transform="translate(110 196)" fill="#f1890e"/>
            <g id="Group_8" data-name="Group 8" transform="translate(0 65)">
              <path id="Clip_7-2" data-name="Clip 7" d="M0,0H28.9V44.871H0Z" transform="translate(0 0.095)" fill="none"/>
              <g id="Group_8-2" data-name="Group 8" clip-path="url(#clip-path-3)">
                <path id="Fill_6" data-name="Fill 6" d="M28.9,41.245a34.036,34.036,0,0,1-6.237-7.4,4.355,4.355,0,0,1-.837-2.216,4.541,4.541,0,0,1,.6-1.945,102.781,102.781,0,0,1,5.231-9.456,5.763,5.763,0,0,0,1.018-2.32c.2-1.811-1.306-3.288-2.544-4.618-2.067-2.22-3.76-5.185-3.206-8.176a23.4,23.4,0,0,0,.6-2.69A2.274,2.274,0,0,0,22.368.116c-1.012-.412-2.1.35-2.872,1.129s-1.631,1.692-2.722,1.641a5.792,5.792,0,0,1-1.158-.267,9.264,9.264,0,0,0-4.937.564L4.523,5.061a4.6,4.6,0,0,0-1.576.708A4.36,4.36,0,0,0,1.873,7.28a14.023,14.023,0,0,0-1.831,7.51,17.834,17.834,0,0,0,2.089,5.956Q7.968,32.687,13.3,44.871Z" transform="translate(0 0.095)" fill="#f7a87e"/>
              </g>
            </g>
            <path id="Fill_9" data-name="Fill 9" d="M21.1,0C18.727,10.46,11.651,25.626,0,17.212A78.3,78.3,0,0,1,.925,26.04c1.6,1.9,2.9,3.85,4.607,5.658A13.548,13.548,0,0,0,11.7,35.725a7.245,7.245,0,0,0,6.943-1.58c1.647-1.667,2.112-4.125,2.731-6.386A36.217,36.217,0,0,1,25,18.359,52.044,52.044,0,0,1,21.1,0" transform="translate(97 65)" fill="#f7a87e"/>
            <path id="Fill_11" data-name="Fill 11" d="M25,13.742C24.744,9.175,24.853,4.551,24.979,0,16.709,4.875,8.27,10.29,0,15.166c1.323,5.2,2.613,10.269,3.467,15.439C15.356,38.847,22.578,23.989,25,13.742" transform="translate(93 51)" fill="#e98870"/>
            <path id="Fill_13" data-name="Fill 13" d="M30.875,3.524,25.571,0l-10.6,15.517L2.444,5.784S1.707,9.394.138,10.242L0,10.313C9.344,50.638,32.919,30.1,30.875,3.524" transform="translate(94 79)" fill="#fff"/>
            <path id="Fill_15" data-name="Fill 15" d="M190,54.226S155.164,12.592,144.031,7.181,115.523.029,115.523.029L115.484,0c2.045,26.445-21.551,46.888-30.9,6.756-4.4,2.306-13.467,4.551-19.391,11.817-8.15,10-19.293,31.5-23.655,36.781-.473-5.016-14.54-25.632-19.452-32.7a8.449,8.449,0,0,0-4.437-3.247l-1.509-.468-2.38-4.2L0,22.353S15.456,86.582,35.963,90.931c16.986,3.6,40.69-22.971,40.69-22.971L90.926,102.5S91.329,135.5,102,139s80.408,5.187,83-13-13.87-50.151-13.87-50.151Z" transform="translate(10 83)" fill="#2a485e"/>
            <path id="Fill_17" data-name="Fill 17" d="M71.2,0c-11.564,5.588-22,13.28-33.535,18.934-11.9,5.832-24.906,9.469-36.07,16.6-.9.572-1.9,1.519-1.506,2.5a2.152,2.152,0,0,0,.538.709c3.669,3.561,9.194,4.564,14.3,4.181s10.042-1.96,15.087-2.845c7.908-1.386,16-1.058,24.029-.929,8.685.14,17.447.031,25.956-1.645-2.3-15.919-13.448-32.2-13.448-32.2Z" transform="translate(115 154)" fill="#243f52"/>
            <path id="Fill_19" data-name="Fill 19" d="M0,0S10.754,18.393,22,22C22,22,4.086,20.709,0,0" transform="translate(152 130)" fill="#243f52"/>
            <path id="Fill_21" data-name="Fill 21" d="M9.623,20a.38.38,0,0,1-.281-.123A37.85,37.85,0,0,1,0,.428.372.372,0,0,1,.32,0,.376.376,0,0,1,.749.315,37.1,37.1,0,0,0,9.9,19.38a.368.368,0,0,1-.029.525.38.38,0,0,1-.252.1" transform="translate(140 223)" fill="#fa6400"/>
            <path id="Fill_23" data-name="Fill 23" d="M15.625,8a.41.41,0,0,1-.135-.023A74.986,74.986,0,0,1,.16.617.319.319,0,0,1,.067.145.4.4,0,0,1,.589.061,74.21,74.21,0,0,0,15.76,7.345a.329.329,0,0,1,.215.437.376.376,0,0,1-.35.217" transform="translate(130 235)" fill="#fa6400"/>
            <path id="Fill_25" data-name="Fill 25" d="M7.438,21.936a22.272,22.272,0,0,1-6.476-9,14.568,14.568,0,0,1,.176-10.86C4.293,1.688,6.845.39,10,0c-.237,6.768-1.774,13.612-.367,20.241.152.716.054,1.792-.691,1.758-.516-.024-.988-.034-1.5-.063" transform="translate(70 31)" fill="#331b14"/>
            <path id="Fill_27" data-name="Fill 27" d="M48.449,31.435A34.906,34.906,0,0,1,36.183,60.758c-3.043,2.524-6.822,4.583-10.753,4.195-2.622-.259-5.007-1.575-7.308-2.863-3.748-2.1-7.624-4.311-10.1-7.828C5.938,51.29,5.051,47.661,4.2,44.126c-.449-1.878-.9-3.756-1.244-5.656C1.191,28.746,2.176,18.638,0,9,1.341,7.712,2.123,6.565,3.827,5.833A69.03,69.03,0,0,1,37.471.286c3.541.34,7.384,1.172,9.584,3.973,2.513,3.2,1.994,7.73,1.662,11.788a94.066,94.066,0,0,0-.268,15.388" transform="translate(73 15)" fill="#f7a87e"/>
            <path id="Fill_29" data-name="Fill 29" d="M15.216,2.165a22.653,22.653,0,0,1-3.562,19.2C10.288,23.239,8.624,24.943,7.6,27A49.944,49.944,0,0,1,0,1.848,26.522,26.522,0,0,1,11.551.12c1.35.164,2.6,1.25,3.665,2.045" transform="translate(113 28)" fill="#331b14"/>
            <path id="Fill_31" data-name="Fill 31" d="M5.125,3a.454.454,0,0,1-.208-.05A34.75,34.75,0,0,0,.291,1.282.383.383,0,0,1,0,.938.377.377,0,0,1,.264.576,13.348,13.348,0,0,1,5.516.047L5.6.052A.4.4,0,0,1,6,.436.4.4,0,0,1,5.587.8C5.57.8,5.524.8,5.452.795A14.882,14.882,0,0,0,1.805.952,26.146,26.146,0,0,1,5.334,2.3a.355.355,0,0,1,.153.512A.428.428,0,0,1,5.125,3" transform="translate(100 50)" fill="#4b281d"/>
            <path id="Fill_33" data-name="Fill 33" d="M.875,3a.454.454,0,0,0,.208-.05A34.742,34.742,0,0,1,5.709,1.282.383.383,0,0,0,6,.938.376.376,0,0,0,5.737.576,13.349,13.349,0,0,0,.484.047L.4.052A.4.4,0,0,0,0,.436.4.4,0,0,0,.413.8C.43.8.476.8.548.795A14.883,14.883,0,0,1,4.2.952,26.138,26.138,0,0,0,.666,2.3a.355.355,0,0,0-.153.512A.428.428,0,0,0,.875,3" transform="translate(82 50)" fill="#4b281d"/>
            <path id="Fill_35" data-name="Fill 35" d="M10.983,5.243a.614.614,0,0,1-.793.725A72.5,72.5,0,0,0,.622,3.561a.841.841,0,0,1-.479-.2.833.833,0,0,1-.136-.643Q.077,1.715.2.711a.808.808,0,0,1,.933-.7C2.357.2,3.612.35,4.826.555A9.517,9.517,0,0,1,9.565,2.51a5.194,5.194,0,0,1,1.418,2.733" transform="translate(99 43)" fill="#4b281d"/>
            <path id="Fill_37" data-name="Fill 37" d="M.017,5.243a.614.614,0,0,0,.793.725,72.5,72.5,0,0,1,9.569-2.407.84.84,0,0,0,.479-.2.833.833,0,0,0,.136-.643Q10.923,1.715,10.8.711a.808.808,0,0,0-.933-.7C8.643.2,7.388.35,6.174.555A9.517,9.517,0,0,0,1.435,2.51,5.194,5.194,0,0,0,.017,5.243" transform="translate(78 43)" fill="#4b281d"/>
            <path id="Fill_39" data-name="Fill 39" d="M0,0C0,.006,0,.011,0,.017,0,1.112,1.343,2,3,2S6,1.112,6,.017C6,.011,6,.006,6,0Z" transform="translate(92 57)" fill="#f17d6f"/>
            <path id="Fill_41" data-name="Fill 41" d="M0,14.979a12.03,12.03,0,0,0,8.061-2.416A10.218,10.218,0,0,0,11.993,5.11,5.075,5.075,0,0,0,10.358.8,4.972,4.972,0,0,0,6.905.031l-.05,0A5.339,5.339,0,0,0,2.192,4.327Z" transform="translate(116 45)" fill="#f7a87e"/>
            <path id="Fill_43" data-name="Fill 43" d="M3.356.947a2.151,2.151,0,0,1,.392.289,2.6,2.6,0,0,1,.84,1.819,2.588,2.588,0,0,1-.728,1.863.276.276,0,0,1-.379.014.25.25,0,0,1-.014-.363,2.054,2.054,0,0,0-.09-2.962,1.307,1.307,0,0,0-.648-.347A5.283,5.283,0,0,0,.518,3.787a.269.269,0,0,1-.256.164.28.28,0,0,1-.091-.018A.254.254,0,0,1,.018,3.6,5.821,5.821,0,0,1,2.734.663,6.207,6.207,0,0,1,6.79.131a.257.257,0,0,1,.2.307.269.269,0,0,1-.32.2A5.66,5.66,0,0,0,3.356.947" transform="translate(119 49)" fill="#e4876d"/>
            <path id="Fill_45" data-name="Fill 45" d="M.032,3.159a.237.237,0,0,1,.334-.1,3.944,3.944,0,0,0,4.091-.4A5.023,5.023,0,0,0,6.525.171.241.241,0,0,1,6.84.016a.266.266,0,0,1,.145.335A5.53,5.53,0,0,1,4.713,3.106,5.278,5.278,0,0,1,1.817,4,3.362,3.362,0,0,1,.123,3.515a.27.27,0,0,1-.091-.356" transform="translate(118 52)" fill="#e4876d"/>
            <g id="Group_49" data-name="Group 49" transform="translate(56)">
              <path id="Clip_48-2" data-name="Clip 48" d="M0,0H77.761V34.831H0Z" transform="translate(0.14 0.151)" fill="none"/>
              <g id="Group_49-2" data-name="Group 49" clip-path="url(#clip-path-4)">
                <path id="Fill_47" data-name="Fill 47" d="M50.971,5.642c-2.7-.525-5.477-.611-8.155-1.247C39.349,3.572,36.152,1.854,32.742.815S25.424-.508,22.4,1.408c-1.3.822-2.349,2-3.657,2.8-2.195,1.345-4.866,1.5-7.4,1.9a15,15,0,0,0-7.3,2.816A7.257,7.257,0,0,0,1.309,16a26.3,26.3,0,0,1,.758,2.532c.425,2.911-2.4,5.535-2.035,8.455a6.644,6.644,0,0,0,3.013,4.228,18.78,18.78,0,0,0,11.313,3.615c3.966-.063,7.832-1.4,11.8-1.478,2.6-.054,5.227.429,7.79-.022,1.3-.229,2.562-.7,3.874-.867,4.8-.622,9.983,2.716,14.269.435,1.216-.647,2.386-1.746,3.74-1.52a4.852,4.852,0,0,1,1.668.793,15.464,15.464,0,0,0,7.658,2.283,6.384,6.384,0,0,0,3.4-.678c1.059-.617,1.794-1.685,2.8-2.384,1.5-1.038,3.5-1.194,4.879-2.39a5.123,5.123,0,0,0,1.153-5.612A7.689,7.689,0,0,0,73.133,19.3a5.05,5.05,0,0,1-1.949-1.1,5.113,5.113,0,0,1-.781-1.571,11.485,11.485,0,0,0-8.556-6.916c-2.048-.37-2.945-.015-4.592-1.316a14.259,14.259,0,0,0-6.284-2.749" transform="translate(0.14 0.151)" fill="#4b281d"/>
              </g>
            </g>
            <path id="Fill_50" data-name="Fill 50" d="M7,3.5A3.5,3.5,0,1,1,3.5,0,3.5,3.5,0,0,1,7,3.5" transform="translate(103 57)" fill="#f38e77"/>
            <path id="Fill_52" data-name="Fill 52" d="M7,3.5A3.5,3.5,0,1,1,3.5,0,3.5,3.5,0,0,1,7,3.5" transform="translate(81 57)" fill="#f38e77"/>
            <path id="Fill_54" data-name="Fill 54" d="M1.408,1.013A5.224,5.224,0,0,1,6.1.2,8.921,8.921,0,0,1,9.825,1.848,5.873,5.873,0,0,1,12,5.4C9.924,5.777.693,6.322.225,5.755c-.419-.507-.149-1.92-.02-2.5a4.238,4.238,0,0,1,1.2-2.239" transform="translate(90 64)" fill="#fff"/>
            <path id="Fill_56" data-name="Fill 56" d="M9.981,5.473,4.735,0,0,5.788,3.543,9.8,1.928,16.376A9.217,9.217,0,0,0,10,15.67L7.418,9.828Z" transform="translate(105 95)" fill="#d75555"/>
            <path id="Fill_58" data-name="Fill 58" d="M3.989,11A3.5,3.5,0,0,1,.973,9.169,7.5,7.5,0,0,1,.6,4.7.348.348,0,0,1,.99,4.392a.363.363,0,0,1,.293.413,6.655,6.655,0,0,0,.284,4,2.751,2.751,0,0,0,2.9,1.414.713.713,0,0,0,.293-.114,1.012,1.012,0,0,0,.224-.418A30.1,30.1,0,0,0,6.172,5.539a2.994,2.994,0,0,0-.047-1.969,2.731,2.731,0,0,0-1.323-1A39.243,39.243,0,0,0,.24.715.371.371,0,0,1,.016.257a.339.339,0,0,1,.43-.24A39.853,39.853,0,0,1,5.077,1.9,3.288,3.288,0,0,1,6.718,3.2a3.63,3.63,0,0,1,.123,2.5A30.861,30.861,0,0,1,5.627,9.953a1.634,1.634,0,0,1-.442.73,1.306,1.306,0,0,1-.583.254A3,3,0,0,1,3.989,11" transform="translate(4 70)" fill="#e98870"/>
            <path id="Fill_60" data-name="Fill 60" d="M3.552,12a2.321,2.321,0,0,1-1.624-.661.412.412,0,0,1-.034-.532.308.308,0,0,1,.471-.038,1.7,1.7,0,0,0,2.2.138,4.772,4.772,0,0,0,1.27-2.88A15.488,15.488,0,0,0,6.3,3.587a1.7,1.7,0,0,0-.208-.776,1.582,1.582,0,0,0-.878-.5L.244.741A.386.386,0,0,1,.012.276.331.331,0,0,1,.424.014L5.393,1.588a2.151,2.151,0,0,1,1.227.762,2.413,2.413,0,0,1,.343,1.16A16.112,16.112,0,0,1,6.482,8.2,5.433,5.433,0,0,1,4.94,11.528,2.256,2.256,0,0,1,3.552,12" transform="translate(8 69)" fill="#e98870"/>
            <path id="Fill_64" data-name="Fill 64" d="M.383,17l-.04,0A.362.362,0,0,1,0,16.611,4.647,4.647,0,0,1,1.47,13.739a5.289,5.289,0,0,1,2.492-1.371l-.231-.593a1.7,1.7,0,0,1-.057-1.486,1.81,1.81,0,0,1,.151-.207.616.616,0,0,0,.113-.17c.013-.065-.078-.208-.127-.285A11.516,11.516,0,0,1,1.679,4.558,10.171,10.171,0,0,1,2.447.249.391.391,0,0,1,2.925.016a.349.349,0,0,1,.253.442A9.664,9.664,0,0,0,2.442,4.5,10.984,10.984,0,0,0,4.472,9.27a1.067,1.067,0,0,1,.22.768,1.067,1.067,0,0,1-.252.466,1.175,1.175,0,0,0-.1.128c-.137.229-.016.587.107.9L5,12.945,4.519,13a4.283,4.283,0,0,0-2.505,1.241A3.96,3.96,0,0,0,.763,16.683.373.373,0,0,1,.383,17" transform="translate(15 68)" fill="#e98870"/>
            <path id="Fill_66" data-name="Fill 66" d="M2.584,2c-.051,0-.1,0-.152,0A3.14,3.14,0,0,1,.08.672.438.438,0,0,1,.153.086.373.373,0,0,1,.7.164a2.364,2.364,0,0,0,1.771,1,2.327,2.327,0,0,0,1.855-.8A.371.371,0,0,1,4.877.34.439.439,0,0,1,4.895.93,3.1,3.1,0,0,1,2.584,2" transform="translate(14 78)" fill="#e98870"/>
            <path id="Fill_68" data-name="Fill 68" d="M39,14.788l-1.41.355a12.691,12.691,0,0,0-3.389,1.2c-2.007,1.18-3.2,3.36-5.064,4.757C27.032,22.685,24.3,23.117,21.7,23.6A104.848,104.848,0,0,0,8.968,26.792a2.543,2.543,0,0,1-1.292.177c-.877-.192-1.255-1.2-1.487-2.057a2.264,2.264,0,0,1-3.243-.972c-1.863,1.149-4.738-.794-1.443-4.094-.073-2.13,3.355-8.338,12.625-12.559a5.892,5.892,0,0,1-4.953-2.4c-1-1.618-.481-4.149,1.317-4.809a.829.829,0,0,1,.532-.052,1.116,1.116,0,0,1,.49.467c1.3,1.77,3.911,1.963,6.075,1.517A30.362,30.362,0,0,1,21.043,1.3c4.447-.389,8.518,3.09,12.973,2.811A49.369,49.369,0,0,1,39,14.788" transform="translate(112 169)" fill="#f7a87e"/>
            <path id="Fill_70" data-name="Fill 70" d="M.34,7,0,6.6A44.613,44.613,0,0,1,5.6,2.275,41.754,41.754,0,0,1,9.625.027a.259.259,0,0,1,.348.119A.263.263,0,0,1,9.855.5a41.2,41.2,0,0,0-3.972,2.22A44.166,44.166,0,0,0,.34,7" transform="translate(114 182)" fill="#e98870"/>
            <path id="Fill_72" data-name="Fill 72" d="M.26,7a.258.258,0,0,1-.221-.127.269.269,0,0,1,.086-.365A11.977,11.977,0,0,0,1.848,5.085c.225-.21.45-.42.677-.621A27.851,27.851,0,0,1,10.644.019a.258.258,0,0,1,.337.148.268.268,0,0,1-.144.345A27.444,27.444,0,0,0,2.864,4.868c-.224.2-.445.4-.666.61a12.336,12.336,0,0,1-1.8,1.483A.253.253,0,0,1,.26,7" transform="translate(115 186)" fill="#e98870"/>
            <path id="Fill_74" data-name="Fill 74" d="M.264,4a.264.264,0,0,1-.248-.164.246.246,0,0,1,.157-.32c.271-.094.54-.193.809-.293L9.64.017a.269.269,0,0,1,.342.142.246.246,0,0,1-.15.324L1.174,3.688c-.272.1-.545.2-.82.3A.279.279,0,0,1,.264,4" transform="translate(118 190)" fill="#e98870"/>
            <path id="Fill_76" data-name="Fill 76" d="M6.618,22a.386.386,0,0,1-.324-.171c-2.5-3.819-4.078-9.445-4.961-13.492C.379,3.965.006.439,0,.4A.371.371,0,0,1,.344,0,.377.377,0,0,1,.762.331c.014.139,1.5,13.96,6.179,21.106a.358.358,0,0,1-.12.506.39.39,0,0,1-.2.056" transform="translate(80 130)" fill="#243f52"/>
            <g id="Group_80" data-name="Group 80" transform="translate(142 117)">
              <path id="Clip_79-2" data-name="Clip 79" d="M0,0H66.881V68.919H0Z" transform="translate(0.111 0.043)" fill="none"/>
              <g id="Group_80-2" data-name="Group 80" clip-path="url(#clip-path-5)">
                <path id="Fill_78" data-name="Fill 78" d="M39.7,0S67.446,26.19,66.872,38.842C66.42,48.8,38.5,61.708,26.611,66.759a15.257,15.257,0,0,1-10.518.518l-3.075-.961-6.509,2.6L0,55.124,32.284,36.382,19.787,19.2Z" transform="translate(0.111 0.043)" fill="#2a485e"/>
              </g>
            </g>
            <path id="Fill_81" data-name="Fill 81" d="M2.088,22a.37.37,0,0,1-.331-.2L0,18.35l.166-.186C.307,18.005,14.5,2.315,30.577,0a.37.37,0,0,1,.42.31.367.367,0,0,1-.313.415C15.808,2.867,2.524,16.706.889,18.466l1.53,3a.365.365,0,0,1-.164.492A.373.373,0,0,1,2.088,22" transform="translate(142 153)" fill="#243f52"/>
          </g>
        </g>
      </g>
    </g>
    <g id="Group_10" data-name="Group 10" transform="translate(630 582)">
      <path id="Fill_1-2" data-name="Fill 1" d="M53.477,3.512A15.725,15.725,0,0,0,41.468,1.837c-2.383.635-4.522,1.763-6.912,2.385a23.986,23.986,0,0,1-7.524.72C17.978,4.37,10.252-1.177.88.227-.661.458-.008,2.4,1.527,2.172c8.673-1.3,16.5,4.053,24.939,4.747A28.4,28.4,0,0,0,39.211,4.8,16.812,16.812,0,0,1,45.84,3.334a12.8,12.8,0,0,1,6.408,1.92c1.261.774,2.477-.977,1.229-1.742" transform="translate(14)" fill="#e02020"/>
      <path id="Fill_3" data-name="Fill 3" d="M57.832,5.678c-1.817,1.942-3.849,3.4-6.841,3.381-2.8-.014-5.5-.951-8.145-1.636-2.307-.6-4.759-1.169-6.909.109-1.771,1.052-2.7,2.817-3.879,4.319-3.229,4.109-8.521,5.623-13.989,5.174-5.869-.483-12.141-2.168-17.5.918C-.756,18.7.477,20.587,1.81,19.82c4.708-2.71,10.5-1.176,15.655-.677,4.916.477,9.651-.329,13.55-3.131a18.281,18.281,0,0,0,4.123-4.378A7.981,7.981,0,0,1,37.18,9.408c1.215-.764,2.588-.476,3.924-.161,4.7,1.1,9.891,3.221,14.6,1,2.3-1.085,3.814-3.011,5.43-4.749,1.773-1.906,4.408-4.065,7.393-2.965a1.1,1.1,0,1,0,.655-2.1C64.306-1.36,60.545,2.778,57.832,5.678Z" transform="translate(0 19)" fill="#e02020"/>
      <path id="Fill_5" data-name="Fill 5" d="M22.7.5c-1.506,2.135-4.091,3.241-6.833,3.843-2.17.476-5.4.235-7.117,1.582C7.127,7.2,6.72,9.52,6.113,11.24A6.633,6.633,0,0,1,.864,15.93c-1.516.371-.871,2.4.652,2.024a9.1,9.1,0,0,0,5.791-3.6,13.334,13.334,0,0,0,1.309-2.961,10.3,10.3,0,0,1,1.446-3.516c.92-1.06,3.042-.931,4.452-1.147a24.6,24.6,0,0,0,4.458-1.055A11.7,11.7,0,0,0,24.816,1.56C25.633.4,23.513-.656,22.7.5" transform="translate(47 37)" fill="#e02020"/>
      <g id="Group_9" data-name="Group 9" transform="translate(48 54)">
        <path id="Clip_8-2" data-name="Clip 8" d="M0,0H31.724V29.809H0Z" transform="translate(0.002 0.191)" fill="none"/>
        <g id="Group_9-2" data-name="Group 9" clip-path="url(#clip-path-6)">
          <path id="Fill_7" data-name="Fill 7" d="M29.167,1.034A12.172,12.172,0,0,1,28.711,5.9c-.741,1.96-2.568,2.581-4.48,3.584a11.943,11.943,0,0,0-6.03,7.283c-.5,1.626-.838,3.482-2.489,4.582-1.555,1.036-3.68,1.241-5.558,1.574a17,17,0,0,0-9.866,5c-.985,1.076.79,2.6,1.786,1.515a13.5,13.5,0,0,1,5.1-3.521A39.52,39.52,0,0,1,13.3,24.54,10.209,10.209,0,0,0,18.093,22.4a9.5,9.5,0,0,0,2.417-4.636A10.075,10.075,0,0,1,23.27,12.91c1.5-1.38,3.473-1.97,5.192-3.081,3.2-2.069,3.363-5.667,3.231-8.795-.058-1.375-2.585-1.381-2.526,0" transform="translate(0.002 0.191)" fill="#e02020"/>
        </g>
      </g>
    </g>
  </g>
</svg>
