<?xml version="1.0" encoding="UTF-8"?>
<svg width="298px" height="362px" viewBox="0 0 298 362" version="1.1" xmlns="http://www.w3.org/2000/svg" xmlns:xlink="http://www.w3.org/1999/xlink">
    <!-- Generator: Sketch 61.1 (89650) - https://sketch.com -->
    <title>Group 21</title>
    <desc>Created with Sketch.</desc>
    <defs>
        <polygon id="path-1" points="0.160053191 0.255851064 49.6563298 0.255851064 49.6563298 24.9890426 0.160053191 24.9890426"></polygon>
        <polygon id="path-3" points="0 0.12881 51.7323876 0.12881 51.7323876 10.63216 0 10.63216"></polygon>
        <polygon id="path-5" points="0.160053191 0.255851064 49.6563298 0.255851064 49.6563298 24.9890426 0.160053191 24.9890426"></polygon>
        <polygon id="path-7" points="0 0.12881 51.7323876 0.12881 51.7323876 10.63216 0 10.63216"></polygon>
        <linearGradient x1="50.404928%" y1="110.568676%" x2="49.4795532%" y2="36.2382695%" id="linearGradient-9">
            <stop stop-color="#B6D3FD" offset="0%"></stop>
            <stop stop-color="#FA8C91" offset="100%"></stop>
        </linearGradient>
        <linearGradient x1="50.9710476%" y1="113.267744%" x2="49.8288791%" y2="41.1014232%" id="linearGradient-10">
            <stop stop-color="#5EC8FD" offset="0%"></stop>
            <stop stop-color="#000000" offset="100%"></stop>
        </linearGradient>
        <radialGradient cx="49.9573175%" cy="50.0289268%" fx="49.9573175%" fy="50.0289268%" r="50%" id="radialGradient-11">
            <stop stop-color="#EE4036" offset="0%"></stop>
            <stop stop-color="#EE4338" offset="23%"></stop>
            <stop stop-color="#ED4C40" offset="40%"></stop>
            <stop stop-color="#ED5C4D" offset="54%"></stop>
            <stop stop-color="#EC725F" offset="68%"></stop>
            <stop stop-color="#EB8F76" offset="80%"></stop>
            <stop stop-color="#E9B193" offset="92%"></stop>
            <stop stop-color="#E8CEAA" offset="100%"></stop>
        </radialGradient>
    </defs>
    <g id="Page-1" stroke="none" stroke-width="1" fill="none" fill-rule="evenodd">
        <g id="Slide_6-Copy" transform="translate(-574.000000, -379.000000)">
            <g id="Group-2" transform="translate(574.000000, 379.000000)">
                <g id="Group" transform="translate(0.000000, 32.000000)">
                    <circle id="Oval" fill="#FEE9DB" cx="149" cy="149" r="149"></circle>
                    <circle id="Oval" stroke="#EC5700" stroke-width="16" cx="149" cy="149" r="141"></circle>
                </g>
                <g id="Group-9" transform="translate(59.000000, 161.000000)">
                    <g id="Group-3" transform="translate(6.000000, 0.000000)">
                        <mask id="mask-2" fill="white">
                            <use xlink:href="#path-1"></use>
                        </mask>
                        <g id="Clip-2"></g>
                        <path d="M17.280266,12.7608511 L25.7435638,18.7289362 L32.8712234,17.9874468 L49.6563298,24.9890426 L33.873883,13.6443617 L27.079734,13.8980851 L19.2760106,6.4012766 L12.9036702,7.38797872 L3.77069149,0.255531915 C2.44728723,2.4406383 1.23345745,4.705 0.160053191,7.05553191 L11.7143085,14.0284043 L17.280266,12.7608511 Z" id="Fill-1" fill="#F15A24" mask="url(#mask-2)"></path>
                    </g>
                    <g id="Group-6" transform="translate(0.000000, 35.000000)">
                        <mask id="mask-4" fill="white">
                            <use xlink:href="#path-3"></use>
                        </mask>
                        <g id="Clip-5"></g>
                        <path d="M23.9617072,7.01096 L32.3916041,7.59561 L37.0517691,3.80171 L51.7323876,1.35971 L35.9131299,0.12881 L31.2797691,3.40241 L22.6547381,1.38611 L18.6335835,5.02436 L0.0240164948,2.75121 C0.0240164948,2.75121 -0.0494268041,9.81046 0.0604701031,10.63216 L20.6144082,10.48256 L23.9617072,7.01096 Z" id="Fill-4" fill="#F15A24" mask="url(#mask-4)"></path>
                    </g>
                    <path d="M42.1316431,56.3467327 L41.1879298,62.0477613 L33.7930474,66.7081001 L33.5140365,72.2335123 L19,83.8111859 C20.910951,85.6622044 22.9280355,87.3993975 25.046877,89 L38.6888677,74.8319846 L38.602429,69.9038849 L44.8834563,64.3340266 L45.481962,58.234609 L54,46 L42.1316431,56.3467327 Z" id="Fill-7" fill="#F15A24"></path>
                </g>
                <g id="Group-9-Copy" transform="translate(204.000000, 205.500000) scale(-1, 1) translate(-204.000000, -205.500000) translate(176.000000, 161.000000)">
                    <g id="Group-3" transform="translate(6.000000, 0.000000)">
                        <mask id="mask-6" fill="white">
                            <use xlink:href="#path-5"></use>
                        </mask>
                        <g id="Clip-2"></g>
                        <path d="M17.280266,12.7608511 L25.7435638,18.7289362 L32.8712234,17.9874468 L49.6563298,24.9890426 L33.873883,13.6443617 L27.079734,13.8980851 L19.2760106,6.4012766 L12.9036702,7.38797872 L3.77069149,0.255531915 C2.44728723,2.4406383 1.23345745,4.705 0.160053191,7.05553191 L11.7143085,14.0284043 L17.280266,12.7608511 Z" id="Fill-1" fill="#F15A24" mask="url(#mask-6)"></path>
                    </g>
                    <g id="Group-6" transform="translate(0.000000, 35.000000)">
                        <mask id="mask-8" fill="white">
                            <use xlink:href="#path-7"></use>
                        </mask>
                        <g id="Clip-5"></g>
                        <path d="M23.9617072,7.01096 L32.3916041,7.59561 L37.0517691,3.80171 L51.7323876,1.35971 L35.9131299,0.12881 L31.2797691,3.40241 L22.6547381,1.38611 L18.6335835,5.02436 L0.0240164948,2.75121 C0.0240164948,2.75121 -0.0494268041,9.81046 0.0604701031,10.63216 L20.6144082,10.48256 L23.9617072,7.01096 Z" id="Fill-4" fill="#F15A24" mask="url(#mask-8)"></path>
                    </g>
                    <path d="M42.1316431,56.3467327 L41.1879298,62.0477613 L33.7930474,66.7081001 L33.5140365,72.2335123 L19,83.8111859 C20.910951,85.6622044 22.9280355,87.3993975 25.046877,89 L38.6888677,74.8319846 L38.602429,69.9038849 L44.8834563,64.3340266 L45.481962,58.234609 L54,46 L42.1316431,56.3467327 Z" id="Fill-7" fill="#F15A24"></path>
                </g>
                <g id="Char_2-04" transform="translate(104.000000, 0.000000)" fill-rule="nonzero">
                    <path d="M12.32,187.1128 C12.32,187.1128 9.26799998,188.0816 13.0984,200.4352 C16.9288,212.7888 19.208,218.0472 20.72,221.844 C22.232,225.6408 29.8647999,213.0184 32.5975999,210.4928 C35.4983999,207.76 38.1303999,208.0736 39.7599999,211.12 C41.3895999,214.1664 39.4631999,211.428 42.6551999,215.4656 C45.8471999,219.5032 64.4951999,199.9704 63.7335999,193.6816 C62.9719999,187.3928 62.0535999,184.8224 61.2415999,184.1952 C60.4295999,183.568 58.3855999,178.08 54.5999999,176.148 C50.8143999,174.216 36.8983999,173.908 36.8983999,173.908 L12.32,187.1128 Z" id="Path" fill="#302607"></path>
                    <path d="M37.0607999,268.620799 C36.3775999,269.886399 35.6495999,272.663999 34.0367999,273.744799 C33.8561809,273.868296 33.6692619,273.982317 33.4767999,274.086399 C31.4327999,275.161599 28.5711999,275.273599 26.3703999,274.915199 L25.6031999,272.535199 L11.6872,192.276 L22.96,189.7504 L28.4367999,188.1264 C28.4367999,188.1264 33.0511999,192.7352 32.5751999,199.416 C32.5751999,199.416 33.4655999,239.142399 37.7831999,263.944799 C38.0759101,265.540342 37.8213651,267.187978 37.0607999,268.620799 L37.0607999,268.620799 Z" id="Path" fill="#302607"></path>
                    <path d="M5.49919999,332.219999 C4.86688463,333.692384 4.1178302,335.111842 3.25919999,336.464799 C1.8816,338.581599 4.37919999,342.574399 4.23919999,343.912799 L4.12159999,345.245599 L14.2016,345.861599 L16.0496,333.429599 L5.49919999,332.219999 Z" id="Path" fill="#000000"></path>
                    <path d="M15.7528,338.855999 C12.0176,338.743999 3.99279999,336.055999 2.50319999,333.922399 C0.632799999,331.307199 5.26959999,332.718399 5.14639999,328.159999 C5.02319999,323.601599 5.14639999,322.559999 7.57119998,319.323199 C9.99599998,316.086399 15.5456,291.323199 15.5456,291.323199 C15.5456,291.323199 15.6968,290.763199 17.1304,281.657599 C18.564,272.551999 24.4607999,262.695999 24.4607999,262.695999 C25.4239999,260.831199 32.1215999,261.172799 35.5375999,262.987199 L35.0335999,266.347199 L15.7528,338.855999 Z" id="Path" fill="#302607"></path>
                    <path d="M19.04,336.453599 C19.04,336.453599 18.9224,336.873599 17.5728,338.463999 C17.3096,338.771999 16.6656,338.889599 15.7808,338.855999 L35.0335999,266.341599 L35.5375999,262.981599 C36.7191999,263.614399 37.5143999,264.431999 37.5255999,265.383999 C37.5927999,271.034399 28.2239999,298.384799 25.4911999,308.341599 C22.7584,318.298399 19.04,336.453599 19.04,336.453599 Z" id="Path" fill="#5B4916"></path>
                    <polygon id="Path" fill="#5D2207" points="1.0024 347.642399 0 351.377599 2.47519999 352.839199 3.43279999 348.896799"></polygon>
                    <polygon id="Path" fill="#3B1203" points="6.96079999 351.332799 7.05039998 353.107999 2.47519999 352.839199 3.29839999 349.630399"></polygon>
                    <path d="M28.0895999,361.608799 C20.8096,360.869599 10.5392,357.240799 7.95759998,354.541599 L5.37599999,351.836799 L0.996799998,347.642399 L0.901599998,346.639999 L5.19679999,350.716799 L7.83999998,353.404799 C10.4552,356.120799 20.8264,359.771999 28.1903999,360.527999 C34.1823999,361.138399 37.9455999,360.007199 38.8023999,358.248799 C39.0711999,360.567199 35.1399999,362.319999 28.0895999,361.608799 Z" id="Path" fill="#83330E"></path>
                    <path d="M38.7743999,358.248799 C37.9175999,360.007199 34.1543999,361.138399 28.1623999,360.527999 C20.7984,359.771999 10.4272,356.120799 7.81199998,353.404799 L5.19679999,350.694399 L0.901599998,346.639999 L0.800799998,345.615199 C0.800799998,345.615199 0.929599998,340.283999 2.0384,339.914399 C3.14719999,339.544799 15.68,338.407999 17.2704,339.303999 C17.2885872,339.298016 17.3082127,339.298016 17.3264,339.303999 L17.3264,339.527999 L17.4048,342.176799 L17.4328,343.251999 C17.4328,343.251999 30.6823999,355.095999 32.5023999,355.672799 C34.3223999,356.249599 38.1023999,355.577599 38.7295999,358.007999 C38.7463999,358.097599 38.7687999,358.170399 38.7743999,358.248799 Z" id="Path" fill="#B84C18"></path>
                    <path d="M21.616,348.067999 L16.4416,349.563199 L14.8736,347.838399 C13.272,346.079999 12.3648,343.005599 12.5048,340.631199 C12.6336,338.491999 12.964,337.198399 14.056,337.007999 C16.7216,336.537599 17.6232,337.567999 17.416,343.257599 L21.616,348.067999 Z" id="Path" fill="#8B3710"></path>
                    <path d="M17.7184,342.871199 C14.8456,341.941599 11.676,343.660799 11.5584,343.733599 C11.5584,343.733599 11.2224,344.209599 11.7544,344.259999 C11.7824,344.259999 14.9128,342.540799 17.6344,343.425599 C18.0264,343.279999 17.7184,342.871199 17.7184,342.871199 Z" id="Path" fill="#150602"></path>
                    <path d="M19.3312,344.506399 C16.3464,343.576799 13.048,345.312799 12.9136,345.385599 C12.9136,345.385599 12.5608,345.855999 13.1096,345.906399 C13.1432,345.906399 16.4024,344.181599 19.2248,345.055199 C19.6504,344.903999 19.3312,344.506399 19.3312,344.506399 Z" id="Path" fill="#150602"></path>
                    <path d="M20.8432,346.141599 C17.7968,345.223199 14.42,346.959199 14.28,347.031999 C14.28,347.031999 13.916,347.502399 14.4816,347.552799 C14.5152,347.552799 17.8416,345.822399 20.7312,346.695999 C21.168,346.544799 20.8432,346.141599 20.8432,346.141599 Z" id="Path" fill="#150602"></path>
                    <path d="M31.0015999,358.097599 C31.0015999,357.851199 32.2503999,357.823199 33.7119999,357.621599 C35.1735999,357.419999 36.3663999,357.139999 36.4503999,357.375199 C36.5343999,357.610399 35.3919999,358.299199 33.8295999,358.495199 C32.2671999,358.691199 30.9847999,358.338399 31.0015999,358.097599 Z" id="Path" fill="#FFFFFF" opacity="0.75"></path>
                    <path d="M36.3439999,268.620799 C37.0271999,269.886399 37.7551999,272.663999 39.3679999,273.744799 C39.5486189,273.868296 39.735538,273.982317 39.9279999,274.086399 C41.9719999,275.161599 44.8335999,275.273599 47.0343999,274.915199 L47.8015999,272.535199 L63.7391999,193.6872 L50.4335999,189.7672 L44.9567999,188.1432 C44.9567999,188.1432 40.3423999,192.752 40.8183999,199.4328 C40.8183999,199.4328 39.9279999,239.159199 35.6103999,263.961599 C35.325001,265.552983 35.5833997,267.19411 36.3439999,268.620799 L36.3439999,268.620799 Z" id="Path" fill="#302607"></path>
                    <path d="M67.9055999,332.219999 C68.5379152,333.692384 69.2869696,335.111842 70.1455999,336.464799 C71.5231998,338.581599 69.0255999,342.574399 69.1655999,343.912799 L69.2887999,345.245599 L59.2087999,345.861599 L57.3607999,333.429599 L67.9055999,332.219999 Z" id="Path" fill="#000000"></path>
                    <path d="M57.6799999,338.855999 C61.4095999,338.743999 69.4399999,336.055999 70.9239998,333.922399 C72.7943998,331.307199 68.1575999,332.718399 68.2807999,328.159999 C68.4039999,323.601599 68.2807999,322.559999 65.8559999,319.323199 C63.4311999,316.086399 57.8815999,291.323199 57.8815999,291.323199 C57.8815999,291.323199 57.7303999,290.763199 56.2967999,281.657599 C54.8631999,272.551999 48.9439999,262.712799 48.9439999,262.712799 C47.9807999,260.847999 41.2831999,261.189599 37.8727999,263.003999 L38.3711999,266.363999 L57.6799999,338.855999 Z" id="Path" fill="#302607"></path>
                    <path d="M54.3927999,336.453599 C54.3927999,336.453599 54.5103999,336.873599 55.8599999,338.463999 C56.1231999,338.771999 56.7671999,338.889599 57.6575999,338.855999 L38.3711999,266.341599 L37.8727999,262.981599 C36.6855999,263.614399 35.8903999,264.431999 35.8790769,265.383999 C35.8399999,271.039999 45.1807999,298.407199 47.9135999,308.363999 C50.6463999,318.320799 54.3927999,336.453599 54.3927999,336.453599 Z" id="Path" fill="#5B4916"></path>
                    <polygon id="Path" fill="#5D2207" points="72.4023998 347.642399 73.4047998 351.377599 70.9351998 352.839199 69.9719999 348.896799"></polygon>
                    <polygon id="Path" fill="#3B1203" points="66.4495999 351.332799 66.3543999 353.107999 70.9351998 352.839199 70.1063999 349.630399"></polygon>
                    <path d="M45.3151999,361.608799 C52.5951999,360.869599 62.8655999,357.240799 65.4751999,354.541599 L68.0567999,351.836799 L72.4359998,347.642399 L72.5367998,346.617599 L68.2359999,350.694399 L65.6263999,353.404799 C63.0055999,356.120799 52.6343999,359.771999 45.2703999,360.527999 C39.2783999,361.138399 35.5207999,360.007199 34.6639999,358.248799 C34.3335999,360.567199 38.2647999,362.319999 45.3151999,361.608799 Z" id="Path" fill="#83330E"></path>
                    <path d="M34.6359999,358.248799 C35.4927999,360.007199 39.2503999,361.138399 45.2423999,360.527999 C52.6063999,359.771999 62.9775999,356.120799 65.5983999,353.404799 L68.2079999,350.694399 L72.5087998,346.617599 L72.6039998,345.592799 C72.6039998,345.592799 72.4751998,340.261599 71.3663998,339.891999 C70.2575999,339.522399 57.7247999,338.385599 56.1343999,339.281599 C56.1162127,339.275616 56.0965871,339.275616 56.0783999,339.281599 L56.0783999,339.505599 L55.9999999,342.159999 L55.9663999,343.279999 C55.9663999,343.279999 42.7167999,355.101599 40.8799999,355.678399 C39.0431999,356.255199 35.2799999,355.599999 34.6751999,358.013599 C34.6544545,358.090525 34.6413246,358.169304 34.6359999,358.248799 Z" id="Path" fill="#B84C18"></path>
                    <path d="M51.7887999,348.067999 L56.9631999,349.563199 L58.5311999,347.838399 C60.1327999,346.079999 61.0399999,343.005599 60.8999999,340.631199 C60.7711999,338.491999 60.4463999,337.198399 59.3487999,337.007999 C56.6831999,336.537599 55.7815999,337.567999 55.9887999,343.257599 L51.7887999,348.067999 Z" id="Path" fill="#8B3710"></path>
                    <path d="M55.6863999,342.871199 C58.5591999,341.941599 61.7287999,343.660799 61.8463999,343.733599 C61.8463999,343.733599 62.1879999,344.209599 61.6503999,344.259999 C61.6223999,344.259999 58.4919999,342.540799 55.7703999,343.425599 C55.3783999,343.279999 55.6863999,342.871199 55.6863999,342.871199 Z" id="Path" fill="#150602"></path>
                    <path d="M54.0735999,344.506399 C57.0583999,343.576799 60.3567999,345.312799 60.4967999,345.385599 C60.4967999,345.385599 60.8495999,345.855999 60.2951999,345.906399 C60.2615999,345.906399 57.0023999,344.181599 54.1799999,345.055199 C53.7599999,344.903999 54.0735999,344.506399 54.0735999,344.506399 Z" id="Path" fill="#150602"></path>
                    <path d="M52.5615999,346.141599 C55.6135999,345.223199 58.9847999,346.959199 59.1247999,347.031999 C59.1247999,347.031999 59.4887999,347.502399 58.9231999,347.552799 C58.8895999,347.552799 55.5631999,345.822399 52.6735999,346.695999 C52.2367999,346.544799 52.5615999,346.141599 52.5615999,346.141599 Z" id="Path" fill="#150602"></path>
                    <path d="M42.4031999,358.097599 C42.4031999,357.851199 41.1599999,357.823199 39.6927999,357.621599 C38.2255999,357.419999 37.0383999,357.139999 36.9543999,357.375199 C36.8703999,357.610399 38.0127999,358.299199 39.5751999,358.495199 C41.1375999,358.691199 42.4255999,358.338399 42.4031999,358.097599 Z" id="Path" fill="#FFFFFF" opacity="0.75"></path>
                    <g id="Group" opacity="0.5" transform="translate(22.960000, 185.360000)">
                        <g>
                            <path d="M10.5056,8.39999998 L7.92959998,8.39999998 C3.74079999,8.43919998 0.302399999,5.49359999 0.268799999,1.8368 L0.268799999,0.487199999 L2.128,0.487199999 L2.128,1.8368 C2.156,4.60319999 4.74879999,6.82639999 7.91839998,6.79839999 L10.4888,6.79839999 L10.5056,8.39999998 Z" id="Path" fill="#E3565B"></path>
                            <path d="M21.0728,8.29919998 L18.5024,8.29919998 L18.5024,6.67519999 L21.0784,6.67519999 C24.2423999,6.64719999 26.8015999,4.37919999 26.7735999,1.6352 L26.7735999,0.285599999 L28.6328623,0.285599999 L28.6328623,1.6352 C28.6495999,5.25839999 25.2671999,8.25999998 21.0728,8.29919998 Z" id="Path" fill="#E3565B"></path>
                            <path d="M23.979205,9.29599998 C23.9801623,9.977259 23.8429997,10.6516417 23.5759999,11.2784 C23.5311999,11.3736 23.4919999,11.4688 23.4472,11.5584 C23.1730834,12.1283042 22.8328791,12.663985 22.4336,13.1544 L22.2936,13.3224 C21.4158546,14.3355475 20.3862846,15.2064314 19.2416,15.904 C17.1192,17.2088 15.3216,19.3088 15.3216,21.5712 L15.3216,21.84 L13.692,21.84 L13.692,21.7672 C13.692,19.4488 11.6088,17.3376 9.39119998,16.0608 C8.68519263,15.6589308 8.01946252,15.1901068 7.40319998,14.6608 L7.19039998,14.476 C6.28944633,13.6914827 5.54795279,12.7408499 5.00639999,11.676 C4.96159999,11.5864 4.92239999,11.4968 4.88319999,11.4016 C4.54038241,10.6294535 4.38679454,9.78663999 4.43519999,8.94319998 C4.58079999,6.89919999 5.85759999,5.40959999 7.68879998,4.42399999 C7.80639998,4.35679999 7.92959998,4.30079999 8.04719998,4.24479999 C9.89833377,3.40275642 11.904869,2.95643584 13.9384,2.93439999 C16.4364756,2.80829482 18.919339,3.39067091 21.1008,4.61439999 L21.3696,4.79359999 C22.9524,5.74916846 23.9368161,7.44760322 23.979205,9.29599998 Z" id="Path" fill="url(#linearGradient-9)"></path>
                            <path d="M11.424,13.3056 C10.5713759,13.903366 9.5302206,14.1701248 8.49519998,14.056 L8.43919998,14.056 C8.08492951,14.2373988 7.74263009,14.441282 7.41439998,14.6664 L7.20159998,14.4816 C7.46479998,14.3024 7.76159998,14.1512 8.01359998,13.9944 C8.76656535,13.6087249 9.40267751,13.0286834 9.85599998,12.3144 C9.94559998,12.1408 10.2592,12.2528 10.164,12.4264 C9.88619087,12.9405384 9.49094001,13.3818379 9.01039998,13.7144 L8.88159998,13.7928 C9.71189417,13.807002 10.5247327,13.5537262 11.2,13.0704 C11.3904,12.9528 11.5976,13.188 11.424,13.3056 Z" id="Path" fill="#E3565B"></path>
                            <path d="M8.69679998,10.2256 C8.62399998,10.4608 8.31039998,10.472 8.07519998,10.5056 C7.7041339,10.5566027 7.32970235,10.5790686 6.95519999,10.5728 C6.3753085,11.0309834 5.72965251,11.3991206 5.03999999,11.6648 C4.99519999,11.5752 4.95599999,11.4856 4.91679999,11.3904 C5.33572391,11.239766 5.7405015,11.0523689 6.12639999,10.8304 C5.74913465,10.0198177 5.91427189,9.0602364 6.54079999,8.42239998 C6.66959999,8.27119998 6.96079999,8.42239998 6.83199999,8.56799998 C6.2817432,9.11213629 6.11176309,9.9333389 6.40079999,10.6512 C6.88593381,10.325249 7.3232161,9.93320281 7.69999998,9.48639998 C7.82879998,9.33519998 8.12559998,9.48639998 7.99119998,9.63199998 C7.7905254,9.87080494 7.57346721,10.0953479 7.34159998,10.304 L7.68879998,10.304 C7.75039998,10.304 8.37199998,10.2648 8.39439998,10.192 C8.42799998,9.96239998 8.75279998,10.0408 8.69679998,10.2256 Z" id="Path" fill="#E3565B"></path>
                            <path d="M22.4336,13.1544 L22.2936,13.3224 C21.6431482,13.1493312 20.9830734,13.0146984 20.3168,12.9192 C19.616124,13.4180947 18.767923,13.6666373 17.9088,13.6248 C17.8489074,13.6364893 17.787859,13.6110303 17.7540176,13.5602512 C17.7201762,13.5094721 17.7201762,13.4433278 17.7540176,13.3925487 C17.787859,13.3417696 17.8489074,13.3163107 17.9088,13.328 C18.6032043,13.3648397 19.2929771,13.1953193 19.8912,12.8408 C19.2722621,12.7394884 18.6708117,12.5509459 18.1048,12.2808 C17.9144,12.1912 18.1048,11.9336 18.2728,12.0288 C18.6928,12.2472 20.8432,12.656 22.4336,13.1544 Z" id="Path" fill="#E3565B"></path>
                            <path d="M23.5759999,11.2784 C23.5311999,11.3736 23.4919999,11.4688 23.4472,11.5584 C23.0585801,11.3429561 22.6959451,11.0836627 22.3664,10.7856 C21.7571493,10.7451609 21.1730947,10.5271139 20.6864,10.1584 C20.524,10.0296 20.7592,9.82239998 20.9216,9.94559998 C21.2506132,10.1984889 21.6341254,10.3710694 22.0416,10.4496 C21.8666856,10.2526564 21.7145253,10.0366263 21.588,9.80559998 C21.4984,9.63759998 21.7896,9.48639998 21.8792,9.65439998 C22.0650907,9.98869222 22.3054578,10.2896243 22.5904,10.5448 C22.5904,10.5448 22.5904,10.5448 22.5904,10.5448 C22.8910322,10.8247426 23.2215543,11.0707562 23.5759999,11.2784 L23.5759999,11.2784 Z" id="Path" fill="#E3565B"></path>
                            <path d="M10.5504,5.45439999 C10.0576,5.30879999 9.57599998,5.14639999 9.09999998,4.97279999 C9.18399998,5.38719999 9.27359998,5.79599999 9.37439998,6.20479999 C9.41919998,6.39519999 9.09439998,6.47359999 9.04959998,6.28879999 C8.93199998,5.80719999 8.82559998,5.31999999 8.72479998,4.83279999 L8.16479998,4.59199999 L7.71119998,4.41279999 C7.82879998,4.34559999 7.95199998,4.28959999 8.06959998,4.23359999 C8.95999998,4.61999999 10.3096,5.06239999 10.6456,5.16879999 C10.7015629,5.18173719 10.7453627,5.22526679 10.7586459,5.28114863 C10.7719291,5.33703048 10.7524016,5.39561308 10.7082459,5.43234863 C10.6640902,5.46908419 10.6029327,5.47762801 10.5504,5.45439999 L10.5504,5.45439999 Z" id="Path" fill="#E3565B"></path>
                            <path d="M21.3808,4.76559999 C20.5856,5.54399999 19.4992,6.27199999 18.4072,6.08719999 C18.1888,6.04799999 18.2784,5.76799999 18.4912,5.80159999 C18.9193486,5.85560082 19.3538989,5.78155189 19.74,5.58879999 C19.1063882,5.50921967 18.5519665,5.12426272 18.256,4.55839999 C18.1776,4.37919999 18.5024,4.30079999 18.5808,4.47439999 C18.816,5.03439999 19.5048,5.25839999 20.1376,5.35919999 L20.1376,5.35919999 C20.4880396,5.1359597 20.8129181,4.87493013 21.1064,4.58079999 L21.3808,4.76559999 Z" id="Path" fill="#E3565B"></path>
                            <path d="M28.6047999,0.251999999 L28.6047999,1.6016 C28.6327999,4.42959999 26.6111999,6.86559999 23.7551999,7.84559998 C23.8932904,8.31680654 23.9649151,8.80498566 23.9679999,9.29599998 C23.9678854,9.97715094 23.8307662,10.6513205 23.5647999,11.2784 C23.5199999,11.3736 23.4808,11.4688 23.436,11.5584 C23.1618834,12.1283042 22.8216791,12.663985 22.4224,13.1544 L22.2824,13.3224 C21.4046546,14.3355475 20.3750846,15.2064314 19.2304,15.904 C17.108,17.2088 15.3104,19.3088 15.3104,21.5712 L15.3104,21.84 L13.6808,21.84 L13.6808,21.7672 C13.6122369,20.4922387 13.0921353,19.2833003 12.2136,18.3568 C11.4041453,17.4398804 10.4462541,16.6656166 9.37999998,16.0664 C8.67511329,15.6606317 8.00956975,15.1900643 7.39199998,14.6608 L7.17359998,14.476 C6.27597309,13.6897283 5.53661888,12.7394015 4.99519999,11.676 C4.95039999,11.5864 4.91119999,11.4968 4.87199999,11.4016 C4.52918241,10.6294535 4.37559454,9.78663999 4.42399999,8.94319998 C4.45136584,8.56289138 4.52277689,8.18704371 4.63679999,7.82319998 C3.54311134,7.3867582 2.56689045,6.70014311 1.7864,5.81839999 C0.824259133,4.73581821 0.278412133,3.34638948 0.246399999,1.8984 L0.246399999,0.548799999 L2.1056,0.548799999 L2.1056,1.8984 C2.12631341,3.03441965 2.56492315,4.12296926 3.33759999,4.95599999 C3.91085845,5.57557525 4.61217681,6.0628673 5.39279999,6.38399999 C6.00263221,5.58664925 6.78335083,4.93605041 7.67759998,4.47999999 C7.79519998,4.41279999 7.91839998,4.35679999 8.03599998,4.30079999 C8.49089807,4.08157688 8.96057844,3.89445323 9.44159998,3.74079999 C10.8917231,3.27994938 12.4003694,3.02913693 13.9216,2.99599999 C16.4196756,2.86989482 18.902539,3.45227091 21.084,4.67599999 L21.3528,4.85519999 C22.0042608,5.27723111 22.5735256,5.8142376 23.0328,6.43999999 C25.2223999,5.71759999 26.7735999,3.86399999 26.7511999,1.708 L26.7511999,0.358399999 L28.6047999,0.251999999 Z" id="Path" fill="url(#linearGradient-10)" style="mix-blend-mode: color-dodge;"></path>
                            <path d="M15.5736,22.0304 L13.468,22.0304 L13.468,21.7448 C13.3927045,20.523088 12.8890435,19.3670471 12.0456,18.48 C11.2457093,17.5803078 10.2989342,16.8228877 9.24559998,16.24 C8.52784286,15.8293908 7.85090778,15.3512233 7.22399998,14.812 L7.00559999,14.6216 C6.07895083,13.8212301 5.3179704,12.8471751 4.76559999,11.7544 C4.72079999,11.648 4.67599999,11.5584 4.64239999,11.4688 C4.28641676,10.6688266 4.12888497,9.79471724 4.18319999,8.92079998 C4.20501131,8.58182819 4.26130197,8.24596059 4.35119999,7.91839998 C3.29525417,7.465455 2.35249462,6.78467935 1.5904,5.92479999 C0.588832014,4.80259139 0.0243359104,3.35756087 -4.37694324e-14,1.8536 L-4.37694324e-14,0.296799999 L2.3408,0.296799999 L2.3408,1.8592 C2.35752345,2.94661891 2.7787882,3.98879993 3.52239999,4.78239999 C4.02235376,5.32823345 4.62827732,5.76648005 5.30319999,6.07039999 C5.92050313,5.32283677 6.68239312,4.70761061 7.54319998,4.26159999 L7.91279998,4.07679999 C8.37711883,3.85715297 8.85613919,3.67003564 9.34639998,3.51679999 C10.823462,3.04663225 12.3606271,2.7920098 13.9104,2.76079999 L14.2296,2.76079999 C16.6880152,2.64841079 19.1292075,3.22235275 21.28,4.41839999 L21.5544,4.59759999 C22.1691021,5.00372997 22.7122021,5.50898328 23.1616,6.09279999 C25.1136887,5.45662171 26.4574537,3.66493513 26.5215999,1.6128 L26.5215999,0.0559999999 L28.8623999,0.0559999999 L28.8623999,1.6128 C28.8623999,4.37359999 26.9639999,6.91039999 24.0519999,7.98559998 C24.1641353,8.41919508 24.2224409,8.86495059 24.2255999,9.31279998 C24.225204,10.0191372 24.0823561,10.7181396 23.8055999,11.368 L23.6767999,11.6592 C23.3942964,12.2411376 23.0447233,12.7880503 22.6352,13.2888 L22.4952,13.4624 C21.5989799,14.4931891 20.5486937,15.3791319 19.3816,16.0888 C17.528,17.2368 15.5568,19.2808 15.5736,21.588 L15.5736,22.0304 Z M13.944,21.6216 L15.064,21.6216 L15.064,21.5768 C15.0897,20.3746811 15.5086842,19.2141145 16.2568,18.2728 C17.0208916,17.2573572 17.9711009,16.3964676 19.0568,15.736 C20.1804512,15.0524111 21.1911556,14.1985076 22.0528,13.2048 L22.1928,13.0368 C22.5830585,12.561641 22.914026,12.0407434 23.1784,11.4856 C23.2249056,11.3966738 23.2660459,11.3050432 23.3016,11.2112 C23.5588452,10.6073458 23.6921495,9.95796337 23.6935999,9.30159998 C23.690724,8.82751073 23.6209698,8.35619854 23.4864,7.90159998 L23.436,7.72239998 L23.6319999,7.65519998 C26.4655999,6.68639999 28.3583999,4.25599999 28.3303999,1.6072 L28.3303999,0.487199999 L26.9527999,0.487199999 L26.9527999,1.6072 C26.9527999,3.78559999 25.4183999,5.76799999 23.0776,6.54079999 L22.8928,6.60239999 L22.792,6.45679999 C22.3514089,5.85414887 21.8072128,5.3346027 21.1848,4.92239999 C21.1176,4.87759999 21.0224,4.81039999 20.9272,4.75439999 C18.880916,3.60042617 16.5547749,3.03633694 14.2072,3.12479999 L13.8992,3.12479999 C12.4007939,3.15271294 10.9143698,3.3979352 9.48639998,3.85279999 C9.0163969,4.00678044 8.55791224,4.19391704 8.11439998,4.41279999 L7.77279998,4.59199999 C6.89686618,5.02703856 6.1309937,5.65505399 5.53279999,6.42879999 L5.41519999,6.57999999 L5.22479999,6.50159999 C4.44380275,6.16571558 3.74322133,5.66748193 3.16959999,5.03999999 C2.36175273,4.17590983 1.90458704,3.04197922 1.8872,1.8592 L1.8872,0.739199998 L0.503999999,0.739199998 L0.503999999,1.8592 C0.522625248,3.26878601 1.05188641,4.62377417 1.9936,5.67279999 C2.74803718,6.52886525 3.69397469,7.19466712 4.75439999,7.61599998 L4.93919999,7.69439998 L4.88319999,7.86239998 C4.7739322,8.22692509 4.7063012,8.6026529 4.68159999,8.98239998 C4.63766009,9.79669757 4.78534949,10.6099483 5.11279999,11.3568 C5.14639999,11.4408 5.18559999,11.5248 5.23599999,11.6256 C5.76107747,12.6677373 6.48382901,13.5978044 7.36399998,14.364 L7.57679998,14.5488 C8.18273143,15.0511339 8.83315076,15.4972428 9.51999998,15.8816 C10.6108968,16.4943573 11.5914062,17.2855792 12.4208,18.2224 C13.2933656,19.153919 13.8295081,20.3503839 13.944,21.6216 L13.944,21.6216 Z" id="Shape" fill="#FFFFFF"></path>
                        </g>
                    </g>
                    <path d="M62.1599999,182.4144 C62.1599999,182.4144 65.5759999,183.8368 63.0167999,187.3984 C60.4575999,190.96 17.4552,190.6744 12.3312,187.1128 C12.3312,187.1128 10.9032,186.4968 11.2112,185.1192 C11.5192,183.7416 13.2048,183.5568 13.2048,183.5568 L62.1599999,182.4144 Z" id="Path" fill="#B34004"></path>
                    <path d="M13.1768,183.5568 C21.4746943,184.547383 29.8311734,184.962775 38.1863999,184.8 C48.8991999,179.9 51.7943999,168.8792 52.0911999,159.7456 C52.4719999,148.1592 61.3983999,144.172 61.7735999,121.3968 C61.9639999,110.0792 65.2399999,103.4768 68.4935999,99.7303998 C69.2215999,96.5719998 67.1215999,92.0695998 64.1423999,90.8039998 L61.2527999,89.5999998 C59.7239999,95.9671998 59.9255999,107.1784 38.9759999,115.0352 C38.9759999,115.0352 19.7456,105.0952 20.7368,88.3399998 C18.7249911,89.1520555 16.8741432,90.3164209 15.2712,91.7783998 L14.9576,92.2319998 C11.536,95.6479998 20.1936,120.5568 12.6112,138.4768 C2.92879999,161.3416 13.1768,183.5568 13.1768,183.5568 Z" id="Path" fill="#F95C0A"></path>
                    <path d="M38.5447999,111.0872 C56.8791999,100.828 55.1375999,92.5623998 56.0111999,87.3935998 L48.2999999,84.1791998 C41.9831999,81.3791998 31.1359999,81.8607998 31.1359999,81.8607998 L25.4239999,86.6319998 C22.2432,97.1207998 38.5447999,111.0872 38.5447999,111.0872 Z" id="Path" fill="#00E0E3"></path>
                    <polygon id="Path" fill="#1EE0E3" points="48.9159999 85.8871998 48.7703999 81.6871998 43.5063999 80.6903998 44.5703999 83.8207998"></polygon>
                    <path d="M29.7135999,81.6535998 L28.9407999,86.6319998 L38.1863999,98.2911998 L47.4431999,85.2207998 C46.7989955,84.15198 46.2874893,83.0086132 45.9199999,81.8159998 C42.8343999,81.4687998 36.1255999,75.7175998 29.7135999,81.6535998 Z" id="Path" fill="#FFAE78"></path>
                    <path d="M29.3327999,82.5719998 C29.3327999,82.5719998 30.0999999,85.6407998 36.6127999,85.3719998 C43.1255999,85.1031998 44.6655999,85.6239998 44.8279999,85.3719998 C45.0404115,85.1254761 45.2747007,84.8986842 45.5279999,84.6943998 L46.8215999,84.1343998 L46.2055999,82.6951998 L46.7655999,81.0151998 L45.6455999,81.0151998 L42.6943999,80.7071998 C42.6943999,80.7071998 36.4447999,80.6343998 34.7479999,80.7071998 C33.0511999,80.7799998 28.9351999,82.5327998 28.9351999,82.5327998 L29.3327999,82.5719998 Z" id="Path" fill="#FF8834"></path>
                    <path d="M38.1863999,98.2911998 L46.2111999,85.3663998 C46.2111999,85.3663998 48.6751999,85.6967998 48.4847999,83.5127998 C48.2943999,81.3287998 45.7743999,81.4351998 45.7743999,81.4351998 L45.3599999,79.8783998 C45.3599999,79.8783998 51.0495999,79.5199998 51.5199999,83.9999998 C51.9903999,88.4799998 52.0407999,89.4935998 52.0407999,89.4935998 L50.9207999,95.7823998 L44.5759999,91.4255998 L38.4159999,98.2911998 L38.1863999,98.2911998 Z" id="Path" fill="#C4E0E3"></path>
                    <path d="M38.9759999,115.024 C59.9199999,106.96 59.7239999,95.9559998 61.2527999,89.5999998 L55.9999999,87.3935998 C55.1263999,92.5623998 56.8679999,101.1192 38.5335999,111.0872 C38.5335999,111.0872 22.232,97.1207998 25.4127999,86.6319998 L24.4887999,86.9567998 C23.2073833,87.3418462 21.9490584,87.7999289 20.72,88.3287998 C19.7456,105.084 38.9759999,115.024 38.9759999,115.024 Z" id="Path" fill="#B34004"></path>
                    <path d="M38.1863999,184.8 C52.9759999,184.492 62.1543999,182.4256 62.1543999,182.4256 C65.1447999,162.9208 65.2847999,113.0864 68.4879999,99.7807998 C68.4879999,99.7807998 68.4879999,99.7471998 68.4879999,99.7303998 C65.2287999,103.4936 61.9527999,110.0792 61.7679999,121.3968 C61.3927999,144.172 52.4663999,148.1592 52.0855999,159.7456 C51.7943999,168.868 48.8991999,179.8888 38.1863999,184.8 Z" id="Path" fill="#D44E07"></path>
                    <path d="M38.3599999,97.3111998 L31.6399999,86.4919998 C31.6399999,86.4919998 29.1703999,86.8223998 29.3607999,84.6383998 C29.5511999,82.4543998 32.0711999,82.5607998 32.0711999,82.5607998 L32.5191999,81.0039998 C32.5191999,81.0039998 26.8015999,80.6399998 26.3199999,85.1199998 C25.8383999,89.5999998 25.7991999,90.6135998 25.7991999,90.6135998 L26.9191999,96.9079998 L33.2639999,92.5567998 L39.4239999,99.4279998 L38.3599999,97.3111998 Z" id="Path" fill="#C4E0E3"></path>
                    <path d="M57.9599999,54.1183999 C58.1171071,54.5564402 58.34611,54.9652388 58.6375999,55.3279999 C58.9998364,55.79667 59.4928713,56.1474458 60.0543999,56.3359999 C60.2204487,56.3915018 60.3909351,56.4327183 60.5639999,56.4591999 C62.2103999,56.6999999 64.1759999,55.6247999 65.7439999,54.0735999 C68.5159999,51.3295999 70.1791999,47.2639999 69.9663999,43.7191999 C69.7927999,40.7007999 68.4543999,39.3343999 66.1023999,39.7375999 L65.8615999,39.7823999 C64.5215387,40.1377816 63.2964046,40.8342751 62.3055999,41.8039999 C60.3460108,43.7218284 58.9197272,46.1169812 58.1671999,48.7535999 C57.5063999,50.9599999 57.4391999,52.7463999 57.9599999,54.1183999 Z" id="Path" fill="#FFAE78"></path>
                    <path d="M65.8671999,43.1535999 C65.8671999,43.1535999 67.9391999,42.7167999 67.2335999,43.8759999 C66.5279999,45.0351999 64.7583999,43.4167999 62.6023999,47.4935999 C62.6023999,47.4935999 64.0975999,48.9495999 62.8991999,51.2287999 C61.7007999,53.5079999 59.8471999,52.1975999 59.9311999,51.8951999 C60.0151999,51.5927999 61.8799999,52.5727999 62.2327999,50.6239999 C62.5855999,48.6751999 60.6031999,48.5967999 60.5023999,48.3223999 C60.4015999,48.0479999 63.1735999,43.2095999 65.8671999,43.1535999 Z" id="Path" fill="#F95C0A"></path>
                    <path d="M19.2248,53.5975999 C19.0663836,54.0333287 18.8374695,54.4400769 18.5472,54.8015999 C18.1891356,55.2697004 17.6998194,55.6206045 17.1416,55.8095999 C16.9753713,55.8644741 16.8049379,55.9056778 16.632,55.9327999 C14.9912,56.1735999 13.0312,55.0927999 11.4688,53.5415999 C8.70239998,50.7975999 7.04479999,46.7263999 7.25199998,43.1815999 C7.42559998,40.1687999 8.75839998,38.8023999 11.0936,39.2055999 L11.34,39.2559999 C12.6759251,39.6094952 13.8960803,40.3064509 14.8792,41.2775999 C16.8420979,43.1988833 18.2753413,45.5946954 19.04,48.2327999 C19.6728,50.3999999 19.7456,52.2199999 19.2248,53.5975999 Z" id="Path" fill="#FFAE78"></path>
                    <path d="M11.34,42.6215999 C11.34,42.6215999 9.26799998,42.1847999 9.97359998,43.3439999 C10.6792,44.5031999 12.4432,42.8903999 14.5936,46.9671999 C14.5936,46.9671999 13.104,48.4175999 14.2968,50.7023999 C15.4896,52.9871999 17.3376,51.6711999 17.2592,51.3687999 C17.1808,51.0663999 15.316,52.0407999 14.9688,50.0975999 C14.6216,48.1543999 16.5872,48.0703999 16.688,47.7959999 C16.7888,47.5215999 14,42.6831999 11.34,42.6215999 Z" id="Path" fill="#F95C0A"></path>
                    <path d="M14.224,9.73279998 C15.6688,7.71679998 18.76,5.71199999 22.7752,4.13279999 C31.7743999,0.559999999 45.0743999,0.559999999 54.0735999,4.11599999 C58.0831999,5.71199999 61.1799999,7.71679998 62.6191999,9.71599998 C64.9935999,13.0256 66.1135999,25.8831999 63.1791999,33.8967999 C60.2447999,41.9103999 60.1439999,42.7055999 61.3983999,45.8303999 C62.7759999,49.2631999 60.4127999,53.4127999 58.4135999,54.8239999 C56.1735999,56.3863999 53.1607999,72.8167998 50.9487999,75.1351998 C48.7367999,77.4535998 48.5183999,79.5647998 46.6255999,82.5215998 C45.9978729,83.379768 45.0258342,83.9200169 43.9655999,83.9999998 L43.9319999,83.9999998 C40.2899054,84.4004088 36.6148945,84.4004088 32.9727999,83.9999998 L32.8775999,83.9999998 C31.833546,83.92304 30.8738118,83.3982491 30.2455999,82.5607998 C28.3471999,79.6039998 28.1399999,77.5207998 25.9223999,75.1743998 C23.7047999,72.8279998 20.6808,56.4031999 18.48,54.8407999 C16.4808,53.4295999 14.112,49.2799999 15.4896,45.8471999 C16.7496,42.7223999 16.66,41.9271999 13.7144,33.9135999 C10.7688,25.8999999 11.8496,13.0424 14.224,9.73279998 Z" id="Path" fill="#FFAE78"></path>
                    <path d="M40.0623999,54.5383999 L40.0623999,54.5383999 C40.1463999,54.5383999 48.5855999,55.0143999 49.3191999,60.6983999 C49.8791999,65.0831999 50.0751999,67.2167999 50.1423999,68.1015999 C50.1599546,68.3203451 50.3429525,68.4887031 50.5623999,68.488002 L50.5623999,68.488002 C50.6757691,68.4816832 50.7822233,68.4314689 50.8591999,68.3479999 C50.9352377,68.2641703 50.9736805,68.1528885 50.9655999,68.0399999 C50.9039999,67.1607999 50.7079999,65.0271999 50.1367999,60.5919999 C49.3135999,54.2079999 40.4599999,53.7263999 40.0567999,53.7095999 L40.0567999,53.7095999 L40.0623999,54.5383999 Z" id="Shape" fill="#F95C0A"></path>
                    <path d="M35.2799999,53.7039999 L35.2799999,53.7039999 C34.9047999,53.7039999 26.0511999,54.2023999 25.1999999,60.5863999 C24.6399999,65.0215999 24.4383999,67.1551999 24.3711999,68.0343999 C24.3631193,68.1472885 24.4015622,68.2585703 24.4775999,68.3423999 C24.5545765,68.4258689 24.6610307,68.4760832 24.7743999,68.4824525 L24.7743999,68.4824525 C24.9949161,68.4858823 25.1795258,68.3160413 25.1943999,68.0959999 C25.2615999,67.2111999 25.4519999,65.0775999 26.0175999,60.6927999 C26.7511999,55.0199999 35.1903999,54.5327999 35.2743999,54.5327999 L35.2743999,54.5327999 L35.2799999,53.7039999 Z" id="Shape" fill="#F95C0A"></path>
                    <path d="M37.4807999,52.9647999 C38.7347394,53.1579385 40.0040414,53.2329342 41.2719999,53.1887999 C42.7391999,53.0207999 41.9943999,51.9791999 41.9943999,51.9791999 L42.7615999,51.5535999 L43.9599999,52.8807999 L43.8423999,55.1711999 C43.8423999,55.1711999 40.1239999,54.9527999 37.4807999,54.8799999 L37.4807999,52.9647999 Z" id="Path" fill="#FF8834"></path>
                    <path d="M37.4807999,54.7735999 C38.2955085,54.7419392 39.107327,54.6577645 39.9111999,54.5215999 C40.1419862,54.4753916 40.3760333,54.4473059 40.6111999,54.4375999 C40.906577,54.4719912 41.1987157,54.5300444 41.4847999,54.6111999 C41.9719999,54.7343999 43.2711999,55.0591999 43.4895999,54.8295999 C43.6901551,54.2510201 43.6901551,53.6217796 43.4895999,53.0431999 C43.2885668,52.3941026 42.6792108,51.9588484 41.9999999,51.9791999 L42.0335999,51.077597 C42.9998072,51.0760434 43.8509663,51.7127013 44.1223999,52.6399999 C44.4213961,53.5272949 44.3855441,54.4933089 44.0215999,55.3559999 C43.6631999,56.0167999 42.6887999,55.8319999 41.3503999,55.4959999 C41.0997314,55.420221 40.8430737,55.365892 40.5831999,55.3335999 C40.5103999,55.3335999 40.2527999,55.3727999 39.9783999,55.4175999 C39.1520692,55.5576306 38.3180034,55.6473956 37.4807999,55.6863999 L37.4807999,54.7735999 Z" id="Path" fill="#F95C0A"></path>
                    <path d="M37.4807999,52.9647999 C36.2287394,53.1579168 34.9612978,53.2329133 33.6951999,53.1887999 C32.2223999,53.0207999 32.9727999,51.9791999 32.9727999,51.9791999 L32.1999999,51.5535999 L31.0015999,52.8807999 L31.1247999,55.1711999 C31.1247999,55.1711999 34.8431999,54.9527999 37.4807999,54.8799999 L37.4807999,52.9647999 Z" id="Path" fill="#FF8834"></path>
                    <path d="M37.4807999,54.7735999 C36.6661362,54.7413107 35.8543579,54.6571402 35.0503999,54.5215999 C34.8197072,54.4748083 34.5856135,54.446717 34.3503999,54.4375999 C34.0569648,54.4726336 33.7667376,54.5306791 33.4823999,54.6111999 C32.9951999,54.7343999 31.6903999,55.0591999 31.4775999,54.8295999 C31.2656894,54.2548813 31.2538511,53.6254808 31.4439999,53.0431999 C31.6521198,52.3819765 32.2804575,51.9446719 32.9727999,51.9791999 L32.9335999,51.0775998 C31.9665546,51.0772783 31.1144359,51.7129497 30.8391999,52.6399999 C30.5427876,53.5276676 30.578605,54.4927456 30.9399999,55.3559999 C31.3039999,56.0167999 32.2783999,55.8319999 33.6167999,55.4959999 C33.867192,55.419148 34.1239441,55.364799 34.3839999,55.3335999 C34.4567999,55.3335999 34.7143999,55.3727999 34.9887999,55.4175999 C35.8132812,55.5574058 36.64547,55.64717 37.4807999,55.6863999 L37.4807999,54.7735999 Z" id="Path" fill="#F95C0A"></path>
                    <path d="M57.6799999,37.3351999 C57.6799999,37.3351999 58.0103999,38.3879999 57.1535999,38.4943999 C56.2967999,38.6007999 52.7967999,36.3495999 48.0983999,37.5871999 C43.3999999,38.8247999 41.0031999,36.8759999 41.0143999,36.5511999 C41.0143999,36.3663999 40.5831999,35.3639999 40.4879999,34.7703999 C40.4263999,34.3671999 41.0479999,34.0311999 41.3727999,34.1319999 C42.9351999,34.5911999 46.6087999,35.7111999 49.2687999,34.7535999 C51.7327999,33.8687999 56.9967999,35.3303999 57.6799999,37.3351999 Z" id="Path" fill="#E8E8E8"></path>
                    <path d="M17.36,37.9959999 C17.36,37.9959999 17.108,39.0543999 17.92,39.1159999 C18.732,39.1775999 22.0024,36.7919999 26.6223999,37.8279999 C31.2423999,38.8639999 33.4431999,36.8143999 33.4095999,36.4895999 C33.4095999,36.3103999 33.7567999,35.2911999 33.8071999,34.6975999 C33.8407999,34.2943999 33.2471999,33.9807999 32.9111999,34.0983999 C31.4271999,34.6191999 27.9439999,35.8959999 25.3119999,35.0559999 C22.9152,34.2887999 17.92,35.9743999 17.36,37.9959999 Z" id="Path" fill="#E8E8E8"></path>
                    <path d="M42.2351999,45.4663999 C44.3407999,48.4287999 47.0399999,48.9439999 50.3495999,48.9439999 C50.6631999,48.9439999 50.9879999,48.9439999 51.3127999,48.9103999 C52.3801637,48.8172367 53.3892893,48.3833519 54.1911999,47.6727999 L53.9559999,47.4095999 C53.1607999,48.1487999 52.4215999,48.2271999 51.2679999,48.3223999 C47.7287999,48.5911999 45.0687999,47.2975999 42.8679999,44.2399999 L42.2351999,45.4663999 Z" id="Path" fill="#F95C0A"></path>
                    <path d="M42.8679999,44.4023999 C42.8679999,44.4023999 45.0463999,44.9119999 45.9423999,45.2591999 C46.8383999,45.6063999 49.9127999,44.6375999 51.8167999,43.9319999 C52.5709839,43.7041557 53.221121,43.218535 53.6535999,42.5599999 L53.6535999,42.5599999 C53.7647868,42.389495 53.8426917,42.1994831 53.8831999,41.9999999 C48.3503999,40.3983999 43.0247999,43.0079999 43.0247999,43.0079999 L42.8679999,44.4023999 Z" id="Path" fill="#FFFFFF"></path>
                    <path d="M44.2399999,43.5735999 C44.3575999,45.4775999 45.7911999,46.9335999 47.4375999,46.8383999 C49.0839999,46.7431999 50.3327999,45.1135999 50.2375999,43.2095999 C50.1423999,41.3055999 48.6919999,39.8495999 47.0399999,39.9447999 C45.3879999,40.0399999 44.1055999,41.6695999 44.2399999,43.5735999 Z" id="Path" fill="#913F39"></path>
                    <path d="M45.7911999,43.4783999 C45.9479715,44.2300535 46.6672007,44.7262688 47.4255483,44.6059802 C48.1838959,44.4856917 48.7142664,43.7912659 48.6307417,43.0279939 C48.547217,42.264722 47.8792149,41.7014339 47.1127999,41.7479999 C46.2717957,41.8639512 45.6817382,42.6365265 45.7911999,43.4783999 L45.7911999,43.4783999 Z" id="Path" fill="#3F0100"></path>
                    <path d="M51.6319999,43.5735999 C51.6592897,44.3213144 51.0754564,44.9496694 50.3277546,44.9773039 C49.5800528,45.0049384 48.9514287,44.4213949 48.9234495,43.6737059 C48.8954703,42.9260169 49.4787239,42.2971238 50.2263999,42.2687999 C50.9738897,42.243561 51.6016474,42.8263003 51.6319999,43.5735999 Z" id="Path" fill="#FFFFFF"></path>
                    <path d="M56.8791999,42.1063999 C56.8791999,42.1063999 46.5247999,39.3791999 45.7463999,39.8663999 C44.9679999,40.3535999 43.0247999,42.9799999 43.0247999,42.9799999 C43.0247999,42.9799999 47.1463999,40.9135999 54.7343999,42.7055999 L56.8791999,42.1063999 Z" id="Path" fill="#FF8834"></path>
                    <path d="M42.8679999,44.4023999 C44.6543999,47.3591999 47.8071999,48.1655999 50.6687999,46.6423999 C52.2625887,45.8410639 53.3734108,44.3217593 53.6535999,42.5599999 C53.2240314,43.2248363 52.5735385,43.7166724 51.8167999,43.9487999 C49.9127999,44.6543999 46.8383999,45.6287999 45.9423999,45.2759999 C45.0463999,44.9231999 42.8679999,44.4023999 42.8679999,44.4023999 Z" id="Path" fill="#FF8834"></path>
                    <path d="M32.8663999,45.4663999 C30.7551999,48.4287999 28.0391999,48.9439999 24.7519999,48.9439999 C24.4327999,48.9439999 24.1135999,48.9439999 23.7887999,48.9103999 C22.7202534,48.8153109 21.7099221,48.3817513 20.9048,47.6727999 L21.1456,47.4095999 C21.9408,48.1487999 22.6744,48.2271999 23.8279999,48.3223999 C27.3671999,48.5911999 30.0271999,47.2975999 32.2279999,44.2399999 L32.8663999,45.4663999 Z" id="Path" fill="#F95C0A"></path>
                    <path d="M32.2279999,44.4023999 C32.2279999,44.4023999 30.0551999,44.9119999 29.1591999,45.2591999 C28.2631999,45.6063999 25.1831999,44.6375999 23.2792,43.9319999 C22.525316,43.7064854 21.8762279,43.2201655 21.448,42.5599999 L21.448,42.5599999 C21.336813,42.389495 21.2589082,42.1994831 21.2184,41.9999999 C26.7455999,40.3983999 32.0767999,43.0079999 32.0767999,43.0079999 L32.2279999,44.4023999 Z" id="Path" fill="#FFFFFF"></path>
                    <path d="M30.4639999,43.7639999 C30.4272459,45.4903299 29.00414,46.8634146 27.2775999,46.8383999 C25.9239316,46.8750138 24.6867854,46.076376 24.1628487,44.8276771 C23.638912,43.5789782 23.9357939,42.1366835 24.9103056,41.1964253 C25.8848173,40.2561671 27.3368077,40.0110612 28.5659681,40.5793246 C29.7951285,41.147588 30.5490066,42.4125072 30.4639999,43.7639999 L30.4639999,43.7639999 Z" id="Path" fill="#913F39"></path>
                    <path d="M28.9015999,43.6799999 C28.7910211,44.4484379 28.0888403,44.9892224 27.3176444,44.8998833 C26.5464485,44.8105441 25.9864999,44.1235483 26.0545313,43.3501815 C26.1225627,42.5768146 26.7938507,41.998128 27.5687999,42.0447999 C28.3873963,42.1301479 28.9831002,42.8610115 28.9015999,43.6799999 L28.9015999,43.6799999 Z" id="Path" fill="#3F0100"></path>
                    <path d="M28.9463999,43.7639999 C28.9191102,44.5117144 29.5029434,45.1400694 30.2506452,45.1677039 C30.998347,45.1953384 31.6269711,44.6117949 31.6549504,43.8641059 C31.6829296,43.1164169 31.0996759,42.4875238 30.3519999,42.4591999 C29.9917077,42.4425264 29.6398334,42.5713656 29.3754936,42.8167488 C29.1111537,43.062132 28.9565341,43.4034645 28.9463999,43.7639999 L28.9463999,43.7639999 Z" id="Path" fill="#FFFFFF"></path>
                    <path d="M18.2224,42.1063999 C18.2224,42.1063999 28.5711999,39.3791999 29.3495999,39.8663999 C30.1279999,40.3535999 32.0767999,42.9799999 32.0767999,42.9799999 C32.0767999,42.9799999 27.9495999,40.8799999 20.3616,42.6887999 L18.2224,42.1063999 Z" id="Path" fill="#FF8834"></path>
                    <path d="M32.2279999,44.4023999 C30.4415999,47.3591999 27.2887999,48.1655999 24.4271999,46.6423999 C22.8361793,45.8389727 21.7278727,44.3202593 21.448,42.5599999 C21.8732749,43.2264733 22.5227284,43.7190252 23.2792,43.9487999 C25.1831999,44.6543999 28.2631999,45.6287999 29.1591999,45.2759999 C30.0551999,44.9231999 32.2279999,44.4023999 32.2279999,44.4023999 Z" id="Path" fill="#FF8834"></path>
                    <path d="M16.0104,44.7999999 L17.7968,42.9295999 L13.6584,20.9272 C13.6584,20.9272 21.9632,12.88 32.8159999,15.0472 C32.0263999,11.004 41.5407999,14.2744 47.1183999,7.11759998 C49.0447999,4.65919999 48.7143999,2.58159999 47.4431999,0.907199998 C39.0981443,-0.839166241 30.4210536,-0.041295264 22.5344,3.19759999 C15.1928,6.18239999 7.97439998,11.9336 7.45919998,21.1904 C6.9437849,29.9010246 10.0364472,38.4397701 16.0104,44.7999999 L16.0104,44.7999999 Z" id="Path" fill="#9F9C9C"></path>
                    <path d="M36.5511999,32.1271999 C39.5639999,31.9927999 48.9831999,29.3999999 49.6439999,29.6183999 C49.5991999,29.4447999 49.5487999,29.2655999 49.4983999,29.0583999 C49.1399999,28.7335999 38.8919999,31.6455999 36.3271999,31.5335999 C34.9551999,31.2871999 32.6535999,30.4695999 30.2623999,29.9039999 C27.4623999,29.2151999 24.5615999,28.9183999 23.2736,29.3047999 L23.4248,29.8199999 C24.5895999,29.4615999 27.4959999,29.7807999 30.1111999,30.4247999 C32.5079999,30.9847999 34.8151999,31.8079999 36.2319999,32.0599999 C36.3369825,32.0886716 36.4435684,32.1111107 36.5511999,32.1271999 L36.5511999,32.1271999 Z" id="Path" fill="#F95C0A"></path>
                    <path d="M39.9671999,28.6271999 C44.3071999,28.0671999 52.4775999,26.8239999 52.9423999,26.9471999 C52.8919999,26.7679999 52.8471999,26.5831999 52.7967999,26.3871999 C52.6007999,26.2247999 44.1951999,27.5071999 39.9167999,28.0671999 C39.9279999,28.2687999 39.9503999,28.4479999 39.9671999,28.6271999 Z" id="Path" fill="#F95C0A"></path>
                    <path d="M30.3575999,27.7759999 C30.4247999,27.6079999 30.4863999,27.4343999 30.5535999,27.2663999 C30.3631999,27.0535999 23.1952,25.6199999 20.216,26.8519999 L20.4008,27.3559999 C23.2176,26.1799999 30.3855999,27.6247999 30.3575999,27.7759999 Z" id="Path" fill="#F95C0A"></path>
                    <path d="M32.8159999,15.0472 C34.0970636,15.3107985 35.3497753,15.6971138 36.5567999,16.2008 C37.9414011,16.7810391 39.5009987,16.7810391 40.8855999,16.2008 C53.5079999,10.9368 63.5935999,20.9272 63.5935999,20.9272 L59.4999999,43.4839999 L61.2191999,45.2143999 C67.165286,38.669795 70.249939,30.0206698 69.7871999,21.1904 C69.2719999,11.9336 61.9471999,6.07039999 54.6391999,3.10799999 C52.3110445,2.16104595 49.902758,1.42450384 47.4431999,0.907199998 C48.7143999,2.58719999 49.0447999,4.65919999 47.1183999,7.11759998 C41.5407999,14.2744 32.0263999,11.004 32.8159999,15.0472 Z" id="Path" fill="#BCBCBC"></path>
                    <path d="M31.0575999,64.9599999 C35.7951999,61.6783999 44.8727999,63.7223999 45.2591999,63.8399999 L45.5335999,63.9071999 L45.1919999,64.9543999 L44.9175999,64.8927999 C44.8279999,64.8927999 36.0415999,62.9439999 31.8807999,65.8335999 L31.6567999,65.9847999 L30.8335999,65.1447999 L31.0575999,64.9599999 Z" id="Path" fill="#F95C0A"></path>
                    <path d="M41.6695999,67.3623999 L41.9383999,67.4519999 L41.4511999,68.4599999 L41.1879999,68.3759999 C39.2479781,67.8185934 37.1640784,68.0838906 35.4255999,69.1095999 L35.1903999,69.2551999 L34.4343999,68.3703999 L34.6639999,68.2303999 C36.7763182,66.977777 39.3154462,66.6631768 41.6695999,67.3623999 L41.6695999,67.3623999 Z" id="Path" fill="#F95C0A"></path>
                    <circle id="Oval" fill="url(#radialGradient-11)" cx="36.0919999" cy="194.6952" r="5.13519999"></circle>
                    <path d="M44.4359999,174.7928 C51.2567999,166.7512 71.5735998,140.28 71.9599998,140 C72.2231998,139.8152 78.2655998,140.8288 79.4023998,144.4072 L79.4023998,144.4408 C79.7370097,145.638316 79.6721324,146.912271 79.2175998,148.0696 C79.1790511,148.147295 79.1321042,148.220532 79.0775998,148.288 C78.7378281,148.757665 78.3634536,149.201299 77.9575998,149.6152 C73.6567998,154.0392 50.2375999,178.0352 47.3423999,179.2952 C47.3423999,179.2952 47.3423999,179.2952 47.3087999,179.2952 C46.6181076,179.573987 45.8612654,179.645975 45.1303999,179.5024 L45.0575999,179.5024 C43.2207999,179.1104 41.8879999,177.6712 43.2655999,176.0416 L44.4359999,174.7928 Z" id="Path" fill="#FFAE78"></path>
                    <path d="M55.6303999,173.04 C55.6303999,173.04 54.7399999,176.2152 52.4215999,177.324 C50.1031999,178.4328 45.8471999,172.0712 46.1775999,171.164 C46.5079999,170.2568 50.3999999,167.2384 50.3999999,167.2384 L55.6303999,173.04 Z" id="Path" fill="#B34004"></path>
                    <path d="M48.5015999,168.588 C48.7143999,170.1672 51.3407999,173.0176 53.3063999,174.44 C57.0695999,169.54 70.9071998,151.6368 77.0279998,145.0624 L77.1679998,144.9056 C75.3871998,142.0048 71.9599998,140.0056 71.9599998,140.0056 C71.9599998,140.0056 48.1599999,166.152 48.5015999,168.588 Z" id="Path" fill="#F95C0A"></path>
                    <path d="M53.3063999,174.44 C54.3647999,175.2072 55.2271999,175.56 55.4175999,175.0672 C55.9215999,173.7736 76.0423998,151.7488 78.8983998,148.5792 C79.2501751,148.113916 79.4355465,147.543997 79.4247998,146.9608 C79.2791998,145.9808 77.8847998,145.4152 77.1847998,144.312 C77.1399998,144.368 77.0503998,145.012 77.0055998,145.0624 C70.9071998,151.6368 57.0695999,169.54 53.3063999,174.44 Z" id="Path" fill="#D44E07"></path>
                    <path d="M46.9783999,176.4672 C46.9783999,176.4672 42.8847999,172.3176 41.7759999,172.3848 C40.6671999,172.452 38.6623999,173.4712 34.5631999,169.4224 C30.4639999,165.3736 29.5231999,171.6232 32.5527999,173.1632 C35.5823999,174.7032 37.6599999,174.5072 37.7775999,176.428 C37.8951999,178.3488 31.7855999,182.4424 31.9479999,182.7392 C32.1103999,183.036 38.1079999,189.756 42.6327999,188.2832 C42.6327999,188.2832 51.8503999,181.524 46.9783999,176.4672 Z" id="Path" fill="#FFAE78"></path>
                    <path d="M38.7519999,187.4712 C37.9132723,188.54209 36.9960771,189.549133 36.0079999,190.484 C34.9607999,191.3464 30.3519999,193.8776 31.0295999,194.7456 C31.7071999,195.6136 34.0479999,195.4736 36.9599999,193.2 C39.8719999,190.9264 43.0639999,187.9696 43.0639999,187.9696 C43.0639999,187.9696 39.5415999,186.5136 38.7519999,187.4712 Z" id="Path" fill="#FFAE78"></path>
                    <path d="M36.4503999,185.6456 C36.4503999,185.6456 32.1775999,189.7056 31.1023999,190.2264 C30.0271999,190.7472 25.5023999,192.136 25.8719999,193.3288 C26.2415999,194.5216 29.2319999,195.0928 32.6703999,193.0768 C36.1087999,191.0608 38.9983999,187.2472 38.9983999,187.2472 C38.9983999,187.2472 37.3463999,185.472 36.4503999,185.6456 Z" id="Path" fill="#FFAE78"></path>
                    <path d="M33.9695999,184.0104 L28.7391999,188.4904 C28.3135999,188.86 23.2624,190.2824 23.5479999,191.52 C23.8335999,192.7576 24.9031999,193.0656 28.2127999,192.4384 C31.5223999,191.8112 35.8399999,186.2112 35.8399999,186.2112 L33.9695999,184.0104 Z" id="Path" fill="#FFAE78"></path>
                    <path d="M32.2615999,182.4088 C32.2615999,182.4088 28.5039999,185.696 25.6591999,187.1744 C22.8144,188.6528 25.4183999,190.0864 26.4655999,189.812 C27.5127999,189.5376 33.5999999,184.3296 33.5999999,184.3296 L32.2615999,182.4088 Z" id="Path" fill="#FFAE78"></path>
                    <path d="M67.9055999,141.2208 C68.5551999,143.2704 70.3527999,145.964 72.3855998,146.7144 C73.3262818,147.075304 74.2944708,147.359955 75.2807998,147.5656 C75.4375998,146.0816 75.5943998,144.7656 75.7567998,143.6456 C77.2519998,133.3024 65.9007999,92.1927998 65.9007999,92.1927998 L66.0911999,92.0359998 C65.4817375,91.6023257 64.6960234,91.5014854 63.9967999,91.7671998 C54.0791999,95.5583998 64.4895999,130.508 67.9055999,141.2208 Z" id="Path" fill="#F95C0A"></path>
                    <path d="M75.7455998,143.6344 C75.5831998,144.7544 75.4263998,146.0816 75.2695998,147.5544 C76.4959998,147.812 78.1703998,148.3104 79.0943998,148.0024 C82.0343998,147.056 74.2615998,97.0815998 66.0799999,92.0023998 L65.8895999,92.1591998 C65.8895999,92.1591998 77.2407998,133.28 75.7455998,143.6344 Z" id="Path" fill="#D44E07"></path>
                    <path d="M20.72,105.0504 C20.72,105.0504 21.98,120.1704 14.3528,142.2568 C14.3528,142.2568 36.5903999,170.9176 37.0215999,173.4824 C37.4527999,176.0472 37.0215999,176.6912 37.0215999,176.6912 C37.0215999,176.6912 28.2183999,167.44 27.3951999,167.2384 C26.5719999,167.0368 18.0992,159.5384 16.3464,157.752 C14.5936,155.9656 11.256,151.872 11.2,150.9928 C11.144,150.1136 8.47839998,143.4216 8.47839998,143.4216 L10.5336,129.3096 C10.5336,129.3096 10.8416,121.2848 11.2,120.0696 C11.5584,118.8544 18.9168,98.2519998 20.72,105.0504 Z" id="Path" fill="#D44E07"></path>
                    <path d="M36.2711999,174.7928 C29.4503999,166.7512 9.12799998,140.28 8.74159998,140 C8.47839998,139.8152 2.43599999,140.8288 1.2992,144.4072 L1.2992,144.4408 C0.967445577,145.638632 1.03227601,146.911666 1.484,148.0696 C1.52470547,148.146053 1.57152461,148.219091 1.624,148.288 C1.96224183,148.75886 2.33671189,149.202607 2.74399999,149.6152 C7.04479999,154.0392 30.4583999,178.0352 33.3535999,179.2952 L33.3871999,179.2952 C34.0778922,179.573987 34.8347344,179.645975 35.5655999,179.5024 L35.6383999,179.5024 C37.4807999,179.1104 38.8079999,177.6712 37.4303999,176.0416 L36.2711999,174.7928 Z" id="Path" fill="#FFA05F"></path>
                    <path d="M25.0767999,173.04 C25.0767999,173.04 25.9615999,176.2152 28.2799999,177.324 C30.5983999,178.4328 34.8543999,172.0712 34.5295999,171.164 C34.2047999,170.2568 30.3183999,167.1992 30.3183999,167.1992 L25.0767999,173.04 Z" id="Path" fill="#B34004"></path>
                    <path d="M32.2055999,168.588 C31.9927999,170.1672 29.3607999,173.0176 27.3951999,174.44 C23.6319999,169.54 9.79439998,151.6368 3.67359999,145.04 L3.53919999,144.8832 C5.31439999,141.9824 8.74159998,139.9832 8.74159998,139.9832 C8.74159998,139.9832 32.5303999,166.152 32.2055999,168.588 Z" id="Path" fill="#F95C0A"></path>
                    <path d="M27.3951999,174.44 C26.3367999,175.2072 25.4743999,175.56 25.2839999,175.0672 C24.7799999,173.7736 4.65919999,151.7488 1.8088,148.5792 C1.45262546,148.116223 1.26673854,147.54472 1.2824,146.9608 C1.4224,145.9808 2.81679999,145.4152 3.52239999,144.312 C3.56719999,144.368 3.65679999,145.012 3.70159999,145.0624 C9.79439998,151.6368 23.6319999,169.54 27.3951999,174.44 Z" id="Path" fill="#D44E07"></path>
                    <path d="M33.7231999,176.4672 C33.7231999,176.4672 37.8167999,172.3176 38.9255999,172.3848 C40.0343999,172.452 42.0391999,173.4712 46.1383999,169.4224 C50.2375999,165.3736 51.1783999,171.6232 48.1487999,173.1632 C45.1191999,174.7032 43.0415999,174.5072 42.9239999,176.428 C42.8063999,178.3488 48.9159999,182.4424 48.7535999,182.7392 C48.5911999,183.036 42.5599999,189.756 38.0799999,188.2832 C38.0799999,188.2832 28.8511999,181.524 33.7231999,176.4672 Z" id="Path" fill="#FFA05F"></path>
                    <path d="M41.9495999,187.4712 C42.7883275,188.54209 43.7055228,189.549133 44.6935999,190.484 C45.7407999,191.3464 50.3495999,193.8776 49.6719999,194.7456 C48.9943999,195.6136 46.6535999,195.4736 43.7751999,193.2112 C40.8967999,190.9488 37.6655999,187.9808 37.6655999,187.9808 C37.6655999,187.9808 41.1599999,186.5136 41.9495999,187.4712 Z" id="Path" fill="#FFA05F"></path>
                    <path d="M44.2399999,185.6456 C44.2399999,185.6456 48.5183999,189.7056 49.5879999,190.2264 C50.6575999,190.7472 55.1879999,192.136 54.8183999,193.3288 C54.4487999,194.5216 51.4583999,195.0928 48.0199999,193.0768 C44.5815999,191.0608 41.6919999,187.2472 41.6919999,187.2472 C41.6919999,187.2472 43.3551999,185.472 44.2399999,185.6456 Z" id="Path" fill="#FFA05F"></path>
                    <path d="M46.7319999,184.0104 L51.9623999,188.4904 C52.3879999,188.86 57.4391999,190.2824 57.1535999,191.52 C56.8679999,192.7576 55.7983999,193.0656 52.4887999,192.4384 C49.1791999,191.8112 44.8503999,186.2112 44.8503999,186.2112 L46.7319999,184.0104 Z" id="Path" fill="#FFA05F"></path>
                    <path d="M48.4399999,182.4088 C48.4399999,182.4088 52.1975999,185.696 55.0423999,187.1744 C57.8871999,188.6528 55.2831999,190.0864 54.2359999,189.812 C53.1887999,189.5376 47.1015999,184.3296 47.1015999,184.3296 L48.4399999,182.4088 Z" id="Path" fill="#FFA05F"></path>
                    <path d="M12.8016,141.2208 C12.1464,143.2704 10.3488,145.964 8.32159998,146.7144 C7.38142484,147.076801 6.41311286,147.361488 5.42639999,147.5656 C5.27519999,146.0816 5.11279999,144.7656 4.95039999,143.6456 C3.45519999,133.3024 14.8064,92.1927998 14.8064,92.1927998 L14.616,92.0359998 C15.2254624,91.6023257 16.0111765,91.5014854 16.7104,91.7671998 C26.6223999,95.5583998 16.24,130.508 12.8016,141.2208 Z" id="Path" fill="#F95C0A"></path>
                    <path d="M4.95599999,143.6344 C5.11839999,144.7544 5.28079999,146.0816 5.43199999,147.5544 C4.20559999,147.812 2.53119999,148.3104 1.6072,148.0024 C-1.3272,147.056 6.43999999,97.0815998 14.6216,92.0023998 L14.812,92.1591998 C14.812,92.1591998 3.46079999,133.28 4.95599999,143.6344 Z" id="Path" fill="#D44E07"></path>
                </g>
            </g>
        </g>
    </g>
</svg>