<?xml version="1.0" encoding="UTF-8"?>
<svg width="298px" height="386px" viewBox="0 0 298 386" version="1.1" xmlns="http://www.w3.org/2000/svg" xmlns:xlink="http://www.w3.org/1999/xlink">
    <!-- Generator: Sketch 61.1 (89650) - https://sketch.com -->
    <title>Group 2</title>
    <desc>Created with Sketch.</desc>
    <defs>
        <linearGradient x1="43.7745161%" y1="76.4683933%" x2="25.8284269%" y2="20.9191563%" id="linearGradient-1">
            <stop stop-color="#FFAE78" offset="9%"></stop>
            <stop stop-color="#FEA974" offset="28%"></stop>
            <stop stop-color="#FC9A6A" offset="50%"></stop>
            <stop stop-color="#F88159" offset="75%"></stop>
            <stop stop-color="#F36142" offset="99%"></stop>
        </linearGradient>
    </defs>
    <g id="Page-1" stroke="none" stroke-width="1" fill="none" fill-rule="evenodd">
        <g id="Slide_7-Copy" transform="translate(-571.000000, -371.000000)">
            <g id="Group-2" transform="translate(571.000000, 371.000000)">
                <g id="Group" transform="translate(0.000000, 50.000000)">
                    <circle id="Oval" fill="#FA6400" opacity="0.14" cx="149" cy="149" r="149"></circle>
                    <circle id="Oval" stroke="#FA5100" stroke-width="16" cx="149" cy="149" r="141"></circle>
                </g>
                <g id="Char_1-04" transform="translate(101.000000, 0.000000)" fill-rule="nonzero">
                    <path d="M3.64799978,284.435983 C5.56199967,286.235983 8.51399949,287.969983 11.1839993,287.958045 C13.2599992,287.958045 15.5579991,285.911983 16.919999,285.191983 C18.4535087,284.367749 19.664637,283.050938 20.3579988,281.453983 C31.2659981,256.787985 54.1139968,220.853987 54.1139968,220.853987 C58.5119965,215.183987 57.1139966,208.325988 57.1139966,208.325988 L37.0739978,202.109988 L4.38599974,281.855983 L3.64799978,284.435983 Z" id="Path" fill="#302607"></path>
                    <path d="M1.6259999,281.195983 C1.44599991,281.861983 2.27999986,283.151983 3.64799978,284.435983 L4.38599974,281.855983 L37.1039978,202.121988 L29.4899982,199.757988 C29.4899982,199.757988 2.06999988,279.599983 1.6259999,281.195983 Z" id="Path" fill="#5B4916"></path>
                    <path d="M36.2639978,353.771979 C36.94988,355.351099 37.7625368,356.872072 38.6939977,358.319979 C40.1639976,360.587979 37.4939978,364.865978 37.6439978,366.299978 L37.7699977,367.727978 L26.9699984,368.387978 L24.9899985,355.067979 L36.2639978,353.771979 Z" id="Path" fill="#000000"></path>
                    <path d="M25.2839985,360.881978 C29.2799983,360.761978 37.8839977,357.881979 39.4799976,355.595979 C41.4839975,352.793979 36.5159978,354.305979 36.6419978,349.421979 C36.7679978,344.537979 36.6419978,343.42198 34.049998,339.95398 C31.4579981,336.48598 25.5059985,309.953982 25.5059985,309.953982 C25.5059985,309.953982 25.3379985,309.353982 23.8019986,299.597982 C22.2659987,289.841983 15.953999,279.299983 15.953999,279.299983 C14.9219991,277.301983 7.73999954,277.667983 4.08599976,279.611983 L4.61999972,283.211983 L25.2839985,360.881978 Z" id="Path" fill="#302607"></path>
                    <path d="M21.7919987,358.307979 C21.7919987,358.307979 21.9119987,358.757979 23.3579986,360.461979 C23.6399986,360.791978 24.3299985,360.917978 25.2839985,360.881978 L4.61999972,283.199983 L4.08599976,279.599983 C2.81399983,280.277983 1.96799988,281.153983 1.95599988,282.173983 C1.87799989,288.239983 11.9219993,317.543981 14.8439991,328.19998 C17.7659989,338.85598 21.7919987,358.307979 21.7919987,358.307979 Z" id="Path" fill="#5B4916"></path>
                    <polygon id="Path" fill="#5D2207" points="41.0879976 370.295978 42.1559975 374.297978 39.5099976 375.863978 38.4779977 371.639978"></polygon>
                    <polygon id="Path" fill="#3B1203" points="34.7039979 374.249978 34.6019979 376.151978 39.5099976 375.863978 38.6219977 372.425978"></polygon>
                    <path d="M12.0599993,385.259977 C19.8599988,384.467977 30.8639982,380.579977 33.629998,377.687977 L36.3959978,374.789978 L41.0879976,370.295978 L41.1959975,369.197978 L36.5999978,373.565978 L33.797998,376.469978 C30.9959982,379.379977 19.8779988,383.291977 11.9879993,384.101977 C5.56199967,384.755977 1.53599991,383.543977 0.599999964,381.659977 C0.299999982,384.143977 4.50599973,386.021977 12.0599993,385.259977 Z" id="Path" fill="#83330E"></path>
                    <path d="M0.599999964,381.659977 C1.51799991,383.543977 5.54399967,384.755977 11.9639993,384.101977 C19.8539988,383.291977 30.9719982,379.379977 33.773998,376.469978 L36.6,373.565978 L41.2019975,369.197978 L41.3039975,368.099978 C41.3039975,368.099978 41.1659975,362.387978 39.9779976,361.991978 C38.7899977,361.595978 25.3619985,360.377979 23.6579986,361.337978 C23.6383574,361.332621 23.6176398,361.332621 23.5979986,361.337978 L23.5979986,361.577978 L23.5199986,364.415978 L23.5199986,365.567978 C23.5199986,365.567978 9.31799944,378.257977 7.36799956,378.875977 C5.41799968,379.493977 1.36799992,378.773977 0.701999958,381.377977 C0.661004694,381.469298 0.626909261,381.563562 0.599999964,381.659977 L0.599999964,381.659977 Z" id="Path" fill="#B84C18"></path>
                    <path d="M18.9959989,370.751978 L24.5399985,372.353978 L26.2259984,370.505978 C27.9419983,368.621978 28.9139983,365.327978 28.7579983,362.783978 C28.6199983,360.491979 28.2719983,359.105979 27.1019984,358.901979 C24.2399986,358.397979 23.2739986,359.501979 23.5019986,365.597978 L18.9959989,370.751978 Z" id="Path" fill="#8B3710"></path>
                    <path d="M23.1719986,365.183978 C26.2499984,364.187978 29.6459982,366.029978 29.7719982,366.107978 C29.7719982,366.107978 30.1379982,366.617978 29.5679982,366.671978 C29.5319982,366.671978 26.1779984,364.829978 23.2619986,365.771978 C22.8419986,365.615978 23.1719986,365.183978 23.1719986,365.183978 Z" id="Path" fill="#150602"></path>
                    <path d="M21.4439987,366.935978 C24.6419985,365.939978 28.1999983,367.799978 28.3259983,367.877978 C28.3259983,367.877978 28.7039983,368.381978 28.1099983,368.435978 C28.0739983,368.435978 24.5879985,366.587978 21.5639987,367.523978 C21.1079987,367.361978 21.4439987,366.935978 21.4439987,366.935978 Z" id="Path" fill="#150602"></path>
                    <path d="M19.7999988,368.687978 C23.0699986,367.703978 26.6819984,369.563978 26.8379984,369.641978 C26.8379984,369.641978 27.2219984,370.145978 26.6159984,370.199978 C26.5799984,370.199978 23.0159986,368.345978 19.9199988,369.281978 C19.4759988,369.119978 19.7999988,368.687978 19.7999988,368.687978 Z" id="Path" fill="#150602"></path>
                    <path d="M8.93999947,381.497977 C8.93999947,381.233977 7.60799955,381.203977 6.04199964,380.987977 C4.47599973,380.771977 3.19199981,380.471977 3.10799981,380.723977 C3.02399982,380.975977 4.23599975,381.713977 5.91599965,381.923977 C7.59599955,382.133977 8.96399947,381.755977 8.93999947,381.497977 Z" id="Path" fill="#FFFFFF" opacity="0.75"></path>
                    <path d="M27.3719984,284.435983 C29.2799983,286.235983 32.2319981,287.969983 34.9019979,287.958045 C36.9779978,287.958045 39.2819977,285.911983 40.6439976,285.191983 C42.1758464,284.367438 43.3849644,283.050514 44.0759974,281.453983 C54.9899967,256.787985 77.8319954,220.853987 77.8319954,220.853987 C82.2359951,215.183987 80.8679952,208.325988 80.8679952,208.325988 L60.8219964,202.109988 L28.1039983,281.855983 L27.3719984,284.435983 Z" id="Path" fill="#302607"></path>
                    <path d="M25.3499985,281.195983 C25.1639985,281.861983 26.0039985,283.151983 27.3719984,284.435983 L28.1039983,281.855983 L60.8219964,202.121988 L53.2139968,199.757988 C53.2139968,199.757988 25.7999985,279.599983 25.3499985,281.195983 Z" id="Path" fill="#5B4916"></path>
                    <path d="M59.9999964,353.771979 C60.6774771,355.349534 61.4800354,356.870382 62.3999963,358.319979 C63.8699962,360.587979 61.1999964,364.865978 61.3499963,366.299978 L61.4759963,367.727978 L50.675997,368.387978 L48.6959971,355.067979 L59.9999964,353.771979 Z" id="Path" fill="#000000"></path>
                    <path d="M49.0019971,360.881978 C53.0039968,360.761978 61.6019963,357.881979 63.1979962,355.595979 C65.2019961,352.793979 60.2339964,354.305979 60.3659964,349.421979 C60.4979964,344.537979 60.3659964,343.42198 57.7679966,339.95398 C55.1699967,336.48598 49.2239971,309.953982 49.2239971,309.953982 C49.2239971,309.953982 49.0559971,309.353982 47.5259972,299.597982 C45.9959973,289.841983 39.6719976,279.299983 39.6719976,279.299983 C38.6399977,277.301983 31.4639981,277.667983 27.8039983,279.611983 L28.3439983,283.211983 L49.0019971,360.881978 Z" id="Path" fill="#302607"></path>
                    <path d="M45.5099973,358.307979 C45.5099973,358.307979 45.6359973,358.757979 47.0819972,360.461979 C47.3639972,360.791978 48.0539971,360.917978 49.0019971,360.881978 L28.3439983,283.199983 L27.8039983,279.599983 C26.5379984,280.277983 25.6859985,281.153983 25.6739985,282.173983 C25.5959985,288.239983 35.6399979,317.543981 38.5679977,328.19998 C41.4959975,338.85598 45.5099973,358.307979 45.5099973,358.307979 Z" id="Path" fill="#5B4916"></path>
                    <polygon id="Path" fill="#5D2207" points="64.8059961 370.295978 65.8799961 374.297978 63.2279962 375.863978 62.1959963 371.639978"></polygon>
                    <polygon id="Path" fill="#3B1203" points="58.4219965 374.249978 58.3199965 376.151978 63.2279962 375.863978 62.3459963 372.425978"></polygon>
                    <path d="M35.7839979,385.259977 C43.5839974,384.467977 54.5819967,380.579977 57.3839966,377.687977 L60.1499964,374.789978 L64.8419961,370.295978 L64.9439961,369.197978 L60.3419964,373.565978 L57.5399966,376.469978 C54.7379967,379.379977 43.6259974,383.291977 35.7359979,384.101977 C29.3159983,384.755977 25.2839985,383.543977 24.3659985,381.659977 C23.9999986,384.143977 28.1999983,386.021977 35.7839979,385.259977 Z" id="Path" fill="#83330E"></path>
                    <path d="M24.3359985,381.659977 C25.2539985,383.543977 29.2859983,384.755977 35.7059979,384.101977 C43.5959974,383.291977 54.7079967,379.379977 57.5099966,376.469978 L60.3119964,373.565978 L64.9139961,369.197978 L65.0219961,368.099978 C65.0219961,368.099978 64.8839961,362.387978 63.6899962,361.991978 C62.4959963,361.595978 49.0799971,360.377979 47.3999972,361.337978 C47.3783521,361.33239 47.3556422,361.33239 47.3339972,361.337978 L47.3339972,361.577978 L47.2559972,364.415978 L47.2559972,365.567978 C47.2559972,365.567978 32.999998,378.287977 31.0499981,378.905977 C29.0999983,379.523977 25.0499985,378.803977 24.3779985,381.407977 C24.3586531,381.490998 24.3446246,381.575169 24.3359985,381.659977 Z" id="Path" fill="#B84C18"></path>
                    <path d="M42.7139975,370.751978 L48.2639971,372.353978 L49.943997,370.505978 C51.6599969,368.621978 52.6319969,365.327978 52.4759969,362.783978 C52.3439969,360.491979 51.9899969,359.105979 50.819997,358.901979 C47.9639971,358.397979 46.9919972,359.501979 47.2199972,365.597978 L42.7139975,370.751978 Z" id="Path" fill="#8B3710"></path>
                    <path d="M46.8899972,365.183978 C49.973997,364.187978 53.3699968,366.029978 53.4899968,366.107978 C53.4899968,366.107978 53.8499968,366.617978 53.2799968,366.671978 C53.2439968,366.671978 49.889997,364.829978 46.9799972,365.771978 C46.5659972,365.615978 46.8899972,365.183978 46.8899972,365.183978 Z" id="Path" fill="#150602"></path>
                    <path d="M45.1679973,366.935978 C48.3659971,365.939978 51.8939969,367.799978 52.0439969,367.877978 C52.0439969,367.877978 52.4219969,368.381978 51.8279969,368.435978 C51.8279969,368.435978 48.3059971,366.587978 45.2819973,367.523978 C44.8259973,367.361978 45.1679973,366.935978 45.1679973,366.935978 Z" id="Path" fill="#150602"></path>
                    <path d="M43.5419974,368.687978 C46.8119972,367.703978 50.429997,369.563978 50.579997,369.641978 C50.579997,369.641978 50.969997,370.145978 50.363997,370.199978 C50.327997,370.199978 46.7639972,368.345978 43.6679974,369.281978 C43.1999974,369.119978 43.5419974,368.687978 43.5419974,368.687978 Z" id="Path" fill="#150602"></path>
                    <path d="M32.6579981,381.497977 C32.6579981,381.233977 31.3259981,381.203977 29.7599982,380.987977 C28.1939983,380.771977 26.9159984,380.471977 26.8259984,380.723977 C26.7359984,380.975977 27.9539983,381.713977 29.6339982,381.923977 C31.3139981,382.133977 32.6819981,381.755977 32.6579981,381.497977 Z" id="Path" fill="#FFFFFF" opacity="0.75"></path>
                    <path d="M79.9679952,203.771988 C79.9679952,203.771988 88.1579947,214.859987 66.485996,239.471986 C44.8139973,264.083984 65.2379961,211.199987 65.2379961,211.199987 L68.9999959,203.771988 L79.9679952,203.771988 Z" id="Path" fill="#302607"></path>
                    <path d="M79.0499953,198.431988 C79.0499953,198.431988 82.7099951,199.955988 79.9679952,203.771988 C77.2259954,207.587988 31.1519981,207.281988 25.6619985,203.465988 C25.6619985,203.465988 24.1379986,202.805988 24.4619985,201.329988 C24.7859985,199.853988 26.5979984,199.655988 26.5979984,199.655988 L79.0499953,198.431988 Z" id="Path" fill="#B34004"></path>
                    <path d="M26.5739984,199.655988 C35.4742618,200.722585 44.4376954,201.171659 53.3999968,200.999988 C64.8779961,195.749988 67.9799959,183.941989 68.2979959,174.149994 C68.7059959,161.74199 78.2699953,157.469991 78.6719953,133.061992 C78.8759953,120.941993 82.3859951,113.861993 85.8719949,109.853993 C86.6519948,106.463994 84.401995,101.645994 81.2099952,100.289994 L78.0899953,98.9999941 C76.4459954,105.815994 69.8939958,120.557993 43.8599974,126.251992 C43.8599974,126.251992 33.611998,115.601993 34.6739979,97.6499942 C32.5138942,98.5109108 30.5247245,99.7503322 28.7999983,101.309994 L28.4639983,101.789994 C24.7979985,105.455994 34.073998,132.143992 25.9499985,151.343991 C15.5999991,175.85399 26.5739984,199.655988 26.5739984,199.655988 Z" id="Path" fill="#F95C0A"></path>
                    <path d="M46.0919973,208.289988 C46.3919972,206.045988 44.6159973,203.399988 43.6079974,203.189988 C42.7259975,203.003988 38.2079977,199.847988 36.2519978,199.301988 C35.9879979,198.413988 35.6879979,197.369988 35.3639979,196.193988 C35.8319979,195.797988 36.1259978,195.461988 36.1379978,195.257988 C36.1679978,194.735988 35.5379979,193.229988 34.8839979,191.909989 L35.0039979,191.747989 C36.2039978,189.767989 26.7479984,161.11799 24.8039985,155.291991 C25.2708325,154.572224 25.6533452,153.801158 25.9439985,152.993991 C27.4799984,148.559991 40.8419976,104.927994 31.3439981,101.015994 C30.6122698,100.726274 29.7849944,100.813709 29.1299983,101.249994 C20.9099988,106.049994 12.4739993,152.309991 14.0459992,158.699991 C14.0459992,158.789991 14.0459992,158.879991 14.0159992,158.975991 C14.0172955,159.067512 14.0314335,159.158399 14.0579992,159.245991 L14.0579992,159.245991 C14.0683521,159.358003 14.0904742,159.468613 14.1239992,159.57599 L14.2319992,159.91199 C14.3339991,160.27199 14.4479991,160.63199 14.5799991,160.98599 L14.6939991,161.29199 C17.255999,168.92399 25.6199985,193.727988 25.5659985,195.053988 C25.5659985,195.335988 25.8119985,195.479988 26.2439984,195.515988 C26.3669494,196.613066 26.7975013,197.653046 27.4859984,198.515988 C27.9419983,199.043988 28.7339983,199.145988 29.6519982,198.995988 C30.1548397,200.228975 30.7863333,201.405484 31.5359981,202.505988 C30.3899982,204.995988 28.4939983,209.399988 28.9079983,210.335987 C29.5079982,211.667987 29.5739982,211.943987 29.5739982,211.943987 C29.5739982,211.943987 30.2339982,218.825987 30.5879982,219.743987 C30.9419982,220.661987 32.5139981,223.277987 33.035998,223.343987 C34.0016781,223.473451 34.9803178,223.473451 35.9459979,223.343987 C36.5459978,223.847987 37.0859978,224.159987 37.5359978,224.057987 C38.3713595,223.837092 39.1098973,223.345437 39.6359976,222.659987 C39.7483628,222.789639 39.8729362,222.908185 40.0079976,223.013987 C40.4159976,223.259987 43.5599974,226.079987 44.5199973,225.539987 C45.4799973,224.999987 43.9199974,220.991987 41.7239975,219.695987 L40.6919976,219.095987 L39.0779977,211.661987 C39.0779977,211.661987 40.6559976,208.661988 41.3279975,209.489988 C41.9999975,210.317987 42.7679975,213.791987 43.3379974,215.549987 C43.9079974,217.307987 47.0699972,217.835987 46.9379972,215.117987 C46.8059972,212.399987 45.7859973,210.533987 46.0919973,208.289988 Z" id="Path" fill="#000000" opacity="0.19" style="mix-blend-mode: multiply;"></path>
                    <path d="M34.4999979,198.257988 C31.3199981,187.613989 22.9199986,153.485991 22.6619986,153.065991 C22.4879987,152.777991 16.229999,151.199991 13.6139992,154.169991 L13.6139992,154.169991 C12.7791323,155.188638 12.3026305,156.453688 12.2579993,157.769991 C12.2592956,157.861513 12.2734336,157.952399 12.2999993,158.039991 C12.4291285,158.63839 12.6036328,159.226088 12.8219992,159.79799 C15.1019991,165.88199 27.5339984,198.929988 29.8019982,201.353988 L29.8019982,201.389988 C30.3479596,201.946105 31.040977,202.335277 31.7999981,202.511988 L31.8719981,202.511988 C33.815998,202.913988 35.7059979,202.085988 35.0639979,199.937988 C35.0819979,199.931988 34.5059979,198.275988 34.4999979,198.257988 Z" id="Path" fill="#FFAE78"></path>
                    <path d="M24.4319985,191.849989 C24.4319985,191.849989 23.9399986,195.287988 25.7099985,197.339988 C27.4799984,199.391988 34.277998,195.053988 34.337998,194.057988 C34.3979979,193.061988 31.9379981,188.453989 31.9379981,188.453989 L24.4319985,191.849989 Z" id="Path" fill="#B34004"></path>
                    <path d="M33.203998,190.547989 C32.3279981,191.981989 28.5839983,193.625988 26.0879984,194.147988 C24.5279985,187.829989 18.7559989,164.71199 15.6359991,155.747991 C15.6359991,155.681991 15.5939991,155.615991 15.5699991,155.537991 C18.5099989,153.497991 22.6619986,153.017991 22.6619986,153.017991 C22.6619986,153.017991 34.5419979,188.339989 33.203998,190.547989 Z" id="Path" fill="#F95C0A"></path>
                    <path d="M26.0879984,194.159988 C24.7439985,194.453988 23.7659986,194.417988 23.7899986,193.871988 C23.8499986,192.413989 13.7579992,162.67199 12.3479993,158.393991 C12.2003027,157.791612 12.2616557,157.156925 12.5219993,156.593991 C13.0739992,155.717991 14.6579991,155.759991 15.7799991,154.979991 C15.7799991,155.051991 15.6119991,155.711991 15.6359991,155.777991 C18.7559989,164.72399 24.5279985,187.841989 26.0879984,194.159988 Z" id="Path" fill="#D44E07"></path>
                    <path d="M41.8079975,201.989988 C40.7999976,201.779988 35.0459979,197.705988 33.809998,198.041988 C32.5739981,198.377988 31.2179981,198.557988 30.5759982,199.601988 C30.5759982,199.601988 26.5499984,207.833988 27.1319984,209.159988 C27.7139983,210.485987 27.7979983,210.767987 27.7979983,210.767987 C27.7979983,210.767987 28.4579983,217.649987 28.8119983,218.567987 C29.1659983,219.485987 30.7379982,222.101987 31.2599981,222.167987 C32.2256782,222.297451 33.2043179,222.297451 34.169998,222.167987 C34.7699979,222.671987 35.3099979,222.983987 35.7599979,222.881987 C36.5953596,222.661092 37.3338975,222.169437 37.8599977,221.483987 C37.9723629,221.613639 38.0969363,221.732185 38.2319977,221.837987 C38.6399977,222.083987 41.7839975,224.903987 42.7439975,224.363987 C43.7039974,223.823987 42.1439975,219.815987 39.9479976,218.519987 L38.9159977,217.919987 L37.3019978,210.485987 C37.3019978,210.485987 38.8799977,207.485988 39.5519976,208.313988 C40.2239976,209.141988 40.9919976,212.615987 41.5619975,214.373987 C42.1319975,216.131987 45.2939973,216.659987 45.1619973,213.941987 C45.0299973,211.223987 43.9619974,209.393988 44.2979974,207.149988 C44.6339973,204.905988 42.8159974,202.199988 41.8079975,201.989988 Z" id="Path" fill="#FFAE78"></path>
                    <path d="M24.1439986,151.799991 C23.3999986,153.941991 21.4439987,156.731991 19.2899989,157.469991 C18.283186,157.823236 17.249948,158.096091 16.199999,158.285991 C16.073999,156.713991 15.941999,155.285991 15.7979991,154.127991 C14.5199991,143.201991 27.5519984,100.199994 27.5519984,100.199994 L27.3539984,100.031994 C28.0089945,99.5957096 28.8362699,99.5082739 29.5679982,99.7979941 C39.8999976,104.081994 28.0199983,140.603992 24.1439986,151.799991 Z" id="Path" fill="#F95C0A"></path>
                    <path d="M15.8219991,154.127991 C15.965999,155.327991 16.097999,156.713991 16.223999,158.285991 C15.0590034,158.559757 13.8439604,158.537065 12.6899992,158.219991 C9.59999943,157.145991 18.5999989,105.167994 27.3539984,100.049994 L27.5519984,100.217994 C27.5519984,100.217994 14.5199991,143.201991 15.8219991,154.127991 Z" id="Path" fill="#D44E07"></path>
                    <path d="M45.0359973,122.009993 C66.857996,113.543993 71.5319957,102.155994 72.4679957,96.6239942 L64.1999962,93.1739944 C57.4319966,90.1739946 46.7039972,93.3299944 46.7039972,93.3299944 L39.6899976,95.8079943 C36.2879978,107.045994 45.0359973,122.009993 45.0359973,122.009993 Z" id="Path" fill="#00E0E3"></path>
                    <polygon id="Path" fill="#1EE0E3" points="64.8659961 95.0099943 64.7099961 90.5039946 59.0699965 89.4419947 60.2099964 92.7959945"></polygon>
                    <path d="M45.1379973,97.0199942 L48.1019971,108.737994 L63.2879962,94.2959944 C62.5915654,93.1495642 62.037479,91.9225147 61.6379973,90.6419946 C58.3499965,90.2699946 52.0079969,90.6599946 45.1379973,97.0199942 Z" id="Path" fill="#FFAE78"></path>
                    <path d="M44.3999974,80.2619952 L45.1619973,97.0199942 C52.0319969,90.6599946 58.3619965,90.2699946 61.6619963,90.6419946 C59.5499965,84.287995 58.9379965,74.7659955 58.9379965,74.7659955 L44.3999974,80.2619952 Z" id="Path" fill="#F95C0A"></path>
                    <polygon id="Path" fill="#FFAE78" points="48.1019971 108.737994 43.3559974 97.2959942 45.0899973 96.1319943"></polygon>
                    <path d="M47.6279972,109.649993 L54.9479967,95.6159943 C54.9479967,95.6159943 64.6079961,94.8059943 64.4039962,92.4659945 C64.1999962,90.1259946 61.5059963,90.2399946 61.5059963,90.2399946 L61.0259964,88.5719947 C61.0259964,88.5719947 67.151996,88.1939947 67.661996,92.9759945 C68.1719959,97.7579942 68.2199959,98.8619941 68.2199959,98.8619941 L60.5999964,111.329993 L55.3619967,103.145994 L48.5459971,109.745993 L47.6279972,109.649993 Z" id="Path" fill="#C4E0E3"></path>
                    <path d="M43.8599974,126.227992 C69.8939958,120.533993 76.4459954,105.791994 78.0899953,98.9759941 L72.4679957,96.5999942 C71.5319957,102.131994 66.857996,113.519993 45.0359973,121.985993 C45.0359973,121.985993 36.2879978,107.021994 39.6959976,95.7839943 L38.7059977,96.1319943 C37.3354061,96.5457295 35.9892645,97.0365103 34.6739979,97.6019942 C33.599998,115.577993 43.8599974,126.227992 43.8599974,126.227992 Z" id="Path" fill="#B34004"></path>
                    <polygon id="Path" fill="#C4E0E3" points="43.3559974 97.2959942 48.5399971 109.751993 47.6279972 109.649993 40.7639976 99.4679941 35.3459979 106.673994 38.1719977 96.1259943 44.8979973 92.1299945 45.0899973 96.1319943"></polygon>
                    <path d="M53.3999968,200.999988 C69.2459959,200.669988 79.0799953,198.455988 79.0799953,198.455988 C82.2839951,177.557989 82.4399951,124.163993 85.8659949,109.907993 C85.8659949,109.907993 85.8659949,109.871993 85.8659949,109.853993 C82.3739951,113.885993 78.8639953,120.941993 78.6659953,133.061992 C78.2639953,157.469991 68.6999959,161.74199 68.2919959,174.14999 C67.9499959,183.917989 64.8479961,195.725988 53.3999968,200.999988 Z" id="Path" fill="#D44E07"></path>
                    <path d="M53.5379968,198.461988 C62.2019963,189.323989 88.1879947,159.095991 88.6619947,158.795991 C88.9919947,158.597991 96.1319943,160.20599 97.2539942,164.54999 L97.2539942,164.59199 C97.5753315,166.041852 97.4130637,167.557054 96.7919942,168.90599 C96.7401483,168.995525 96.679875,169.079908 96.6119942,169.15799 C96.1731245,169.695847 95.6937239,170.199318 95.1779943,170.66399 C89.7779946,175.65599 60.2459964,202.727988 56.7119966,204.017988 L56.6699966,204.017988 C55.8286199,204.306109 54.9212929,204.341568 54.0599968,204.119988 L53.9699968,204.119988 C51.8039969,203.519988 50.309997,201.719988 52.0619969,199.877988 L53.5379968,198.461988 Z" id="Path" fill="#FFAE78"></path>
                    <path d="M67.001996,197.141988 C67.001996,197.141988 65.7359961,200.867988 62.8979963,202.037988 C60.0599964,203.207988 55.3979967,195.335988 55.8539967,194.297988 C56.3099966,193.259988 61.1339964,189.845989 61.1339964,189.845989 L67.001996,197.141988 Z" id="Path" fill="#B34004"></path>
                    <path d="M58.7999965,191.327989 C58.9499965,193.229988 61.8959963,196.799988 64.1519962,198.623988 C68.9519959,193.031988 86.6459948,172.59599 94.3799944,165.15599 L94.5539944,164.98199 C92.6279945,161.38199 88.6739947,158.789991 88.6739947,158.789991 C88.6739947,158.789991 58.5659965,188.399989 58.7999965,191.327989 Z" id="Path" fill="#F95C0A"></path>
                    <path d="M64.1459962,198.599988 C65.3459961,199.583988 66.359996,200.051988 66.617996,199.487988 C67.301996,197.981988 92.7539945,173.03999 96.3719943,169.45199 C96.824044,168.921347 97.0821783,168.252736 97.1039942,167.55599 C97.0019942,166.35599 95.3759943,165.61799 94.6379944,164.25599 C94.5839944,164.31599 94.4339944,165.07799 94.3739944,165.13199 C86.6399948,172.59599 68.9579959,193.031988 64.1459962,198.599988 Z" id="Path" fill="#D44E07"></path>
                    <path d="M56.4599966,200.621988 C56.4599966,200.621988 51.8519969,195.407988 50.525997,195.413988 C49.1999971,195.419988 46.7399972,196.505988 42.1259975,191.399989 C37.5119978,186.293989 35.9759979,193.697988 39.4799976,195.731988 C42.9839974,197.765988 45.4799973,197.669988 45.4799973,199.973988 C45.4799973,202.277988 37.9319977,206.747988 38.1119977,207.113988 C38.2919977,207.479988 45.0299973,215.891987 50.483997,214.427987 C50.495997,214.427987 61.9379963,206.999988 56.4599966,200.621988 Z" id="Path" fill="#FFAE78"></path>
                    <path d="M45.9239973,213.203987 C44.8532434,214.421926 43.6919334,215.557162 42.4499975,216.599987 C41.1419975,217.565987 35.4839979,220.277987 36.2339978,221.357987 C36.9839978,222.437987 39.7799976,222.425987 43.3679974,219.917987 C46.9559972,217.409987 50.999997,214.097987 50.999997,214.097987 C50.999997,214.097987 46.9259972,212.111987 45.9239973,213.203987 Z" id="Path" fill="#FFAE78"></path>
                    <path d="M43.3019974,210.881987 C43.3019974,210.881987 37.9019977,215.435987 36.6179978,215.987987 C35.3339979,216.539987 29.8379982,217.895987 30.1739982,219.335987 C30.5099982,220.775987 34.073998,221.663987 38.2979977,219.491987 C42.5219975,217.319987 46.2299972,212.951987 46.2299972,212.951987 C46.2299972,212.951987 44.3999974,210.731987 43.3019974,210.881987 Z" id="Path" fill="#FFAE78"></path>
                    <path d="M40.4519976,208.763988 L33.917998,213.761987 C33.383998,214.169987 27.2639984,215.561987 27.5219984,217.031987 C27.7799983,218.501987 29.0399983,218.963987 33.023998,218.435987 C37.0079978,217.907987 42.5459975,211.511987 42.5459975,211.511987 L40.4519976,208.763988 Z" id="Path" fill="#FFAE78"></path>
                    <path d="M38.5199977,206.741988 C38.5199977,206.741988 33.815998,210.407987 30.3239982,211.985987 C26.8319984,213.563987 29.8499982,215.441987 31.1159981,215.183987 C32.3819981,214.925987 39.9899976,209.117988 39.9899976,209.117988 L38.5199977,206.741988 Z" id="Path" fill="#FFAE78"></path>
                    <path d="M83.747995,159.97199 C84.389995,162.46199 86.3519949,165.79199 88.7159947,166.81799 C89.8138098,167.308846 90.9495085,167.710153 92.1119945,168.01799 C92.3939945,166.25399 92.6699945,164.67599 92.9399945,163.35599 C95.3999943,151.133991 84.599995,101.357994 84.599995,101.357994 L84.8399949,101.183994 C84.14188,100.628238 83.2134771,100.455146 82.3619951,100.721994 C70.2779958,104.597994 80.3999952,146.999991 83.747995,159.97199 Z" id="Path" fill="#F95C0A"></path>
                    <path d="M92.9399945,163.36799 C92.6699945,164.68799 92.3939945,166.26599 92.1119945,168.02999 C93.5579944,168.41399 95.5199943,169.12199 96.6479942,168.81599 C100.211994,167.87999 94.2479944,107.765994 84.8279949,101.183994 L84.587995,101.357994 C84.587995,101.357994 95.3999943,151.133991 92.9399945,163.36799 Z" id="Path" fill="#D44E07"></path>
                    <path d="M41.5199975,97.1639942 C44.9159973,97.5479942 50.003997,95.7119943 52.7819969,93.1319944 C56.6039966,89.5859947 61.1459964,90.0779946 63.9179962,85.8959949 C66.317996,82.2959951 65.3999961,71.9519957 68.2079959,65.3219961 L67.937996,65.1539961 C67.3027868,64.7193718 66.7669953,64.1549502 66.365996,63.4979962 C62.3099963,69.8399958 63.7199962,82.0019951 61.0619964,86.0099949 C58.2899965,90.2099946 53.7419968,89.6999947 49.925997,93.2459944 C47.5335261,95.2938236 44.626756,96.6486565 41.5199975,97.1639942 L41.5199975,97.1639942 Z" id="Path" fill="#FF8834"></path>
                    <path d="M18.8279989,44.3999974 C22.3319987,52.8539968 22.4579987,53.6939968 21.2279987,57.0959966 C19.9019988,60.8279964 22.6139987,65.1719961 24.8279985,66.599996 C27.2759984,68.1719959 31.2239981,85.6319949 33.689998,88.0199948 C36.1559978,90.4079946 36.4799978,92.6639945 38.6399977,95.7419943 C39.3469131,96.6146584 40.3975833,97.1378046 41.5199975,97.1759942 C44.6246397,96.6596138 47.5292076,95.3048403 49.919997,93.2579944 C53.7359968,89.7119947 58.2839965,90.2039946 61.0559964,86.0219949 C63.7139962,82.0139951 62.3039963,69.8519958 66.359996,63.5099962 C66.7609953,64.1669502 67.2967868,64.7313718 67.931996,65.1659961 L68.2019959,65.3339961 C68.5995149,64.3580367 69.126216,63.4398412 69.7679958,62.6039963 C74.5019956,56.5319966 66.635996,52.3199969 70.7999958,48.9899971 C71.1311917,48.7133824 71.4291832,48.3992833 71.6879957,48.0539971 C75.3419955,43.2539974 77.6879954,28.3559983 77.6879954,28.3559983 C72.5939957,11.5019993 57.8879965,6.92999959 44.3099974,7.88399953 C32.4959981,8.71799948 21.5099987,13.7339992 18.3779989,18.4859989 C15.965999,22.1219987 15.3239991,35.9339979 18.8279989,44.3999974 Z" id="Path" fill="url(#linearGradient-1)"></path>
                    <path d="M44.8259973,64.8539961 L44.8259973,64.8539961 C44.9159973,64.8539961 53.5919968,64.9919961 54.5759967,70.7819958 C55.3379967,75.2579955 55.6259967,77.4419954 55.7279967,78.3479953 C55.7501662,78.5729443 55.9463922,78.7400016 56.1719967,78.7259953 L56.1719967,78.7259953 C56.2878677,78.7168957 56.3951839,78.6614896 56.4697021,78.5722936 C56.5442203,78.4830975 56.5796533,78.3676371 56.5679966,78.2519953 C56.4659966,77.3519954 56.1839967,75.1739955 55.4099967,70.6379958 C54.3059968,64.1279962 45.2099973,63.9959962 44.8139973,63.9899962 L44.8139973,63.9899962 L44.8259973,64.8539961 Z" id="Shape" fill="#F95C0A"></path>
                    <path d="M32.3999981,78.6419953 L33.197998,78.3239953 C30.4319982,71.3099957 31.9979981,67.601996 31.9979981,67.565996 L31.1999981,67.199996 C31.1339981,67.379996 29.4599982,71.2499958 32.3999981,78.6419953 Z" id="Path" fill="#F95C0A"></path>
                    <path d="M63.9899962,40.6499976 C63.9899962,40.6499976 64.7999961,41.5799975 63.8759962,41.9999975 C62.9519962,42.4199975 57.9179965,41.5019975 53.0039968,44.5259973 C48.0899971,47.5499972 44.4899973,46.5239972 44.3639974,46.1999972 C44.2979974,46.0139973 43.3559974,45.1739973 43.0019974,44.6159973 C42.7559975,44.2319974 43.3019974,43.6739974 43.7519974,43.6439974 C45.7559973,43.5059974 50.483997,43.2359974 53.1599968,41.2439975 C55.6259967,39.4379976 62.3399963,38.9099977 63.9899962,40.6499976 Z" id="Path" fill="#E8E8E8"></path>
                    <path d="M37.3259978,41.0939976 C40.7999976,40.9559976 49.0859971,35.3699979 49.4459971,35.0939979 L49.1279971,34.6259979 C49.0379971,34.6859979 40.0739976,40.7399976 37.0319978,40.4939976 C35.5739979,40.3799976 33.143998,39.6359976 30.7919982,38.9159977 C28.0019983,38.0639977 25.3919985,37.2599978 24.1079986,37.3919978 L24.1739986,37.9919977 C25.3139985,37.8659977 28.0139983,38.6939977 30.6239982,39.4979976 C33.023998,40.2239976 35.4659979,40.9739976 36.9839978,41.0939976 C37.0978156,41.1031129 37.21218,41.1031129 37.3259978,41.0939976 Z" id="Path" fill="#F95C0A"></path>
                    <path d="M40.2299976,36.8819978 C44.4839973,35.7359979 50.903997,31.3199981 51.1739969,31.1279981 L50.849997,30.6599982 C50.783997,30.7019982 44.2499974,35.2079979 40.0859976,36.3299978 L40.2299976,36.8819978 Z" id="Path" fill="#F95C0A"></path>
                    <path d="M30.9299982,36.6419978 L31.1219981,36.1019978 C30.8459982,36.0059979 24.4499985,33.779998 21.7859987,34.115998 L21.8579987,34.7159979 C24.3899985,34.367998 30.8639982,36.5999978 30.9299982,36.6419978 Z" id="Path" fill="#F95C0A"></path>
                    <path d="M32.759998,43.7639974 C33.2994162,43.7211121 33.7911512,44.0734377 33.923998,44.5979973 C34.109998,45.2519973 34.6739979,46.1219973 34.4579979,46.4699972 C34.073998,47.0699972 26.3999984,47.3579972 23.7299986,45.8699973 C21.0599987,44.3819974 19.7999988,44.7359973 19.4219988,44.3519974 C19.0439989,43.9679974 19.1399989,42.4979975 19.1399989,42.4979975 C19.1399989,42.4979975 19.9319988,41.7899975 24.4979985,43.1879974 C27.1824862,43.9495459 29.9958079,44.1456816 32.759998,43.7639974 Z" id="Path" fill="#E8E8E8"></path>
                    <path d="M17.015999,36.7919978 C17.015999,36.7919978 15.2999991,24.2579986 18.7559989,19.6559988 C22.7399986,14.3399991 25.2539985,16.199999 25.2539985,16.199999 C25.2539985,16.199999 33.473998,21.9059987 36.7739978,21.4679987 C37.6079978,18.4679989 43.2419974,16.163999 52.9739968,11.5739993 C58.3199965,9.05999946 57.1739966,4.84799971 55.0379967,1.56599991 C49.1808287,0.11290979 43.0408449,0.260037313 37.2599978,1.99199988 C24.7439985,5.81399965 15.6599991,16.277999 14.2499992,22.3919987 C12.8399992,28.5059983 17.015999,36.7919978 17.015999,36.7919978 Z" id="Path" fill="#EAEAEA"></path>
                    <path d="M43.6919974,53.6279968 C46.0919973,56.7119966 49.0079971,57.1499966 52.5299969,57.0059966 C52.8719968,57.0059966 53.2139968,56.9699966 53.5619968,56.9279966 C54.6893649,56.7740963 55.7393126,56.2680216 56.5619966,55.4819967 L56.3279966,55.1999967 C55.5059967,56.0279967 54.7199967,56.1479967 53.4899968,56.2919966 C49.715997,56.7359966 46.8119972,55.4579967 44.3459974,52.2779969 L43.6919974,53.6279968 Z" id="Path" fill="#F95C0A"></path>
                    <path d="M44.3279974,52.4639969 C44.3279974,52.4639969 46.6799972,52.9139968 47.6519972,53.2499968 C48.6239971,53.5859968 51.8519969,52.4159969 53.8919968,51.5759969 C54.6942278,51.2979335 55.3708352,50.7426048 55.7999967,50.009997 L55.7999967,50.009997 C55.9133602,49.8138562 55.9886789,49.5980783 56.0219967,49.3739971 C50.021997,47.9039971 44.4419974,50.921997 44.4419974,50.921997 L44.3279974,52.4639969 Z" id="Path" fill="#FFFFFF"></path>
                    <path d="M45.7439973,51.5219969 C45.9479973,53.5559968 47.5439972,55.0559967 49.3079971,54.8759967 C51.071997,54.6959967 52.3079969,52.9079968 52.1279969,50.873997 C51.9479969,48.8399971 50.327997,47.3339972 48.5579971,47.5139972 C46.7879972,47.6939972 45.5339973,49.4879971 45.7439973,51.5219969 Z" id="Path" fill="#913F39"></path>
                    <path d="M47.3999972,51.3479969 C47.5992274,52.1459887 48.3896985,52.647151 49.1964309,52.4869443 C50.0031634,52.3267375 50.5421558,51.5615609 50.4213513,50.7479948 C50.3005469,49.9344287 49.5624735,49.3588804 48.7439971,49.4399971 C47.849695,49.6015828 47.2510035,50.4515109 47.3999972,51.3479969 Z" id="Path" fill="#3F0100"></path>
                    <path d="M53.6759968,51.1979969 C53.7395572,51.9969431 53.1437573,52.6962927 52.3448615,52.7604829 C51.5459657,52.8246731 50.8461466,52.2294247 50.7813267,51.4305797 C50.7165068,50.6317348 51.3112033,49.9314467 52.1099969,49.865997 C52.494398,49.8345009 52.875536,49.9572362 53.1693245,50.2071253 C53.463113,50.4570144 53.6454098,50.8135224 53.6759968,51.1979969 Z" id="Path" fill="#FFFFFF"></path>
                    <path d="M59.2259965,49.4039971 C59.2259965,49.4039971 48.0299971,46.9319972 47.2259972,47.4659972 C46.4219972,47.9999971 44.4419974,50.915997 44.4419974,50.915997 C44.4419974,50.915997 48.7739971,48.5159971 56.9759966,50.123997 L59.2259965,49.4039971 Z" id="Path" fill="#FF8834"></path>
                    <path d="M44.3279974,52.4639969 C46.3679972,55.5539967 49.799997,56.2799966 52.7999969,54.509997 C54.4644739,53.5786405 55.5804667,51.9046513 55.7999967,50.009997 C55.375215,50.7516272 54.698069,51.3159155 53.8919968,51.5999969 C51.8819969,52.4399969 48.6299971,53.6099968 47.6519972,53.2739968 C46.6739972,52.9379968 44.3279974,52.4639969 44.3279974,52.4639969 Z" id="Path" fill="#FF8834"></path>
                    <path d="M28.6799983,58.7999965 C30.0515944,58.7721296 31.3582157,58.2103039 32.3219981,57.2339966 C34.5239979,55.1159967 35.7899979,54.7619967 35.8079979,54.7559967 L35.6219979,53.6699968 C35.5619979,53.6699968 34.247998,54.1739968 31.9259981,56.4059966 C30.5999982,57.6719966 29.3999982,58.2539965 28.2419983,58.1999965 C26.9279984,58.1219965 25.3919985,57.4019966 23.9939986,55.6919967 L23.7239986,55.9439967 C25.2359985,57.7919966 26.7239986,58.7399965 28.1999983,58.8299965 C28.3605239,58.832036 28.5209758,58.8220077 28.6799983,58.7999965 L28.6799983,58.7999965 Z" id="Path" fill="#F95C0A"></path>
                    <path d="M24.5999985,52.1279969 C24.5999985,52.1279969 29.8439982,54.5279967 32.5199981,53.9279968 C35.0099979,53.3279968 35.5859979,51.8639969 35.6519979,51.6599969 L34.5599979,50.399997 L27.7079983,50.681997 L24.5999985,52.1279969 Z" id="Path" fill="#FFFFFF"></path>
                    <path d="M27.5339984,52.5779969 C27.7739983,54.4259968 29.1419983,55.7879967 30.5879982,55.6079967 C32.0339981,55.4279967 33.017998,53.8079968 32.777998,51.9479969 C32.5379981,50.087997 31.1999981,48.7379971 29.7239982,48.9119971 C28.2479983,49.0859971 27.2939984,50.729997 27.5339984,52.5779969 Z" id="Path" fill="#913F39"></path>
                    <path d="M28.9079983,52.4159969 C28.9272163,53.2078413 29.5680215,53.8433507 30.3599982,53.8559968 C31.1256799,53.6557778 31.5899906,52.8792581 31.4039981,52.1099969 C31.2899981,51.2339969 30.6359982,50.585997 29.9519982,50.669997 C29.1863165,50.870216 28.7220058,51.6467356 28.9079983,52.4159969 Z" id="Path" fill="#3F0100"></path>
                    <path d="M33.767998,52.1159969 C33.9233248,52.7823514 33.5184751,53.450886 32.855998,53.6219968 C32.2559981,53.6819968 31.7219981,53.0999968 31.6559981,52.3259969 C31.5006713,51.6596424 31.905521,50.9911077 32.5679981,50.819997 C33.143998,50.759997 33.689998,51.3419969 33.767998,52.1159969 Z" id="Path" fill="#FFFFFF"></path>
                    <path d="M35.6399979,51.5999969 C35.6399979,51.5999969 32.999998,48.2699971 32.0879981,48.2699971 C29.8619982,48.2699971 22.7279986,51.9359969 22.9739986,51.9179969 C23.2199986,51.8999969 23.7179986,52.7459969 23.7179986,52.7459969 C23.7179986,52.7459969 28.5899983,48.8759971 35.6399979,51.5999969 Z" id="Path" fill="#FF8834"></path>
                    <path d="M24.5999985,52.1279969 C24.5999985,52.1279969 25.9019985,56.3999966 30.1919982,56.3999966 C34.301998,56.3999966 35.5559979,51.9779969 35.6339979,51.6419969 C35.5679979,51.8459969 34.9919979,53.3159968 32.5019981,53.9099968 C29.8259982,54.5459967 24.5999985,52.1279969 24.5999985,52.1279969 Z" id="Path" fill="#FF8834"></path>
                    <path d="M44.2199974,64.1579962 C44.2199974,64.1579962 41.2199975,63.2579962 40.5299976,65.7959961 C39.8399976,68.3339959 34.043998,67.271996 34.043998,67.271996 L33.935998,68.1119959 L34.8719979,69.5039959 L36.5459978,70.1039958 L38.8259977,69.7259958 L41.7599975,68.4839959 L42.5459975,68.4299959 L44.0219974,68.9159959 L46.0019973,68.3159959 L46.6739972,67.283996 L46.2959972,66.0839961 L44.2199974,64.1579962 Z" id="Path" fill="#FF8834"></path>
                    <path d="M33.029998,64.9379961 C32.9007807,64.8609872 32.7614322,64.8024204 32.6159981,64.7639961 C32.5379981,64.7639961 32.6159981,64.7639961 32.5379981,64.7639961 C32.3208462,64.9460754 32.1200774,65.1468442 31.9379981,65.3639961 L31.4819981,66.515996 L31.5479981,68.0639959 L32.4899981,69.5999959 L33.857998,69.4979959 L34.373998,68.9999959 L33.521998,65.4839961 C33.3956879,65.2712737 33.2284655,65.0856977 33.029998,64.9379961 L33.029998,64.9379961 Z" id="Path" fill="#FF8834"></path>
                    <path d="M37.3379978,70.4459958 C38.743329,70.301772 40.1090348,69.8947062 41.3639975,69.2459959 C41.8082185,69.0035322 42.2882362,68.8333993 42.7859974,68.7419959 C43.5902686,69.0825776 44.4887342,69.1293063 45.3239973,68.8739959 C45.9437865,68.7364825 46.4784761,68.3474197 46.7999972,67.799996 C47.5079972,66.407996 45.2999973,64.0199962 44.8499973,63.5579962 L44.2499974,64.1579962 C45.1679973,65.0999961 46.3679972,66.785996 46.0499973,67.409996 C45.8382474,67.7469453 45.5017378,67.9863848 45.1139973,68.0759959 C44.4988215,68.2629984 43.8394116,68.2440378 43.2359974,68.0219959 C42.7439975,67.733996 42.0719975,68.0219959 41.0459976,68.4899959 C39.8794631,69.093534 38.6089842,69.4701984 37.3019978,69.5999959 C34.9739979,69.6959958 34.031998,67.9919959 33.989998,66.899996 C33.989998,66.2099961 34.7759979,61.3259963 35.4359979,57.4019966 C35.9999979,53.9999968 36.4859978,51.089997 36.5399978,50.333997 C36.6422967,49.2033877 36.0777728,48.1165035 35.0939979,47.5499972 L34.6979979,48.3119971 L34.8959979,47.9339971 L34.6979979,48.3119971 C35.3764866,48.7219091 35.7592328,49.4850677 35.6819979,50.273997 C35.6339979,50.987997 35.1239979,54.0299968 34.5899979,57.2459966 C33.713998,62.4599963 33.101998,66.2039961 33.131998,66.923996 C33.185998,68.3459959 34.379998,70.5659958 37.3379978,70.4459958 Z" id="Path" fill="#F95C0A"></path>
                    <path d="M33.389998,69.8699958 C33.799198,69.8460763 34.2030751,69.7653009 34.5899979,69.6299958 L34.313998,68.8199959 C33.7455089,69.0801875 33.0955462,69.0975198 32.5139981,68.8679959 C30.7919982,67.667996 32.5919981,64.7939961 32.6099981,64.7639961 L31.8839981,64.3079962 C31.0979981,65.5499961 30.1139982,68.2619959 32.0519981,69.5939959 C32.4631052,69.8101678 32.9269056,69.9058397 33.389998,69.8699958 L33.389998,69.8699958 Z" id="Path" fill="#F95C0A"></path>
                    <path d="M36.7739978,21.4919987 C40.0739976,21.0539987 52.5479969,12.4919993 57.4019966,13.1279992 L62.2499963,13.7639992 C62.2499963,13.7639992 73.3439956,23.3999986 73.4459956,25.9019985 C73.5479956,28.4039983 68.5739959,47.3639972 68.5739959,47.3639972 L70.7999958,51.7979969 C70.7999958,51.7979969 82.5839951,33.533998 81.5159951,25.7339985 C80.4479952,17.9339989 69.1619959,7.52399955 64.8479961,5.28599968 C61.7491045,3.65445884 58.4600693,2.41300929 55.0559967,1.58999991 C57.1859966,4.87199971 58.3379965,9.08399946 52.9919968,11.5979993 C43.2419974,16.199999 37.6079978,18.4799989 36.7739978,21.4919987 Z" id="Path" fill="#BCBCBC"></path>
                    <path d="M67.937996,65.1479961 C68.4904277,65.5260983 69.0974484,65.8174682 69.7379958,66.0119961 C70.6566891,66.3100098 71.6255101,66.4221891 72.5879957,66.341996 C72.8879957,66.341996 73.1879956,66.275996 73.4819956,66.2219961 C76.2899955,65.6879961 78.8819953,63.7199962 80.5559952,61.4759963 C83.555995,57.5039966 83.975995,52.7519969 81.6779951,49.3799971 C79.7279952,46.5119972 76.7999954,45.7799973 73.2179956,47.2859972 L72.8459957,47.4479972 C68.0700776,49.6658224 65.1055452,54.5474666 65.3399961,59.8079964 C65.4479961,62.2559963 66.335996,64.0439962 67.937996,65.1479961 Z" id="Path" fill="#FFAE78"></path>
                    <path d="M74.6879955,50.735997 C74.6879955,50.735997 77.8079954,49.3439971 77.3099954,50.807997 C76.8119954,52.2719969 73.0379956,51.5159969 71.7959957,56.5019966 C71.7959957,56.5019966 75.0299955,57.2279966 74.3519956,60.0179964 C73.6739956,62.8079963 69.9419958,62.4179963 69.8999958,62.0519963 C69.8579958,61.6859963 73.4339956,61.8059963 72.8999957,59.7359964 C72.3659957,57.6659966 69.1379959,58.5359965 68.8199959,58.2899965 C68.5019959,58.0439965 70.3619958,52.0439969 74.6879955,50.735997 Z" id="Path" fill="#F95C0A"></path>
                    <path d="M41.5919975,83.999995 C45.8399973,81.8399951 48.5279971,83.573995 48.6419971,83.645995 L48.8939971,83.819995 L48.2579971,84.7619949 L47.9999971,84.599995 C47.9099971,84.545995 45.7499973,83.171995 42.1139975,85.0199949 L41.8379975,85.1579949 L41.3099975,84.149995 L41.5919975,83.999995 Z" id="Path" fill="#F95C0A"></path>
                    <path d="M43.7219974,80.9999952 C45.1919973,80.8439952 46.6679972,80.7719952 47.8559971,80.6639952 C50.855997,80.3999952 49.4639971,78.4199953 49.4639971,78.4199953 C49.2147373,78.1112789 48.9397525,77.824251 48.6419971,77.5619954 C46.8959972,77.2919954 44.0339974,77.1539954 43.5299974,79.1279953 C43.3017917,79.7482028 43.3726452,80.4390243 43.7219974,80.9999952 Z" id="Path" fill="#FF4C67"></path>
                    <path d="M38.0219977,82.6739951 C39.2699977,81.6839951 41.5019975,81.2519952 43.7219974,81.0119952 C43.3726452,80.4510243 43.3017917,79.7602028 43.5299974,79.1399953 C44.0339974,77.1659954 46.8959972,77.3039954 48.6419971,77.5739954 C44.7119973,74.1479956 38.5019977,76.9079954 38.5019977,76.9079954 C41.1419975,78.9959953 38.0219977,82.6739951 38.0219977,82.6739951 Z" id="Path" fill="#8B011C"></path>
                </g>
            </g>
        </g>
    </g>
</svg>