<svg xmlns="http://www.w3.org/2000/svg" xmlns:xlink="http://www.w3.org/1999/xlink" width="298" height="298" viewBox="0 0 298 298">
  <defs>
    <clipPath id="clip-path">
      <path id="Clip_6" data-name="Clip 6" d="M0,0H151.7V160.849H0Z" transform="translate(0.273 0.09)" fill="none"/>
    </clipPath>
    <clipPath id="clip-path-2">
      <path id="Clip_51" data-name="Clip 51" d="M0,0H75.712V69.737H0Z" transform="translate(0.082 0.211)" fill="none"/>
    </clipPath>
  </defs>
  <g id="Group_524" data-name="Group 524" transform="translate(-571 -412)">
    <circle id="Oval" cx="149" cy="149" r="149" transform="translate(571 412)" fill="#fa6400" opacity="0.14"/>
    <g id="Oval-2" data-name="Oval" transform="translate(571 412)" fill="none" stroke="#fa6400" stroke-miterlimit="10" stroke-width="16" opacity="0.075">
      <circle cx="149" cy="149" r="149" stroke="none"/>
      <circle cx="149" cy="149" r="141" fill="none"/>
    </g>
    <ellipse id="Oval-3" data-name="Oval" cx="69" cy="11.5" rx="69" ry="11.5" transform="translate(688 668)" fill="#fac09b" opacity="0.675"/>
    <g id="Group_79" data-name="Group 79" transform="translate(602 412)">
      <path id="Fill_1" data-name="Fill 1" d="M1.952,16.152,0,25.828,28,34,11.809,0A27.941,27.941,0,0,0,1.952,16.152" transform="translate(78 113)" fill="#c13b00"/>
      <path id="Fill_3" data-name="Fill 3" d="M10.576,32.706c6.523,3.068,14.914.425,19.331-5.236s5.105-13.638,2.8-20.418A28.88,28.88,0,0,0,29.517.6L25.384,0,3.652,12.155c-1.235,1-2.442,2.029-3.652,3.055a33.855,33.855,0,0,0,1.431,6.354c1.585,4.661,4.66,9.032,9.145,11.142" transform="translate(104 68)" fill="#c13b00"/>
      <g id="Group_7" data-name="Group 7" transform="translate(60 69)">
        <path id="Clip_6-2" data-name="Clip 6" d="M0,0H151.7V160.849H0Z" transform="translate(0.273 0.09)" fill="none"/>
        <g id="Group_7-2" data-name="Group 7" clip-path="url(#clip-path)">
          <path id="Fill_5" data-name="Fill 5" d="M134.344,32.5h0A48.526,48.526,0,0,0,96.566,3.39L73.139,0a29.457,29.457,0,0,1,3.235,6.575c2.331,6.9,1.634,15.028-2.84,20.791S60.563,35.821,53.955,32.7c-4.543-2.149-7.658-6.6-9.263-11.346a34.626,34.626,0,0,1-1.449-6.469A205.14,205.14,0,0,0,9.526,51.551L0,64.859l17.669,5.333,1.907-9.772A28.391,28.391,0,0,1,29.2,44.106l15.814,34.34,7.917,20.046,74.049-53.024L81.289,142.676l45.43,3.29a16.694,16.694,0,0,1,8.52,3.081l16.458,11.8V118.178A220.238,220.238,0,0,0,134.344,32.5" transform="translate(0.273 0.09)" fill="#fa6400"/>
        </g>
      </g>
      <path id="Fill_8" data-name="Fill 8" d="M0,52.91,17.117,96.189,28.335,97,74,0Z" transform="translate(113 114)" fill="#cd4307"/>
      <path id="Fill_10" data-name="Fill 10" d="M.222,0A7.059,7.059,0,0,0,0,1.7V6H66l-.939-6Z" transform="translate(0 267)" fill="#d3ebf5"/>
      <path id="Fill_12" data-name="Fill 12" d="M11.39,14.758a4,4,0,0,0,3.77,2.947l8.957.3L28,2.725,6.019,0,5.582,1.718A35.677,35.677,0,0,1,0,11.809H7.483a4,4,0,0,1,3.907,2.949" transform="translate(39 231)" fill="#e98870"/>
      <path id="Fill_14" data-name="Fill 14" d="M62.12,6.373l-8.813-.3A3.973,3.973,0,0,1,49.6,3.036,3.971,3.971,0,0,0,45.753,0H38.391a36.738,36.738,0,0,1-15.7,12.048L3.837,19.6A6.461,6.461,0,0,0,0,24H65Z" transform="translate(0 243)" fill="#135cb0"/>
      <path id="Fill_16" data-name="Fill 16" d="M6.83,6.809,1.305.262A.746.746,0,0,0,.266.168a.719.719,0,0,0-.1,1.024L5.7,7.738a.744.744,0,0,0,1.038.094.719.719,0,0,0,.1-1.023" transform="translate(27 252)" fill="#fff"/>
      <path id="Fill_18" data-name="Fill 18" d="M6.806,6.7,1.189.235A.644.644,0,0,0,.212.214.825.825,0,0,0,.193,1.3L5.81,7.765a.645.645,0,0,0,.978.021A.826.826,0,0,0,6.806,6.7" transform="translate(30 250)" fill="#fff"/>
      <path id="Fill_20" data-name="Fill 20" d="M6.807,6.7,1.189.235A.644.644,0,0,0,.212.214.825.825,0,0,0,.194,1.3L5.81,7.765a.645.645,0,0,0,.978.021A.827.827,0,0,0,6.807,6.7" transform="translate(34 247)" fill="#fff"/>
      <path id="Fill_22" data-name="Fill 22" d="M52,9.483,49.859,7.168C37.065-6.664,13.819.678,11.433,19.3L0,108.563,27.013,112,41.645,26.634A27.535,27.535,0,0,1,52,9.483" transform="translate(40 122)" fill="#135cb0"/>
      <path id="Fill_24" data-name="Fill 24" d="M32.992,30.388,9.149,0,0,18.2,5.152,29.141a33.045,33.045,0,0,0,8.976,11.516,32.338,32.338,0,0,0,37.218,2.7l1.654-1a32.4,32.4,0,0,1-20.008-11.97" transform="translate(103 219)" fill="#135cb0"/>
      <path id="Fill_26" data-name="Fill 26" d="M29.228,4.641,24.966,0A27.744,27.744,0,0,0,14.62,17.26L0,103.171,11.914,59.055l22.8,47.78,9.277-18.2,24.174,30.395A32.938,32.938,0,0,0,88.454,131L97,125.924Z" transform="translate(68 131)" fill="#104e8c"/>
      <path id="Fill_28" data-name="Fill 28" d="M78.612,52.037a16.58,16.58,0,0,0-8.483-3.079L35.091,0A125.136,125.136,0,0,1,16.821,23.3a33.6,33.6,0,0,1-8.279,6.523A14.551,14.551,0,0,1,0,31.436L28.991,85.082A34.163,34.163,0,0,0,92.48,75.854L95,63.834Z" transform="translate(117 165)" fill="#135cb0"/>
      <path id="Fill_30" data-name="Fill 30" d="M78,25.011,66.92,9.616C55.574-6.15,30.9-1.719,25.814,17L0,112.065,27.405,118,47.213,61.079,59.22,29.548Z" transform="translate(65 129)" fill="#135cb0"/>
      <path id="Fill_32" data-name="Fill 32" d="M12.479,41.28a33.487,33.487,0,0,0,8.27-6.46A124.048,124.048,0,0,0,39,11.747L30.519,0,11.9,4.484,0,35.644,3.945,42.88a14.637,14.637,0,0,0,8.534-1.6" transform="translate(113 154)" fill="#104e8c"/>
      <path id="Fill_34" data-name="Fill 34" d="M.222,0A7.084,7.084,0,0,0,0,1.7V6H66l-.939-6Z" transform="translate(24 276)" fill="#d3ebf5"/>
      <path id="Fill_36" data-name="Fill 36" d="M11.39,14.636a4.031,4.031,0,0,0,3.77,3.058L24.117,18,28,4.815,5.962,0l-.38,1.106A37.433,37.433,0,0,1,0,11.576H7.483a4.03,4.03,0,0,1,3.907,3.06" transform="translate(63 241)" fill="#e98870"/>
      <path id="Fill_38" data-name="Fill 38" d="M62.12,6.373l-8.813-.3A3.974,3.974,0,0,1,49.6,3.036,3.971,3.971,0,0,0,45.753,0H38.391a36.736,36.736,0,0,1-15.7,12.048L3.838,19.6A6.462,6.462,0,0,0,0,24H65Z" transform="translate(24 252)" fill="#135cb0"/>
      <path id="Fill_40" data-name="Fill 40" d="M6.83,6.808,1.305.263A.745.745,0,0,0,.266.168a.719.719,0,0,0-.1,1.024L5.7,7.738a.745.745,0,0,0,1.039.094.72.72,0,0,0,.1-1.024" transform="translate(51 260)" fill="#fff"/>
      <path id="Fill_42" data-name="Fill 42" d="M6.807,6.7,1.189.235A.644.644,0,0,0,.212.214.825.825,0,0,0,.194,1.3L5.81,7.765a.645.645,0,0,0,.978.021A.827.827,0,0,0,6.807,6.7" transform="translate(54 259)" fill="#fff"/>
      <path id="Fill_44" data-name="Fill 44" d="M6.807,6.7,1.19.235A.645.645,0,0,0,.212.214.825.825,0,0,0,.194,1.3L5.81,7.765a.645.645,0,0,0,.978.021A.827.827,0,0,0,6.807,6.7" transform="translate(57 256)" fill="#fff"/>
      <path id="Fill_46" data-name="Fill 46" d="M16.423,21.109A46.451,46.451,0,0,0,23,10.579L22.5,0,0,17.034l3.02,9.508A10.383,10.383,0,0,0,4.207,29a24.426,24.426,0,0,0,12.216-7.891" transform="translate(107 61)" fill="#e98870"/>
      <path id="Fill_48" data-name="Fill 48" d="M12.6,10.4A25.327,25.327,0,0,1,0,18.193,10.991,10.991,0,0,0,9.151,23c6.193,0,11.13-4.924,10.837-10.808L19.381,0A45.621,45.621,0,0,1,12.6,10.4" transform="translate(111 72)" fill="#f7a87e"/>
      <g id="Group_52" data-name="Group 52" transform="translate(70)">
        <path id="Clip_51-2" data-name="Clip 51" d="M0,0H75.712V69.737H0Z" transform="translate(0.082 0.211)" fill="none"/>
        <g id="Group_52-2" data-name="Group 52" clip-path="url(#clip-path-2)">
          <path id="Fill_50" data-name="Fill 50" d="M18.355,67.619a14.533,14.533,0,0,1-10.414-5.3c-2.566-3.167-3.66-7.245-4.69-11.19C1.02,42.577-1.222,33.609.773,24.994A27.419,27.419,0,0,1,31.83,4.091C37.691.471,45.6-1.29,52.072,1.083A23.227,23.227,0,0,1,65.936,15.466c2.241,6.872,1.167,14.558,3.828,21.278,1.813,4.58,5.313,8.576,5.873,13.471.7,6.153-3.651,11.992-9.081,14.958s-11.767,3.668-17.92,4.313c-9.722,1.02-20.518-1.373-30.28-1.868" transform="translate(0.082 0.21)" fill="#090155"/>
        </g>
      </g>
      <path id="Fill_53" data-name="Fill 53" d="M44.428,2.663C36.312,3.447,27.935,2.177,20.083,0a16.789,16.789,0,0,0,7.723,5.57A36.5,36.5,0,0,1,9.681,1.221,12.047,12.047,0,0,0,14.643,6.7,40.87,40.87,0,0,1,0,.54,19.792,19.792,0,0,0,.5,3.274l6.51,24.691A20.307,20.307,0,0,0,26.7,43,26.126,26.126,0,0,0,52.974,15.881l-.067-1.5a31.707,31.707,0,0,1-8.48-11.719" transform="translate(77 42)" fill="#f7a87e"/>
      <path id="Fill_55" data-name="Fill 55" d="M0,14,2.565,0H6.891a4.141,4.141,0,0,1,3.953,5.275L9.486,10.15A5.234,5.234,0,0,1,4.456,14Z" transform="translate(129 46)" fill="#f7a87e"/>
      <path id="Fill_57" data-name="Fill 57" d="M.811,8a.815.815,0,0,1-.793-.659.826.826,0,0,1,.63-.978A14.4,14.4,0,0,0,9.519.358.8.8,0,0,1,10.648.145a.836.836,0,0,1,.209,1.15A16.04,16.04,0,0,1,.977,7.983.829.829,0,0,1,.811,8" transform="translate(80 47)" fill="#231f20"/>
      <path id="Fill_59" data-name="Fill 59" d="M13.062,6A20.867,20.867,0,0,1,.33,1.568.925.925,0,0,1,.142.365.733.733,0,0,1,1.228.157a19.206,19.206,0,0,0,13.91,4A.8.8,0,0,1,16,4.921a.845.845,0,0,1-.693.949A19.159,19.159,0,0,1,13.062,6" transform="translate(102 46)" fill="#231f20"/>
      <path id="Fill_61" data-name="Fill 61" d="M.883,6a.89.89,0,0,1-.75-.4A.828.828,0,0,1,.417,4.435L7.651.126A.908.908,0,0,1,8.867.4a.827.827,0,0,1-.284,1.166L1.349,5.873A.912.912,0,0,1,.883,6" transform="translate(84 55)" fill="#231f20"/>
      <path id="Fill_63" data-name="Fill 63" d="M8.209,4a.891.891,0,0,1-.284-.047L.507,1.379A.694.694,0,0,1,.053.457.82.82,0,0,1,1.075.047L8.493,2.621a.694.694,0,0,1,.454.922A.793.793,0,0,1,8.209,4" transform="translate(105 55)" fill="#231f20"/>
      <path id="Fill_65" data-name="Fill 65" d="M5.918,8a4.33,4.33,0,0,1-2.8-.949A7.316,7.316,0,0,1,1.168,3.639a8.978,8.978,0,0,0-1-2.214A.943.943,0,0,1,.306.188a.753.753,0,0,1,1.125.15A10.438,10.438,0,0,1,2.663,3,5.939,5.939,0,0,0,4.084,5.648a2.981,2.981,0,0,0,2.222.57,10.543,10.543,0,0,0,2.632-.752.79.79,0,0,1,1.019.544.906.906,0,0,1-.5,1.121,11.745,11.745,0,0,1-3.015.842C6.266,7.991,6.091,8,5.918,8" transform="translate(95 63)" fill="#231f20"/>
      <path id="Fill_67" data-name="Fill 67" d="M.81,3a.819.819,0,0,1-.74-.434A.7.7,0,0,1,.482,1.6,23.114,23.114,0,0,1,12.323.249a.742.742,0,0,1,.666.84.809.809,0,0,1-.931.6A21.317,21.317,0,0,0,1.137,2.937.876.876,0,0,1,.81,3" transform="translate(99 74)" fill="#231f20"/>
      <path id="Fill_69" data-name="Fill 69" d="M35,12.482,19.348,0,0,4.562,11.641,13A15.794,15.794,0,0,0,14.8,10.542Z" transform="translate(43 165)" fill="#e98870"/>
      <path id="Fill_71" data-name="Fill 71" d="M58.328,24.169l-3.576-6.618a4.5,4.5,0,0,0-3.289-2.305L37.9,13.18,23.367,1.89,3.156,0A15.77,15.77,0,0,1,0,2.4L34.216,26.562l9.441,8.674A6.708,6.708,0,0,0,48.195,37h1.6a6.689,6.689,0,0,0,5.6-3.008l2.693-4.108a5.576,5.576,0,0,0,.244-5.714" transform="translate(54 175)" fill="#f7a87e"/>
      <path id="Fill_73" data-name="Fill 73" d="M22.184,9,0,45.4,29.7,61,53.213,29.956A18.745,18.745,0,1,0,22.184,9" transform="translate(133 87)" fill="#df4d04"/>
      <path id="Fill_75" data-name="Fill 75" d="M28,10.474,7.233,0,0,9.955,20.561,22Z" transform="translate(128 133)" fill="#e98870"/>
      <path id="Fill_77" data-name="Fill 77" d="M87.7,0,76.736,15.94l-58.7-3.283-6.3-11.494L9.095,5.126H4.412A3.311,3.311,0,0,0,1.126,8.184L.019,21.7a5.634,5.634,0,0,0,2.424,5.112,11.944,11.944,0,0,0,9.2,1.836l5.784-1.213L75.016,39.547a21.209,21.209,0,0,0,22.463-9.763L108,12.562Z" transform="translate(40 143)" fill="#f7a87e"/>
    </g>
  </g>
</svg>
