<svg xmlns="http://www.w3.org/2000/svg" width="298" height="298" viewBox="0 0 298 298">
  <g id="Group_526" data-name="Group 526" transform="translate(-571 -412)">
    <circle id="Oval" cx="149" cy="149" r="149" transform="translate(571 412)" fill="#fa6400" opacity="0.14"/>
    <g id="Oval-2" data-name="Oval" transform="translate(571 412)" fill="none" stroke="#fa6400" stroke-miterlimit="10" stroke-width="16" opacity="0.075">
      <circle cx="149" cy="149" r="149" stroke="none"/>
      <circle cx="149" cy="149" r="141" fill="none"/>
    </g>
    <g id="Group_515" data-name="Group 515" transform="translate(-3325.974 -866.504)">
      <g id="Group_55" data-name="Group 55" transform="translate(4079.621 1402.669)">
        <path id="Path_93" data-name="Path 93" d="M4858.229,2094.688s1.4,5.774,6.018,2.732c4.993-3.287-.672-6.821-.672-6.821s4.426.438,5.1-2.924-5.277-4.047-5.277-4.047,4.163-.3,5.381-4.132-4.636-6.679-4.636-6.679,5.885,1.9,7.452-1.041-3.858-7.545-3.858-7.545,5.151,2.809,8.071.519-1.051-7.418-1.051-7.418,4.17,3.389,6.76,1.421.7-7.14.7-7.14,4.756,4.7,8.1,2.628,1.289-7.965,1.289-7.965,4.533,4.533,7.857,2.436.549-6.673.549-6.673,6.3,3.482,8.431-.291-1.191-7.554-1.191-7.554,7.087,2.679,8.208-.166-2.94-7.462-2.94-7.462,8.65-1.66,8.736-5.966-7.1-4.463-6.724-4.874,4.934-2.042,4.5-5.761-6.156-3.356-6.156-3.356,3.714-5.724.361-7.657-6.726,2.794-6.726,2.794-.143-4.333-3.309-3.527-2,6.08-2,6.08-5.742-3.511-6.866.85,4.67,5.645,4.67,5.645-6.422-.237-5.94,3.328,6.592,4.245,6.592,4.245-7.106-1.553-7.676,1.936a8.594,8.594,0,0,0,1.915,6.348s-5.287-3.439-7.664-1.48.431,6.692.431,6.692-5.041-5.072-8.259-3.112.818,7.469.818,7.469-4.322-3.345-7.369-1.636.228,5.669.228,5.669-4.878-4.688-7.278-2.151.635,7.024.635,7.024-3.434-4.245-5.71-2.636,2.018,6.689,2.018,6.689-4.909-5.762-7.7-2.045,3.781,6.688,3.781,6.688-7.878-2.174-9.169,1.907,3.126,7.084,3.126,7.084-6.062-1.9-7.093,2.72,5.461,4.5,5.461,4.5-6.872.751-6.579,4.348,5,4.348,5,4.348-6.352,1.574-6.07,5.459,5.358,3.371,5.358,3.371-3.572,6.485,1.8,10.51S4858.229,2094.688,4858.229,2094.688Z" transform="translate(-4842.487 -1998.117)" fill="#c780d8"/>
        <g id="Group_54" data-name="Group 54" transform="translate(4.958 2.719)">
          <path id="Path_94" data-name="Path 94" d="M4947.3,2033.073l-.117.037a6.252,6.252,0,0,0-4.028,7.869c3.4,10.543-2.1,15.045-17.528,24.326s-36.527,21.979-32.352,52.764a6.251,6.251,0,0,0,12.389-1.68c-3.071-22.633,11.249-31.25,26.409-40.372,13.946-8.391,29.752-17.9,22.979-38.88A6.252,6.252,0,0,0,4947.3,2033.073Z" transform="translate(-4890.47 -2030.538)" fill="#a7e359"/>
          <path id="Path_95" data-name="Path 95" d="M4943.719,2022.932c7.326,22.694-10.027,33.136-23.972,41.526-15.13,9.1-28.2,16.968-25.328,38.119a8.485,8.485,0,0,1-5.98,9.306,8.581,8.581,0,0,1-1.32.286,8.522,8.522,0,0,1-9.592-7.3c-4.377-32.267,18.375-45.957,33.432-55.017,15.746-9.474,19.335-13.015,16.536-21.68a8.539,8.539,0,0,1,5.507-10.735l.146-.045A8.568,8.568,0,0,1,4943.719,2022.932Z" transform="translate(-4876.977 -2017.03)" fill="#b973c8"/>
        </g>
        <path id="Path_96" data-name="Path 96" d="M4947.3,2033.073l-.117.037a6.252,6.252,0,0,0-4.028,7.869c3.4,10.543-2.1,15.045-17.528,24.326s-36.527,21.979-32.352,52.764a6.251,6.251,0,0,0,12.389-1.68c-3.071-22.633,11.249-31.25,26.409-40.372,13.946-8.391,29.752-17.9,22.979-38.88A6.252,6.252,0,0,0,4947.3,2033.073Z" transform="translate(-4885.512 -2027.819)" fill="#eea7f9"/>
        <path id="Path_97" data-name="Path 97" d="M4921.25,2532.887l-.031,0a1.546,1.546,0,0,0-1.3,1.759l.779,5.208a1.547,1.547,0,0,0,1.759,1.3l.03,0a1.547,1.547,0,0,0,1.3-1.759l-.779-5.208A1.547,1.547,0,0,0,4921.25,2532.887Z" transform="translate(-4908.773 -2455.999)" fill="#b973c8"/>
        <path id="Path_98" data-name="Path 98" d="M4969.18,2432.316l-.027-.015a1.548,1.548,0,0,0-2.086.663l-2.421,4.676a1.546,1.546,0,0,0,.662,2.085l.027.014a1.547,1.547,0,0,0,2.085-.662l2.422-4.676A1.547,1.547,0,0,0,4969.18,2432.316Z" transform="translate(-4946.937 -2369.738)" fill="#b973c8"/>
        <path id="Path_99" data-name="Path 99" d="M5120.813,2294.714l-.021-.023a1.548,1.548,0,0,0-2.187-.083l-3.859,3.581a1.547,1.547,0,0,0-.082,2.186l.021.023a1.547,1.547,0,0,0,2.187.083l3.86-3.58A1.547,1.547,0,0,0,5120.813,2294.714Z" transform="translate(-5075.186 -2251.635)" fill="#b973c8"/>
        <path id="Path_100" data-name="Path 100" d="M5295.3,2124.284l-.03,0a1.546,1.546,0,0,0-1.423,1.662l.408,5.247a1.547,1.547,0,0,0,1.663,1.421l.031,0a1.548,1.548,0,0,0,1.423-1.662l-.409-5.247A1.547,1.547,0,0,0,5295.3,2124.284Z" transform="translate(-5228.96 -2106.143)" fill="#b973c8"/>
        <path id="Path_101" data-name="Path 101" d="M4958.977,2402.84l-.021-.01a1.12,1.12,0,0,0-1.509.479l-1.752,3.383a1.119,1.119,0,0,0,.479,1.509l.02.01a1.12,1.12,0,0,0,1.509-.479l1.752-3.383A1.12,1.12,0,0,0,4958.977,2402.84Z" transform="translate(-4939.313 -2344.544)" fill="#b973c8"/>
        <path id="Path_102" data-name="Path 102" d="M5030.654,2298.453l-.033-.041a2.613,2.613,0,0,0-3.672-.428l-6.98,5.522a2.615,2.615,0,0,0-.429,3.673l.033.042a2.613,2.613,0,0,0,3.672.428l6.98-5.522A2.615,2.615,0,0,0,5030.654,2298.453Z" transform="translate(-4993.605 -2254.395)" fill="#b973c8"/>
        <path id="Path_103" data-name="Path 103" d="M5233.954,2166.719l-.036-.02a2.023,2.023,0,0,0-2.743.815l-3.283,6.057a2.024,2.024,0,0,0,.814,2.744l.036.019a2.022,2.022,0,0,0,2.743-.815l3.283-6.056A2.024,2.024,0,0,0,5233.954,2166.719Z" transform="translate(-5172.28 -2142.256)" fill="#b973c8"/>
        <path id="Path_104" data-name="Path 104" d="M5180.655,2237.365a1.8,1.8,0,1,0-1.2,2.242A1.8,1.8,0,0,0,5180.655,2237.365Z" transform="translate(-5129.026 -2201.877)" fill="#fff"/>
        <path id="Path_105" data-name="Path 105" d="M5223.405,2254.388a1.411,1.411,0,1,0-.943,1.759A1.411,1.411,0,0,0,5223.405,2254.388Z" transform="translate(-5166.283 -2216.689)" fill="#fff"/>
        <path id="Path_106" data-name="Path 106" d="M5272.33,2053.051a2.86,2.86,0,1,0-1.912,3.564A2.86,2.86,0,0,0,5272.33,2053.051Z" transform="translate(-5205.746 -2043.412)" fill="#fff"/>
        <path id="Path_107" data-name="Path 107" d="M5128.885,2271.11a1.051,1.051,0,1,0-.7,1.309A1.05,1.05,0,0,0,5128.885,2271.11Z" transform="translate(-5085.954 -2231.227)" fill="#fff"/>
        <path id="Path_108" data-name="Path 108" d="M5007.786,2388.225a2.576,2.576,0,1,0-1.722,3.209A2.576,2.576,0,0,0,5007.786,2388.225Z" transform="translate(-4979.707 -2330.577)" fill="#fff"/>
        <circle id="Ellipse_3" data-name="Ellipse 3" cx="1.942" cy="1.942" r="1.942" transform="translate(10.045 69.972) rotate(-62.377)" fill="#fff"/>
        <path id="Path_109" data-name="Path 109" d="M4947.971,2504.092a2.377,2.377,0,1,0-1.589,2.961A2.377,2.377,0,0,0,4947.971,2504.092Z" transform="translate(-4928.823 -2429.911)" fill="#fff"/>
        <path id="Path_110" data-name="Path 110" d="M4921.546,2611.684a2.7,2.7,0,1,0-1.8,3.364A2.7,2.7,0,0,0,4921.546,2611.684Z" transform="translate(-4905.657 -2521.839)" fill="#fff"/>
      </g>
      <g id="Group_57" data-name="Group 57" transform="translate(3951.548 1456.187)">
        <path id="Path_111" data-name="Path 111" d="M4054.218,2387.868s5.526,2.18,1.876,6.337c-3.945,4.492-6.663-1.607-6.663-1.607s-.177,4.445-3.6,4.651-3.28-5.785-3.28-5.785-.874,4.082-4.835,4.76-5.976-5.514-5.976-5.514,1.069,6.091-2.06,7.237-6.94-4.863-6.94-4.863,2.072,5.489-.6,8.065-7.2-2.064-7.2-2.064,2.781,4.6.475,6.891-7.167-.294-7.167-.294,4,5.359,1.485,8.385-8.067.177-8.067.177,3.864,5.115,1.329,8.119-6.685-.376-6.685-.376,2.579,6.723-1.451,8.309-7.318-2.222-7.318-2.222,1.675,7.389-1.3,8.107-6.985-3.943-6.985-3.943-2.837,8.338-7.115,7.829-3.44-7.651-3.9-7.331-2.7,4.6-6.328,3.667-2.475-6.561-2.475-6.561-6.182,2.889-7.634-.7,3.7-6.276,3.7-6.276-4.272-.739-3.037-3.764,6.3-1.147,6.3-1.147-2.685-6.171,1.79-6.683,4.946,5.4,4.946,5.4.651-6.394,4.116-5.425,3.295,7.115,3.295,7.115-.558-7.253,2.976-7.336a8.594,8.594,0,0,1,6.023,2.772s-2.677-5.711-.408-7.794,6.568,1.35,6.568,1.35-4.327-5.693-1.942-8.609,7.285,1.841,7.285,1.841-2.717-4.742-.6-7.524,5.583,1.007,5.583,1.007-3.97-5.478-1.126-7.5,6.87,1.6,6.87,1.6-3.73-3.986-1.824-6.019,6.347,2.921,6.347,2.921-5.03-5.657-.962-7.913,6.1,4.667,6.1,4.667-1.066-8.1,3.154-8.818,6.585,4.074,6.585,4.074-1.042-6.266,3.672-6.651,3.7,6.03,3.7,6.03,1.693-6.7,5.214-5.917,3.617,5.55,3.617,5.55,2.436-6.073,6.245-5.259,2.6,5.772,2.6,5.772,6.916-2.643,10.162,3.23S4054.218,2387.868,4054.218,2387.868Z" transform="translate(-3951.548 -2370.414)" fill="#c780d8"/>
        <g id="Group_56" data-name="Group 56" transform="translate(3.038 4.377)">
          <path id="Path_112" data-name="Path 112" d="M3989,2460.342c.017-.037.035-.074.052-.112a6.252,6.252,0,0,1,8.35-2.9c9.973,4.826,15.192-.007,26.512-14s26.809-33.145,56.723-24.762a6.251,6.251,0,0,1-3.374,12.039c-21.993-6.164-32.5,6.829-43.63,20.585-10.236,12.655-21.836,27-41.678,17.4A6.251,6.251,0,0,1,3989,2460.342Z" transform="translate(-3986.163 -2414.263)" fill="#a7e359"/>
          <path id="Path_113" data-name="Path 113" d="M3973.453,2445.994l.065-.139a8.54,8.54,0,0,1,11.393-3.972c8.2,3.967,12.2.9,23.754-13.386,11.051-13.663,27.75-34.308,59.1-25.521a8.522,8.522,0,0,1,5.908,10.508,8.573,8.573,0,0,1-.465,1.268,8.484,8.484,0,0,1-10.042,4.639c-20.553-5.76-30.144,6.1-41.249,19.826-10.234,12.653-22.971,28.4-44.437,18.012A8.568,8.568,0,0,1,3973.453,2445.994Z" transform="translate(-3972.682 -2400.866)" fill="#b973c8"/>
        </g>
        <path id="Path_114" data-name="Path 114" d="M3989,2460.342c.017-.037.035-.074.052-.112a6.252,6.252,0,0,1,8.35-2.9c9.973,4.826,15.192-.007,26.512-14s26.809-33.145,56.723-24.762a6.251,6.251,0,0,1-3.374,12.039c-21.993-6.164-32.5,6.829-43.63,20.585-10.236,12.655-21.836,27-41.678,17.4A6.251,6.251,0,0,1,3989,2460.342Z" transform="translate(-3983.125 -2409.886)" fill="#eea7f9"/>
        <path id="Path_115" data-name="Path 115" d="M4532.92,2443.657l.009-.03a1.546,1.546,0,0,1,1.921-1.046l5.051,1.49a1.546,1.546,0,0,1,1.045,1.922l-.008.03a1.547,1.547,0,0,1-1.922,1.046l-5.051-1.49A1.547,1.547,0,0,1,4532.92,2443.657Z" transform="translate(-4449.293 -2432.153)" fill="#b973c8"/>
        <path id="Path_116" data-name="Path 116" d="M4424.732,2481.091l-.01-.029a1.547,1.547,0,0,1,.944-1.974l4.965-1.753a1.547,1.547,0,0,1,1.974.944l.011.029a1.547,1.547,0,0,1-.944,1.974l-4.966,1.753A1.547,1.547,0,0,1,4424.732,2481.091Z" transform="translate(-4356.627 -2461.889)" fill="#b973c8"/>
        <path id="Path_117" data-name="Path 117" d="M4266.344,2611.387l-.02-.024a1.547,1.547,0,0,1,.22-2.177l4.079-3.329a1.547,1.547,0,0,1,2.176.221l.02.024a1.547,1.547,0,0,1-.22,2.177l-4.079,3.329A1.547,1.547,0,0,1,4266.344,2611.387Z" transform="translate(-4220.776 -2571.713)" fill="#b973c8"/>
        <path id="Path_118" data-name="Path 118" d="M4076.612,2757.746l.007-.031a1.546,1.546,0,0,1,1.842-1.179l5.14,1.129a1.547,1.547,0,0,1,1.178,1.843l-.007.031a1.547,1.547,0,0,1-1.842,1.18l-5.14-1.129A1.548,1.548,0,0,1,4076.612,2757.746Z" transform="translate(-4058.603 -2701)" fill="#b973c8"/>
        <path id="Path_119" data-name="Path 119" d="M4397.874,2465.528l-.007-.021a1.12,1.12,0,0,1,.683-1.428l3.593-1.269a1.12,1.12,0,0,1,1.428.683l.007.021a1.12,1.12,0,0,1-.683,1.428l-3.592,1.269A1.119,1.119,0,0,1,4397.874,2465.528Z" transform="translate(-4333.653 -2449.473)" fill="#b973c8"/>
        <path id="Path_120" data-name="Path 120" d="M4278.984,2525.021l-.036-.038a2.614,2.614,0,0,1,.082-3.7l6.433-6.151a2.616,2.616,0,0,1,3.7.082l.036.038a2.614,2.614,0,0,1-.083,3.7l-6.433,6.152A2.615,2.615,0,0,1,4278.984,2525.021Z" transform="translate(-4231.263 -2493.71)" fill="#b973c8"/>
        <path id="Path_121" data-name="Path 121" d="M4124.015,2708.184l-.015-.038a2.023,2.023,0,0,1,1.186-2.6l6.452-2.416a2.024,2.024,0,0,1,2.605,1.185l.014.039a2.022,2.022,0,0,1-1.186,2.6l-6.452,2.416A2.024,2.024,0,0,1,4124.015,2708.184Z" transform="translate(-4099.1 -2655.188)" fill="#b973c8"/>
        <path id="Path_122" data-name="Path 122" d="M4204.236,2659.994a1.8,1.8,0,1,1,2.387-.882A1.8,1.8,0,0,1,4204.236,2659.994Z" transform="translate(-4167.015 -2615.425)" fill="#fff"/>
        <path id="Path_123" data-name="Path 123" d="M4215.538,2704.387a1.411,1.411,0,1,1,1.873-.692A1.412,1.412,0,0,1,4215.538,2704.387Z" transform="translate(-4176.886 -2654.072)" fill="#fff"/>
        <path id="Path_124" data-name="Path 124" d="M4008.1,2726.171a2.86,2.86,0,1,1,3.793-1.4A2.86,2.86,0,0,1,4008.1,2726.171Z" transform="translate(-3998.547 -2670.357)" fill="#fff"/>
        <path id="Path_125" data-name="Path 125" d="M4245.46,2612.8a1.05,1.05,0,1,1,1.394-.515A1.05,1.05,0,0,1,4245.46,2612.8Z" transform="translate(-4202.686 -2576.242)" fill="#fff"/>
        <path id="Path_126" data-name="Path 126" d="M4376.824,2510.189a2.576,2.576,0,1,1,3.417-1.263A2.576,2.576,0,0,1,4376.824,2510.189Z" transform="translate(-4314.407 -2485.887)" fill="#fff"/>
        <circle id="Ellipse_4" data-name="Ellipse 4" cx="1.942" cy="1.942" r="1.942" transform="matrix(0.942, -0.337, 0.337, 0.942, 73.457, 9.449)" fill="#fff"/>
        <path id="Path_127" data-name="Path 127" d="M4500.011,2466.781a2.376,2.376,0,1,1,3.152-1.165A2.376,2.376,0,0,1,4500.011,2466.781Z" transform="translate(-4419.985 -2449.045)" fill="#fff"/>
        <path id="Path_128" data-name="Path 128" d="M4609.937,2455.7a2.7,2.7,0,1,1,3.581-1.323A2.7,2.7,0,0,1,4609.937,2455.7Z" transform="translate(-4513.947 -2439.031)" fill="#fff"/>
      </g>
      <g id="Group_82" data-name="Group 82" transform="translate(3989.907 1359.281)">
        <g id="Group_61" data-name="Group 61" transform="translate(83.888 25.246)">
          <g id="Group_58" data-name="Group 58">
            <path id="Path_129" data-name="Path 129" d="M4843.379,1897.763c-3.508,8.422-15.409,11.478-26.573,6.826s-17.375-15.252-13.864-23.672,15.4-11.479,26.57-6.827S4846.887,1889.339,4843.379,1897.763Z" transform="translate(-4801.961 -1871.913)" fill="#b51f18"/>
          </g>
          <g id="Group_59" data-name="Group 59" transform="translate(12.699 2.971)">
            <path id="Path_130" data-name="Path 130" d="M4911.959,1905.381a5.466,5.466,0,0,1-1.732,2.23c-2.634,2.056-7.309,2.346-11.852.452s-7.629-5.416-8.025-8.733a5.459,5.459,0,0,1,.364-2.8c1.637-3.928,7.716-5.126,13.584-2.682S4913.6,1901.454,4911.959,1905.381Z" transform="translate(-4890.304 -1892.58)" fill="#c52e25"/>
          </g>
          <g id="Group_60" data-name="Group 60" transform="translate(14.8 6.89)">
            <path id="Path_131" data-name="Path 131" d="M4921.41,1929.045a3.272,3.272,0,0,1-1.222,1.452c-1.9,1.3-5.4,1.332-8.875-.118s-5.919-3.951-6.333-6.218a3.276,3.276,0,0,1,.17-1.89c1.088-2.609,5.609-3.207,10.1-1.335S4922.5,1926.434,4921.41,1929.045Z" transform="translate(-4904.915 -1919.845)" fill="#a5100e"/>
          </g>
        </g>
        <g id="Group_65" data-name="Group 65" transform="translate(0 62.356)">
          <g id="Group_62" data-name="Group 62">
            <path id="Path_132" data-name="Path 132" d="M4271.71,2183.383c-9.858,9.859-28.448,7.254-41.518-5.816s-15.677-31.66-5.819-41.519,28.449-7.256,41.52,5.815S4281.569,2173.524,4271.71,2183.383Z" transform="translate(-4218.395 -2130.069)" fill="#c52e25"/>
          </g>
          <g id="Group_63" data-name="Group 63" transform="translate(21.797 7.566)">
            <path id="Path_133" data-name="Path 133" d="M4397.43,2210.1a8.342,8.342,0,0,1-3.746,2.142c-4.919,1.373-11.692-.938-17.009-6.258s-7.631-12.091-6.26-17.009a8.375,8.375,0,0,1,2.145-3.747c4.6-4.6,13.889-2.751,20.755,4.116S4402.027,2205.5,4397.43,2210.1Z" transform="translate(-4370.027 -2182.699)" fill="#d53d33"/>
          </g>
          <g id="Group_64" data-name="Group 64" transform="translate(24.168 13.112)">
            <path id="Path_134" data-name="Path 134" d="M4407.045,2241.8a5.018,5.018,0,0,1-2.573,1.343c-3.445.733-8.4-1.26-12.473-5.331s-6.062-9.027-5.329-12.473a5,5,0,0,1,1.341-2.571c3.056-3.053,9.791-1.267,15.044,3.988S4410.1,2238.75,4407.045,2241.8Z" transform="translate(-4386.521 -2221.282)" fill="#b51f18"/>
          </g>
        </g>
        <g id="Group_69" data-name="Group 69" transform="translate(40.244 136.088)">
          <g id="Group_66" data-name="Group 66">
            <path id="Path_135" data-name="Path 135" d="M4539.823,2652.051c3.475,8.436-2.778,19.009-13.961,23.615s-23.071,1.5-26.546-6.934,2.777-19.012,13.964-23.617S4536.347,2643.613,4539.823,2652.051Z" transform="translate(-4498.355 -2642.983)" fill="#c52e25"/>
          </g>
          <g id="Group_67" data-name="Group 67" transform="translate(7.665 2.956)">
            <path id="Path_136" data-name="Path 136" d="M4573.361,2667.529a5.477,5.477,0,0,1,.352,2.8c-.41,3.317-3.51,6.825-8.062,8.7s-9.226,1.567-11.85-.5a5.478,5.478,0,0,1-1.724-2.237c-1.621-3.935,1.833-9.082,7.71-11.5S4571.741,2663.594,4573.361,2667.529Z" transform="translate(-4551.677 -2663.549)" fill="#d53d33"/>
          </g>
          <g id="Group_68" data-name="Group 68" transform="translate(10.891 6.878)">
            <path id="Path_137" data-name="Path 137" d="M4590.637,2693.278a3.288,3.288,0,0,1,.164,1.892c-.424,2.265-2.875,4.758-6.358,6.192s-6.978,1.391-8.876.081a3.282,3.282,0,0,1-1.216-1.458c-1.076-2.614,1.7-6.233,6.195-8.083S4589.56,2690.664,4590.637,2693.278Z" transform="translate(-4574.119 -2690.833)" fill="#b51f18"/>
          </g>
        </g>
        <g id="Group_75" data-name="Group 75" transform="translate(79.256 72.428)">
          <g id="Group_73" data-name="Group 73">
            <g id="Group_70" data-name="Group 70">
              <path id="Path_138" data-name="Path 138" d="M4823.054,2206.11c9.859,9.861,7.254,28.449-5.816,41.52s-31.66,15.676-41.521,5.817-7.253-28.448,5.817-41.519S4813.193,2196.251,4823.054,2206.11Z" transform="translate(-4769.738 -2200.131)" fill="#d53d33"/>
            </g>
            <g id="Group_71" data-name="Group 71" transform="translate(7.566 7.566)">
              <path id="Path_139" data-name="Path 139" d="M4849.77,2255.291a8.365,8.365,0,0,1,2.142,3.748c1.371,4.918-.939,11.689-6.259,17.009s-12.091,7.63-17.007,6.258a8.34,8.34,0,0,1-3.749-2.142c-4.6-4.6-2.752-13.889,4.118-20.756S4845.172,2250.7,4849.77,2255.291Z" transform="translate(-4822.368 -2252.763)" fill="#e54d42"/>
            </g>
            <g id="Group_72" data-name="Group 72" transform="translate(13.112 13.112)">
              <path id="Path_140" data-name="Path 140" d="M4881.476,2292.836a4.987,4.987,0,0,1,1.34,2.57c.733,3.446-1.26,8.4-5.329,12.474s-9.027,6.064-12.475,5.33a5,5,0,0,1-2.57-1.342c-3.053-3.054-1.267-9.789,3.988-15.043S4878.419,2289.781,4881.476,2292.836Z" transform="translate(-4860.952 -2291.344)" fill="#c52e25"/>
            </g>
          </g>
          <g id="Group_74" data-name="Group 74" transform="translate(40.927 17.771)">
            <path id="Path_141" data-name="Path 141" d="M5063.968,2328.516a4.76,4.76,0,1,1-4.759-4.76A4.761,4.761,0,0,1,5063.968,2328.516Z" transform="translate(-5054.448 -2323.756)" fill="#fff"/>
          </g>
        </g>
        <g id="Group_81" data-name="Group 81" transform="translate(1.756 0)">
          <g id="Group_79" data-name="Group 79">
            <g id="Group_76" data-name="Group 76">
              <path id="Path_142" data-name="Path 142" d="M4297.554,1721.536c0,13.943-14.987,25.246-33.471,25.246s-33.472-11.3-33.472-25.246,14.985-25.246,33.472-25.246S4297.554,1707.593,4297.554,1721.536Z" transform="translate(-4230.611 -1696.29)" fill="#d53d33"/>
            </g>
            <g id="Group_77" data-name="Group 77" transform="translate(15.886 3.415)">
              <path id="Path_143" data-name="Path 143" d="M4376.291,1731.811a8.33,8.33,0,0,1-1.134,4.164c-2.507,4.449-8.929,7.6-16.451,7.6s-13.945-3.154-16.451-7.6a8.335,8.335,0,0,1-1.135-4.164c0-6.5,7.875-11.767,17.586-11.767S4376.291,1725.31,4376.291,1731.811Z" transform="translate(-4341.119 -1720.044)" fill="#e54d42"/>
            </g>
            <g id="Group_78" data-name="Group 78" transform="translate(20.013 9.609)">
              <path id="Path_144" data-name="Path 144" d="M4396.748,1770.956a4.99,4.99,0,0,1-.868,2.767c-1.917,2.956-6.832,5.051-12.588,5.051s-10.671-2.1-12.588-5.051a5,5,0,0,1-.87-2.767c0-4.32,6.027-7.818,13.458-7.818S4396.748,1766.637,4396.748,1770.956Z" transform="translate(-4369.833 -1763.138)" fill="#c52e25"/>
            </g>
          </g>
          <g id="Group_80" data-name="Group 80" transform="translate(48.659 22.188)">
            <path id="Path_145" data-name="Path 145" d="M4578.63,1855.4a4.761,4.761,0,1,1-4.76-4.76A4.761,4.761,0,0,1,4578.63,1855.4Z" transform="translate(-4569.108 -1850.642)" fill="#fff"/>
          </g>
        </g>
      </g>
      <g id="Group_84" data-name="Group 84" transform="translate(4009.099 1302.703)">
        <path id="Path_146" data-name="Path 146" d="M4414.928,1399.273s-1.4,5.774-6.018,2.733c-4.994-3.287.672-6.821.672-6.821s-4.427.438-5.1-2.924,5.277-4.047,5.277-4.047-4.163-.3-5.382-4.132,4.636-6.679,4.636-6.679-5.885,1.9-7.451-1.041,3.858-7.545,3.858-7.545-5.15,2.809-8.071.518,1.05-7.418,1.05-7.418-4.17,3.389-6.76,1.421-.7-7.14-.7-7.14-4.756,4.7-8.1,2.628-1.289-7.965-1.289-7.965-4.533,4.533-7.857,2.436-.55-6.673-.55-6.673-6.3,3.482-8.43-.291,1.191-7.554,1.191-7.554-7.087,2.679-8.208-.166,2.941-7.462,2.941-7.462-8.65-1.66-8.736-5.966,7.1-4.463,6.723-4.874-4.934-2.042-4.5-5.761,6.157-3.356,6.157-3.356-3.714-5.724-.362-7.657,6.725,2.794,6.725,2.794.143-4.333,3.31-3.527,2,6.08,2,6.08,5.742-3.511,6.866.85-4.671,5.645-4.671,5.645,6.423-.237,5.94,3.328-6.592,4.245-6.592,4.245,7.106-1.553,7.676,1.936a8.594,8.594,0,0,1-1.915,6.348s5.286-3.439,7.664-1.48-.431,6.692-.431,6.692,5.041-5.071,8.259-3.111-.818,7.469-.818,7.469,4.322-3.345,7.369-1.636-.228,5.669-.228,5.669,4.878-4.688,7.278-2.151-.635,7.024-.635,7.024,3.433-4.245,5.709-2.636-2.017,6.689-2.017,6.689,4.909-5.762,7.7-2.045-3.78,6.688-3.78,6.688,7.877-2.174,9.169,1.907-3.126,7.084-3.126,7.084,6.063-1.9,7.093,2.72-5.461,4.5-5.461,4.5,6.873.752,6.579,4.348-5,4.348-5,4.348,6.352,1.574,6.07,5.459-5.358,3.371-5.358,3.371,3.572,6.485-1.8,10.51S4414.928,1399.273,4414.928,1399.273Z" transform="translate(-4351.9 -1302.703)" fill="#c780d8"/>
        <g id="Group_83" data-name="Group 83" transform="translate(5.331 2.719)">
          <path id="Path_147" data-name="Path 147" d="M4414.236,1337.659l.118.036a6.252,6.252,0,0,1,4.028,7.869c-3.4,10.543,2.1,15.045,17.528,24.327s36.527,21.979,32.352,52.764a6.251,6.251,0,0,1-12.389-1.681c3.071-22.633-11.249-31.25-26.409-40.372-13.946-8.391-29.752-17.9-22.979-38.88A6.251,6.251,0,0,1,4414.236,1337.659Z" transform="translate(-4402.583 -1335.124)" fill="#a7e359"/>
          <path id="Path_148" data-name="Path 148" d="M4401.3,1321.974l.146.045a8.538,8.538,0,0,1,5.506,10.735c-2.8,8.665.791,12.206,16.537,21.68,15.057,9.06,37.809,22.75,33.432,55.017a8.521,8.521,0,0,1-9.592,7.3,8.519,8.519,0,0,1-7.3-9.592c2.869-21.151-10.2-29.015-25.329-38.119-13.944-8.39-31.3-18.832-23.972-41.526A8.568,8.568,0,0,1,4401.3,1321.974Z" transform="translate(-4388.988 -1321.615)" fill="#b973c8"/>
        </g>
        <path id="Path_149" data-name="Path 149" d="M4414.236,1337.659l.118.036a6.252,6.252,0,0,1,4.028,7.869c-3.4,10.543,2.1,15.045,17.528,24.327s36.527,21.979,32.352,52.764a6.251,6.251,0,0,1-12.389-1.681c3.071-22.633-11.249-31.25-26.409-40.372-13.946-8.391-29.752-17.9-22.979-38.88A6.251,6.251,0,0,1,4414.236,1337.659Z" transform="translate(-4397.252 -1332.405)" fill="#eea7f9"/>
        <path id="Path_150" data-name="Path 150" d="M4797.832,1837.472l.031,0a1.547,1.547,0,0,1,1.3,1.759l-.779,5.208a1.547,1.547,0,0,1-1.759,1.3l-.031,0a1.547,1.547,0,0,1-1.3-1.759l.78-5.208A1.546,1.546,0,0,1,4797.832,1837.472Z" transform="translate(-4731.541 -1760.584)" fill="#b973c8"/>
        <path id="Path_151" data-name="Path 151" d="M4740.139,1736.9l.028-.015a1.547,1.547,0,0,1,2.085.663l2.421,4.676a1.547,1.547,0,0,1-.662,2.085l-.028.015a1.547,1.547,0,0,1-2.085-.662l-2.422-4.676A1.547,1.547,0,0,1,4740.139,1736.9Z" transform="translate(-4683.613 -1674.323)" fill="#b973c8"/>
        <path id="Path_152" data-name="Path 152" d="M4579.98,1599.3l.021-.023a1.547,1.547,0,0,1,2.186-.082l3.86,3.58a1.547,1.547,0,0,1,.082,2.186l-.021.023a1.547,1.547,0,0,1-2.186.082l-3.86-3.58A1.547,1.547,0,0,1,4579.98,1599.3Z" transform="translate(-4546.84 -1556.22)" fill="#b973c8"/>
        <path id="Path_153" data-name="Path 153" d="M4425.984,1428.869l.031,0a1.546,1.546,0,0,1,1.422,1.661l-.409,5.247a1.547,1.547,0,0,1-1.663,1.421l-.031,0a1.547,1.547,0,0,1-1.423-1.662l.409-5.247A1.547,1.547,0,0,1,4425.984,1428.869Z" transform="translate(-4413.556 -1410.728)" fill="#b973c8"/>
        <path id="Path_154" data-name="Path 154" d="M4759.472,1707.425l.02-.01a1.119,1.119,0,0,1,1.509.479l1.752,3.383a1.119,1.119,0,0,1-.479,1.509l-.021.01a1.12,1.12,0,0,1-1.509-.479l-1.752-3.383A1.119,1.119,0,0,1,4759.472,1707.425Z" transform="translate(-4700.364 -1649.129)" fill="#b973c8"/>
        <path id="Path_155" data-name="Path 155" d="M4638.767,1603.038l.032-.041a2.614,2.614,0,0,1,3.672-.428l6.98,5.522a2.615,2.615,0,0,1,.429,3.674l-.033.041a2.614,2.614,0,0,1-3.672.428l-6.98-5.522A2.615,2.615,0,0,1,4638.767,1603.038Z" transform="translate(-4597.046 -1558.979)" fill="#b973c8"/>
        <path id="Path_156" data-name="Path 156" d="M4464.515,1471.3l.035-.02a2.023,2.023,0,0,1,2.743.815l3.283,6.057a2.024,2.024,0,0,1-.814,2.744l-.036.019a2.023,2.023,0,0,1-2.743-.815l-3.282-6.057A2.024,2.024,0,0,1,4464.515,1471.3Z" transform="translate(-4447.419 -1446.841)" fill="#b973c8"/>
        <path id="Path_157" data-name="Path 157" d="M4540.244,1541.951a1.8,1.8,0,1,1,1.2,2.242A1.8,1.8,0,0,1,4540.244,1541.951Z" transform="translate(-4513.104 -1506.462)" fill="#fff"/>
        <path id="Path_158" data-name="Path 158" d="M4502.119,1558.973a1.411,1.411,0,1,1,.943,1.759A1.412,1.412,0,0,1,4502.119,1558.973Z" transform="translate(-4480.473 -1521.274)" fill="#fff"/>
        <path id="Path_159" data-name="Path 159" d="M4435.933,1357.636a2.86,2.86,0,1,1,1.912,3.564A2.86,2.86,0,0,1,4435.933,1357.636Z" transform="translate(-4423.748 -1347.997)" fill="#fff"/>
        <path id="Path_160" data-name="Path 160" d="M4600.938,1575.695a1.051,1.051,0,1,1,.7,1.31A1.05,1.05,0,0,1,4600.938,1575.695Z" transform="translate(-4565.1 -1535.812)" fill="#fff"/>
        <path id="Path_161" data-name="Path 161" d="M4703.863,1692.81a2.576,2.576,0,1,1,1.722,3.21A2.576,2.576,0,0,1,4703.863,1692.81Z" transform="translate(-4653.174 -1635.162)" fill="#fff"/>
        <circle id="Ellipse_5" data-name="Ellipse 5" cx="1.942" cy="1.942" r="1.942" transform="translate(63.483 68.332) rotate(-27.623)" fill="#fff"/>
        <path id="Path_162" data-name="Path 162" d="M4766.056,1808.677a2.376,2.376,0,1,1,1.589,2.961A2.377,2.377,0,0,1,4766.056,1808.677Z" transform="translate(-4706.433 -1734.496)" fill="#fff"/>
        <path id="Path_163" data-name="Path 163" d="M4788.629,1916.269a2.7,2.7,0,1,1,1.806,3.364A2.7,2.7,0,0,1,4788.629,1916.269Z" transform="translate(-4725.75 -1826.424)" fill="#fff"/>
      </g>
    </g>
  </g>
</svg>
