<?xml version="1.0" encoding="UTF-8"?>
<svg width="298px" height="298px" viewBox="0 0 298 298" version="1.1" xmlns="http://www.w3.org/2000/svg" xmlns:xlink="http://www.w3.org/1999/xlink">
    <!-- Generator: Sketch 61.1 (89650) - https://sketch.com -->
    <title>Group 3</title>
    <desc>Created with Sketch.</desc>
    <g id="Page-1" stroke="none" stroke-width="1" fill="none" fill-rule="evenodd">
        <g id="Slide_7-Copy-2" transform="translate(-571.000000, -421.000000)">
            <g id="Group-3" transform="translate(571.000000, 421.000000)">
                <g id="Group-2">
                    <g id="Group">
                        <circle id="Oval" fill="#FEE9DB" cx="149" cy="149" r="149"></circle>
                        <circle id="Oval" stroke="#FA5100" stroke-width="16" cx="149" cy="149" r="141"></circle>
                    </g>
                </g>
                <g id="slide-13" transform="translate(52.000000, 23.000000)" fill-rule="nonzero">
                    <g id="Group_55" transform="translate(128.073000, 99.966000)">
                        <path d="M15.742,96.571 C15.742,96.571 17.142,102.345 21.76,99.303 C26.753,96.016 21.088,92.482 21.088,92.482 C21.088,92.482 25.514,92.92 26.188,89.558 C26.862,86.196 20.911,85.511 20.911,85.511 C20.911,85.511 25.074,85.211 26.292,81.379 C27.51,77.547 21.656,74.7 21.656,74.7 C21.656,74.7 27.541,76.6 29.108,73.659 C30.675,70.718 25.25,66.114 25.25,66.114 C25.25,66.114 30.401,68.923 33.321,66.633 C36.241,64.343 32.27,59.215 32.27,59.215 C32.27,59.215 36.44,62.604 39.03,60.636 C41.62,58.668 39.73,53.496 39.73,53.496 C39.73,53.496 44.486,58.196 47.83,56.124 C51.174,54.052 49.119,48.159 49.119,48.159 C49.119,48.159 53.652,52.692 56.976,50.595 C60.3,48.498 57.525,43.922 57.525,43.922 C57.525,43.922 63.825,47.404 65.956,43.631 C68.087,39.858 64.765,36.077 64.765,36.077 C64.765,36.077 71.852,38.756 72.973,35.911 C74.094,33.066 70.033,28.449 70.033,28.449 C70.033,28.449 78.683,26.789 78.7697659,22.483 C78.855,18.177 71.669,18.02 72.045,17.609 C72.421,17.198 76.979,15.567 76.545,11.848 C76.111,8.129 70.389,8.492 70.389,8.492 C70.389,8.492 74.103,2.768 70.75,0.835 C67.397,-1.098 64.024,3.629 64.024,3.629 C64.024,3.629 63.881,-0.704 60.715,0.102 C57.549,0.908 58.715,6.182 58.715,6.182 C58.715,6.182 52.973,2.671 51.849,7.032 C50.725,11.393 56.519,12.677 56.519,12.677 C56.519,12.677 50.097,12.44 50.579,16.005 C51.061,19.57 57.171,20.25 57.171,20.25 C57.171,20.25 50.065,18.697 49.495,22.186 C49.2584879,24.4729716 49.9482198,26.7593519 51.41,28.534 C51.41,28.534 46.123,25.095 43.746,27.054 C41.369,29.013 44.177,33.746 44.177,33.746 C44.177,33.746 39.136,28.674 35.918,30.634 C32.7,32.594 36.736,38.103 36.736,38.103 C36.736,38.103 32.414,34.758 29.367,36.467 C26.32,38.176 29.595,42.136 29.595,42.136 C29.595,42.136 24.717,37.448 22.317,39.985 C19.917,42.522 22.952,47.009 22.952,47.009 C22.952,47.009 19.518,42.764 17.242,44.373 C14.966,45.982 19.26,51.062 19.26,51.062 C19.26,51.062 14.351,45.3 11.56,49.017 C8.769,52.734 15.341,55.705 15.341,55.705 C15.341,55.705 7.463,53.531 6.172,57.612 C4.881,61.693 9.298,64.696 9.298,64.696 C9.298,64.696 3.236,62.796 2.205,67.416 C1.174,72.036 7.666,71.916 7.666,71.916 C7.666,71.916 0.794,72.667 1.087,76.264 C1.38,79.861 6.087,80.612 6.087,80.612 C6.087,80.612 -0.265,82.186 0.017,86.071 C0.299,89.956 5.375,89.442 5.375,89.442 C5.375,89.442 1.803,95.927 7.175,99.952 C12.547,103.977 15.742,96.571 15.742,96.571 Z" id="Path_93" fill="#C780D8"></path>
                        <g id="Group_54" transform="translate(4.958000, 2.719000)">
                            <path d="M56.83,2.535 L56.713,2.572 C53.4281843,3.63319182 51.6250294,7.15578999 52.685,10.441 C56.085,20.984 50.585,25.486 35.157,34.767 C19.729,44.048 -1.37,56.746 2.805,87.531 C3.1051031,89.7440817 4.56307482,91.6289504 6.62971134,92.4755944 C8.69634786,93.3222383 11.0576779,93.0020321 12.8242113,91.6355944 C14.5907448,90.2691566 15.4941031,88.0640817 15.194,85.851 C12.123,63.218 26.443,54.601 41.603,45.479 C55.549,37.088 71.355,27.579 64.582,6.599 C63.5352869,3.3598292 60.0894811,1.55335928 56.83,2.535 L56.83,2.535 Z" id="Path_94" fill="#A7E359"></path>
                            <path d="M66.742,5.902 C74.068,28.596 56.715,39.038 42.77,47.428 C27.64,56.528 14.57,64.396 17.442,85.547 C18.0224899,89.7006027 15.4812843,93.6551946 11.462,94.853 C11.0301977,94.9828665 10.5888309,95.078496 10.142,95.139 C7.90191896,95.4433196 5.63271002,94.8451118 3.83377091,93.4760276 C2.03483179,92.1069434 0.853587071,90.0791804 0.55,87.839 C-3.827,55.572 18.925,41.882 33.982,32.822 C49.728,23.348 53.317,19.807 50.518,11.142 C49.0788885,6.65726815 51.5428586,1.85415945 56.025,0.407 L56.171,0.362 C60.6129111,-0.95262547 65.2953395,1.50131961 66.742,5.902 Z" id="Path_95" fill="#B973C8"></path>
                        </g>
                        <path d="M61.788,5.254 L61.671,5.291 C58.3861843,6.35219182 56.5830294,9.87478999 57.643,13.16 C61.043,23.703 55.543,28.205 40.115,37.486 C24.687,46.767 3.588,59.465 7.763,90.25 C8.0631031,92.4630817 9.52107482,94.3479504 11.5877113,95.1945944 C13.6543479,96.0412383 16.0156779,95.7210321 17.7822113,94.3545944 C19.5487448,92.9881566 20.4521031,90.7830817 20.152,88.57 C17.081,65.937 31.401,57.32 46.561,48.198 C60.507,39.807 76.313,30.298 69.54,9.318 C68.4932869,6.0788292 65.0474811,4.27235928 61.788,5.254 L61.788,5.254 Z" id="Path_96" fill="#EEA7F9"></path>
                        <path d="M12.477,76.888 L12.446,76.888 C12.0402768,76.9487114 11.6753191,77.1681907 11.4314917,77.4981079 C11.1876643,77.8280251 11.084962,78.2413258 11.146,78.647 L11.925,83.855 C12.0519427,84.6996032 12.839335,85.2815303 13.684,85.155 L13.714,85.155 C14.5586032,85.0280573 15.1405303,84.240665 15.014,83.396 L14.235,78.188 C14.1080426,77.3438479 13.3213068,76.7620751 12.477,76.888 Z" id="Path_97" fill="#B973C8"></path>
                        <path d="M22.243,62.578 L22.216,62.563 C21.4568712,62.1702074 20.5230528,62.4670059 20.13,63.226 L17.709,67.902 C17.5200672,68.2662326 17.4836779,68.6906319 17.6078478,69.0817109 C17.7320177,69.47279 18.0065606,69.7984664 18.371,69.987 L18.398,70.001 C19.1565709,70.3938593 20.0899903,70.097493 20.483,69.339 L22.905,64.663 C23.2978593,63.9044291 23.001493,62.9710097 22.243,62.578 Z" id="Path_98" fill="#B973C8"></path>
                        <path d="M45.627,43.079 L45.606,43.056 C45.0248857,42.429398 44.0459354,42.3922453 43.419,42.973 L39.56,46.554 C38.9338055,47.1350478 38.8970959,48.1136722 39.478,48.74 L39.499,48.763 C39.7779303,49.0641541 40.1651141,49.2421055 40.5753014,49.2576727 C40.9854887,49.27324 41.3850464,49.1251467 41.686,48.846 L45.546,45.266 C45.8468763,44.986797 46.0244588,44.5994663 46.0396508,44.1892834 C46.0548427,43.7791004 45.9063986,43.3796947 45.627,43.079 Z" id="Path_99" fill="#B973C8"></path>
                        <path d="M66.34,18.141 L66.31,18.141 C65.9007895,18.1724033 65.5208588,18.3652295 65.2539351,18.6769844 C64.9870114,18.9887393 64.8550025,19.3938356 64.887,19.803 L65.295,25.05 C65.3619648,25.9015526 66.1064249,26.5376788 66.958,26.471 L66.989,26.471 C67.8406617,26.4045345 68.4774996,25.6607365 68.412,24.809 L68.003,19.562 C67.9360352,18.7104474 67.1915751,18.0743212 66.34,18.141 L66.34,18.141 Z" id="Path_100" fill="#B973C8"></path>
                        <path d="M19.664,58.296 L19.643,58.286 C19.0940031,58.001876 18.4186223,58.2162613 18.134,58.765 L16.382,62.148 C16.2452793,62.4116007 16.2189397,62.7187353 16.3087817,63.0017658 C16.3986237,63.2847963 16.5972793,63.5205109 16.861,63.657 L16.881,63.667 C17.4299969,63.951124 18.1053777,63.7367387 18.39,63.188 L20.142,59.805 C20.4262731,59.2562682 20.2123648,58.5809804 19.664,58.296 L19.664,58.296 Z" id="Path_101" fill="#B973C8"></path>
                        <path d="M37.049,44.058 L37.016,44.017 C36.5859882,43.4730608 35.9574137,43.1223373 35.2686933,43.0420616 C34.5799728,42.9617859 33.8875854,43.1585411 33.344,43.589 L26.364,49.111 C25.2313378,50.0068471 25.0392755,51.6512409 25.935,52.784 L25.968,52.826 C26.3980118,53.3699392 27.0265863,53.7206627 27.7153067,53.8009384 C28.4040272,53.8812141 29.0964146,53.6844589 29.64,53.254 L36.62,47.732 C37.1642197,47.3017747 37.5151827,46.6729297 37.5956411,45.9838758 C37.6760995,45.2948218 37.4794588,44.6020351 37.049,44.058 L37.049,44.058 Z" id="Path_102" fill="#B973C8"></path>
                        <path d="M61.674,24.463 L61.638,24.443 C61.1662017,24.1872232 60.6121043,24.1293969 60.0976611,24.2822483 C59.5832178,24.4350996 59.1505914,24.7861012 58.895,25.258 L55.612,31.315 C55.0791201,32.2975224 55.4435439,33.5259978 56.426,34.059 L56.462,34.078 C56.9337433,34.3340491 57.4879357,34.392024 58.0024571,34.2391494 C58.5169784,34.0862748 58.9496034,33.7350969 59.205,33.263 L62.488,27.207 C63.0208799,26.2244776 62.6564561,24.9960022 61.674,24.463 L61.674,24.463 Z" id="Path_103" fill="#B973C8"></path>
                        <path d="M51.629,35.488 C51.4186808,34.7906542 50.8088294,34.2887915 50.0840427,34.2166141 C49.359256,34.1444367 48.6624079,34.5161727 48.3186937,35.1583454 C47.9749795,35.8005182 48.0521539,36.5865392 48.5142024,37.1495991 C48.9762509,37.7126591 49.7320918,37.9417647 50.429,37.73 C51.3787756,37.4413983 51.9156318,36.4383719 51.629,35.488 L51.629,35.488 Z" id="Path_104" fill="#FFFFFF"></path>
                        <path d="M57.122,37.699 C56.8965904,36.9531105 56.1092383,36.5311372 55.3633207,36.7564539 C54.6174031,36.9817706 54.1953318,37.7690702 54.4205556,38.5150158 C54.6457793,39.2609615 55.4330263,39.6831309 56.179,39.458 C56.5373482,39.3498524 56.8380402,39.1037487 57.0148971,38.7738533 C57.191754,38.4439579 57.2302815,38.0573078 57.122,37.699 Z" id="Path_105" fill="#FFFFFF"></path>
                        <path d="M66.584,9.639 C66.2499401,8.53150174 65.2816221,7.73429566 64.1305856,7.61912947 C62.979549,7.50396328 61.8724796,8.09351786 61.3256185,9.11287615 C60.7787574,10.1322344 60.8998037,11.3806434 61.6323118,12.2759535 C62.36482,13.1712636 63.5645295,13.537152 64.672,13.203 C66.1841106,12.7467578 67.0401165,11.1511486 66.584,9.639 L66.584,9.639 Z" id="Path_106" fill="#FFFFFF"></path>
                        <path d="M42.931,39.883 C42.8081368,39.4757941 42.4519521,39.1827864 42.0286979,39.1407403 C41.6054437,39.0986942 41.1985744,39.3159001 40.9979993,39.6909756 C40.7974242,40.066051 40.8426913,40.5250412 41.1126719,40.8537089 C41.3826526,41.1823766 41.8241137,41.3159173 42.231,41.192 C42.785633,41.0236622 43.0989557,40.4377488 42.931,39.883 Z" id="Path_107" fill="#FFFFFF"></path>
                        <path d="M28.079,57.648 C27.778464,56.6502331 26.9064042,55.9318069 25.8695607,55.8278048 C24.8327173,55.7238027 23.8353411,56.2547125 23.3426214,57.1729107 C22.8499017,58.091109 22.9589009,59.2157172 23.6187803,60.0222034 C24.2786597,60.8286895 25.3594277,61.1581815 26.357,60.857 C27.7183427,60.4459909 28.4891282,59.0096084 28.079,57.648 L28.079,57.648 Z" id="Path_108" fill="#FFFFFF"></path>
                        <circle id="Ellipse_3" fill="#FFFFFF" transform="translate(12.666058, 69.151766) rotate(-62.377000) translate(-12.666058, -69.151766) " cx="12.6660577" cy="69.1517656" r="1.942"></circle>
                        <path d="M19.148,74.181 C18.8707181,73.2602908 18.0660422,72.5973261 17.10929,72.5013264 C16.1525378,72.4053268 15.2321868,72.8952039 14.777508,73.7424688 C14.3228292,74.5897337 14.423393,75.6274777 15.0322944,76.3716751 C15.6411957,77.1158725 16.6384828,77.4199187 17.559,77.142 C18.8151368,76.7627525 19.5263786,75.4373988 19.148,74.181 Z" id="Path_109" fill="#FFFFFF"></path>
                        <path d="M15.889,89.845 C15.5731833,88.7992017 14.6582914,88.0467683 13.5711983,87.9387733 C12.4841053,87.8307783 11.4390582,88.3885057 10.9236595,89.3517286 C10.4082607,90.3149515 10.5240865,91.4938356 11.2170943,92.3383321 C11.9101021,93.1828287 13.0437122,93.5265022 14.089,93.209 C15.514175,92.7761085 16.3195934,91.270871 15.889,89.845 L15.889,89.845 Z" id="Path_110" fill="#FFFFFF"></path>
                    </g>
                    <g id="Group_57" transform="translate(0.000000, 153.484000)">
                        <path d="M102.67,17.454 C102.67,17.454 108.196,19.634 104.546,23.791 C100.601,28.283 97.883,22.184 97.883,22.184 C97.883,22.184 97.706,26.629 94.283,26.835 C90.86,27.041 91.003,21.05 91.003,21.05 C91.003,21.05 90.129,25.132 86.168,25.81 C82.207,26.488 80.192,20.296 80.192,20.296 C80.192,20.296 81.261,26.387 78.132,27.533 C75.003,28.679 71.192,22.67 71.192,22.67 C71.192,22.67 73.264,28.159 70.592,30.735 C67.92,33.311 63.392,28.671 63.392,28.671 C63.392,28.671 66.173,33.271 63.867,35.562 C61.561,37.853 56.7,35.268 56.7,35.268 C56.7,35.268 60.7,40.627 58.185,43.653 C55.67,46.679 50.118,43.83 50.118,43.83 C50.118,43.83 53.982,48.945 51.447,51.949 C48.912,54.953 44.762,51.573 44.762,51.573 C44.762,51.573 47.341,58.296 43.311,59.882 C39.281,61.468 35.993,57.66 35.993,57.66 C35.993,57.66 37.668,65.049 34.693,65.767 C31.718,66.485 27.708,61.824 27.708,61.824 C27.708,61.824 24.871,70.162 20.593,69.653 C16.315,69.144 17.153,62.002 16.693,62.322 C16.233,62.642 13.993,66.922 10.365,65.989 C6.737,65.056 7.89,59.428 7.89,59.428 C7.89,59.428 1.708,62.317 0.256,58.728 C-1.196,55.139 3.956,52.452 3.956,52.452 C3.956,52.452 -0.316,51.713 0.919,48.688 C2.154,45.663 7.219,47.541 7.219,47.541 C7.219,47.541 4.534,41.37 9.009,40.858 C13.484,40.346 13.955,46.258 13.955,46.258 C13.955,46.258 14.606,39.864 18.071,40.833 C21.536,41.802 21.366,47.948 21.366,47.948 C21.366,47.948 20.808,40.695 24.342,40.612 C26.6396274,40.693169 28.8089361,41.6915624 30.365,43.384 C30.365,43.384 27.688,37.673 29.957,35.59 C32.226,33.507 36.525,36.94 36.525,36.94 C36.525,36.94 32.198,31.247 34.583,28.331 C36.968,25.415 41.868,30.172 41.868,30.172 C41.868,30.172 39.151,25.43 41.268,22.648 C43.385,19.866 46.851,23.655 46.851,23.655 C46.851,23.655 42.881,18.177 45.725,16.155 C48.569,14.133 52.595,17.755 52.595,17.755 C52.595,17.755 48.865,13.769 50.771,11.736 C52.677,9.703 57.118,14.657 57.118,14.657 C57.118,14.657 52.088,9 56.156,6.744 C60.224,4.488 62.256,11.411 62.256,11.411 C62.256,11.411 61.19,3.311 65.41,2.593 C69.63,1.875 71.995,6.667 71.995,6.667 C71.995,6.667 70.953,0.401 75.667,0.016 C80.381,-0.369 79.367,6.046 79.367,6.046 C79.367,6.046 81.06,-0.654 84.581,0.129 C88.102,0.912 88.198,5.679 88.198,5.679 C88.198,5.679 90.634,-0.394 94.443,0.42 C98.252,1.234 97.043,6.192 97.043,6.192 C97.043,6.192 103.959,3.549 107.205,9.422 C110.451,15.295 102.67,17.454 102.67,17.454 Z" id="Path_111" fill="#C780D8"></path>
                        <g id="Group_56" transform="translate(3.038000, 4.377000)">
                            <path d="M2.837,46.079 C2.854,46.042 2.872,46.005 2.889,45.967 C4.39465097,42.8611573 8.13233904,41.5630381 11.239,43.067 C21.212,47.893 26.431,43.06 37.751,29.067 C49.071,15.074 64.56,-4.078 94.474,4.305 C97.7984777,5.23670466 99.7382036,8.68702202 98.8064993,12.0114998 C97.874795,15.3359776 94.4244779,17.2757039 91.1,16.344 C69.107,10.18 58.6,23.173 47.47,36.929 C37.234,49.584 25.634,63.929 5.792,54.329 C2.72160389,52.8453532 1.406831,49.1746674 2.837,46.079 L2.837,46.079 Z" id="Path_112" fill="#A7E359"></path>
                            <path d="M0.771,45.128 L0.836,44.989 C2.88857773,40.7498037 7.9857877,38.9727372 12.229,41.017 C20.429,44.984 24.429,41.917 35.983,27.631 C47.034,13.968 63.733,-6.677 95.083,2.11 C97.2602204,2.71949399 99.1060065,4.16918966 100.214057,6.13997494 C101.322108,8.11076021 101.601597,10.4410886 100.991,12.618 C100.869586,13.0522372 100.714104,13.4762192 100.526,13.886 C98.7854832,17.7019292 94.517841,19.6734082 90.484,18.525 C69.931,12.765 60.34,24.625 49.235,38.351 C39.001,51.004 26.264,66.751 4.798,56.363 C0.639174107,54.3224395 -1.14460568,49.3458401 0.771,45.128 Z" id="Path_113" fill="#B973C8"></path>
                        </g>
                        <path d="M5.875,50.456 C5.892,50.419 5.91,50.382 5.927,50.344 C7.43265097,47.2381573 11.170339,45.9400381 14.277,47.444 C24.25,52.27 29.469,47.437 40.789,33.444 C52.109,19.451 67.598,0.299 97.512,8.682 C100.836478,9.61370466 102.776204,13.064022 101.844499,16.3884998 C100.912795,19.7129776 97.4624779,21.6527039 94.138,20.721 C72.145,14.557 61.638,27.55 50.508,41.306 C40.272,53.961 28.672,68.306 8.83,58.706 C5.75960389,57.2223532 4.444831,53.5516674 5.875,50.456 L5.875,50.456 Z" id="Path_114" fill="#EEA7F9"></path>
                        <path d="M83.627,11.504 L83.636,11.474 C83.7518778,11.0804492 84.0194291,10.7490941 84.3797341,10.5529051 C84.7400392,10.3567161 85.1635494,10.3117827 85.557,10.428 L90.608,11.918 C91.0015943,12.0340774 91.3328929,12.3018724 91.5289053,12.6623852 C91.7249178,13.0228981 91.7695612,13.4465487 91.653,13.84 L91.645,13.87 C91.5289018,14.2636254 91.2611562,14.5949898 90.9006907,14.791164 C90.5402252,14.9873383 90.1165821,15.0322447 89.723,14.916 L84.672,13.426 C83.8527043,13.1837999 83.3848528,12.3233113 83.627,11.504 L83.627,11.504 Z" id="Path_115" fill="#B973C8"></path>
                        <path d="M68.105,19.202 L68.095,19.173 C67.9583511,18.7860518 67.9810448,18.3606643 68.158087,17.9904509 C68.3351293,17.6202376 68.652012,17.3355362 69.039,17.199 L74.004,15.446 C74.3909482,15.3093511 74.8163357,15.3320448 75.1865491,15.509087 C75.5567624,15.6861293 75.8414638,16.003012 75.978,16.39 L75.989,16.419 C76.1256489,16.8059482 76.1029552,17.2313357 75.925913,17.6015491 C75.7488707,17.9717624 75.431988,18.2564638 75.045,18.393 L70.079,20.146 C69.6920518,20.2826489 69.2666643,20.2599552 68.8964509,20.082913 C68.5262376,19.9058707 68.2415362,19.588988 68.105,19.202 Z" id="Path_116" fill="#B973C8"></path>
                        <path d="M45.568,39.674 L45.548,39.65 C45.2884312,39.3321602 45.1657815,38.9242115 45.2070412,38.5159277 C45.2483009,38.1076438 45.4500892,37.7324817 45.768,37.473 L49.847,34.144 C50.5089854,33.6043822 51.4830226,33.7033079 52.023,34.365 L52.043,34.389 C52.3025688,34.7068398 52.4252185,35.1147885 52.3839588,35.5230723 C52.3426991,35.9313562 52.1409108,36.3065183 51.823,36.566 L47.744,39.895 C47.0820146,40.4346178 46.1079774,40.3356921 45.568,39.674 L45.568,39.674 Z" id="Path_117" fill="#B973C8"></path>
                        <path d="M18.009,56.746 L18.016,56.715 C18.1038109,56.3143294 18.3472482,55.9649779 18.6927209,55.7438528 C19.0381937,55.5227278 19.4573804,55.4479567 19.858,55.536 L24.998,56.665 C25.8321109,56.8487998 26.3594364,57.6738092 26.176,58.508 L26.169,58.539 C25.9861102,59.3734441 25.1614843,59.901706 24.327,59.719 L19.187,58.59 C18.3527512,58.4057263 17.825525,57.5804248 18.009,56.746 Z" id="Path_118" fill="#B973C8"></path>
                        <path d="M64.221,16.055 L64.214,16.034 C64.0086902,15.4510858 64.3143421,14.8120361 64.897,14.606 L68.49,13.337 C69.0729142,13.1316902 69.7119639,13.4373421 69.918,14.02 L69.925,14.041 C70.1303098,14.6239142 69.8246579,15.2629639 69.242,15.469 L65.65,16.738 C65.3699424,16.8371866 65.0619365,16.8209277 64.793878,16.6928073 C64.5258194,16.5646869 64.3197159,16.3352238 64.221,16.055 Z" id="Path_119" fill="#B973C8"></path>
                        <path d="M47.721,31.311 L47.685,31.273 C47.204494,30.7718425 46.9431028,30.1001142 46.9584861,29.4059902 C46.9738694,28.7118662 47.2647633,28.0523778 47.767,27.573 L54.2,21.422 C54.7014075,20.9419909 55.3730305,20.6809368 56.0669914,20.6963164 C56.7609522,20.7116961 57.4203505,21.0022485 57.9,21.504 L57.936,21.542 C58.4163774,22.0432883 58.6775914,22.7150921 58.6620204,23.4092174 C58.6464495,24.1033426 58.3553731,24.7627572 57.853,25.242 L51.42,31.394 C50.918631,31.8738206 50.247097,32.1346723 49.5532985,32.1191045 C48.8595001,32.1035367 48.2003423,31.8128263 47.721,31.311 Z" id="Path_120" fill="#B973C8"></path>
                        <path d="M24.915,52.996 L24.9,52.958 C24.5108957,51.9125734 25.0414537,50.7494614 26.086,50.358 L32.538,47.942 C33.5845723,47.5500919 34.7507213,48.0805666 35.143,49.127 L35.157,49.166 C35.5466998,50.2114479 35.0159528,51.3749744 33.971,51.766 L27.519,54.182 C26.4724351,54.5731465 25.3068796,54.0422906 24.915,52.996 Z" id="Path_121" fill="#B973C8"></path>
                        <path d="M37.221,44.569 C36.5594866,44.2647153 36.1464539,43.5918576 36.174547,42.8642589 C36.2026401,42.1366601 36.6663249,41.4976532 37.3493312,41.2452814 C38.0323376,40.9929095 38.8001169,41.1768886 39.2945645,41.7114079 C39.789012,42.2459271 39.9127244,43.025689 39.608,43.687 C39.192163,44.5894471 38.1237232,44.9842371 37.221,44.569 L37.221,44.569 Z" id="Path_122" fill="#FFFFFF"></path>
                        <path d="M38.652,50.315 C37.9445792,49.9887283 37.6354367,49.1508774 37.9614033,48.4433159 C38.2873699,47.7357545 39.1250875,47.4262508 39.8327894,47.7519122 C40.5404913,48.0775737 40.8503563,48.9151577 40.525,49.623 C40.1988403,50.3312667 39.3603072,50.6410718 38.652,50.315 Z" id="Path_123" fill="#FFFFFF"></path>
                        <path d="M9.553,55.814 C8.50205595,55.3301926 7.84611821,54.2608628 7.89113731,53.1047805 C7.9361564,51.9486982 8.67326343,50.933615 9.7586479,50.5329986 C10.8440324,50.1323821 12.0638703,50.4251549 12.84919,51.2747584 C13.6345097,52.1243619 13.8306007,53.3634215 13.346,54.414 C12.6847534,55.8475337 10.9870325,56.4741641 9.553,55.814 L9.553,55.814 Z" id="Path_124" fill="#FFFFFF"></path>
                        <path d="M42.774,36.558 C42.2476427,36.3151377 42.0176801,35.6916724 42.260267,35.1651882 C42.5028539,34.6387039 43.1261987,34.4084151 43.6528098,34.6507265 C44.1794209,34.8930379 44.4100358,35.5162622 44.168,36.043 C44.051608,36.2963015 43.839267,36.4929228 43.5777784,36.5895273 C43.3162897,36.6861318 43.0271185,36.6747894 42.774,36.558 L42.774,36.558 Z" id="Path_125" fill="#FFFFFF"></path>
                        <path d="M62.417,24.302 C61.4705247,23.8664 60.8796483,22.9035452 60.9198995,21.8624195 C60.9601507,20.8212938 61.6236025,19.9069328 62.600884,19.5457076 C63.5781655,19.1844823 64.6768145,19.4475313 65.3845254,20.2121934 C66.0922364,20.9768555 66.2696352,22.0925409 65.834,23.039 C65.2391699,24.3313253 63.7093474,24.896782 62.417,24.302 L62.417,24.302 Z" id="Path_126" fill="#FFFFFF"></path>
                        <circle id="Ellipse_4" fill="#FFFFFF" transform="translate(75.940818, 10.623910) rotate(-19.684643) translate(-75.940818, -10.623910) " cx="75.940818" cy="10.62391" r="1.94290573"></circle>
                        <path d="M80.026,17.736 C78.8340542,17.1872782 78.3125889,15.7762106 78.8612552,14.5842392 C79.4099215,13.3922679 80.8209648,12.8707369 82.0129617,13.4193477 C83.2049587,13.9679585 83.7265553,15.3789775 83.178,16.571 C82.9145418,17.1435005 82.4344306,17.5878805 81.8433032,17.806365 C81.2521759,18.0248496 80.5984636,17.9995382 80.026,17.736 Z" id="Path_127" fill="#FFFFFF"></path>
                        <path d="M95.99,16.669 C94.9978615,16.2124312 94.3784903,15.2031233 94.4207442,14.11179 C94.4629981,13.0204566 95.1585543,12.0620597 96.1830244,11.6835694 C97.2074945,11.305079 98.3590867,11.5810472 99.1007299,12.3827699 C99.8423731,13.1844925 100.027985,14.3540529 99.571,15.346 C98.9472409,16.699954 97.3442153,17.2921916 95.99,16.669 L95.99,16.669 Z" id="Path_128" fill="#FFFFFF"></path>
                    </g>
                    <g id="Group_82" transform="translate(38.359000, 56.578000)">
                        <g id="Group_61" transform="translate(83.888000, 25.246000)">
                            <g id="Group_58" fill="#B51F18">
                                <path d="M41.418,25.85 C37.91,34.272 26.009,37.328 14.845,32.676 C3.681,28.024 -2.53,17.424 0.981,9.004 C4.492,0.584 16.381,-2.475 27.551,2.177 C38.721,6.829 44.926,17.426 41.418,25.85 Z" id="Path_129"></path>
                            </g>
                            <g id="Group_59" transform="translate(12.699000, 2.971000)" fill="#C52E25">
                                <path d="M21.655,12.801 C21.2829382,13.683196 20.6856767,14.4521874 19.923,15.031 C17.289,17.087 12.614,17.377 8.071,15.483 C3.528,13.589 0.442,10.067 0.046,6.75 C-0.0803172015,5.80089556 0.0452152672,4.83526119 0.41,3.95 C2.047,0.022 8.126,-1.176 13.994,1.268 C19.862,3.712 23.296,8.874 21.655,12.801 Z" id="Path_130"></path>
                            </g>
                            <g id="Group_60" transform="translate(14.800000, 6.890000)" fill="#A5100E">
                                <path d="M16.495,9.2 C16.2400554,9.79409401 15.8148327,10.2993504 15.273,10.652 C13.373,11.952 9.873,11.984 6.398,10.534 C2.923,9.084 0.479,6.583 0.065,4.316 C-0.0660345865,3.68302504 -0.00688599124,3.02543184 0.235,2.426 C1.323,-0.183 5.844,-0.781 10.335,1.091 C14.826,2.963 17.585,6.589 16.495,9.2 Z" id="Path_131"></path>
                            </g>
                        </g>
                        <g id="Group_65" transform="translate(0.000000, 62.356000)">
                            <g id="Group_62" fill="#C52E25">
                                <path d="M53.315,53.314 C43.457,63.173 24.867,60.568 11.797,47.498 C-1.273,34.428 -3.88,15.838 5.978,5.979 C15.836,-3.88 34.427,-1.277 47.498,11.794 C60.569,24.865 63.174,43.455 53.315,53.314 Z" id="Path_132"></path>
                            </g>
                            <g id="Group_63" transform="translate(21.797000, 7.566000)" fill="#D53D33">
                                <path d="M27.403,27.401 C26.3638109,28.4311885 25.0719211,29.1699039 23.657,29.543 C18.738,30.916 11.965,28.605 6.648,23.285 C1.331,17.965 -0.983,11.194 0.388,6.276 C0.763233085,4.86099782 1.50280943,3.56906655 2.533,2.529 C7.133,-2.071 16.422,-0.222 23.288,6.645 C30.154,13.512 32,22.801 27.403,27.401 Z" id="Path_133"></path>
                            </g>
                            <g id="Group_64" transform="translate(24.168000, 13.112000)" fill="#B51F18">
                                <path d="M20.524,20.518 C19.8173496,21.2093453 18.9222336,21.676559 17.951,21.861 C14.506,22.594 9.551,20.601 5.478,16.53 C1.405,12.459 -0.584,7.503 0.149,4.057 C0.332225733,3.08635184 0.798852533,2.19172283 1.49,1.486 C4.546,-1.567 11.281,0.219 16.534,5.474 C21.787,10.729 23.579,17.468 20.524,20.518 Z" id="Path_134"></path>
                            </g>
                        </g>
                        <g id="Group_69" transform="translate(40.244000, 136.088000)">
                            <g id="Group_66" fill="#C52E25">
                                <path d="M41.468,9.068 C44.943,17.504 38.69,28.077 27.507,32.683 C16.324,37.289 4.436,34.183 0.961,25.749 C-2.514,17.315 3.738,6.737 14.925,2.132 C26.112,-2.473 37.992,0.63 41.468,9.068 Z" id="Path_135"></path>
                            </g>
                            <g id="Group_67" transform="translate(7.665000, 2.956000)" fill="#D53D33">
                                <path d="M21.684,3.98 C22.0438982,4.86656329 22.1652602,5.83194251 22.036,6.78 C21.626,10.097 18.526,13.605 13.974,15.48 C9.422,17.355 4.748,17.047 2.124,14.98 C1.36368885,14.3978345 0.769266641,13.6265337 0.4,12.743 C-1.221,8.808 2.233,3.661 8.11,1.243 C13.987,-1.175 20.064,0.045 21.684,3.98 Z" id="Path_136"></path>
                            </g>
                            <g id="Group_68" transform="translate(10.891000, 6.878000)" fill="#B51F18">
                                <path d="M16.518,2.445 C16.7575726,3.04580752 16.8146192,3.7039306 16.682,4.337 C16.258,6.602 13.807,9.095 10.324,10.529 C6.841,11.963 3.346,11.92 1.448,10.61 C0.907880821,10.2544093 0.484844596,9.74718326 0.232,9.152 C-0.844,6.538 1.932,2.919 6.427,1.069 C10.922,-0.781 15.441,-0.169 16.518,2.445 Z" id="Path_137"></path>
                            </g>
                        </g>
                        <g id="Group_75" transform="translate(79.256000, 72.428000)">
                            <g id="Group_73">
                                <g id="Group_70" fill="#D53D33">
                                    <path d="M53.316,5.979 C63.175,15.84 60.57,34.428 47.5,47.499 C34.43,60.57 15.84,63.175 5.979,53.316 C-3.882,43.457 -1.274,24.868 11.796,11.797 C24.866,-1.274 43.455,-3.88 53.316,5.979 Z" id="Path_138"></path>
                                </g>
                                <g id="Group_71" transform="translate(7.566000, 7.566000)" fill="#E54D42">
                                    <path d="M27.402,2.528 C28.4316249,3.56840588 29.1702203,4.86077545 29.544,6.276 C30.915,11.194 28.605,17.965 23.285,23.285 C17.965,28.605 11.194,30.915 6.278,29.543 C4.86196997,29.1704758 3.56896995,28.4317172 2.529,27.401 C-2.071,22.801 -0.223,13.512 6.647,6.645 C13.517,-0.222 22.804,-2.063 27.402,2.528 Z" id="Path_139"></path>
                                </g>
                                <g id="Group_72" transform="translate(13.112000, 13.112000)" fill="#C52E25">
                                    <path d="M20.524,1.492 C21.2152466,2.1971153 21.6816132,3.09156479 21.864,4.062 C22.597,7.508 20.604,12.462 16.535,16.536 C12.466,20.61 7.508,22.6 4.06,21.866 C3.08959357,21.6823077 2.19532402,21.2153389 1.49,20.524 C-1.563,17.47 0.223,10.735 5.478,5.481 C10.733,0.227 17.467,-1.563 20.524,1.492 Z" id="Path_140"></path>
                                </g>
                            </g>
                            <g id="Group_74" transform="translate(40.927000, 17.771000)" fill="#FFFFFF">
                                <path d="M9.52,4.76 C9.52,6.68533128 8.36015496,8.42106324 6.58134209,9.15776216 C4.80252923,9.89446109 2.75508992,9.48703238 1.39381815,8.12547456 C0.0325463754,6.76391675 -0.374452149,4.71639189 0.362620502,2.93773385 C1.09969315,1.1590758 2.83566876,-0.000404481361 4.761,-1.05792424e-07 C7.38925617,0.00110401954 9.51944819,2.13174366 9.52,4.76 Z" id="Path_141"></path>
                            </g>
                        </g>
                        <g id="Group_81" transform="translate(1.756000, 0.000000)">
                            <g id="Group_79">
                                <g id="Group_76" fill="#D53D33">
                                    <path d="M66.943,25.246 C66.943,39.189 51.956,50.492 33.472,50.492 C14.988,50.492 9.09494702e-13,39.192 9.09494702e-13,25.246 C9.09494702e-13,11.3 14.985,0 33.472,0 C51.959,0 66.943,11.303 66.943,25.246 Z" id="Path_142"></path>
                                </g>
                                <g id="Group_77" transform="translate(15.886000, 3.415000)" fill="#E54D42">
                                    <path d="M35.172,11.767 C35.1663577,13.2305179 34.775231,14.6667188 34.038,15.931 C31.531,20.38 25.109,23.531 17.587,23.531 C10.065,23.531 3.642,20.377 1.136,15.931 C0.398638267,14.6667241 0.00718127739,13.230577 0.001,11.767 C0.001,5.267 7.876,-4.54747351e-13 17.587,-4.54747351e-13 C27.298,-4.54747351e-13 35.172,5.266 35.172,11.767 Z" id="Path_143"></path>
                                </g>
                                <g id="Group_78" transform="translate(20.013000, 9.609000)" fill="#C52E25">
                                    <path d="M26.915,7.818 C26.905964,8.80592327 26.6038712,9.76893109 26.047,10.585 C24.13,13.541 19.215,15.636 13.459,15.636 C7.703,15.636 2.788,13.536 0.871,10.585 C0.313966286,9.76889148 0.0112253144,8.80603599 0.000999999999,7.818 C0.000999999999,3.498 6.028,0 13.459,0 C20.89,0 26.915,3.499 26.915,7.818 Z" id="Path_144"></path>
                                </g>
                            </g>
                            <g id="Group_80" transform="translate(48.659000, 22.188000)" fill="#FFFFFF">
                                <path d="M9.52200011,4.758 C9.52240446,6.68382669 8.36257231,8.42023019 6.58341781,9.157399 C4.80426331,9.89456782 2.75622986,9.48730042 1.39446472,8.12553528 C0.0326995774,6.76377014 -0.374567819,4.71573669 0.362600997,2.93658219 C1.09976981,1.15742769 2.83617331,-0.002404458 4.762,-0.00200010575 C7.3906467,-0.00144793725 9.52144794,2.1293533 9.52200011,4.758 L9.52200011,4.758 Z" id="Path_145"></path>
                            </g>
                        </g>
                    </g>
                    <g id="Group_84" transform="translate(57.551000, 0.000000)">
                        <path d="M63.028,96.57 C63.028,96.57 61.628,102.344 57.01,99.303 C52.016,96.016 57.682,92.482 57.682,92.482 C57.682,92.482 53.255,92.92 52.582,89.558 C51.909,86.196 57.859,85.511 57.859,85.511 C57.859,85.511 53.696,85.211 52.477,81.379 C51.258,77.547 57.113,74.7 57.113,74.7 C57.113,74.7 51.228,76.6 49.662,73.659 C48.096,70.718 53.52,66.114 53.52,66.114 C53.52,66.114 48.37,68.923 45.449,66.632 C42.528,64.341 46.499,59.214 46.499,59.214 C46.499,59.214 42.329,62.603 39.739,60.635 C37.149,58.667 39.039,53.495 39.039,53.495 C39.039,53.495 34.283,58.195 30.939,56.123 C27.595,54.051 29.65,48.158 29.65,48.158 C29.65,48.158 25.117,52.691 21.793,50.594 C18.469,48.497 21.243,43.921 21.243,43.921 C21.243,43.921 14.943,47.403 12.813,43.63 C10.683,39.857 14.004,36.076 14.004,36.076 C14.004,36.076 6.917,38.755 5.796,35.91 C4.675,33.065 8.737,28.448 8.737,28.448 C8.737,28.448 0.087,26.788 0.00023411601,22.482 C-0.085,18.176 7.101,18.019 6.724,17.608 C6.347,17.197 1.79,15.566 2.224,11.847 C2.658,8.128 8.381,8.491 8.381,8.491 C8.381,8.491 4.667,2.767 8.019,0.834 C11.371,-1.099 14.744,3.628 14.744,3.628 C14.744,3.628 14.887,-0.705 18.054,0.101 C21.221,0.907 20.054,6.181 20.054,6.181 C20.054,6.181 25.796,2.67 26.92,7.031 C28.044,11.392 22.249,12.676 22.249,12.676 C22.249,12.676 28.672,12.439 28.189,16.004 C27.706,19.569 21.597,20.249 21.597,20.249 C21.597,20.249 28.703,18.696 29.273,22.185 C29.5095121,24.4719716 28.8197802,26.7583519 27.358,28.533 C27.358,28.533 32.644,25.094 35.022,27.053 C37.4,29.012 34.591,33.745 34.591,33.745 C34.591,33.745 39.632,28.674 42.85,30.634 C46.068,32.594 42.032,38.103 42.032,38.103 C42.032,38.103 46.354,34.758 49.401,36.467 C52.448,38.176 49.173,42.136 49.173,42.136 C49.173,42.136 54.051,37.448 56.451,39.985 C58.851,42.522 55.816,47.009 55.816,47.009 C55.816,47.009 59.249,42.764 61.525,44.373 C63.801,45.982 59.508,51.062 59.508,51.062 C59.508,51.062 64.417,45.3 67.208,49.017 C69.999,52.734 63.428,55.705 63.428,55.705 C63.428,55.705 71.305,53.531 72.597,57.612 C73.889,61.693 69.471,64.696 69.471,64.696 C69.471,64.696 75.534,62.796 76.564,67.416 C77.594,72.036 71.103,71.916 71.103,71.916 C71.103,71.916 77.976,72.668 77.682,76.264 C77.388,79.86 72.682,80.612 72.682,80.612 C72.682,80.612 79.034,82.186 78.752,86.071 C78.47,89.956 73.394,89.442 73.394,89.442 C73.394,89.442 76.966,95.927 71.594,99.952 C66.222,103.977 63.028,96.57 63.028,96.57 Z" id="Path_146" fill="#C780D8"></path>
                        <g id="Group_83" transform="translate(5.331000, 2.719000)">
                            <path d="M11.653,2.535 L11.771,2.571 C15.0558157,3.63219182 16.8589706,7.15478999 15.799,10.44 C12.399,20.983 17.899,25.485 33.327,34.767 C48.755,44.049 69.854,56.746 65.679,87.531 C65.2148041,90.9521273 62.0651276,93.349194 58.6440002,92.8849988 C55.2228728,92.4208035 52.8258054,89.2711275 53.29,85.85 C56.361,63.217 42.041,54.6 26.881,45.478 C12.935,37.087 -2.871,27.578 3.902,6.598 C4.94869181,3.35936592 8.39406691,1.55333327 11.653,2.535 L11.653,2.535 Z" id="Path_147" fill="#A7E359"></path>
                            <path d="M12.312,0.359 L12.458,0.404 C16.9401264,1.85112788 19.4037899,6.65451103 17.964,11.139 C15.164,19.804 18.755,23.345 34.501,32.819 C49.558,41.879 72.31,55.569 67.933,87.836 C67.629665,90.0762967 66.448484,92.104224 64.6494801,93.4733575 C62.8504763,94.8424909 60.5811259,95.4405935 58.341,95.136 C56.1004706,94.8331695 54.0722146,93.6521161 52.7029824,91.8529825 C51.3337503,90.053849 50.7358582,87.7842157 51.041,85.544 C53.91,64.393 40.841,56.529 25.712,47.425 C11.768,39.035 -5.588,28.593 1.74,5.899 C3.18666423,1.4978165 7.86977533,-0.956254207 12.312,0.359 L12.312,0.359 Z" id="Path_148" fill="#B973C8"></path>
                        </g>
                        <path d="M16.984,5.254 L17.102,5.29 C20.3868157,6.35119182 22.1899706,9.87378999 21.13,13.159 C17.73,23.702 23.23,28.204 38.658,37.486 C54.086,46.768 75.185,59.465 71.01,90.25 C70.5458041,93.6711273 67.3961276,96.068194 63.9750002,95.6039988 C60.5538728,95.1398035 58.1568054,91.9901275 58.621,88.569 C61.692,65.936 47.372,57.319 32.212,48.197 C18.266,39.806 2.46,30.297 9.233,9.317 C10.2796918,6.07836592 13.7250669,4.27233327 16.984,5.254 L16.984,5.254 Z" id="Path_149" fill="#EEA7F9"></path>
                        <path d="M66.291,76.888 L66.322,76.888 C67.1666032,77.0149427 67.7485303,77.802335 67.622,78.647 L66.843,83.855 C66.7160573,84.6996032 65.928665,85.2815303 65.084,85.155 L65.053,85.155 C64.2083968,85.0280573 63.6264697,84.240665 63.753,83.396 L64.533,78.188 C64.5937211,77.7824776 64.8130555,77.4176883 65.142748,77.1738884 C65.4724404,76.9300885 65.8854818,76.8272507 66.291,76.888 L66.291,76.888 Z" id="Path_150" fill="#B973C8"></path>
                        <path d="M56.526,62.577 L56.554,62.562 C56.9184044,62.3734145 57.3428014,62.3373203 57.7338194,62.4616584 C58.1248375,62.5859965 58.4504431,62.8605807 58.639,63.225 L61.06,67.901 C61.4528593,68.6595709 61.156493,69.5929903 60.398,69.986 L60.37,70.001 C59.6114291,70.3938593 58.6780097,70.097493 58.285,69.339 L55.863,64.663 C55.6740978,64.2984965 55.6378303,63.8738538 55.762185,63.482596 C55.8865398,63.0913381 56.1613172,62.7655558 56.526,62.577 Z" id="Path_151" fill="#B973C8"></path>
                        <path d="M33.14,43.08 L33.161,43.057 C33.7420478,42.4308055 34.7206722,42.3940959 35.347,42.975 L39.207,46.555 C39.8331945,47.1360478 39.8699041,48.1146722 39.289,48.741 L39.268,48.764 C38.6869522,49.3901945 37.7083278,49.4269041 37.082,48.846 L33.222,45.266 C32.5958055,44.6849522 32.5590959,43.7063278 33.14,43.08 L33.14,43.08 Z" id="Path_152" fill="#B973C8"></path>
                        <path d="M12.428,18.141 L12.459,18.141 C12.8678439,18.1726611 13.2473604,18.3654548 13.5140437,18.6769605 C13.780727,18.9884661 13.9127272,19.3931612 13.881,19.802 L13.472,25.049 C13.4050352,25.9005526 12.6605751,26.5366788 11.809,26.47 L11.778,26.47 C11.3688912,26.4383381 10.9891209,26.2454388 10.7222501,25.9337458 C10.4553794,25.6220528 10.3232736,25.2171038 10.355,24.808 L10.764,19.561 C10.8314753,18.7094262 11.5764104,18.0737243 12.428,18.141 Z" id="Path_153" fill="#B973C8"></path>
                        <path d="M59.108,58.296 L59.128,58.286 C59.3916007,58.1492793 59.6987353,58.1229397 59.9817658,58.2127817 C60.2647963,58.3026237 60.5005109,58.5012793 60.637,58.765 L62.389,62.148 C62.5257207,62.4116007 62.5520603,62.7187353 62.4622183,63.0017658 C62.3723763,63.2847963 62.1737207,63.5205109 61.91,63.657 L61.889,63.667 C61.3400031,63.951124 60.6646223,63.7367387 60.38,63.188 L58.628,59.805 C58.4913534,59.5412773 58.4651622,59.2340472 58.5551971,58.9510001 C58.6452319,58.6679529 58.8441051,58.4323139 59.108,58.296 L59.108,58.296 Z" id="Path_154" fill="#B973C8"></path>
                        <path d="M41.721,44.059 L41.753,44.018 C42.1831695,43.4742893 42.8117152,43.1237396 43.5003547,43.0434734 C44.1889943,42.9632071 44.8813137,43.1597997 45.425,43.59 L52.405,49.112 C52.9492197,49.5422253 53.3001827,50.1710703 53.3806411,50.8601242 C53.4610995,51.5491782 53.2644588,52.2419649 52.834,52.786 L52.801,52.827 C52.3708305,53.3707107 51.7422848,53.7212604 51.0536453,53.8015266 C50.3650057,53.8817929 49.6726863,53.6852003 49.129,53.255 L42.149,47.733 C41.6049316,47.3026291 41.2541627,46.673712 41.1738926,45.9846647 C41.0936225,45.2956173 41.2904298,44.6029107 41.721,44.059 Z" id="Path_155" fill="#B973C8"></path>
                        <path d="M17.096,24.459 L17.131,24.439 C17.6027983,24.1832232 18.1568957,24.1253969 18.6713389,24.2782483 C19.1857822,24.4310996 19.6184086,24.7821012 19.874,25.254 L23.157,31.311 C23.6898799,32.2935224 23.3254561,33.5219978 22.343,34.055 L22.307,34.074 C21.8352017,34.3297768 21.2811043,34.3876031 20.7666611,34.2347517 C20.2522178,34.0819004 19.8195914,33.7308988 19.564,33.259 L16.282,27.202 C15.749799,26.2197117 16.1141346,24.991981 17.096,24.459 L17.096,24.459 Z" id="Path_156" fill="#B973C8"></path>
                        <path d="M27.14,35.489 C27.3503192,34.7916542 27.9601706,34.2897915 28.6849573,34.2176141 C29.409744,34.1454367 30.1065921,34.5171727 30.4503063,35.1593454 C30.7940205,35.8015182 30.7168461,36.5875392 30.2547976,37.1505991 C29.7927491,37.7136591 29.0369082,37.9427647 28.34,37.731 C27.3902244,37.4423983 26.8533682,36.4393719 27.14,35.489 L27.14,35.489 Z" id="Path_157" fill="#FFFFFF"></path>
                        <path d="M21.646,37.699 C21.8714096,36.9531105 22.6587617,36.5311372 23.4046793,36.7564539 C24.1505969,36.9817706 24.5726682,37.7690702 24.3474444,38.5150158 C24.1222207,39.2609615 23.3349737,39.6831309 22.589,39.458 C21.8431419,39.2323276 21.4211054,38.445093 21.646,37.699 Z" id="Path_158" fill="#FFFFFF"></path>
                        <path d="M12.185,9.639 C12.5190599,8.53150174 13.4873779,7.73429566 14.6384144,7.61912947 C15.789451,7.50396328 16.8965204,8.09351786 17.4433815,9.11287615 C17.9902426,10.1322344 17.8691963,11.3806434 17.1366882,12.2759535 C16.40418,13.1712636 15.2044705,13.537152 14.097,13.203 C12.5848894,12.7467578 11.7288835,11.1511486 12.185,9.639 L12.185,9.639 Z" id="Path_159" fill="#FFFFFF"></path>
                        <path d="M35.838,39.883 C35.961201,39.4760147 36.3175003,39.1833676 36.7406673,39.1415924 C37.1638344,39.0998173 37.5704787,39.3171465 37.7708812,39.6921856 C37.9712838,40.0672247 37.9259528,40.5260674 37.6560372,40.8546418 C37.3861216,41.1832162 36.9448119,41.3167723 36.538,41.193 C36.2714169,41.1121693 36.0478799,40.9287173 35.9165944,40.6830259 C35.7853089,40.4373344 35.7570363,40.1495428 35.838,39.883 Z" id="Path_160" fill="#FFFFFF"></path>
                        <path d="M50.689,57.648 C50.9898741,56.6504534 51.862049,55.9323879 52.8988056,55.828657 C53.9355623,55.7249262 54.9327135,56.2559597 55.4252604,57.174122 C55.9178073,58.0922843 55.8087437,59.2167452 55.1489289,60.0231377 C54.4891141,60.8295303 53.4084974,61.159037 52.411,60.858 C51.0491454,60.4470028 50.2782253,59.0099217 50.689,57.648 Z" id="Path_161" fill="#FFFFFF"></path>
                        <circle id="Ellipse_5" fill="#FFFFFF" transform="translate(66.104058, 69.152234) rotate(-27.623000) translate(-66.104058, -69.152234) " cx="66.1040577" cy="69.1522344" r="1.942"></circle>
                        <path d="M59.623,74.181 C60.0019196,72.9247189 61.3274838,72.2134493 62.5837838,72.5923063 C63.8400838,72.9711632 64.5514196,74.2966919 64.1726253,75.5530108 C63.793831,76.8093297 62.4683378,77.5207316 61.212,77.142 C59.9558632,76.7627525 59.2446214,75.4373988 59.623,74.181 L59.623,74.181 Z" id="Path_162" fill="#FFFFFF"></path>
                        <path d="M62.879,89.845 C63.1940384,88.7993478 64.1079575,88.0464433 65.1945777,87.9373818 C66.2811978,87.8283204 67.3265148,88.384581 67.8430751,89.3467676 C68.3596355,90.3089543 68.2457054,91.4875693 67.5544129,92.3329996 C66.8631204,93.1784299 65.7306118,93.5241723 64.685,93.209 C63.2574094,92.7786901 62.448873,91.2726458 62.879,89.845 L62.879,89.845 Z" id="Path_163" fill="#FFFFFF"></path>
                    </g>
                </g>
            </g>
        </g>
    </g>
</svg>