<svg xmlns="http://www.w3.org/2000/svg" width="298" height="298" viewBox="0 0 298 298">
  <g id="Group_527" data-name="Group 527" transform="translate(-571 -412)">
    <circle id="Oval" cx="149" cy="149" r="149" transform="translate(571 412)" fill="#fa6400" opacity="0.14"/>
    <g id="Oval-2" data-name="Oval" transform="translate(571 412)" fill="none" stroke="#fa6400" stroke-miterlimit="10" stroke-width="16" opacity="0.075">
      <circle cx="149" cy="149" r="149" stroke="none"/>
      <circle cx="149" cy="149" r="141" fill="none"/>
    </g>
    <g id="Group_43" data-name="Group 43" transform="translate(184.622 -697.761)">
      <path id="Path_1" data-name="Path 1" d="M1769.934,2630.828c-.47-.361-.9-.77-1.339-1.168q-.165-.15-.329-.3c-.062-.048-.126-.1-.193-.154s-.142-.094-.211-.142-.137-.1-.2-.145c-.374-.26-.8-.608-1.2-.857a2.192,2.192,0,0,0-.242-.094,1.018,1.018,0,0,0-1.1.211c-.67.739-.694,2-1.3,3q-.066.14-.134.278t-.14.276c-.012-.031-.026-.063-.038-.094-.172-.446-.317-.9-.478-1.35a5.726,5.726,0,0,0-1.2-2.171,2.842,2.842,0,0,0-.268-.235.787.787,0,0,0-1.182.57c-.058.125-.114.252-.171.378-.113.253-.229.5-.351.753q-.073.149-.148.3a9.238,9.238,0,0,1-1.359,1.9c-.4-.469-1.028-.8-1.372-1.271-.067-.073-.131-.146-.193-.221a4.322,4.322,0,0,1-.509-.757.656.656,0,0,0-.9-.2.669.669,0,0,0-.2.9,5.9,5.9,0,0,0,.94,1.25c.091.1.183.191.275.285.519.516.916,1.3,1.594,1.386,1.376.367,2.091-1.439,2.8-2.5.046-.088.092-.177.136-.265.134-.267.261-.537.384-.808q.038.065.073.131c.025.047.048.094.073.141l.015.029.007.016q.068.15.129.3c.088.219.169.442.247.665a10.174,10.174,0,0,0,1.118,2.566.663.663,0,0,0,1.132-.053,12.358,12.358,0,0,0,.632-1.091q.1-.187.187-.376a3.451,3.451,0,0,1,.594-1.016l.12-.159c.274-.353.434-1.078,1.085-.871a3.11,3.11,0,0,1,1.255.979l.154.142c.308.281.618.559.948.813a.67.67,0,0,0,.923-.048A.659.659,0,0,0,1769.934,2630.828Z" transform="translate(-1164.353 -1309.375)" fill="#3d0000"/>
      <path id="Path_2" data-name="Path 2" d="M666.446,2530.9c-.235-.554-.411-1.132-.6-1.705-.047-.143-.095-.286-.143-.427-.03-.074-.061-.152-.093-.233s-.079-.154-.116-.231-.073-.154-.108-.231c-.2-.417-.406-.941-.635-1.361a2.186,2.186,0,0,0-.167-.205,1.035,1.035,0,0,0-1.082-.366c-.963.318-1.618,1.422-2.655,2q-.128.091-.258.179t-.262.174c0-.034.009-.069.014-.1.072-.48.171-.956.254-1.434a5.821,5.821,0,0,0,.031-2.521,2.872,2.872,0,0,0-.119-.342.8.8,0,0,0-1.332-.089l-.341.249c-.227.167-.456.331-.688.49q-.139.1-.28.189a9.4,9.4,0,0,1-2.155,1c-.122-.617-.51-1.22-.577-1.813-.022-.1-.043-.195-.06-.292a4.409,4.409,0,0,1-.071-.925.667.667,0,0,0-.7-.628.681.681,0,0,0-.628.7,6,6,0,0,0,.2,1.577c.032.131.066.261.1.39.2.717.158,1.61.715,2.026,1.034,1.015,2.572-.225,3.729-.812q.128-.082.253-.167c.252-.169.5-.344.745-.522,0,.051,0,.1,0,.153s0,.107-.007.161c0,.015,0,.026,0,.033s0,.009,0,.018c-.01.111-.023.222-.038.332-.032.239-.072.476-.115.712a10.342,10.342,0,0,0-.3,2.831.674.674,0,0,0,1.028.52,12.54,12.54,0,0,0,1.106-.648q.179-.117.355-.239a3.519,3.519,0,0,1,1.035-.6l.186-.081c.419-.175.924-.736,1.4-.227a3.167,3.167,0,0,1,.619,1.5c.021.069.043.136.065.2.131.4.266.8.431,1.194a.682.682,0,0,0,.84.42A.67.67,0,0,0,666.446,2530.9Z" transform="translate(-181.965 -1215.287)" fill="#3d0000"/>
      <g id="Group_3" data-name="Group 3" transform="translate(591.408 1306.674)">
        <path id="Path_3" data-name="Path 3" d="M1762.92,2524.5l4.668-3.548-1.435-.516,1.187,3.865a.891.891,0,0,0,1.435.516l4.643-3.541c.9-.684-.246-2.015-1.142-1.331l-4.643,3.541,1.435.516-1.187-3.865a.891.891,0,0,0-1.435-.516l-4.668,3.548c-.9.683.245,2.013,1.142,1.331Z" transform="translate(-1761.451 -2519.419)" fill="#f93232"/>
      </g>
      <g id="Group_4" data-name="Group 4" transform="translate(590.261 1328.77)">
        <path id="Path_4" data-name="Path 4" d="M1751.448,2725.632l6.154,2.743-.324-1.479-3.239,3.331a.891.891,0,0,0,.324,1.479l6.133,2.723a.883.883,0,0,0,1.1-.564.9.9,0,0,0-.564-1.1l-6.133-2.723.324,1.479,3.239-3.331a.891.891,0,0,0-.324-1.479l-6.154-2.743a.883.883,0,0,0-1.1.564.9.9,0,0,0,.564,1.1Z" transform="translate(-1750.84 -2723.908)" fill="#f93232"/>
      </g>
      <g id="Group_5" data-name="Group 5" transform="translate(477.76 1330.8)">
        <path id="Path_5" data-name="Path 5" d="M718.372,2743.157l-2.991,5.158,1.549-.078-2.627-3.163a.906.906,0,0,0-1.549.078l-2.971,5.141c-.574.993,1.02,1.794,1.593.8l2.971-5.141-1.549.078,2.627,3.163a.906.906,0,0,0,1.549-.078l2.991-5.158c.575-.992-1.018-1.793-1.593-.8Z" transform="translate(-709.659 -2742.704)" fill="#f93232"/>
      </g>
      <g id="Group_6" data-name="Group 6" transform="translate(469.799 1319.801)">
        <path id="Path_6" data-name="Path 6" d="M649.286,2644.232l-6.715,1.365,1.142,1.033.713-4.671a.906.906,0,0,0-1.142-1.033l-6.685,1.37a.9.9,0,0,0-.581,1.119.912.912,0,0,0,1.119.581l6.685-1.37-1.142-1.033-.713,4.671a.906.906,0,0,0,1.142,1.033l6.715-1.365a.9.9,0,0,0,.581-1.119.912.912,0,0,0-1.119-.581Z" transform="translate(-635.981 -2640.903)" fill="#f93232"/>
      </g>
      <path id="Path_7" data-name="Path 7" d="M865.215,2413.287c-3.626-9.5-13.124-14.505-21.93-18.822-2.242-1.062-4.4-2.607-6.759-3.314a37.805,37.805,0,0,0-2.491,6.714,34.494,34.494,0,0,0-.72,4.073c-1.5,16.338,8.3,33.667,22,42.6q1.869-1.324,3.682-2.755C867.633,2434.872,869.014,2423.13,865.215,2413.287Z" transform="translate(-342.058 -1098.336)" fill="#ffbdc3"/>
      <path id="Path_8" data-name="Path 8" d="M600.6,1178.729c-17.62-13.588-40.184-18.555-62.038-18.942-21.99-.39-44.754,3.513-63.367,15.873q-2.2,1.459-4.289,3.069c-21.238,16.379-25.97,44.44-16.772,68.825a71.25,71.25,0,0,0,11.5,19.833q1.831,2.24,3.838,4.328c9.187,9.914,21.567,15.771,34.1,20.536h64.3c1.534-.605,3.065-1.207,4.586-1.819,2.021-.81,4.025-1.64,6.01-2.514,17.708-7.19,32.19-22.55,38.91-40.364C626.57,1223.169,621.838,1195.108,600.6,1178.729Z" transform="translate(0 0)" fill="#d53d33"/>
      <path id="Path_9" data-name="Path 9" d="M724.072,1184.058a66.956,66.956,0,0,0-23.572-12.929q-2.575-.833-5.2-1.509a104.654,104.654,0,0,0-10.626-2.14q-3.058-.484-6.133-.82c-4.1-.453-8.195-.726-12.243-.872a67.355,67.355,0,0,1,11.735,2.011q2.881.758,5.706,1.755a62.934,62.934,0,0,1,6.206,2.115,63.71,63.71,0,0,1,5.94,2.736c20.014,9.619,33.053,30.407,33.683,52.579q.132,2.013.128,4.029t-.145,4.025a54.1,54.1,0,0,1-1.35,8.52,53.075,53.075,0,0,1-5.344,15.026q-1.244,2.328-2.7,4.525a58.217,58.217,0,0,1-7.681,8.912q-1.06,1.007-2.162,1.955c-3.865,3.352-8.872,6.46-13.362,5.424-5.756-1.151-11.272-2.3-16.838-1.98a22.641,22.641,0,0,0-3.348.458c-6.924,1.177-11.932,6.185-17.976,9.811a2.365,2.365,0,0,1-2.59-.345c-4.144-2.936-7.253-7.425-12.812-7.342a27.171,27.171,0,0,0-3.267.044,28.967,28.967,0,0,0-3.29.434,19.532,19.532,0,0,0-4.115,1.166c-4.49,1.727-8.807,3.972-13.469,4.835a15.638,15.638,0,0,1-3.569.26c-5.855-.235-11.248-3.564-16.262-6.269q-1.227-.761-2.424-1.588a58,58,0,0,1-8.943-7.6,66.19,66.19,0,0,0,10.166,10.635q1.4,1.175,2.848,2.272c8,6.088,17.149,10.06,26.613,13.179,1.143.434,2.276.891,3.395,1.386s2.221,1.029,3.3,1.618c1.191.715,2.343,1.491,3.461,2.309,4.38,3.483,8.87,6.937,11.312,11.945a25.087,25.087,0,0,1,1.309,2.9,25.579,25.579,0,0,1,.96,3.152q.537,1.723.949,3.5a69.847,69.847,0,0,1,1.411,8.739q.076.74.14,1.482c.043.494.082.989.123,1.483.091.673.264,1.536.782,1.709a12.455,12.455,0,0,1,4.674,4.245,9.85,9.85,0,0,1,.547,1,7.944,7.944,0,0,1,.834,1.563,6.149,6.149,0,0,1,.369,1.908,14.1,14.1,0,0,1-.275,1.885c-.684,2.757-2.2,5.476-2.932,8.255a13.222,13.222,0,0,0-.292,1.394c-.083.377-.737,4.73-.751,5.12a3.179,3.179,0,0,0,.585,2.485,3.269,3.269,0,0,0,.562.561c1.949,1.1,4.712,1.62,6.292-.164a3.176,3.176,0,0,0,.485-.935,3.661,3.661,0,0,0,.174-1.146c.047-.362.079-.727.1-1.1.135-2.579.261-9.267.083-11.866-.064-.366-.128-.729-.19-1.088-.081-.368-.158-.735-.23-1.1-.142-.733-.257-1.46-.324-2.181q-.086-.7-.143-1.4a37.774,37.774,0,0,1-.042-5.6,12,12,0,0,1,.355-1.7,10.471,10.471,0,0,1,.618-1.634q.255-.946.56-1.874c.264-.838.54-1.673.808-2.505s.533-1.663.774-2.492c.063-.963.138-1.927.235-2.884a38.747,38.747,0,0,1,3.576-13.53,26.64,26.64,0,0,1,2.122-3.53,23.252,23.252,0,0,1,5.52-6.045,28.536,28.536,0,0,1,3.345-2.222q1.367-.727,2.778-1.383c8.466-3.492,17.1-6.427,25.144-10.519.86-.468,1.711-.967,2.552-1.487,1.682-1.039,3.328-2.158,4.928-3.378q2.378-1.812,4.59-3.816,2.348-2.136,4.492-4.5,1.357-1.477,2.624-3.035a87.087,87.087,0,0,0,6.648-9.838,68.117,68.117,0,0,0,5.036-10.718c5.7-15.635,5.678-33.818-1.383-48.871a52.8,52.8,0,0,0-2.978-5.487,48.55,48.55,0,0,0-8.884-10.623Q726.019,1185.662,724.072,1184.058Z" transform="translate(-123.424 -5.376)" fill="#e54d42"/>
      <g id="Group_7" data-name="Group 7" transform="translate(476.074 1176.054)">
        <path id="Path_10" data-name="Path 10" d="M711.234,1310.555c-6.491.286-14.133,5.971-16.468,12.557a11.81,11.81,0,0,0-.713,4.024c.138,1.407.388,2.935,1.585,3.756,5.4,4.194,12.579.344,16.765-3.863a33.369,33.369,0,0,0,2.967-3.264,40.042,40.042,0,0,0,2.5-3.5c2.022-3.181,1.027-7.436-2.433-8.767A8.37,8.37,0,0,0,711.234,1310.555Z" transform="translate(-694.053 -1310.547)" fill="#fff"/>
      </g>
      <g id="Group_8" data-name="Group 8" transform="translate(460.886 1200.122)">
        <path id="Path_11" data-name="Path 11" d="M561.681,1533.4a9.322,9.322,0,0,0-6.713,4.579c-1.763,3.223-2.625,8.79,1.392,10.222,4.619,1.569,9.327-2.418,11.288-6.656a6.5,6.5,0,0,0-.16-6.1C566.268,1533.534,563.946,1533.048,561.681,1533.4Z" transform="translate(-553.492 -1533.293)" fill="#fff"/>
      </g>
      <g id="Group_9" data-name="Group 9" transform="translate(504.789 1300.927)" opacity="0.32">
        <path id="Path_12" data-name="Path 12" d="M959.835,2466.475l0,.01a.854.854,0,0,0,.161.663c.83,1.409,2.919,3.706,4.782,2.983,1.156-.448-.853-2.133-1.226-2.422a7.6,7.6,0,0,0-2.033-1.17C961.2,2466.424,960.019,2465.94,959.835,2466.475Z" transform="translate(-959.81 -2466.228)" fill="#ff6c73"/>
      </g>
      <g id="Group_10" data-name="Group 10" transform="translate(508.268 1315.297)" opacity="0.32">
        <path id="Path_13" data-name="Path 13" d="M992.026,2599.423l0,.008a.7.7,0,0,0,.133.546c.684,1.161,2.405,3.054,3.941,2.458.952-.37-.7-1.757-1.01-2a6.269,6.269,0,0,0-1.675-.964C993.15,2599.381,992.177,2598.982,992.026,2599.423Z" transform="translate(-992.005 -2599.22)" fill="#ff6c73"/>
      </g>
      <g id="Group_11" data-name="Group 11" transform="translate(522.523 1340.593)" opacity="0.32">
        <path id="Path_14" data-name="Path 14" d="M1125.865,2833.336h-.008a.7.7,0,0,0-.473.3c-.874,1.026-2.1,3.272-1.034,4.528.661.779,1.431-1.239,1.556-1.607a6.27,6.27,0,0,0,.363-1.9C1126.272,2834.384,1126.331,2833.335,1125.865,2833.336Z" transform="translate(-1123.936 -2833.336)" fill="#ff6c73"/>
      </g>
      <g id="Group_12" data-name="Group 12" transform="translate(497.336 1305.457)" opacity="0.32">
        <path id="Path_15" data-name="Path 15" d="M890.835,2508.391c.7,2.261,3.8,5.2,5.359,3.47.863-.864-1.9-2.59-3.554-3.336C892.294,2508.395,890.992,2507.841,890.835,2508.391Z" transform="translate(-890.835 -2508.152)" fill="#ff6c73"/>
      </g>
      <g id="Group_13" data-name="Group 13" transform="translate(507.699 1331.1)" opacity="0.32">
        <path id="Path_16" data-name="Path 16" d="M986.74,2745.712c.7,2.261,3.8,5.2,5.359,3.47.863-.863-1.9-2.59-3.554-3.336C988.2,2745.715,986.9,2745.161,986.74,2745.712Z" transform="translate(-986.74 -2745.473)" fill="#ff6c73"/>
      </g>
      <g id="Group_14" data-name="Group 14" transform="translate(498.03 1317.939)" opacity="0.32">
        <path id="Path_17" data-name="Path 17" d="M897.264,2624.267a1.487,1.487,0,0,0,.256.85,8.792,8.792,0,0,0,2.627,3.058,4.11,4.11,0,0,0,1.917.872,1.2,1.2,0,0,0,1.068-1.587,8.478,8.478,0,0,0-2.509-2.828c-.514-.361-3.121-1.7-3.352-.409Q897.267,2624.244,897.264,2624.267Z" transform="translate(-897.259 -2623.672)" fill="#ff6c73"/>
      </g>
      <g id="Group_15" data-name="Group 15" transform="translate(518.884 1320.627)" opacity="0.32">
        <path id="Path_18" data-name="Path 18" d="M1090.372,2648.89a1.484,1.484,0,0,0-.086.883,8.79,8.79,0,0,0,1.27,3.826c.315.476.881,1.33,1.443,1.534a1.2,1.2,0,0,0,1.59-1.063,8.476,8.476,0,0,0-1.248-3.569c-.339-.529-2.242-2.758-2.946-1.651C1090.387,2648.864,1090.379,2648.877,1090.372,2648.89Z" transform="translate(-1090.26 -2648.546)" fill="#ff6c73"/>
      </g>
      <path id="Path_19" data-name="Path 19" d="M852.876,2297.795a30.414,30.414,0,0,0-21.139,1.989,18.875,18.875,0,0,0-3.728,2.586,20.664,20.664,0,0,0-3.025,3.356,22.991,22.991,0,0,0-3.734,8.262c-.8,3.464-.4,7.254-1.247,10.776a27.216,27.216,0,0,0-.773,9.663,29.306,29.306,0,0,0,4.614,12.361c1.2,1.87,2.715,3.441,4.018,5.219,3.191,4.354,5.822,8.4,10.439,11.427a22.431,22.431,0,0,0,14.387,3.955,17.7,17.7,0,0,0,5.263-1.375c5.353-2.072,9.5-6.907,9.67-12.778.1-8.081.58-16.536-.5-24.658-.179-1.354-.4-2.7-.65-4.052-1.617-8.243-1.444-18.431-8.868-24.156A15.473,15.473,0,0,0,852.876,2297.795Z" transform="translate(-329.497 -1014.109)" fill="#fcb1ba"/>
      <path id="Path_20" data-name="Path 20" d="M1292.641,2285.306a25.812,25.812,0,0,0-17.23-3.681,25.205,25.205,0,0,0-4.422,1.016,15.525,15.525,0,0,0-4.955,2.313c-3.791,3.469-4.922,7.86-4.86,12.55.012.938.073,1.888.169,2.844.946,9.508,3.882,19.005,2.794,28.63q-.068,1.146-.1,2.288c-.068,2.286-.03,4.569.131,6.891.109,1.143.266,2.265.48,3.359,1.488,7.643,5.822,13.892,15.1,14.084a20.775,20.775,0,0,0,9.963-1.663c.622-.274,1.228-.58,1.828-.905,7.883-2.078,10.991-9.676,12.45-16.931.338-.691.687-1.383,1.038-2.078,3.165-6.254,6.563-12.719,4.174-20.026-.12-.636-.249-1.271-.377-1.9a48.2,48.2,0,0,1-.917-5.627c-.115-.978-.239-1.932-.406-2.871a21.321,21.321,0,0,0-6.035-11.876,18.471,18.471,0,0,0-3.661-2.751A24.7,24.7,0,0,0,1292.641,2285.306Z" transform="translate(-723.819 -1000.431)" fill="#fcb1ba"/>
      <path id="Path_21" data-name="Path 21" d="M848.475,2537.386a16.4,16.4,0,0,1-2.069-1.881,17.342,17.342,0,0,1-1.739-2.218c-4.621-6.726-4.448-16.4,1.25-22.267,3.8-3.972,10.533-1.9,14.332,1.554,3.454,3.281,4.144,8.116,4.924,12.576.089.691.153,1.383.18,2.072a11.61,11.61,0,0,1-1.132,5.9c-2.59,4.49-8.289,6.389-13.3,5.121A18.447,18.447,0,0,1,848.475,2537.386Z" transform="translate(-349.409 -1203.322)" fill="#ffbdc3"/>
      <path id="Path_22" data-name="Path 22" d="M883.065,2332.777a12.25,12.25,0,0,1-1.776-1.454c-.556-.539-1.081-1.12-1.606-1.715-2.508-3.918-6.473-5.247-10.728-5.7a12.448,12.448,0,0,0-1.471-.067c-2.755-.161-6.9,1.911-8.28-1.2-1.554-3.281.345-6.734,1.807-9.729.19-.334.394-.66.61-.977,3.281-5.008,8.979-6.735,14.331-8.051a22.821,22.821,0,0,1,2.323-.335,17.306,17.306,0,0,1,9.075,1.479,18.058,18.058,0,0,1,7.813,7.331,23,23,0,0,1,1.6,3.32,30.825,30.825,0,0,1,1.825,6.222,26.115,26.115,0,0,1,.372,3.2c.135,2.544-.038,5.134-1.937,7.034-3.108,2.59-7.6,2.763-11.347,1.664A18.233,18.233,0,0,1,883.065,2332.777Z" transform="translate(-364.769 -1020.131)" fill="#ffbdc3"/>
      <path id="Path_23" data-name="Path 23" d="M976.65,2646.7c-.5-.239-1.019-.488-1.549-.753s-1.07-.542-1.6-.839c-2.111-1.191-4.029-2.726-4.26-5.259a7.141,7.141,0,0,1,.09-1.92,7.921,7.921,0,0,1,6.326-6.121,10.6,10.6,0,0,0,1.355-.593,8.788,8.788,0,0,0,2.5-2.03,9.37,9.37,0,0,0,1.913-5.118c.182-1.349.3-2.776.536-4.122.362-2.019,1.01-3.855,2.606-4.97a6.141,6.141,0,0,1,1.943-.875c10.528-3.089,15.19,8.826,14.07,17.543a21.612,21.612,0,0,1-.279,2.52,18.591,18.591,0,0,1-.518,2.662,14.757,14.757,0,0,1-8.687,10.021,26.465,26.465,0,0,1-4.184,1.149,15.445,15.445,0,0,1-8.511-.618C977.819,2647.166,977.231,2646.94,976.65,2646.7Z" transform="translate(-463.411 -1296.747)" fill="#ffbdc3"/>
      <path id="Path_24" data-name="Path 24" d="M1286.367,2343.8c-4.718-5.858-7.135-13.8-4.545-21.054,1.727-4.662,5.353-9.325,10.533-10.015a10.2,10.2,0,0,1,10.706,5.526,23.941,23.941,0,0,1,1.036,19.167c-2.417,5.7-9.152,10.361-15.353,7.53A16.489,16.489,0,0,1,1286.367,2343.8Z" transform="translate(-741.296 -1028.276)" fill="#ffbdc3"/>
      <path id="Path_25" data-name="Path 25" d="M1488.879,2457.847c-2.991-2.729-6.412-5.956-6.731-9.989-.323-4.081,2.381-6.353,4.058-9.692,1.43-2.847,1.867-5.858,2.591-8.914.571-2.414,1.126-5.247,3.723-6.257a7.264,7.264,0,0,1,9.45,5.289q.293,1.209.55,2.429c.182.819.351,1.64.525,2.477a38.587,38.587,0,0,1,1.826,6.375c.136.735.247,1.469.333,2.219a16.756,16.756,0,0,1-9.033,18.943,5.318,5.318,0,0,1-1.82.4,4.274,4.274,0,0,1-1.815-.32,7.58,7.58,0,0,1-2.141-1.567C1489.915,2458.79,1489.4,2458.326,1488.879,2457.847Z" transform="translate(-920.896 -1126.348)" fill="#ffbdc3"/>
      <path id="Path_26" data-name="Path 26" d="M1310.346,2689.473c-4.6-2.639-6.323-8.337-7.867-13.114-.157-.7-.283-1.411-.371-2.122a14.578,14.578,0,0,1-.1-3.336c.48-5.56,4.2-10.86,9.953-11,3.5-.129,6.411,1.878,8.669,4.492a23.66,23.66,0,0,1,2.037,2.76,19.564,19.564,0,0,1,1.572,2.9,14.844,14.844,0,0,1,1.432,8.51,13.1,13.1,0,0,1-.356,1.721,15.04,15.04,0,0,1-.516,2.068,16.937,16.937,0,0,1-.847,2.112,11.31,11.31,0,0,1-6.052,6.11,7.509,7.509,0,0,1-1.658.433,8.679,8.679,0,0,1-4.628-.916Q1311,2689.824,1310.346,2689.473Z" transform="translate(-760.2 -1338.038)" fill="#ffbdc3"/>
      <path id="Path_27" data-name="Path 27" d="M1533.592,2800.53a9.923,9.923,0,0,1-2-6.946,10.8,10.8,0,0,1,.315-1.711,10.992,10.992,0,0,1,.572-1.617,1.615,1.615,0,0,1,1.209-.864,5.993,5.993,0,0,1,1.63.223,5.4,5.4,0,0,1,3.723,3.922c.345,1.9.518,4.144-1.036,5.7a5.4,5.4,0,0,1-3.761,1.425A1.906,1.906,0,0,1,1533.592,2800.53Z" transform="translate(-965 -1453.547)" fill="#ffbdc3"/>
      <path id="Path_28" data-name="Path 28" d="M1499.853,2329.1a5.745,5.745,0,0,0,1.182,4.414c1.9,2.245,4.835,3.8,7.771,2.763a1.912,1.912,0,0,0,1.209-1.554c-.173-3.972-4.662-6.217-8.373-6.292A7.147,7.147,0,0,0,1499.853,2329.1Z" transform="translate(-936.663 -1042.394)" fill="#ffbdc3"/>
      <g id="Group_16" data-name="Group 16" transform="translate(552.767 1307.905)" opacity="0.32">
        <path id="Path_29" data-name="Path 29" d="M1409.519,2532.153a2.961,2.961,0,0,1-1.405,3.067,4.347,4.347,0,0,1-.894.383,3.024,3.024,0,0,1-2.768-.452c-1.036-.777-.615-2.234.243-3.205a3.29,3.29,0,0,1,.966-.766,3.614,3.614,0,0,1,2.84-.141A1.71,1.71,0,0,1,1409.519,2532.153Z" transform="translate(-1403.842 -2530.812)" fill="#ff6c73"/>
      </g>
      <g id="Group_17" data-name="Group 17" transform="translate(549.14 1342.133)" opacity="0.32">
        <path id="Path_30" data-name="Path 30" d="M1375.368,2852.005a2.962,2.962,0,0,1-3.365.245,4.357,4.357,0,0,1-.766-.6,3.024,3.024,0,0,1-.937-2.644c.182-1.282,1.662-1.615,2.927-1.33a3.289,3.289,0,0,1,1.136.478,3.615,3.615,0,0,1,1.491,2.422A1.71,1.71,0,0,1,1375.368,2852.005Z" transform="translate(-1370.268 -2847.583)" fill="#ff6c73"/>
      </g>
      <g id="Group_18" data-name="Group 18" transform="translate(523.871 1319.861)" opacity="0.32">
        <path id="Path_31" data-name="Path 31" d="M1137.008,2646.476a2.962,2.962,0,0,1-.136-3.371,4.352,4.352,0,0,1,.623-.747,3.025,3.025,0,0,1,2.672-.851c1.276.224,1.56,1.713,1.235,2.968a3.287,3.287,0,0,1-.514,1.121,3.614,3.614,0,0,1-2.468,1.412A1.711,1.711,0,0,1,1137.008,2646.476Z" transform="translate(-1136.413 -2641.459)" fill="#ff6c73"/>
      </g>
      <g id="Group_19" data-name="Group 19" transform="translate(499.805 1311.414)" opacity="0.32">
        <path id="Path_32" data-name="Path 32" d="M913.85,2564.707a2.962,2.962,0,0,1,3.085-1.367,4.358,4.358,0,0,1,.924.3,3.024,3.024,0,0,1,1.774,2.172c.261,1.269-1.019,2.081-2.305,2.24a3.288,3.288,0,0,1-1.231-.066,3.614,3.614,0,0,1-2.221-1.776A1.709,1.709,0,0,1,913.85,2564.707Z" transform="translate(-913.687 -2563.289)" fill="#ff6c73"/>
      </g>
      <g id="Group_20" data-name="Group 20" transform="translate(554.557 1299.516)" opacity="0.32">
        <path id="Path_33" data-name="Path 33" d="M1423.556,2453.682a2.5,2.5,0,0,1-1.036,2.633,1.3,1.3,0,0,1-1.554,0c-1.381-1.209,0-3.454,1.727-3.108.345,0,.518.345.848.45Z" transform="translate(-1420.402 -2453.171)" fill="#ff6c73"/>
      </g>
      <g id="Group_21" data-name="Group 21" transform="translate(513.174 1298.842)" opacity="0.32">
        <path id="Path_34" data-name="Path 34" d="M1040.562,2447.445a2.5,2.5,0,0,1-1.036,2.633,1.3,1.3,0,0,1-1.554,0c-1.381-1.209,0-3.454,1.727-3.108.345,0,.518.345.848.45Z" transform="translate(-1037.408 -2446.934)" fill="#ff6c73"/>
      </g>
      <g id="Group_22" data-name="Group 22" transform="translate(558.518 1337.426)" opacity="0.32">
        <path id="Path_35" data-name="Path 35" d="M1460.213,2804.536a2.5,2.5,0,0,1-1.036,2.633,1.3,1.3,0,0,1-1.554,0c-1.381-1.209,0-3.454,1.727-3.108.345,0,.518.345.847.45Z" transform="translate(-1457.059 -2804.025)" fill="#ff6c73"/>
      </g>
      <g id="Group_23" data-name="Group 23" transform="translate(526.412 1305.457)" opacity="0.32">
        <path id="Path_36" data-name="Path 36" d="M1163.084,2508.663a2.5,2.5,0,0,1-1.036,2.633,1.3,1.3,0,0,1-1.554,0c-1.381-1.208,0-3.454,1.727-3.108.345,0,.518.345.848.45Z" transform="translate(-1159.93 -2508.152)" fill="#ff6c73"/>
      </g>
      <g id="Group_24" data-name="Group 24" transform="translate(528.011 1339.778)" opacity="0.32">
        <path id="Path_37" data-name="Path 37" d="M1177.879,2826.3a2.5,2.5,0,0,1-1.036,2.633,1.3,1.3,0,0,1-1.554,0c-1.381-1.209,0-3.454,1.727-3.108.345,0,.518.345.848.45Z" transform="translate(-1174.725 -2825.788)" fill="#ff6c73"/>
      </g>
      <g id="Group_25" data-name="Group 25" transform="translate(573.351 1303.755)" opacity="0.32">
        <path id="Path_38" data-name="Path 38" d="M1597.491,2492.916a2.5,2.5,0,0,1-1.036,2.633,1.3,1.3,0,0,1-1.554,0c-1.381-1.209,0-3.454,1.727-3.108.345,0,.518.345.848.45Z" transform="translate(-1594.337 -2492.405)" fill="#ff6c73"/>
      </g>
      <g id="Group_26" data-name="Group 26" transform="translate(554.696 1291.458)" opacity="0.32">
        <path id="Path_39" data-name="Path 39" d="M1424.4,2378.872c.134.378.307.724.134,1.069-.345.864-1.381,1.727-2.245,1.209a1.349,1.349,0,0,1-.345-1.9,1.955,1.955,0,0,1,2.442-.4Z" transform="translate(-1421.689 -2378.593)" fill="#ff6c73"/>
      </g>
      <g id="Group_27" data-name="Group 27" transform="translate(507.174 1292.307)" opacity="0.32">
        <path id="Path_40" data-name="Path 40" d="M984.6,2386.728c.134.378.307.724.134,1.069-.345.864-1.381,1.727-2.245,1.209a1.349,1.349,0,0,1-.345-1.9,1.956,1.956,0,0,1,2.442-.4Z" transform="translate(-981.886 -2386.448)" fill="#ff6c73"/>
      </g>
      <g id="Group_28" data-name="Group 28" transform="translate(544.461 1299.892)" opacity="0.32">
        <path id="Path_41" data-name="Path 41" d="M1329.021,2456.78c.711.928.193,2.827-1.188,2.482-.691-.173-.691-1.036-.863-1.554,0-1.036,1.381-1.209,2.036-.946Z" transform="translate(-1326.97 -2456.653)" fill="#ff6c73"/>
      </g>
      <g id="Group_29" data-name="Group 29" transform="translate(576.548 1322.629)" opacity="0.32">
        <path id="Path_42" data-name="Path 42" d="M1625.978,2667.2c.711.928.193,2.827-1.188,2.482-.691-.173-.691-1.036-.863-1.554,0-1.036,1.381-1.209,2.036-.946Z" transform="translate(-1623.927 -2667.075)" fill="#ff6c73"/>
      </g>
      <g id="Group_30" data-name="Group 30" transform="translate(567.058 1322.629)" opacity="0.32">
        <path id="Path_43" data-name="Path 43" d="M1538.154,2667.2c.711.928.193,2.827-1.188,2.482-.691-.173-.691-1.036-.863-1.554,0-1.036,1.381-1.209,2.036-.946Z" transform="translate(-1536.102 -2667.075)" fill="#ff6c73"/>
      </g>
      <g id="Group_31" data-name="Group 31" transform="translate(567.058 1288.8)" opacity="0.32">
        <path id="Path_44" data-name="Path 44" d="M1538.154,2354.12c.711.928.193,2.827-1.188,2.482-.691-.173-.691-1.036-.863-1.554,0-1.036,1.381-1.209,2.036-.946Z" transform="translate(-1536.102 -2353.993)" fill="#ff6c73"/>
      </g>
      <g id="Group_32" data-name="Group 32" transform="translate(546.831 1291.013)" opacity="0.32">
        <path id="Path_45" data-name="Path 45" d="M1350.953,2374.6c.711.927.193,2.827-1.188,2.482-.691-.173-.691-1.036-.863-1.554,0-1.036,1.381-1.209,2.037-.945Z" transform="translate(-1348.901 -2374.476)" fill="#ff6c73"/>
      </g>
      <g id="Group_33" data-name="Group 33" transform="translate(552.051 1329.774)" opacity="0.32">
        <path id="Path_46" data-name="Path 46" d="M1399.267,2733.334c.711.928.193,2.827-1.188,2.482-.691-.173-.691-1.036-.863-1.554,0-1.036,1.381-1.209,2.036-.945Z" transform="translate(-1397.216 -2733.207)" fill="#ff6c73"/>
      </g>
      <g id="Group_34" data-name="Group 34" transform="translate(526.826 1294.883)" opacity="0.32">
        <path id="Path_47" data-name="Path 47" d="M1165.811,2410.418c.711.928.193,2.827-1.188,2.482-.691-.173-.691-1.036-.863-1.554,0-1.036,1.381-1.209,2.036-.945Z" transform="translate(-1163.759 -2410.291)" fill="#ff6c73"/>
      </g>
      <g id="Group_35" data-name="Group 35" transform="translate(498.521 1298.567)" opacity="0.32">
        <path id="Path_48" data-name="Path 48" d="M903.852,2444.515c.711.927.193,2.827-1.188,2.482-.691-.173-.691-1.036-.863-1.554,0-1.036,1.381-1.209,2.036-.945Z" transform="translate(-901.801 -2444.387)" fill="#ff6c73"/>
      </g>
      <g id="Group_36" data-name="Group 36" transform="translate(522.029 1333.455)" opacity="0.32">
        <path id="Path_49" data-name="Path 49" d="M1121.415,2767.4c.711.928.193,2.827-1.188,2.482-.691-.173-.691-1.036-.863-1.554,0-1.036,1.381-1.209,2.036-.946Z" transform="translate(-1119.363 -2767.271)" fill="#ff6c73"/>
      </g>
      <g id="Group_37" data-name="Group 37" transform="translate(497.336 1322.629)" opacity="0.32">
        <path id="Path_50" data-name="Path 50" d="M892.887,2667.2c.711.928.193,2.827-1.188,2.482-.691-.173-.691-1.036-.863-1.554,0-1.036,1.381-1.209,2.037-.946Z" transform="translate(-890.835 -2667.075)" fill="#ff6c73"/>
      </g>
      <g id="Group_38" data-name="Group 38" transform="translate(513.587 1286.038)" opacity="0.32">
        <path id="Path_51" data-name="Path 51" d="M1043.288,2328.56c.711.927.193,2.827-1.188,2.482-.691-.173-.691-1.036-.863-1.554,0-1.036,1.381-1.209,2.036-.946Z" transform="translate(-1041.237 -2328.432)" fill="#ff6c73"/>
      </g>
      <g id="Group_39" data-name="Group 39" transform="translate(506.264 1327.281)" opacity="0.32">
        <path id="Path_52" data-name="Path 52" d="M975.513,2710.262c.711.927.193,2.827-1.188,2.482-.691-.173-.691-1.036-.863-1.554,0-1.036,1.381-1.209,2.037-.945Z" transform="translate(-973.462 -2710.134)" fill="#ff6c73"/>
      </g>
      <g id="Group_40" data-name="Group 40" transform="translate(569.237 1341.479)" opacity="0.32">
        <path id="Path_53" data-name="Path 53" d="M1558.317,2841.663c.711.927.193,2.827-1.188,2.482-.691-.173-.691-1.036-.863-1.554,0-1.036,1.381-1.208,2.037-.945Z" transform="translate(-1556.265 -2841.535)" fill="#ff6c73"/>
      </g>
      <g id="Group_41" data-name="Group 41" transform="translate(544.677 1336.101)" opacity="0.32">
        <path id="Path_54" data-name="Path 54" d="M1331.015,2791.886c.711.928.193,2.827-1.188,2.482-.691-.173-.691-1.036-.863-1.554,0-1.036,1.381-1.209,2.036-.946Z" transform="translate(-1328.963 -2791.759)" fill="#ff6c73"/>
      </g>
      <g id="Group_42" data-name="Group 42" transform="translate(514.772 1341.479)" opacity="0.32">
        <path id="Path_55" data-name="Path 55" d="M1054.254,2841.663c.711.927.193,2.827-1.188,2.482-.691-.173-.691-1.036-.863-1.554,0-1.036,1.381-1.208,2.037-.945Z" transform="translate(-1052.202 -2841.535)" fill="#ff6c73"/>
      </g>
    </g>
  </g>
</svg>
