<svg xmlns="http://www.w3.org/2000/svg" xmlns:xlink="http://www.w3.org/1999/xlink" width="863" height="697" viewBox="0 0 863 697">
  <defs>
    <clipPath id="clip-path">
      <path id="Clip_2" data-name="Clip 2" d="M0,0H141.894V200.148H0Z" transform="translate(0.151 0.677)" fill="none"/>
    </clipPath>
    <clipPath id="clip-path-2">
      <path id="Clip_42" data-name="Clip 42" d="M0,0H67.126V214.046H0Z" transform="translate(0 0.097)" fill="none"/>
    </clipPath>
    <clipPath id="clip-path-3">
      <path id="Clip_67" data-name="Clip 67" d="M0,0H71.26V205.15H0Z" transform="translate(0.606 0.752)" fill="none"/>
    </clipPath>
    <filter id="Rectangle_Copy_9" x="0" y="73" width="394" height="395" filterUnits="userSpaceOnUse">
      <feOffset dx="-12" dy="25" input="SourceAlpha"/>
      <feGaussianBlur stdDeviation="26.5" result="blur"/>
      <feFlood flood-color="#5864ee" flood-opacity="0.251"/>
      <feComposite operator="in" in2="blur"/>
      <feComposite in="SourceGraphic"/>
    </filter>
    <filter id="Rectangle_Copy_10" x="471" y="0" width="262" height="263" filterUnits="userSpaceOnUse">
      <feOffset dx="-12" dy="25" input="SourceAlpha"/>
      <feGaussianBlur stdDeviation="26.5" result="blur-2"/>
      <feFlood flood-color="#5864ee" flood-opacity="0.251"/>
      <feComposite operator="in" in2="blur-2"/>
      <feComposite in="SourceGraphic"/>
    </filter>
    <filter id="Rectangle_Copy_11" x="541" y="336" width="247" height="248" filterUnits="userSpaceOnUse">
      <feOffset dx="-12" dy="25" input="SourceAlpha"/>
      <feGaussianBlur stdDeviation="26.5" result="blur-3"/>
      <feFlood flood-color="#5864ee" flood-opacity="0.251"/>
      <feComposite operator="in" in2="blur-3"/>
      <feComposite in="SourceGraphic"/>
    </filter>
    <clipPath id="clip-path-4">
      <path id="Clip_2-2" data-name="Clip 2" d="M0,0H172.818V101.481H0Z" transform="translate(0 0.518)" fill="none"/>
    </clipPath>
    <clipPath id="clip-path-5">
      <path id="Clip_11" data-name="Clip 11" d="M0,0H93.7V115.274H0Z" transform="translate(0.537 0.725)" fill="none"/>
    </clipPath>
    <clipPath id="clip-path-6">
      <path id="Clip_14" data-name="Clip 14" d="M0,0H40.184V49.4H0Z" transform="translate(0.047 0.596)" fill="none"/>
    </clipPath>
    <clipPath id="clip-path-7">
      <path id="Clip_16" data-name="Clip 16" d="M0,0H.886V22.434H0Z" transform="translate(0.289 0.247)" fill="none"/>
    </clipPath>
  </defs>
  <g id="Group_517" data-name="Group 517" transform="translate(-627.5 -158.5)">
    <g id="Group_99" data-name="Group 99" transform="translate(998 296)">
      <g id="Group_3" data-name="Group 3" transform="translate(50 354)">
        <path id="Clip_2-3" data-name="Clip 2" d="M0,0H141.894V200.148H0Z" transform="translate(0.151 0.677)" fill="none"/>
        <g id="Group_3-2" data-name="Group 3" clip-path="url(#clip-path)">
          <path id="Fill_1" data-name="Fill 1" d="M141.894,200.149H84.98S69.106,56.364,66.354,57.4s-7.924,142.747-7.924,142.747H1.681c-1.7-.166-1.824-21.4-1.593-36.793.1-6.433.268-11.85.393-14.3q2.048-36.853,4.1-73.687C4.848,70.558,10.144.25,8.757,0c0,0,29.927,5.354,47.54,6.7a65.212,65.212,0,0,0,9.374.206c2.485-.206,5.733-.6,9.355-1.119C89.512,3.757,109.816,0,109.816,0l26.117,163.024Z" transform="translate(0.151 0.677)" fill="#135cb0"/>
        </g>
      </g>
      <g id="Group_8" data-name="Group 8" transform="translate(68 371)">
        <path id="Fill_4" data-name="Fill 4" d="M2.784,120.1s-10.071,52.12,8.1,54.9,24.956-35.184,28.834-91.255S39.3-4.439,31.747.5,2.784,120.1,2.784,120.1" transform="translate(0.604 -0.002)" fill="#226ec5"/>
        <path id="Fill_6" data-name="Fill 6" d="M1.31,7.16C-.352,11.23-.1,16.195.284,20.726Q5.393,80.55,10.5,140.371c.8,9.311,4.8,17.853,14.006,21.147,9.391,3.36,22.893.829,26.261-9.861,1.036-3.288.789-6.827.51-10.263Q48.082,101.958,41.2,62.936c-2.179-12.357-4.633-24.667-7.457-36.89-1.756-7.609-3.882-15.595-9.419-21.084S8.7-2.154,3.486,3.649A12.035,12.035,0,0,0,1.31,7.16" transform="translate(55.866 14.68)" fill="#226ec5"/>
      </g>
      <path id="Fill_9" data-name="Fill 9" d="M85.609,401.976c-3.013,1.932-11.189,4.741-20.748,7.4-17.629,4.907-40.027,9.336-43.6,6.965-5.513-3.639-4.811-7.09-5.843-17.485-.641-6.53-6.213-79.65-10.486-136.119-.289-3.724-.56-7.363-.827-10.9C1.978,223.379.3,201.071.037,197.181c-.289-4.2,1.138-25.4,3.1-51.58C6.726,98.134,12.093,34.387,12.32,26.341c.084-3.47-.019-7.046-.227-10.394C11.6,7.234,10.424,0,10.424,0s7.224,3.721,10.054,9.708c2.848,5.988,4.664,10.147,4.664,10.147s46.7,17.923,50.311,25.2S62.548,97.717,59.8,119.9c-2.108,16.9-4.005,27.569-3.119,46.074.1,2.368.271,4.864.476,7.526.311,3.827.721,8,1.259,12.577,3.694,31.938,12.056,35.906,18.848,93.145.146,1.143.267,2.33.414,3.536,6.894,60.646,16.515,113.664,7.926,119.216" transform="translate(121 108)" fill="#e9f2f6"/>
      <path id="Fill_11" data-name="Fill 11" d="M39,106a20.243,20.243,0,0,1-6.506-9.131C24.679,76.606-3.8,75.963.424,73.667s-4.3-14.318,2.389-24.222C9.485,39.542,18.756,0,18.756,0c.313,3.834.729,8.023,1.268,12.61C23.743,44.632,32.162,48.61,39,106" transform="translate(160 282)" fill="#c5dee4"/>
      <path id="Fill_13" data-name="Fill 13" d="M87.505,196.67c-.646,5.3-2.187,27.506-4.23,55.881-.458,6.484-.957,13.3-1.478,20.3-2.335,31.971-5.106,67.991-7.833,95.829-2.209,22.665-4.418,39.91-6.314,45.164a3.1,3.1,0,0,1-.979,1.643,4.751,4.751,0,0,1-1.064.31c-5.479,1.061-23.25-2.14-38.915-6.418-2.1-.563-4.145-1.164-6.144-1.765C8.9,404.1-.285,400.215.007,397.493c.144-1.577,1.312-11.716,3.082-26.839.835-7.354,1.836-15.871,2.937-25.178,2.438-20.587,5.335-44.976,8.253-68.661,4.914-40.091,9.832-78.192,12.333-92.609.333-1.953.643-3.968.894-6a191.555,191.555,0,0,0,1.4-23.287v-.228c.041-12.36-.791-24.908-1.814-36.333C25.8,103.933,24.173,91.323,23.611,83.1c-1.4-20.071,5.561-52.977,5.561-52.977s12.5-5.523,19.083-7.269C54.86,21.128,59.382,19.4,59.382,19.4s4.164-12.132,7.977-15.58A14.5,14.5,0,0,1,75.007,0s.166,5.964.562,15.934c.75,18.49,2.269,50.752,4.977,84.488,1.795,22.271,3.709,39.969,5.146,54.263v.019c1.917,19.051,3,32.077,1.814,41.966" transform="translate(22 109)" fill="#e9f2f6"/>
      <path id="Fill_15" data-name="Fill 15" d="M31.119,74.852C26.425,76.124,12.369,84.967,0,99,4.923,58.752,9.846,20.5,12.347,6.028c.333-1.96.647-3.983.9-6.028,3.337,10.781,9.011,25.716,16.516,32.618,12.432,11.473,9.033,40.129,1.357,42.234" transform="translate(37 287)" fill="#c5dee4"/>
      <path id="Fill_17" data-name="Fill 17" d="M34,10.017,0,13C1.545,9.351,3.087,5.739,4.547,2.276L32.709,0c.311,3.549.75,6.868,1.291,10.017" transform="translate(142 199)" fill="#fefefe"/>
      <path id="Fill_19" data-name="Fill 19" d="M26.047,227.537c.189,2.678.4,5.441.6,8.248-3.656.519-6.94.914-9.446,1.12a66.465,66.465,0,0,1-9.468-.207c2.047-28.376,3.593-50.582,4.241-55.879,1.193-9.887.1-22.91-1.817-41.958v-.022C8.719,124.547,6.8,106.85,4.994,84.585,2.28,50.849.753,18.59,0,.1A32.476,32.476,0,0,1,7.674,6.876a28.163,28.163,0,0,1,2.488,3.614,80.712,80.712,0,0,1,4.075,7.622S27.908-1.6,34.744.1c.208,3.342.312,6.915.227,10.385-.227,8.038-5.661,71.727-9.3,119.148-1.984,26.151-3.426,47.34-3.133,51.536.249,3.511,1.65,21.937,3.511,46.364" transform="translate(99 125)" fill="#4bbcc8"/>
      <path id="Fill_21" data-name="Fill 21" d="M0,5.973V7.027A5.822,5.822,0,0,0,5.658,13H30.342A5.822,5.822,0,0,0,36,7.027V5.973A5.822,5.822,0,0,0,30.342,0H5.658A5.822,5.822,0,0,0,0,5.973" transform="translate(155 355)" fill="#fefefe"/>
      <path id="Fill_23" data-name="Fill 23" d="M5.729,0H27.267A5.753,5.753,0,0,1,33,5.777v.448A5.751,5.751,0,0,1,27.15,12L5.613,11.554A5.778,5.778,0,0,1,5.729,0" transform="translate(43 355)" fill="#fefefe"/>
      <path id="Fill_25" data-name="Fill 25" d="M28,15H1.852S-2.37,9.634,1.936,4.306A56.919,56.919,0,0,1,16.166,0a18.144,18.144,0,0,1,4.862,2.1l.819,1.513,5.7,10.558Z" transform="translate(42 340)" fill="#f8c5ae"/>
      <path id="Fill_27" data-name="Fill 27" d="M26.9,14H0l.794-1.474L5.568,3.72,6.993,1.061S7.579.626,8.563,0a101.468,101.468,0,0,1,20.4,4.32A21.417,21.417,0,0,1,26.9,14" transform="translate(160 342)" fill="#f8c5ae"/>
      <path id="Fill_29" data-name="Fill 29" d="M24,12A12,12,0,1,1,12,0,12,12,0,0,1,24,12" transform="translate(149 214)" fill="#384978"/>
      <path id="Fill_31" data-name="Fill 31" d="M12,6A6,6,0,1,1,6,0a6,6,0,0,1,6,6" transform="translate(155 220)" fill="#1b2239"/>
      <path id="Fill_33" data-name="Fill 33" d="M1.779,60C1.819,47.62,1,35.051,0,23.608L1.25,11.892S4.109-4.713,6.479,1.32C8.85,7.376,2.392,43.915,1.779,60" transform="translate(51 203)" fill="#c5dee4"/>
      <path id="Fill_35" data-name="Fill 35" d="M3.666,79C1.876,68.544,0,54.944,0,43.39,0,21.031,1.833,0,1.833,0L7,33.124C4.748,49.955,2.715,60.573,3.666,79" transform="translate(174 196)" fill="#c5dee4"/>
      <path id="Fill_37" data-name="Fill 37" d="M28,15H1.852S-2.37,9.634,1.936,4.306A56.919,56.919,0,0,1,16.166,0a18.144,18.144,0,0,1,4.862,2.1l.819,1.513c-5.106,3.6-11.259,8.434-9.332,9.557.68.394,6.419.726,15.034,1Z" transform="translate(42 340)" fill="#f5ab8a"/>
      <path id="Fill_39" data-name="Fill 39" d="M26.9,14H0l.794-1.474c8.938-.313,14.421-.748,13.711-1.392C12.851,9.639,8.938,6.42,5.568,3.72L6.993,1.061S7.579.626,8.563,0a101.468,101.468,0,0,1,20.4,4.32A21.417,21.417,0,0,1,26.9,14" transform="translate(160 342)" fill="#f5ab8a"/>
      <g id="Group_43" data-name="Group 43" transform="translate(0 139)">
        <path id="Clip_42-2" data-name="Clip 42" d="M0,0H67.126V214.046H0Z" transform="translate(0 0.097)" fill="none"/>
        <g id="Group_43-2" data-name="Group 43" clip-path="url(#clip-path-2)">
          <path id="Fill_41" data-name="Fill 41" d="M52.251,0S33.11,6.592,28.412,22.711-4.986,108.51.756,138.148s37.573,73.963,40.7,75.721S66.315,203.84,67.108,197.6s-24.607-54.423-25.3-74.878,10.439-46.4,12.872-80.05S52.251,0,52.251,0" transform="translate(0 0.097)" fill="#e9f2f6"/>
        </g>
      </g>
      <path id="Fill_44" data-name="Fill 44" d="M103.668,21.869,84.11,5.819A25.7,25.7,0,0,0,67.843,0H61.91A25.789,25.789,0,0,0,46.352,5.256L31.119,16.884a25.566,25.566,0,0,0-9.373,14.492l-.038.163a21.379,21.379,0,0,1-10.98,13.976A7.146,7.146,0,0,0,9.1,46.536C1.027,54.046-.719,68.252.236,78.138l4.168-.4c-.933-9.644,1.04-22.086,7.472-28.075a8.225,8.225,0,0,1,.785-.443,25.761,25.761,0,0,0,6.258-4.583A27.532,27.532,0,0,1,28.051,50.4c5.113,5.061,4.6,11.986,4.054,19.32l-.129,1.786,4.177.286.129-1.767c.561-7.579,1.2-16.17-5.281-22.586a31.158,31.158,0,0,0-9.272-6.133,25.408,25.408,0,0,0,4.089-8.978l.038-.167A21.428,21.428,0,0,1,33.663,20.2L48.893,8.572a21.579,21.579,0,0,1,13.017-4.4h5.933A21.524,21.524,0,0,1,81.449,9.038l19.558,16.054a21.258,21.258,0,0,1,7.806,16.485V112H113V41.576a25.409,25.409,0,0,0-9.332-19.707" transform="translate(49 103)" fill="#222a54"/>
      <path id="Fill_46" data-name="Fill 46" d="M.819,63A4.537,4.537,0,0,1,0,62.938l.374-2.022c.258.034,6.547.949,10.908-11.008C15.878,37.282,9.752.347,9.69,0l1.825,2.016c.267,1.439,6.464,35.452,1.674,48.606C9.074,61.909,3.008,63,.819,63" transform="translate(73 173)" fill="#384978"/>
      <path id="Fill_48" data-name="Fill 48" d="M7,3.216S3.569-.494,2.062.055A3.272,3.272,0,0,0,.964,5.38C3.02,7.58,7,3.216,7,3.216" transform="translate(68 233)" fill="#1b2239"/>
      <path id="Fill_50" data-name="Fill 50" d="M0,3.231S4.479-1.872,5.668.748,4.607,8.567,2.836,6.542,0,3.231,0,3.231" transform="translate(61 233)" fill="#1b2239"/>
      <path id="Fill_52" data-name="Fill 52" d="M13.825,55c-.207-.016-5.138-.477-11.094-8.714C-3.183,38.1,2.314,1.55,2.55,0L4.637.306C3.059,10.65-.049,38.863,4.456,45.089c5.3,7.333,9.5,7.841,9.544,7.847Z" transform="translate(49 181)" fill="#384978"/>
      <path id="Fill_54" data-name="Fill 54" d="M34,22.817C27.31,21.1,13.931,41,13.931,41a81.28,81.28,0,0,0-3.987-7.7A31.311,31.311,0,0,0,0,22.817V0H32.342l.8,11.053Z" transform="translate(99 102)" fill="#f8c5ae"/>
      <path id="Fill_56" data-name="Fill 56" d="M34,10.967C29.321,15.355,23.947,19,19.015,19,13.7,19,6.484,14.026,0,8.387V0H33.181Z" transform="translate(99 102)" fill="#ed8772"/>
      <path id="Fill_58" data-name="Fill 58" d="M80.547,40.617c-1.814-4.517-7.883.952-7.883.952l0,.019a56.42,56.42,0,0,0-.147-6.393C70.959,17.9,71.737,9.638,51,2.925S16.275,1.892,12.387,11.446A166.664,166.664,0,0,0,5.841,32.1s.375,3.214,1.259,8.176l-.009-.047S.725,36.617.076,42.556,3.049,56.624,5.841,56.624s4.219-2.713,4.219-2.713l-.009-.05c4.575,17.773,13.448,40.241,29.291,42,18.96,2.109,28.569-21.033,31.93-40.7.974,1.086,2.364,2.056,3.963,1.459,3.111-1.164,7.127-11.489,5.312-16.006" transform="translate(75 17)" fill="#f8c5ae"/>
      <path id="Fill_60" data-name="Fill 60" d="M3.364,48.467s5.361-7.106,7.964-13.861l2.6-6.755s28.287-4.507,37.484-1.387,9.2,3.119,10.583,7.97S70.512,50.2,70.512,50.2L70.481,58a18.623,18.623,0,0,0,3.494-9.361c.348-5.371-3.124-12.994-1.91-17.5s1.041-6.411-2.6-11.086S58.53,5.152,42.564,2.208A105.906,105.906,0,0,0,22.956,0a38.918,38.918,0,0,0-9.834.8c-2.4.639-4.925,1.964-5.612,4.519a36.748,36.748,0,0,0-.869,13.689c.069.445-2.086,2.706-2.378,3.172A27.749,27.749,0,0,0,.049,35.474C-.472,45.7,3.364,51.066,3.364,51.066Z" transform="translate(78)" fill="#222a54"/>
      <path id="Fill_62" data-name="Fill 62" d="M35,155C34.372,153.232,3.468,66.364.453,58.121-2.6,49.793,10.816,46.152,10.816,46.152l-7.33-4.685L.872,38.345c-2.618-3.123,7.683-18.9,7.683-18.9s4.188-12.157,8.02-15.612A14.593,14.593,0,0,1,24.258,0s1.381,48.585,5.57,100.626c1.8,22.316,3.728,40.05,5.172,54.374" transform="translate(74 108)" fill="#fefefe"/>
      <path id="Fill_64" data-name="Fill 64" d="M35.905,59.771c-.514,1.668-6.257,15.573-13.311,32.462-1.441,3.461-2.963,7.066-4.488,10.715C11.545,118.606,4.59,135.1,0,146,3.58,98.4,8.929,34.482,9.155,26.414A167.548,167.548,0,0,0,7.265,0s7.2,3.731,10.02,9.735c2.839,6,4.649,10.175,4.649,10.175s12.242,18.324,11.213,21.1-9.586,6.943-9.586,6.943,13.7,7.3,12.345,11.82" transform="translate(124 109)" fill="#fefefe"/>
      <g id="Group_68" data-name="Group 68" transform="translate(162 149)">
        <path id="Clip_67-2" data-name="Clip 67" d="M0,0H71.26V205.15H0Z" transform="translate(0.606 0.752)" fill="none"/>
        <g id="Group_68-2" data-name="Group 68" clip-path="url(#clip-path-3)">
          <path id="Fill_66" data-name="Fill 66" d="M71.122,121.436l-2.333,13.545S31.268,204.96,27.35,205.148C23.432,205.315.251,193.333,0,187.6c-.273-5.732,21.884-47.158,25.784-70.855,3.168-19.255-7.944-32.674-12.342-58.286-.54-3.148-.98-6.463-1.29-10-.251-3.1-.418-6.379-.436-9.857C11.466-1,30.141,0,30.141,0s7.63,2.4,11.548,19.569c3.9,17.215,31.768,88.32,29.432,101.865" transform="translate(0.606 0.752)" fill="#e9f2f6"/>
        </g>
      </g>
      <path id="Fill_69" data-name="Fill 69" d="M27,235.785c-3.707.519-7.031.914-9.57,1.12a68.257,68.257,0,0,1-9.6-.206c2.077-28.373,3.643-50.576,4.3-55.87,1.206-9.889.105-22.911-1.844-41.957v-.019C8.83,124.562,6.881,106.863,5.059,84.6,2.306,50.871.759,18.613,0,.129c0,0,.708-1.117,4.306,3.222-.443,23.6,2.638,84.343,8.335,107.626,7.244,29.7-4.192,97.37,5.082,111.08,1.885,2.781,4.957,4.505,8.664,5.481.188,2.681.4,5.444.612,8.247" transform="translate(99 125)" fill="#3394b1"/>
      <path id="Fill_71" data-name="Fill 71" d="M8.929,3.251C1.457,10.31.994,22.611.341,32.7c-1.946,29.951,4.986,86.164,6.968,78.6,2.566-9.795,2.36-21.122,3.181-31.181,1.358-16.644,2.566-33.3,3.718-49.965.624-9.052,2.447-19.234,1.549-28.283A2.417,2.417,0,0,0,15.222.355C14.556-.3,13.479.069,12.67.516A18.468,18.468,0,0,0,8.929,3.251" transform="translate(112 135)" fill="#76c7cf"/>
      <path id="Fill_73" data-name="Fill 73" d="M36.463,0c-6.208,6.046-13.892,11.658-22.59,11.509C4.835,11.354-.619,14.118.056,24.478A31.61,31.61,0,0,0,3.772,36.409c2.374,4.733,5.908,9.633,11.162,10.469,4.735.755,9.314-2.1,12.719-5.453A39.3,39.3,0,0,0,36.463,0" transform="translate(46 366)" fill="#fefefe"/>
      <path id="Fill_75" data-name="Fill 75" d="M1.262,1.965A6.742,6.742,0,0,0,.256,4.53C-1.654,14.284,7.5,31.793,14.994,37.609c13.252,10.283,18.767-4.8,14.686-18.857C27.543,11.4,6.595-5.787,1.262,1.965" transform="translate(160 373)" fill="#fefefe"/>
      <path id="Fill_77" data-name="Fill 77" d="M63.548,28.21c-11.436,21.9-26.84,43.081-49.106,53.945C11.27,83.691,7.887,85.043,4.36,85A14.015,14.015,0,0,1,0,84.254C.833,76.9,1.836,68.382,2.942,59.076a79.252,79.252,0,0,0,29.616-14.85C47.915,32.155,59.373,15.954,70.6,0c1.732,9.721-2.483,19.446-7.054,28.21" transform="translate(26 396)" fill="#fefefe"/>
      <path id="Fill_79" data-name="Fill 79" d="M53,0c-2.192,22.511-4.381,39.636-6.265,44.857-.7.681-1.386,1.321-2.024,1.939C39.275,47.85,21.643,44.671,6.1,40.422,4.01,39.863,1.983,39.266,0,38.666,19.018,34.147,43.345,23.77,53,0" transform="translate(43 477)" fill="#fefefe"/>
      <path id="Fill_81" data-name="Fill 81" d="M1.629,0s12.933,13.247,26.4,16.492S39.165,60.727,38.25,76.812,8.227,58.651,2.763,41.528,1.629,0,1.629,0" transform="translate(60 243)" fill="#fefefe"/>
      <path id="Fill_83" data-name="Fill 83" d="M35,2.1s-9.1,2.33-17.613,0S4.933-3.42,1.4,9.919.234,50.4,17.387,51.965,35,2.1,35,2.1" transform="translate(132 244)" fill="#fefefe"/>
      <path id="Fill_85" data-name="Fill 85" d="M7,3.5A3.5,3.5,0,1,1,3.5,0,3.5,3.5,0,0,1,7,3.5" transform="translate(99 275)" fill="#9dced6"/>
      <path id="Fill_87" data-name="Fill 87" d="M7,3.5A3.5,3.5,0,1,1,3.5,0,3.5,3.5,0,0,1,7,3.5" transform="translate(101 300)" fill="#9dced6"/>
      <path id="Fill_89" data-name="Fill 89" d="M.2,37.455c1.036,24.454,6.357,50.618,23.941,64.4,22.363,17.523,50.247,5.152,39.462-21.643-8.8-21.861-32.75-31.695-45.5-50.683-3.484-5.186-5.527-10.893-7.96-16.582C8.906,10.049,7.065,2.857,4.249.935.61-1.552,1.028,1.267.771,5.347A305.876,305.876,0,0,0,.2,37.455" transform="translate(135 383)" fill="#fefefe"/>
      <path id="Fill_91" data-name="Fill 91" d="M37.2,5.715c.262,2.918,2.155,6.094,2.454,9.313a86.158,86.158,0,0,1-.038,15.923C37.756,50.839,28.418,69.582,17.961,86.325,16.376,88.86-2.31,115.288.238,100.563,3.966,79,25.125,1.366,30.878.146c5.677-1.2,6.3,5.392,6.317,5.569" transform="translate(0 160)" fill="#fefefe"/>
      <path id="Fill_93" data-name="Fill 93" d="M10.409,0S-5.5,6.531,2.015,28.693,26.327,103.081,34.731,103s3.575-28.742-7.271-62.9S10.409,0,10.409,0" transform="translate(187 160)" fill="#fefefe"/>
      <path id="Fill_95" data-name="Fill 95" d="M8.049.029c2.056.085,4.049.332,5.33.338C19.865.4,27.6,2.694,29.618,9.648c3.482,12,15.742,59.37,7.695,55.078S.383,10.668.008,4.261C-.24.013,5.077-.1,8.049.029" transform="translate(5 277)" fill="#fefefe"/>
      <path id="Fill_97" data-name="Fill 97" d="M46,1.952S9.88,65.992,4.654,61.8s-6.891-6.985-.57-25.118S17.715,10.243,26.6,3.462,46,1.952,46,1.952" transform="translate(180 280)" fill="#fefefe"/>
    </g>
    <g transform="matrix(1, 0, 0, 1, 627.5, 158.5)" filter="url(#Rectangle_Copy_9)">
      <rect id="Rectangle_Copy_9-2" data-name="Rectangle Copy 9" width="235" height="236" rx="117.5" transform="translate(91.5 127.5)" fill="#fff"/>
    </g>
    <g transform="matrix(1, 0, 0, 1, 627.5, 158.5)" filter="url(#Rectangle_Copy_10)">
      <rect id="Rectangle_Copy_10-2" data-name="Rectangle Copy 10" width="103" height="104" rx="51.5" transform="translate(562.5 54.5)" fill="#fff"/>
    </g>
    <g transform="matrix(1, 0, 0, 1, 627.5, 158.5)" filter="url(#Rectangle_Copy_11)">
      <rect id="Rectangle_Copy_11-2" data-name="Rectangle Copy 11" width="88" height="89" rx="44" transform="translate(632.5 390.5)" fill="#fff"/>
    </g>
    <g id="Group_33" data-name="Group 33" transform="translate(1192 693)">
      <path id="Fill_1-2" data-name="Fill 1" d="M3.749,19C7.85,18.8,10.2,9.83,10.683,7.357a13.263,13.263,0,0,0,.17-4.785A3.1,3.1,0,0,0,9.561.31a3.411,3.411,0,0,0-3.622.6,11.422,11.422,0,0,0-3.1,4.048A28.022,28.022,0,0,0,.2,12.814,7.891,7.891,0,0,0,.136,16a3.9,3.9,0,0,0,1.971,2.621A3.265,3.265,0,0,0,3.749,19" transform="translate(176)" fill="#f56c5a"/>
      <path id="Fill_3" data-name="Fill 3" d="M1.719,12.695C5.1,14.374,10.989,8.652,12.482,7a11.184,11.184,0,0,0,2.269-3.534,2.6,2.6,0,0,0-.032-2.282A3.3,3.3,0,0,0,11.535.03,10.441,10.441,0,0,0,7.241,1.7a24.521,24.521,0,0,0-5.62,4.751A6.607,6.607,0,0,0,.152,8.822a3.3,3.3,0,0,0,.415,2.854,3.1,3.1,0,0,0,1.151,1.019" transform="translate(174 20)" fill="#f56c5a"/>
      <path id="Fill_5" data-name="Fill 5" d="M17.473,1.44C15.3-1.39,7.13.7,4.96,1.4A12.261,12.261,0,0,0,1.134,3.282,2.4,2.4,0,0,0,0,5.145C.036,6.229,1.178,7.078,2.257,7.462a11.829,11.829,0,0,0,4.688.5,28.194,28.194,0,0,0,7.439-1.417A7.334,7.334,0,0,0,16.9,5.263a2.959,2.959,0,0,0,1.081-2.5,2.6,2.6,0,0,0-.512-1.324" transform="translate(165 42)" fill="#f56c5a"/>
      <path id="Fill_7" data-name="Fill 7" d="M5.292,16.163S11.107,3.275,8.173.647-.61,3.883.052,9.3A16.2,16.2,0,0,0,1.6,14.327c.474.968,2.638,4.177,3.692,1.836" transform="translate(162 25)" fill="#f56c5a"/>
      <path id="Fill_9-2" data-name="Fill 9" d="M6.6,16.565a3.037,3.037,0,0,0,.188-.252A11.083,11.083,0,0,0,8.173,13.2,20.107,20.107,0,0,0,8.8,4.649a7.4,7.4,0,0,0-.975-3c-1.8-2.8-4.925-1.718-6.377.822A10.782,10.782,0,0,0,.219,10,10.981,10.981,0,0,0,4.387,16.44a1.827,1.827,0,0,0,1.83.445,1.255,1.255,0,0,0,.381-.32" transform="translate(148 45)" fill="#f56c5a"/>
      <path id="Fill_11-2" data-name="Fill 11" d="M0,5.482A2.577,2.577,0,0,1,.67,3.841,10.6,10.6,0,0,1,8.595.007c2.494-.1,7.152.875,7.4,3.955a3.713,3.713,0,0,1-1.861,3.067,11.806,11.806,0,0,1-12.741.21A2.732,2.732,0,0,1,.032,5.7,1.364,1.364,0,0,1,0,5.482" transform="translate(149 62)" fill="#f56c5a"/>
      <path id="Fill_13-2" data-name="Fill 13" d="M2.559,15.992a1.5,1.5,0,0,0,.926-.229,13.394,13.394,0,0,0,4.34-4.869,10.43,10.43,0,0,0,.782-7.63A4.2,4.2,0,0,0,5.815.081,3.581,3.581,0,0,0,2.932.736a5.775,5.775,0,0,0-1.67,2.194A12.808,12.808,0,0,0,.053,9.674c.088.968.563,6.095,2.506,6.318" transform="translate(133 63)" fill="#f56c5a"/>
      <path id="Fill_15-2" data-name="Fill 15" d="M.509,92.981a.674.674,0,0,0,.634-.169C1.289,92.656,16.09,77.3,22.617,71.229q3.313-3.082,6.581-6.2c3.762-3.569,7.655-7.258,11.6-10.781,4.677-4.174,9.977-8.905,14.167-14.338a115.554,115.554,0,0,0,9.87-16.2l1.025-1.9C69.874,14.35,74.917.938,74.966.8A.6.6,0,0,0,74.56.041a.641.641,0,0,0-.821.335C73.69.513,68.673,13.859,64.69,21.25l-1.023,1.9a114.707,114.707,0,0,1-9.776,16.053c-4.123,5.351-9.382,10.044-14.023,14.186-3.955,3.531-7.855,7.229-11.625,10.8q-3.271,3.108-6.57,6.193C15.123,76.479.3,91.859.152,92.013a.559.559,0,0,0,.077.833.752.752,0,0,0,.279.135" transform="translate(106 15)" fill="#344763"/>
      <path id="Fill_17-2" data-name="Fill 17" d="M63.2,44.17a36.169,36.169,0,0,1-1.287,3.661C55.245,63.87,45.954,66,45.954,66H3.755L0,65.618s.457-1.23,1.328-3.231c2.8-6.442,9.812-20.892,19.3-28.279.65-.512,1.313-.989,1.993-1.427,13.559-8.752,23.8-11.093,29.995-16.2S63.821-1.724,64.536.189C65.2,1.974,68.117,27.662,63.2,44.17" transform="translate(72 91)" fill="#135cb0"/>
      <path id="Fill_19-2" data-name="Fill 19" d="M2.981,20.011s4.228-5.7,16.885-10.4S36.979-2.466,37.919.815,31.527,19.1,18.984,27.429c-3.9,2.59-9.186,5.235-14.369,4.421C-2.779,30.691.3,23.634,2.981,20.011" transform="translate(97 103)" fill="#2278da"/>
      <path id="Fill_21-2" data-name="Fill 21" d="M41.988,15.613c-.013.009-1.207.911-5.267,2.007a36.475,36.475,0,0,1-7.545,1.166c1.537-1.807,3.024-3.641,4.531-5.5A124.019,124.019,0,0,0,43,.289L42.381,0a122.829,122.829,0,0,1-8.513,12,13.711,13.711,0,0,0-.146-4.282c-.533-2.491-1.014-3.03-1.105-3.113a.377.377,0,0,0-.478-.013.291.291,0,0,0-.04.433,7.221,7.221,0,0,1,.932,2.809,14.14,14.14,0,0,1,0,5.03.27.27,0,0,0,.019.159A122.243,122.243,0,0,1,21.372,26.076a50.752,50.752,0,0,1-.8-8.7,45.347,45.347,0,0,1,.446-5.731.318.318,0,0,0-.294-.354.352.352,0,0,0-.4.257,44.516,44.516,0,0,0-.454,5.81,53.239,53.239,0,0,0,.892,9.284,71.769,71.769,0,0,1-7.505,5.98c-.046.032-.093.069-.139.1A26.421,26.421,0,0,1,11.069,23.4a55.275,55.275,0,0,1,.524-7.513.319.319,0,0,0-.3-.354.346.346,0,0,0-.4.262,55.247,55.247,0,0,0-.533,7.6,26.925,26.925,0,0,0,2.173,9.749,35.566,35.566,0,0,0-7.273,7.5,78.465,78.465,0,0,1-1.944-9.1c-.653-4.655-.668-5.519-.668-5.553a.352.352,0,0,0-.355-.309.33.33,0,0,0-.349.311c0,.032.006.886.672,5.628a80.215,80.215,0,0,0,2.122,9.749A46.311,46.311,0,0,0,0,49.794L.664,50a40.091,40.091,0,0,1,2.152-4.318.336.336,0,0,0,.108.034,81.1,81.1,0,0,0,8.524.491,41.748,41.748,0,0,0,4.832-.249c5.675-.671,6.8-1.091,6.844-1.108a.3.3,0,0,0,.178-.407.372.372,0,0,0-.461-.163,40.533,40.533,0,0,1-6.653,1.063,67.331,67.331,0,0,1-13.045-.227,45.228,45.228,0,0,1,4.87-6.837.344.344,0,0,0,.245.064,51.219,51.219,0,0,1,9.04.474,50.56,50.56,0,0,0,6.446.517,10.768,10.768,0,0,0,1.222-.049.322.322,0,0,0,.3-.352.35.35,0,0,0-.4-.264A35.741,35.741,0,0,1,17.4,38.2a53.964,53.964,0,0,0-8.877-.493,31.5,31.5,0,0,1,4.521-4.127.231.231,0,0,0,.063-.011A.333.333,0,0,0,13.3,33.4c.131-.094.26-.191.391-.283,1.653-1.145,3.175-2.3,4.6-3.467a.376.376,0,0,0,.18.1,46.041,46.041,0,0,0,7.757.695,29.426,29.426,0,0,0,4.079-.262c3.574-.5,5.806-.95,6.117-1.224a.3.3,0,0,0,.021-.457.355.355,0,0,0-.476-.015c-.027.015-.731.373-5.774,1.083a40.52,40.52,0,0,1-11.341-.386,83.006,83.006,0,0,0,9.836-9.828.362.362,0,0,0,.211.069h0a36.139,36.139,0,0,0,8.017-1.2c4.25-1.145,5.48-2.1,5.531-2.136a.283.283,0,0,0,.025-.435.382.382,0,0,0-.495-.028" transform="translate(90 107)" fill="#386f85"/>
      <path id="Fill_23-2" data-name="Fill 23" d="M62,10.1a36.322,36.322,0,0,1-1.29,3.674C54.029,29.862,44.719,32,44.719,32l-40.9-.34C2.477,30.613,1.2,29.509,0,28.375,2.8,21.911,9.833,7.412,19.345,0c-1.262,5.392-1.527,11.965,1.5,18.312,6.926,14.546,29.608,9.511,37.72-2.379A49.386,49.386,0,0,0,62,10.1" transform="translate(73 125)" fill="#074387"/>
      <path id="Fill_25-2" data-name="Fill 25" d="M125.443,101.052c-.754,2.924-1.6,5.736-2.553,8.379C109.652,146.126,91.212,151,91.212,151H7.453L0,150.125s.908-2.814,2.637-7.392c5.547-14.737,19.479-47.8,38.316-64.7q1.936-1.762,3.959-3.267C71.821,54.747,92.15,49.394,104.449,37.708S126.676-3.946,128.095.434c1.318,4.084,7.107,62.848-2.652,100.618" transform="translate(0 6)" fill="#69bb8c"/>
      <path id="Fill_27-2" data-name="Fill 27" d="M5.884,45.652s8.342-13.005,33.322-23.735S72.983-5.626,74.84,1.861,62.224,43.575,37.468,62.574c-7.7,5.91-18.128,11.939-28.362,10.085C-5.482,70.014.585,53.911,5.884,45.652" transform="translate(51 33)" fill="#7ce1a8"/>
      <path id="Fill_29-2" data-name="Fill 29" d="M84.947,35.6c-.024.021-2.444,2.079-10.654,4.572a66.144,66.144,0,0,1-15.271,2.664c3.115-4.122,6.125-8.3,9.174-12.546A286.306,286.306,0,0,0,87,.657L85.739,0A282.32,282.32,0,0,1,68.522,27.371a35.346,35.346,0,0,0-.3-9.767c-1.079-5.679-2.049-6.909-2.231-7.1a.7.7,0,0,0-.974-.028.716.716,0,0,0-.075.985c.034.043.88,1.139,1.882,6.4a36.125,36.125,0,0,1,0,11.467.673.673,0,0,0,.041.365C59.479,39.981,52.328,49.887,43.243,59.454c-.523-3.459-1.806-12.789-1.62-19.824a114.274,114.274,0,0,1,.905-13.064.714.714,0,0,0-1.41-.224,113.853,113.853,0,0,0-.92,13.25c-.215,8.153,1.5,19.283,1.8,21.163A148.751,148.751,0,0,1,26.82,74.386c-.1.079-.189.158-.285.235C25.44,71.6,22.3,62.16,22.4,53.361a140.9,140.9,0,0,1,1.06-17.129.711.711,0,0,0-1.407-.207,141.082,141.082,0,0,0-1.077,17.318c-.105,9.652,3.456,19.743,4.4,22.228a77.588,77.588,0,0,0-14.715,17.09A198.818,198.818,0,0,1,6.717,71.91C5.394,61.3,5.363,59.328,5.363,59.251a.745.745,0,0,0-.717-.7.707.707,0,0,0-.708.706c0,.077.015,2.022,1.364,12.829A203.915,203.915,0,0,0,9.6,94.314,110.481,110.481,0,0,0,0,113.533L1.343,114A97.25,97.25,0,0,1,5.7,104.156a.672.672,0,0,0,.217.077A146.674,146.674,0,0,0,23.16,105.35a75.055,75.055,0,0,0,9.777-.565c11.48-1.529,13.752-2.491,13.842-2.529a.706.706,0,0,0,.363-.928.717.717,0,0,0-.933-.371c-.092.038-2.353.947-13.462,2.427-10.506,1.393-24.393-.269-26.39-.522a103.28,103.28,0,0,1,9.852-15.585.636.636,0,0,0,.493.145,91.609,91.609,0,0,1,18.292,1.083,91.351,91.351,0,0,0,13.042,1.171,19.814,19.814,0,0,0,2.474-.109.711.711,0,0,0,.6-.8.718.718,0,0,0-.8-.6c-.041.006-4.237.546-15.106-1.06a97.622,97.622,0,0,0-17.961-1.13,67.255,67.255,0,0,1,9.146-9.4.856.856,0,0,0,.129-.023.7.7,0,0,0,.395-.4c.264-.215.523-.435.792-.646,3.34-2.612,6.425-5.246,9.313-7.908a.692.692,0,0,0,.363.22A82.72,82.72,0,0,0,53.068,69.4a53.424,53.424,0,0,0,8.251-.6c7.234-1.147,11.748-2.167,12.379-2.794a.751.751,0,0,0,.043-1.039.666.666,0,0,0-.963-.034c-.056.032-1.48.849-11.684,2.467-9.725,1.546-20.634-.42-22.943-.876a180,180,0,0,0,19.9-22.411.7.7,0,0,0,.427.156h.011a65.323,65.323,0,0,0,16.223-2.745c8.594-2.612,11.083-4.781,11.184-4.871a.7.7,0,0,0,.056-1,.719.719,0,0,0-1-.06" transform="translate(37 43)" fill="#337d6d"/>
      <path id="Fill_31-2" data-name="Fill 31" d="M123,23.027c-.755,2.926-1.605,5.739-2.557,8.383C107.184,68.124,88.715,73,88.715,73L7.574,72.223C4.916,69.834,2.388,67.317,0,64.729,5.556,49.985,19.509,16.905,38.377,0c-2.5,12.3-3.026,27.3,2.971,41.772,13.74,33.178,58.734,21.7,74.832-5.428A117.261,117.261,0,0,0,123,23.027" transform="translate(2 84)" fill="#308856" opacity="0.496"/>
    </g>
    <g id="Group_20" data-name="Group 20" transform="translate(830 734)">
      <g id="Group_3-3" data-name="Group 3" transform="translate(0 14)">
        <path id="Clip_2-4" data-name="Clip 2" d="M0,0H172.818V101.481H0Z" transform="translate(0 0.518)" fill="none"/>
        <g id="Group_3-4" data-name="Group 3" clip-path="url(#clip-path-4)">
          <path id="Fill_1-3" data-name="Fill 1" d="M126.406,101.481a39.23,39.23,0,0,0-6.685-11.021c-4.721-5.515-18.487-7.088-29.5-10.9-5.929-2.047-9.25-9.6-12.082-16.346-2.424-5.778-4.515-10.992-7.584-11.685C63.866,50,50.888,46.759,45.774,37.309s-18.881,0-34.612-10.8S-1.817-1.665,8.015,3.845,29.254-1.271,40.66.128,50.495,14.081,60.327,17.5s22.026,2.488,30.284,18.234c4.358,8.3,8.811,12.112,14.539,14.8,5.128,2.379,11.3,3.876,19.288,6.853,16.914,6.3,48.378,44.092,48.378,44.092Z" transform="translate(0 0.518)" fill="#135cb0"/>
        </g>
      </g>
      <path id="Fill_4-2" data-name="Fill 4" d="M0,4.792s5.856,9.1,21.076,8.056S62.966,35.3,68.024,36.856s3.544-9.914-3.622-16.034S36.76,9.263,31.617,2.507,0,4.792,0,4.792" transform="translate(10 20)" fill="#2278da"/>
      <path id="Fill_6-2" data-name="Fill 6" d="M115,78S82.815,48.63,62.407,38.607,40.819,16.912,29.437,9.521,0,0,0,0,22.633,2.516,32.577,9.26,48.275,29.574,69.21,39s44.884,36.186,44.884,36.186Z" transform="translate(39 38)" fill="#074387"/>
      <path id="Fill_8" data-name="Fill 8" d="M95,51H48.432a39.25,39.25,0,0,0-6.708-11.033c-4.737-5.521-18.55-7.1-29.6-10.911C6.173,27.007,2.842,19.441,0,12.692a36.035,36.035,0,0,1,16.5,7.174C33.83,32.872,29.882,30.949,41.329,26c9.692-4.2-10.184-14.585-14.224-26C32.251,2.382,38.44,3.88,46.458,6.86,63.429,13.165,95,51,95,51" transform="translate(77 65)" fill="#074387"/>
      <g id="Group_12" data-name="Group 12" transform="translate(94)">
        <path id="Clip_11-2" data-name="Clip 11" d="M0,0H93.7V115.274H0Z" transform="translate(0.537 0.725)" fill="none"/>
        <g id="Group_12-2" data-name="Group 12" clip-path="url(#clip-path-5)">
          <path id="Fill_10" data-name="Fill 10" d="M59.017,115.274l-1.831-5.73-2.769-10.15a10.257,10.257,0,0,0-.721-1.842C48.739,87.821,26.65,76.876,21.987,70.5c-4.941-6.76-3.909-22.379-11.73-31.233C2.437,30.434-1.209,14.818.356,4.527c1.562-10.275,11.73-.642,15.125,5.14,3.379,5.777,5.476,9.305,16.424,14.21S47.285,32,50.414,46.048a49.656,49.656,0,0,0,8.869,19.679v.014A75.008,75.008,0,0,0,72.83,79.311C85.095,89.15,93.7,115.274,93.7,115.274Z" transform="translate(0.537 0.725)" fill="#69bb8c"/>
        </g>
      </g>
      <g id="Group_15" data-name="Group 15" transform="translate(148 66)">
        <path id="Clip_14-2" data-name="Clip 14" d="M0,0H40.184V49.4H0Z" transform="translate(0.047 0.596)" fill="none"/>
        <g id="Group_15-2" data-name="Group 15" clip-path="url(#clip-path-6)">
          <path id="Fill_13-3" data-name="Fill 13" d="M5.345,49.4,3.506,43.688.724,33.565A10.186,10.186,0,0,0,0,31.728a14.489,14.489,0,0,1,3.38,2.1c9.431,7.789,21.891,12.852,24.5,6.233S9.807,16.4,5.612,0A75.079,75.079,0,0,0,19.221,13.534C31.542,23.348,40.184,49.4,40.184,49.4Z" transform="translate(0.047 0.596)" fill="#308856"/>
        </g>
      </g>
      <path id="Fill_16" data-name="Fill 16" d="M.565,5.3a14.909,14.909,0,0,0-.371,6.289C2.053,19.256,8.862,24.432,14.2,30.2c6.823,7.365,11.615,16.357,17.156,24.747,2.218,3.358,4.635,6.7,7.942,8.964,1.331.913,3.206,1.6,4.455.582a3.706,3.706,0,0,0,1.093-2.368,23.961,23.961,0,0,0-.262-6.744c-1.266-9.4-2.786-19.389-8.96-26.544-4.084-4.728-9.772-7.674-14.756-11.428A54.6,54.6,0,0,1,7.3,2.5C4.163-2.591,1.644.989.565,5.3" transform="translate(99 5)" fill="#7ce1a8"/>
      <path id="Fill_18" data-name="Fill 18" d="M59.329,83A216.978,216.978,0,0,0,33.454,42.53C16.987,22.3,0,0,0,0S8.887,9.066,13.852,15.294,40.774,47.187,49.658,61.332,63,83,63,83Z" transform="translate(113 33)" fill="#337d6d"/>
    </g>
    <g id="Group_37" data-name="Group 37" transform="translate(775 329)">
      <g id="Group_4" data-name="Group 4">
        <path id="Fill_1-4" data-name="Fill 1" d="M61.608,153.381c-.821-9.88-1.673-19.908-5.15-29.19-1.082-2.889-2.412-5.688-3.286-8.646a49.783,49.783,0,0,1-1.658-12.087C51.1,93.349,53.77,84.322,44.968,76.8c-5.461-4.664-12.441-7.055-18.739-10.5A61.4,61.4,0,0,1,7.509,50.424C2.466,44-1.383,35.767.475,27.812c1.76-7.541,8.236-13.071,15.015-16.8C40.668-2.847,76.887-2.75,103.6,6.438c10.869,3.74,29.071,11.757,31.485,24.612.89,4.739-.793,9.676-3.558,13.624-4.24,6.05-10.66,10.721-17.03,14.3-10.6,5.963-24.57,8.385-31.033,19.8-3.307,5.838-4.751,12.521-6.116,19.092-3.675,17.7-10.663,39.347-7.294,57.431" transform="translate(0.43 0.271)" fill="#c4e4ed"/>
        <path id="Stroke_3" data-name="Stroke 3" d="M61.608,153.381c-.821-9.88-1.673-19.908-5.15-29.19-1.082-2.889-2.412-5.688-3.286-8.646a49.783,49.783,0,0,1-1.658-12.087C51.1,93.349,53.77,84.322,44.968,76.8c-5.461-4.664-12.441-7.055-18.739-10.5A61.4,61.4,0,0,1,7.509,50.424C2.466,44-1.383,35.767.475,27.812c1.76-7.541,8.236-13.071,15.015-16.8C40.668-2.847,76.887-2.75,103.6,6.438c10.869,3.74,29.071,11.757,31.485,24.612.89,4.739-.793,9.676-3.558,13.624-4.24,6.05-10.66,10.721-17.03,14.3-10.6,5.963-24.57,8.385-31.033,19.8-3.307,5.838-4.751,12.521-6.116,19.092-3.675,17.7-10.663,39.347-7.294,57.431" transform="translate(0.43 0.271)" fill="none" stroke="#1d6192" stroke-linecap="round" stroke-linejoin="round" stroke-miterlimit="10" stroke-width="3"/>
      </g>
      <path id="Fill_5-2" data-name="Fill 5" d="M7.937,1.888A11.833,11.833,0,0,0,4.406,5.409C0,12.134-.339,20.982.188,28.772.818,38.083,7.062,46.958,14.946,51.7c4.729,2.846,10.812,3.524,14.851-.744a4.01,4.01,0,0,0,.926-1.368,3.039,3.039,0,0,0,.182-1.638c-2.015-9.113-1.232-17.911-.083-26.562.884-6.662-1.522-14.573-7.495-18.64C18.6-.466,12.456-1,7.937,1.888" transform="translate(29 74)" fill="#f56c5a"/>
      <path id="Stroke_7" data-name="Stroke 7" d="M7.937,1.888A11.833,11.833,0,0,0,4.406,5.409C0,12.134-.339,20.982.188,28.772.818,38.083,7.062,46.958,14.946,51.7c4.729,2.846,10.812,3.524,14.851-.744a4.01,4.01,0,0,0,.926-1.368,3.039,3.039,0,0,0,.182-1.638c-2.015-9.113-1.232-17.911-.083-26.562.884-6.662-1.522-14.573-7.495-18.64C18.6-.466,12.456-1,7.937,1.888Z" transform="translate(29 74)" fill="none" stroke="#1d6192" stroke-miterlimit="10" stroke-width="3"/>
      <path id="Fill_9-3" data-name="Fill 9" d="M23.063,1.888a11.834,11.834,0,0,1,3.531,3.521C31,12.134,31.339,20.982,30.812,28.772c-.629,9.311-6.874,18.186-14.757,22.932C11.325,54.55,5.242,55.229,1.2,50.96a4.008,4.008,0,0,1-.926-1.368,3.039,3.039,0,0,1-.182-1.638c2.015-9.113,1.232-17.911.083-26.562C-.707,14.73,1.7,6.818,7.672,2.751,12.4-.466,18.544-1,23.063,1.888" transform="translate(68 74)" fill="#f56c5a"/>
      <path id="Stroke_11" data-name="Stroke 11" d="M23.063,1.888a11.834,11.834,0,0,1,3.531,3.521C31,12.134,31.339,20.982,30.812,28.772c-.629,9.311-6.874,18.186-14.757,22.932C11.325,54.55,5.242,55.229,1.2,50.96a4.008,4.008,0,0,1-.926-1.368,3.039,3.039,0,0,1-.182-1.638c2.015-9.113,1.232-17.911.083-26.562C-.707,14.73,1.7,6.818,7.672,2.751,12.4-.466,18.544-1,23.063,1.888Z" transform="translate(68 74)" fill="none" stroke="#1d6192" stroke-miterlimit="10" stroke-width="3"/>
      <path id="Fill_13-4" data-name="Fill 13" d="M15,0s-1.75,3.355-2.416,4.7-1-.084-.667,1.342S15,13.5,15,13.5s-5.831,1.81-6.331,1.45-.333-6.147-3-6.481S-.161,7.3.006,6.626,15,0,15,0" transform="translate(37 86)" fill="#f48f87"/>
      <path id="Stroke_15" data-name="Stroke 15" d="M15,0s-1.75,3.355-2.416,4.7-1-.084-.667,1.342S15,13.5,15,13.5s-5.831,1.81-6.331,1.45-.333-6.147-3-6.481S-.161,7.3.006,6.626,15,0,15,0Z" transform="translate(37 86)" fill="none" stroke="#1d6192" stroke-linecap="round" stroke-linejoin="round" stroke-miterlimit="10" stroke-width="2"/>
      <path id="Fill_17-3" data-name="Fill 17" d="M3,1.5A1.5,1.5,0,1,1,1.5,0,1.5,1.5,0,0,1,3,1.5" transform="translate(77 88)" fill="#1d6192"/>
      <path id="Fill_19-3" data-name="Fill 19" d="M3,1.5A1.5,1.5,0,1,1,1.5,0,1.5,1.5,0,0,1,3,1.5" transform="translate(86 84)" fill="#1d6192"/>
      <path id="Fill_21-3" data-name="Fill 21" d="M3,1.5A1.5,1.5,0,1,1,1.5,0,1.5,1.5,0,0,1,3,1.5" transform="translate(85 90)" fill="#1d6192"/>
      <path id="Fill_23-3" data-name="Fill 23" d="M3,1.5A1.5,1.5,0,1,1,1.5,0,1.5,1.5,0,0,1,3,1.5" transform="translate(79 94)" fill="#1d6192"/>
      <path id="Fill_25-3" data-name="Fill 25" d="M3,1.5A1.5,1.5,0,1,1,1.5,0,1.5,1.5,0,0,1,3,1.5" transform="translate(86 100)" fill="#1d6192"/>
      <path id="Fill_27-3" data-name="Fill 27" d="M3,1.5A1.5,1.5,0,1,1,1.5,0,1.5,1.5,0,0,1,3,1.5" transform="translate(80 103)" fill="#1d6192"/>
      <path id="Fill_29-3" data-name="Fill 29" d="M3,1.5A1.5,1.5,0,1,1,1.5,0,1.5,1.5,0,0,1,3,1.5" transform="translate(84 108)" fill="#1d6192"/>
      <path id="Fill_31-3" data-name="Fill 31" d="M3,1.5A1.5,1.5,0,1,1,1.5,0,1.5,1.5,0,0,1,3,1.5" transform="translate(47 105)" fill="#f44e42"/>
      <path id="Fill_33-2" data-name="Fill 33" d="M3,1.5A1.5,1.5,0,1,1,1.5,0,1.5,1.5,0,0,1,3,1.5" transform="translate(41 109)" fill="#f44e42"/>
      <path id="Fill_35-2" data-name="Fill 35" d="M3,1.5A1.5,1.5,0,1,1,1.5,0,1.5,1.5,0,0,1,3,1.5" transform="translate(45 113)" fill="#f44e42"/>
    </g>
    <g id="Group_20-2" data-name="Group 20" transform="translate(1225 231)">
      <g id="Group_3-5" data-name="Group 3" transform="matrix(0.891, -0.454, 0.454, 0.891, 4.178, 25.314)">
        <path id="Fill_1-5" data-name="Fill 1" d="M15.179,33.978l.261-23.939-3.076-1.95L12.378,0,4,.056l.189,7.62L.563,9.839,0,34.155" transform="translate(0.118 0.148)" fill="#c4e4ed"/>
        <path id="Stroke_2" data-name="Stroke 2" d="M15.179,33.978l.261-23.939-3.076-1.95L12.378,0,4,.056l.189,7.62L.563,9.839,0,34.155" transform="translate(0.118 0.148)" fill="none" stroke="#1d6192" stroke-linecap="round" stroke-linejoin="round" stroke-miterlimit="10" stroke-width="3"/>
      </g>
      <path id="Fill_4-3" data-name="Fill 4" d="M0,11.66l13.321-.051L13.365,0,.044.051Z" transform="matrix(0.891, -0.454, 0.454, 0.891, 14.637, 44.05)" fill="#f56c5a"/>
      <path id="Fill_5-3" data-name="Fill 5" d="M0,.542,22.2.458Z" transform="matrix(0.891, -0.454, 0.454, 0.891, 16.34, 57.183)" fill="#c4e4ed"/>
      <path id="Stroke_6" data-name="Stroke 6" d="M0,.542,22.2.458" transform="matrix(0.891, -0.454, 0.454, 0.891, 16.34, 57.183)" fill="none" stroke="#1d6192" stroke-linecap="round" stroke-linejoin="round" stroke-miterlimit="10" stroke-width="3"/>
      <path id="Fill_8-2" data-name="Fill 8" d="M0,.529,15.1.471Z" transform="matrix(0.891, -0.454, 0.454, 0.891, 25.138, 66.731)" fill="#c4e4ed"/>
      <path id="Stroke_9" data-name="Stroke 9" d="M0,.529,15.1.471" transform="matrix(0.891, -0.454, 0.454, 0.891, 25.138, 66.731)" fill="none" stroke="#1d6192" stroke-linecap="round" stroke-linejoin="round" stroke-miterlimit="10" stroke-width="2.498"/>
      <path id="Fill_11-3" data-name="Fill 11" d="M.476,12.5.524,0Z" transform="matrix(0.891, -0.454, 0.454, 0.891, 25.79, 52.427)" fill="#c4e4ed"/>
      <path id="Stroke_12" data-name="Stroke 12" d="M.524,0,.476,12.5" transform="matrix(0.891, -0.454, 0.454, 0.891, 25.79, 52.427)" fill="none" stroke="#1d6192" stroke-linecap="round" stroke-linejoin="round" stroke-miterlimit="10" stroke-width="3"/>
      <path id="Fill_14" data-name="Fill 14" d="M.542,0,.458,22.325Z" transform="matrix(0.891, -0.454, 0.454, 0.891, 0.02, 1.414)" fill="#c4e4ed"/>
      <g id="Group_17" data-name="Group 17" transform="matrix(0.891, -0.454, 0.454, 0.891, 0.059, 1.367)">
        <path id="Clip_16-2" data-name="Clip 16" d="M0,0H.886V22.434H0Z" transform="translate(0.289 0.247)" fill="none"/>
        <g id="Group_17-2" data-name="Group 17" clip-path="url(#clip-path-7)">
          <path id="Stroke_15-2" data-name="Stroke 15" d="M.443,0V22.434" transform="translate(0.289 0.247)" fill="none" stroke="#1d6192" stroke-miterlimit="10" stroke-width="2"/>
        </g>
      </g>
      <path id="Fill_18-2" data-name="Fill 18" d="M0,.529,15.1.471Z" transform="matrix(0.891, -0.454, 0.454, 0.891, 13.469, 43.612)" fill="#c4e4ed"/>
      <path id="Stroke_19" data-name="Stroke 19" d="M0,.529,15.1.471" transform="matrix(0.891, -0.454, 0.454, 0.891, 13.469, 43.612)" fill="none" stroke="#1d6192" stroke-linejoin="round" stroke-miterlimit="10" stroke-width="2.498"/>
    </g>
    <g id="Group_20-3" data-name="Group 20" transform="translate(1284 574)">
      <path id="Fill_1-6" data-name="Fill 1" d="M0,36H33V0H0Z" transform="translate(4 3)" fill="#c4e4ed"/>
      <path id="Stroke_2-2" data-name="Stroke 2" d="M0,36H33V0H0Z" transform="translate(4 3)" fill="none" stroke="#1d6192" stroke-linecap="round" stroke-linejoin="round" stroke-miterlimit="10" stroke-width="3"/>
      <path id="Fill_4-4" data-name="Fill 4" d="M0,10H41V0H0Z" fill="#c4e4ed"/>
      <path id="Stroke_5" data-name="Stroke 5" d="M0,10H41V0H0Z" fill="none" stroke="#1d6192" stroke-linecap="round" stroke-linejoin="round" stroke-miterlimit="10" stroke-width="3"/>
      <path id="Fill_7-2" data-name="Fill 7" d="M.5,5V5Z" transform="translate(8 3)" fill="#c4e4ed"/>
      <path id="Stroke_8" data-name="Stroke 8" d="M.5,0V5" transform="translate(8 3)" fill="none" stroke="#1d6192" stroke-linecap="round" stroke-linejoin="round" stroke-miterlimit="10" stroke-width="2"/>
      <path id="Fill_9-4" data-name="Fill 9" d="M.5,5V5Z" transform="translate(13 3)" fill="#c4e4ed"/>
      <path id="Stroke_10" data-name="Stroke 10" d="M.5,0V5" transform="translate(13 3)" fill="none" stroke="#1d6192" stroke-linecap="round" stroke-linejoin="round" stroke-miterlimit="10" stroke-width="2"/>
      <path id="Fill_11-4" data-name="Fill 11" d="M.5,5V5Z" transform="translate(18 3)" fill="#c4e4ed"/>
      <path id="Stroke_12-2" data-name="Stroke 12" d="M.5,0V5" transform="translate(18 3)" fill="none" stroke="#1d6192" stroke-linecap="round" stroke-linejoin="round" stroke-miterlimit="10" stroke-width="2"/>
      <path id="Fill_13-5" data-name="Fill 13" d="M.5,5V5Z" transform="translate(23 3)" fill="#c4e4ed"/>
      <path id="Stroke_14" data-name="Stroke 14" d="M.5,0V5" transform="translate(23 3)" fill="none" stroke="#1d6192" stroke-linecap="round" stroke-linejoin="round" stroke-miterlimit="10" stroke-width="2"/>
      <path id="Fill_15-3" data-name="Fill 15" d="M.5,5V5Z" transform="translate(28 3)" fill="#c4e4ed"/>
      <path id="Stroke_16" data-name="Stroke 16" d="M.5,0V5" transform="translate(28 3)" fill="none" stroke="#1d6192" stroke-linecap="round" stroke-linejoin="round" stroke-miterlimit="10" stroke-width="2"/>
      <path id="Fill_17-4" data-name="Fill 17" d="M.5,5V5Z" transform="translate(33 3)" fill="#c4e4ed"/>
      <path id="Stroke_18" data-name="Stroke 18" d="M.5,0V5" transform="translate(33 3)" fill="none" stroke="#1d6192" stroke-linecap="round" stroke-linejoin="round" stroke-miterlimit="10" stroke-width="2"/>
      <path id="Fill_19-4" data-name="Fill 19" d="M0,17H30V0H0Z" transform="translate(6 21)" fill="#f56c5a"/>
    </g>
    <path id="Path_4" data-name="Path 4" d="M0,.5H666" transform="translate(822 852.5)" fill="none" stroke="#135cb0" stroke-linecap="round" stroke-miterlimit="10" stroke-width="5"/>
  </g>
</svg>
