<?xml version="1.0" encoding="UTF-8"?>
<svg width="1440px" height="807px" viewBox="0 0 1440 807" version="1.1" xmlns="http://www.w3.org/2000/svg" xmlns:xlink="http://www.w3.org/1999/xlink">
    <!-- Generator: Sketch 61.1 (89650) - https://sketch.com -->
    <title>Group 7</title>
    <desc>Created with Sketch.</desc>
    <defs>
        <linearGradient x1="50%" y1="84.8990683%" x2="50%" y2="5.27653727e-06%" id="linearGradient-1">
            <stop stop-color="#2F81FB" offset="0%"></stop>
            <stop stop-color="#FFFFFF" stop-opacity="0.92" offset="100%"></stop>
        </linearGradient>
        <polygon id="path-2" points="0.24625391 0.29764538 252.965457 0.29764538 252.965457 58.9694305 0.24625391 58.9694305"></polygon>
        <polygon id="path-4" points="0.859986323 0.369149028 401.910853 0.369149028 401.910853 51 0.859986323 51"></polygon>
        <polygon id="path-6" points="0.150912147 0.677211324 142.044526 0.677211324 142.044526 200.825581 0.150912147 200.825581"></polygon>
        <polygon id="path-8" points="0 0.0968087432 67.1257748 0.0968087432 67.1257748 214.14248 0 214.14248"></polygon>
        <polygon id="path-10" points="0.606300109 0.752327155 71.8665376 0.752327155 71.8665376 205.902521 0.606300109 205.902521"></polygon>
        <rect id="path-12" x="221" y="178" width="235" height="236" rx="117.5"></rect>
        <filter x="-44.3%" y="-28.4%" width="178.3%" height="178.0%" filterUnits="objectBoundingBox" id="filter-13">
            <feOffset dx="-12" dy="25" in="SourceAlpha" result="shadowOffsetOuter1"></feOffset>
            <feGaussianBlur stdDeviation="26.5" in="shadowOffsetOuter1" result="shadowBlurOuter1"></feGaussianBlur>
            <feColorMatrix values="0 0 0 0 0.34412653   0 0 0 0 0.392860971   0 0 0 0 0.933706975  0 0 0 0.25 0" type="matrix" in="shadowBlurOuter1"></feColorMatrix>
        </filter>
        <rect id="path-14" x="692" y="105" width="103" height="104" rx="51.5"></rect>
        <filter x="-101.0%" y="-64.4%" width="278.6%" height="276.9%" filterUnits="objectBoundingBox" id="filter-15">
            <feOffset dx="-12" dy="25" in="SourceAlpha" result="shadowOffsetOuter1"></feOffset>
            <feGaussianBlur stdDeviation="26.5" in="shadowOffsetOuter1" result="shadowBlurOuter1"></feGaussianBlur>
            <feColorMatrix values="0 0 0 0 0.34412653   0 0 0 0 0.392860971   0 0 0 0 0.933706975  0 0 0 0.25 0" type="matrix" in="shadowBlurOuter1"></feColorMatrix>
        </filter>
        <rect id="path-16" x="762" y="441" width="88" height="89" rx="44"></rect>
        <filter x="-118.2%" y="-75.3%" width="309.1%" height="306.7%" filterUnits="objectBoundingBox" id="filter-17">
            <feOffset dx="-12" dy="25" in="SourceAlpha" result="shadowOffsetOuter1"></feOffset>
            <feGaussianBlur stdDeviation="26.5" in="shadowOffsetOuter1" result="shadowBlurOuter1"></feGaussianBlur>
            <feColorMatrix values="0 0 0 0 0.34412653   0 0 0 0 0.392860971   0 0 0 0 0.933706975  0 0 0 0.25 0" type="matrix" in="shadowBlurOuter1"></feColorMatrix>
        </filter>
        <polygon id="path-18" points="0 0.518276666 172.817758 0.518276666 172.817758 101.999051 0 101.999051"></polygon>
        <polygon id="path-20" points="0.536512601 0.725041672 94.2341877 0.725041672 94.2341877 115.999059 0.536512601 115.999059"></polygon>
        <polygon id="path-22" points="0.0469981481 0.596129032 40.2306917 0.596129032 40.2306917 49.9990616 0.0469981481 49.9990616"></polygon>
        <polygon id="path-24" points="0.2886 0.246730463 1.17496364 0.246730463 1.17496364 22.6808035 0.2886 22.6808035"></polygon>
    </defs>
    <g id="Page-1" stroke="none" stroke-width="1" fill="none" fill-rule="evenodd">
        <g id="Home-Copy" transform="translate(0.000000, -116.000000)">
            <g id="Group-7" transform="translate(0.000000, 108.000000)">
                <g id="Group-6">
                    <g id="Group" opacity="0.772088914" transform="translate(0.000000, 298.000000)" fill="url(#linearGradient-1)" fill-rule="nonzero">
                        <polygon id="Path" points="0 0 1440 0 1440 1572 0 1572"></polygon>
                    </g>
                    <g id="Group-2" transform="translate(498.000000, 0.000000)">
                        <g id="Group-43" opacity="0.590076265" transform="translate(197.000000, 0.000000)">
                            <path d="M705.633356,154.196531 C731.379238,151.67928 755.697941,149.301457 776.414711,151.04243 C821.491716,154.83338 863.053628,190.587395 873.092974,234.209704 C881.403091,270.310405 865.383179,303.328604 829.137326,324.793071 C775.451931,356.590328 742.249219,426.135051 758.091677,473.623677 C771.079775,512.569475 814.518165,530.103563 880.395004,523.037925 C926.933169,518.048642 966.006955,528.140258 997.027364,553 C1007.03273,538.186654 1013.86281,520.268195 1014,493.399928 C1014.2517,440.73737 976.650398,410.142214 958.731355,373.988756 C952.939569,362.310669 949.179062,350.048489 949.428252,336.290278 C950.409911,279.874453 999.285179,153.088639 917.822623,85.1416923 C858.919335,36.0326797 743.517824,74.1306016 679.725121,92.0716704 C639.118439,103.501047 599.425454,119.11705 559,131.767369 C591.825151,165.309367 649.444731,159.690771 705.633356,154.196531" id="Fill-1" fill="#C4E5ED"></path>
                            <path d="M533,743 L233.698272,743 C233.698272,743 113.698916,721.690419 21.1970582,413.460387 C15.424165,394.182087 10.8977348,376.138414 7.57257843,359.291612 C-38.0005155,129.390527 132.798795,116.032395 234.797871,129.71523 C253.423265,159.595462 269.246942,207.69682 248.448711,274.547892 C235.121725,317.359611 208.62215,342.626039 180.522131,361.923217 C170.023223,369.168626 159.29837,375.560745 148.950092,381.726327 C97.7472031,412.233311 53.571202,438.57579 92.949639,533.249382 C133.947348,631.834513 241.399229,635.391145 336.224554,638.524907 C398.547699,640.605271 452.401675,642.387363 475.327555,670.983884 L533,743 Z" id="Fill-3" fill="#C4E5ED"></path>
                            <path d="M992,557.150746 C988.042246,562.512581 983.684566,567.497087 979.100514,572.458953 C975.742648,576.066211 972.286687,579.647056 968.80809,583.326007 C968.706222,583.427885 968.604354,583.525991 968.502486,583.631643 C967.555492,584.605149 966.600953,585.608843 965.672824,586.631402 C962.0169,590.49147 958.360977,594.476056 954.727691,598.758732 C954.20326,599.385097 953.67883,599.988822 953.177036,600.615187 C952.648833,601.241552 952.124402,601.867917 951.649019,602.494282 C951.124588,603.120646 950.596384,603.765878 950.121001,604.396016 C949.592797,605.04502 949.068367,605.724211 948.592984,606.373216 C947.064966,608.327776 945.585996,610.380442 944.110799,612.512346 C943.609005,613.210404 943.129849,613.916007 942.654466,614.640478 C940.703886,617.523265 938.82499,620.553211 936.995142,623.734088 C907.762846,674.737547 953.177036,743 953.177036,743 L538.816411,743 L538.940916,742.294396 L479.20109,667.900359 C454.80563,637.514116 399.778135,635.680301 336.080555,633.578582 C242.603611,630.495811 136.653516,626.990431 96.8043281,531.447146 C59.0302257,440.843088 99.5547597,416.743133 150.854647,386.258784 C161.497949,379.946083 172.522313,373.384345 183.342941,365.943432 C211.994213,346.228031 239.045782,320.35086 252.77153,276.31288 C273.360151,210.32949 259.008105,162.008835 240.724715,131 C248.538355,132.150851 255.903022,133.452634 262.641391,134.803469 C323.354621,146.979851 390.481751,157.126208 453.402118,152.639775 C460.140486,152.164341 466.829808,151.515337 473.439898,150.685215 C500.242457,147.330766 526.29044,140.765255 552.013955,132.901734 C586.483012,170.200631 648.173419,164.189792 704.204501,158.70344 C729.701643,156.224393 753.772635,153.869865 774.036788,155.571615 C816.293076,159.129821 856.768562,193.998724 866.185678,234.953931 C870.74332,254.869316 871.422439,292.447436 824.582099,320.226341 C769.079221,353.167097 734.889357,425.561294 751.395719,475.161092 C759.382912,499.159168 786.585397,537.963605 878.885201,528.043646 C909.041853,524.787303 935.91987,528.066285 959.387201,537.786261 C971.135958,542.646249 982.005633,549.109881 992,557.150746" id="Fill-5" fill="#C4E5ED"></path>
                            <path d="M476.154529,670.931679 L534,743 L233.800325,743 C233.800325,743 113.440954,721.678749 20.6653551,413.221499 C14.8713654,393.929224 10.3313552,375.872471 7,359.013456 C56.4453188,337.442834 135.657543,314.440216 180.468425,361.650747 C169.938019,368.89763 159.18099,375.294383 148.797889,381.468213 C97.4451612,411.993534 53.1366259,438.355109 92.6294266,533.101109 C133.753911,631.753928 241.524386,635.313137 336.637977,638.449171 C399.1481,640.531044 453.159869,642.314427 476.154529,670.931679" id="Fill-7" fill="#B1DCE0"></path>
                            <path d="M1013,494.071722 C1013,495.170444 1012.97232,496.220251 1012.94588,497.292634 C1012.92322,497.943589 1012.92322,498.568205 1012.89677,499.215397 C1012.84767,499.94537 1012.82122,500.667818 1012.77212,501.390265 C1012.77212,501.687522 1012.74945,501.988542 1012.72301,502.293324 C1012.6739,503.365707 1012.59835,504.411751 1012.49636,505.43898 C1012.39437,506.759705 1012.26971,508.061615 1012.12239,509.337186 C1012.04684,510.006955 1011.94485,510.710589 1011.8693,511.38412 C1011.46888,514.428183 1010.96647,517.351837 1010.33941,520.15132 C1010.01455,521.648894 1009.68968,523.097551 1009.28549,524.523632 C1008.96062,525.82178 1008.60932,527.093588 1008.2089,528.34282 C1007.47985,530.766029 1006.65257,533.091407 1005.74975,535.31519 C1005.3229,536.440251 1004.84693,537.538973 1004.37097,538.637696 C1003.86856,539.785333 1003.34349,540.906632 1002.79197,542.009117 C1002.31601,542.957329 1001.83627,543.879202 1001.3603,544.782261 C1001.33764,544.831177 1001.3112,544.906432 1001.26209,544.981687 C1000.73324,545.956238 1000.20817,546.90445 999.656652,547.830086 C999.505553,548.101004 999.331788,548.402023 999.154245,548.680467 C998.153209,550.351126 997.099288,551.976633 996.018924,553.572038 C995.082105,554.971779 994.096179,556.318843 993.102698,557.662143 C993.106475,557.665906 993.106475,557.665906 993.110253,557.669669 C993.05359,557.752449 992.989373,557.823941 992.93271,557.906722 C992.199876,558.888799 991.444377,559.848299 990.688878,560.8078 C990.356458,561.23299 990.024039,561.65818 989.684064,562.075845 C988.837905,563.129414 987.972859,564.171695 987.09648,565.198925 C986.881162,565.454792 986.662068,565.706896 986.44675,565.955237 C984.418235,568.306954 982.34439,570.636094 980.194995,572.935133 C976.859467,576.554895 973.399281,580.129505 969.889987,583.775606 C969.787995,583.873438 969.68978,583.975032 969.587788,584.076626 C968.635859,585.051177 967.680152,586.048305 966.754666,587.071772 C963.094273,590.9173 959.430102,594.89076 955.792374,599.165241 C955.293744,599.763517 954.764895,600.388133 954.239823,601.012749 C953.737416,601.637365 953.212344,602.261981 952.709937,602.886597 C952.184865,603.511213 951.682459,604.158406 951.180052,604.783022 C950.65498,605.433977 950.152573,606.084932 949.650166,606.754701 C948.12028,608.707567 946.643279,610.754501 945.162501,612.87669 C944.686537,613.576561 944.18413,614.276432 943.708165,615.002642 C941.751423,617.873618 939.87023,620.895103 938.038145,624.070862 C908.773886,674.928148 954.239823,743 954.239823,743 L539.372594,743 L539.497251,742.300129 L479.688164,668.11005 C455.262877,637.80865 400.164327,635.983718 336.388869,633.884105 C242.797639,630.813704 136.718008,627.314349 96.8200994,532.0416 C59.0035912,441.686761 99.5776712,417.654097 150.940279,387.254866 C161.596594,380.959791 172.630658,374.416374 183.464515,367 C193.622201,378.961772 201.770259,394.923344 207.06253,415.832928 C247.187088,574.38379 364.127019,673.280064 481.369149,609.354759 C598.607502,545.429454 713.265825,501.341349 771.144612,589.069791 C782.783076,606.754701 794.716185,624.217609 806.932606,641.526244 C815.231763,653.292353 819.670321,670.059153 831.584542,679.022016 C859.118707,699.784853 883.868858,647.723488 897.362072,631.810832 C922.316208,602.412491 949.049544,575.204069 960.457581,538.363015 C960.959988,536.763848 961.43973,535.138341 961.840144,533.490258 C962.792073,530.043582 963.592902,526.495312 964.219966,522.871786 C968.684966,497.420567 954.81778,473.237393 949.249751,449.155814 C943.859265,425.725189 946.817044,401.297437 955.845259,379.112282 C956.419438,377.686201 957.046502,376.263883 957.700009,374.841564 C975.631781,410.937594 1013.24808,441.487336 1013,494.071722" id="Fill-9" fill="#B1DCE0"></path>
                            <path d="M500,727.5 C500,731.641013 496.640179,735 492.498138,735 C488.356096,735 485,731.641013 485,727.5 C485,723.358987 488.356096,720 492.498138,720 C496.640179,720 500,723.358987 500,727.5" id="Fill-17" fill="#FEFEFE"></path>
                            <path d="M507,642.5 C507,646.641013 503.640179,650 499.498138,650 C495.356096,650 492,646.641013 492,642.5 C492,638.358987 495.356096,635 499.498138,635 C503.640179,635 507,638.358987 507,642.5" id="Fill-19" fill="#FEFEFE"></path>
                            <path d="M540,691.50175 C540,693.987165 537.983664,696 535.49825,696 C533.012835,696 531,693.987165 531,691.50175 C531,689.012835 533.012835,687 535.49825,687 C537.983664,687 540,689.012835 540,691.50175" id="Fill-21" fill="#FEFEFE"></path>
                            <path d="M185,346.5 C185,350.641013 181.643904,354 177.498138,354 C173.356096,354 170,350.641013 170,346.5 C170,342.358987 173.356096,339 177.498138,339 C181.643904,339 185,342.358987 185,346.5" id="Fill-23" fill="#FEFEFE"></path>
                            <path d="M287,237 C287,239.76245 284.759085,242 282,242 C279.23755,242 277,239.76245 277,237 C277,234.240915 279.23755,232 282,232 C284.759085,232 287,234.240915 287,237" id="Fill-25" fill="#FEFEFE"></path>
                            <g id="Group-29" transform="translate(662.000000, 0.000000)">
                                <mask id="mask-3" fill="white">
                                    <use xlink:href="#path-2"></use>
                                </mask>
                                <g id="Clip-28"></g>
                                <path d="M251.734226,46.0536524 C238.672636,33.2398304 225.217511,20.1057571 208.872721,11.5720003 C191.557213,2.52960897 172.195326,0.751272011 152.975862,0.359435054 C118.018774,-0.352653261 82.4657631,5.01249891 50.3158866,19.2165886 C32.269529,27.1889636 15.6586345,38.164166 1.48390464,51.9575804 C-2.31276415,55.6574255 3.48905548,61.4822326 7.28197633,57.7899228 C31.235096,34.4756239 62.1593944,20.5164323 94.5491394,13.7384065 C110.852702,10.3249038 127.489832,8.72364701 144.134458,8.55786984 C162.330734,8.37702201 181.752587,8.75378832 198.787,15.8671361 C217.23064,23.5720071 231.870115,38.0812774 245.936154,51.8822272 C249.714083,55.5933753 255.519651,49.7685682 251.734226,46.0536524" id="Fill-27" fill="#FEFEFE" mask="url(#mask-3)"></path>
                            </g>
                            <path d="M886.070989,49.6407622 C802.267714,9.33318542 708.818101,34.9457628 627.35551,67.8568314 C582.51951,85.9673438 538.587264,108.021153 490.729929,117.121647 C440.448721,126.685838 388.515043,123.364572 339.636731,108.477308 C334.989397,107.063603 333.004165,114.309316 337.632592,115.719251 C381.663155,129.124951 428.053308,133.286901 473.743903,127.379496 C521.219317,121.238358 564.107898,102.211765 607.854856,83.9542269 C693.269005,48.3024542 792.65919,13.0238998 882.270687,56.124959 C886.61551,58.2134736 890.4385,51.7443563 886.070989,49.6407622" id="Fill-30" fill="#C4E5ED"></path>
                            <path d="M212.355224,91.2543177 C177.293827,88.7639291 141.181272,86.3423991 106.847305,95.6918766 C90.1430589,100.240374 75.1259948,108.097914 60.238421,116.808536 C46.1315975,125.056275 32.3332654,133.422604 21.0599939,145.438442 C17.7122893,149.003791 23.0670933,154.401546 26.422415,150.82472 C37.7718573,138.728547 51.8824893,130.457855 66.0845264,122.202466 C81.0482709,113.50332 96.2519533,106.032154 113.142818,101.938888 C145.564899,94.0851743 179.422799,96.5334826 212.355224,98.8746775 C217.226344,99.2227963 217.203493,91.5986111 212.355224,91.2543177" id="Fill-32" fill="#C4E5ED"></path>
                            <path d="M616.475914,40.5747813 C581.098236,62.3821647 541.825872,75.9948481 500.559397,80.4797344 C495.837884,80.9914329 495.789247,88.4900724 500.559397,87.9746115 C543.191444,83.3392257 583.668505,69.5835677 620.235914,47.0462615 C624.317666,44.5291567 620.580113,38.046389 616.475914,40.5747813" id="Fill-34" fill="#C4E5ED"></path>
                            <g id="Group-38" transform="translate(156.000000, 720.000000)">
                                <mask id="mask-5" fill="white">
                                    <use xlink:href="#path-4"></use>
                                </mask>
                                <g id="Clip-37"></g>
                                <path d="M2.01968924,6.69675 C50.3231786,52.008 120.979657,50.6205 183.162503,50.99175 C254.934928,51.423 326.608999,36.02925 398.301985,42.6405 C403.128929,43.083 403.098666,35.613 398.301985,35.1705 C331.110617,28.97175 264.278622,43.038 197.1213,43.5255 C133.557706,43.983 56.9734671,47.96925 7.34597265,1.41675 C3.82790193,-1.887 -1.51351298,3.3855 2.01968924,6.69675" id="Fill-36" fill="#C4E5ED" mask="url(#mask-5)"></path>
                            </g>
                            <path d="M592.650845,763 L707.347731,763 C712.211726,763 712.223117,756 707.347731,756 L592.650845,756 C587.786849,756 587.779255,763 592.650845,763" id="Fill-39" fill="#C4E5ED"></path>
                        </g>
                        <g id="Group-99" transform="translate(500.000000, 188.000000)">
                            <g id="Group-3" transform="translate(50.000000, 354.000000)">
                                <mask id="mask-7" fill="white">
                                    <use xlink:href="#path-6"></use>
                                </mask>
                                <g id="Clip-2"></g>
                                <path d="M142.044526,200.825894 L85.1307006,200.825894 C85.1307006,200.825894 69.2570522,57.0409208 66.5044145,58.0786732 C63.7517767,59.1164256 58.5800597,200.825894 58.5800597,200.825894 L1.83145492,200.825894 C0.135605598,200.660229 0.00779342518,179.430065 0.238478811,164.03257 C0.341352023,157.599755 0.506572637,152.182812 0.63126744,149.735342 C1.99667553,125.166866 3.36208362,100.617145 4.72749172,76.0486691 C4.99870291,71.2349983 10.2951147,0.927272147 8.90788498,0.677211324 C8.90788498,0.677211324 38.8346377,6.03163869 56.4477786,7.38196714 C60.3164349,7.67266284 63.5865561,7.77581293 65.8217104,7.58826732 C68.3062544,7.38196714 71.554554,6.98812134 75.176938,6.46924513 C89.6633567,4.43437519 109.966788,0.677211324 109.966788,0.677211324 L136.084114,163.701239 L142.044526,200.825894 Z" id="Fill-1" fill="#135CB0" mask="url(#mask-7)"></path>
                            </g>
                            <g id="Group-8" transform="translate(68.000000, 371.000000)" fill="#226EC5">
                                <path d="M3.38775652,120.095698 C3.38775652,120.095698 -6.68285217,172.216102 11.4830609,174.995312 C29.6489739,177.777663 36.438887,139.810821 40.3174957,83.7398561 C44.1992348,27.6688912 39.9042783,-4.44119649 32.3505391,0.495435088 C24.7999304,5.43206667 3.38775652,120.095698 3.38775652,120.095698" id="Fill-4"></path>
                                <path d="M57.1767652,21.840086 C55.5145043,25.9099807 55.7649391,30.8748754 56.1499826,35.4064018 C59.5558957,75.2888579 62.9618087,115.168174 66.3645913,155.05063 C67.1597217,164.36177 71.1604174,172.903525 80.3701565,176.197753 C89.7614609,179.557928 103.263026,177.026805 106.631374,166.337051 C107.667548,163.049104 107.420243,159.509928 107.141635,156.074384 C105.012939,129.783367 101.650852,103.5897 97.0678957,77.6158579 C94.889113,65.2585772 92.4348522,52.9484018 89.6112,40.7261561 C87.8550261,33.117086 85.7294609,25.1311737 80.1917217,19.6418404 C74.6539826,14.152507 64.5645913,12.5258053 59.3524174,18.3291737 C58.4038957,19.3843316 57.6995478,20.5682439 57.1767652,21.840086" id="Fill-6"></path>
                            </g>
                            <path d="M206.608699,509.976281 C203.595445,511.908573 195.420169,514.717756 185.861098,517.376615 C168.232478,522.284074 145.833652,526.712374 142.260661,524.341636 C136.747248,520.702538 137.450029,517.251345 136.417624,506.857054 C135.777036,500.327347 130.204539,427.207155 125.931877,370.738499 C125.642679,367.014844 125.372139,363.375746 125.104709,359.843127 C122.977707,331.378615 121.304714,309.071132 121.037284,305.181493 C120.748086,300.984943 122.175416,279.776705 124.134497,253.601505 C127.726146,206.133511 133.093406,142.386659 133.320411,134.341183 C133.404371,130.871199 133.301753,127.294736 133.093406,123.946891 C132.598971,115.234352 131.423523,108 131.423523,108 C131.423523,108 138.647245,111.720524 141.477029,117.708437 C144.325471,123.696351 146.141508,127.85532 146.141508,127.85532 C146.141508,127.85532 192.839158,145.778348 196.452574,153.053413 C200.06599,160.331609 183.547516,205.716987 180.804803,227.902332 C178.696459,244.804409 176.799571,255.471163 177.685822,273.976697 C177.78844,276.344303 177.956361,278.840311 178.161598,281.502302 C178.472564,285.329305 178.883038,289.507065 179.421008,294.079426 C183.115275,326.017053 191.47713,329.984985 198.268611,387.224052 C198.414765,388.367142 198.536041,389.554077 198.682195,390.759802 C205.576294,451.406218 215.197559,504.423681 206.608699,509.976281" id="Fill-9" fill="#E9F2F6"></path>
                            <path d="M199,388 C196.382569,386.040642 194.097013,383.019966 192.493993,378.86889 C184.679271,358.606493 156.20375,357.962794 160.424201,355.667457 C164.641522,353.375259 156.119216,341.349073 162.813077,331.445524 C169.485021,321.541975 178.755611,282 178.755611,282 C179.068701,285.833936 179.485111,290.022691 180.023625,294.610226 C183.743132,326.631909 192.162118,330.610285 199,388" id="Fill-11" fill="#C5DEE4"></path>
                            <path d="M109.50543,305.670118 C108.858988,310.967851 107.318198,333.175772 105.275318,361.551343 C104.817161,368.035042 104.318208,374.847307 103.797289,381.850453 C101.462569,413.821472 98.6916578,449.841675 95.9646793,477.679024 C93.7554816,500.343807 91.5462838,517.58882 89.6508926,522.842744 C89.3182577,523.778374 88.9824847,524.319725 88.6718163,524.485573 C88.3988046,524.607612 88.0473414,524.714004 87.6080123,524.795364 C82.1289508,525.856162 64.3580889,522.654992 48.6928685,518.377378 C46.590365,517.814122 44.5474847,517.213316 42.5485373,516.61251 C30.9031782,513.101549 21.7149239,509.215085 22.0067639,506.492682 C22.1511149,504.915566 23.3184751,494.776964 25.0883438,479.653548 C25.923069,472.299932 26.9241118,463.782254 28.0255726,454.476018 C30.4638491,433.889022 33.360283,409.500049 36.2786835,385.815147 C41.1928932,345.723857 46.110241,307.622738 48.6112788,293.206521 C48.9439137,291.253901 49.2545821,289.238697 49.5056273,287.201589 C50.4658752,279.744709 50.8612714,271.871646 50.9020662,263.914095 L50.9020662,263.685663 C50.9428611,251.32533 50.1112739,238.777244 49.0882647,227.352541 C47.7953819,212.933195 46.1730023,200.322525 45.6112887,192.098992 C44.2148498,172.028314 51.1719398,139.121664 51.1719398,139.121664 C51.1719398,139.121664 63.6739907,133.598628 70.254513,131.852536 C76.8601397,130.128347 81.3820914,128.404159 81.3820914,128.404159 C81.3820914,128.404159 85.5463036,116.272257 89.3590525,112.82388 C93.1718015,109.353599 97.0065169,109 97.0065169,109 C97.0065169,109 97.1728343,114.964252 97.5682305,124.933878 C98.318228,143.424311 99.8370515,175.686347 102.545202,209.422234 C104.340175,231.692739 106.254394,249.391485 107.691628,263.685663 L107.691628,263.704439 C109.608986,282.754998 110.691618,295.781851 109.50543,305.670118" id="Fill-13" fill="#E9F2F6"></path>
                            <path d="M68.1191363,361.85159 C63.4253463,363.123881 49.3691105,371.967094 37,386 C41.9231385,345.751602 46.8462769,307.501174 49.3471182,293.028464 C49.6801448,291.068192 49.9943208,289.045091 50.2456616,287 C53.5822111,297.781494 59.2562303,312.715999 66.7618958,319.617789 C79.1938415,331.090404 75.7944568,359.746811 68.1191363,361.85159" id="Fill-15" fill="#C5DEE4"></path>
                            <path d="M176,209.017166 L142,212 C143.544884,208.350822 145.086627,204.739362 146.546731,201.275629 L174.709457,199 C175.020318,202.548598 175.459919,205.867747 176,209.017166" id="Fill-17" fill="#FEFEFE"></path>
                            <path d="M125.046638,352.537457 C125.235564,355.215788 125.443383,357.978599 125.651202,360.785215 C121.995478,361.304611 118.71131,361.698851 116.204888,361.905358 C113.947218,362.093092 110.644157,361.989838 106.736532,361.698851 C108.783233,333.322934 110.32928,311.11719 110.977927,305.819977 C112.171311,295.932679 111.081836,282.910232 109.161086,263.86154 L109.161086,263.839638 C107.718948,249.546861 105.795049,231.849851 103.993952,209.584658 C101.279711,175.848949 99.7525564,143.590077 99,125.104585 C99,125.104585 103.118593,127.532605 106.673556,131.875507 C107.548915,132.954974 108.405381,134.1815 109.161086,135.489376 C112.879785,142.072564 113.235596,143.111356 113.235596,143.111356 C113.235596,143.111356 126.907562,123.399339 133.743545,125.104585 C133.951364,128.446241 134.055273,132.019436 133.970256,135.489376 C133.743545,143.527499 128.308765,207.216087 124.668785,254.637568 C122.685059,280.788844 121.242922,301.977698 121.535758,306.173541 C121.784511,309.684158 123.185714,328.1102 125.046638,352.537457" id="Fill-19" fill="#4BBCC8"></path>
                            <path d="M155,360.972707 L155,362.027293 C155,365.325752 157.533195,368 160.657676,368 L185.342324,368 C188.466805,368 191,365.325752 191,362.027293 L191,360.972707 C191,357.674248 188.466805,355 185.342324,355 L160.657676,355 C157.533195,355 155,357.674248 155,360.972707" id="Fill-21" fill="#FEFEFE"></path>
                            <path d="M48.7291645,355 L70.2665685,355 C73.4342973,355 76,357.583416 76,360.776938 L76,361.224984 C76,364.462993 73.361802,367.065475 70.1499456,366.998745 L48.6125417,366.553876 C45.1831995,366.480791 42.5828251,363.408019 43.0556204,359.98253 C43.4464646,357.125837 45.8703287,355 48.7291645,355" id="Fill-23" fill="#FEFEFE"></path>
                            <path d="M70,355 L43.8522258,355 C43.8522258,355 39.6296614,349.633761 43.9356268,344.306022 C49.1651817,341.945706 54.0642212,340.669299 58.1663174,340 C61.0575539,340.784798 63.0282898,342.102665 63.0282898,342.102665 L63.8468557,343.615992 L69.5490165,354.173741 L70,355 Z" id="Fill-25" fill="#F8C5AE"></path>
                            <path d="M186.89624,356 L160,356 L160.794497,354.52648 L165.567783,345.719777 L166.992833,343.060559 C166.992833,343.060559 167.579248,342.625698 168.56291,342 C174.442817,342.707039 182.356258,343.995978 188.967607,346.320447 C189.304953,351.204022 186.89624,356 186.89624,356" id="Fill-27" fill="#F8C5AE"></path>
                            <path d="M173,226 C173,232.628814 167.628814,238 161,238 C154.371186,238 149,232.628814 149,226 C149,219.371186 154.371186,214 161,214 C167.628814,214 173,219.371186 173,226" id="Fill-29" fill="#384978"></path>
                            <path d="M167,226 C167,229.311258 164.31457,232 161,232 C157.68543,232 155,229.311258 155,226 C155,222.68543 157.68543,220 161,220 C164.31457,220 167,222.68543 167,226" id="Fill-31" fill="#1B2239"></path>
                            <path d="M52.779167,263 C52.8191829,250.619611 52.0034748,238.051166 51,226.607925 L52.2497263,214.892003 C52.2497263,214.892003 55.1093218,198.286611 57.4794924,204.320091 C59.8496629,210.375512 53.3917176,246.914897 52.779167,263" id="Fill-33" fill="#C5DEE4"></path>
                            <path d="M177.66635,275 C175.876426,264.543797 174,250.944183 174,239.390281 C174,217.030908 175.833175,196 175.833175,196 L181,229.124304 C178.747624,245.954644 176.714829,256.573008 177.66635,275" id="Fill-35" fill="#C5DEE4"></path>
                            <path d="M70,355 L43.8522258,355 C43.8522258,355 39.6296614,349.633761 43.9356268,344.306022 C49.1651817,341.945706 54.0642212,340.669299 58.1663174,340 C61.0575539,340.784798 63.0282898,342.102665 63.0282898,342.102665 L63.8468557,343.615992 C58.740858,347.214215 52.5877137,352.050346 54.5152047,353.172754 C55.1947688,353.566634 60.9339968,353.898322 69.5490165,354.173741 L70,355 Z" id="Fill-37" fill="#F5AB8A"></path>
                            <path d="M186.89624,356 L160,356 L160.794497,354.52648 C169.732586,354.213631 175.215245,353.778771 174.505873,353.134302 C172.850671,351.638883 168.938089,348.419665 165.567783,345.719777 L166.992833,343.060559 C166.992833,343.060559 167.579248,342.625698 168.56291,342 C174.442817,342.707039 182.356258,343.995978 188.967607,346.320447 C189.304953,351.204022 186.89624,356 186.89624,356" id="Fill-39" fill="#F5AB8A"></path>
                            <g id="Group-43" transform="translate(0.000000, 139.000000)">
                                <mask id="mask-9" fill="white">
                                    <use xlink:href="#path-8"></use>
                                </mask>
                                <g id="Clip-42"></g>
                                <path d="M52.2512693,0.0968087432 C52.2512693,0.0968087432 33.1093759,6.68857559 28.4119401,22.8077013 C23.7176486,38.9299599 -4.98575893,108.607191 0.755551411,138.245078 C6.49686176,167.886098 38.3287489,212.208211 41.4603727,213.965807 C44.5888524,215.723403 66.3152787,203.937173 67.1076172,197.696299 C67.8999558,191.458557 42.5011031,143.273494 41.8062348,122.818339 C41.1113665,102.366317 52.2449809,76.4159344 54.6785922,42.767847 C57.1153476,9.11662659 52.2512693,0.0968087432 52.2512693,0.0968087432" id="Fill-41" fill="#E9F2F6" mask="url(#mask-9)"></path>
                            </g>
                            <path d="M152.668428,124.869376 L133.109958,108.818631 C128.538749,105.065284 122.76011,103 116.842759,103 L110.909645,103 C105.317007,103 99.7937254,104.867243 95.3517712,108.255943 L80.1186109,119.883774 C75.4149943,123.473659 72.0858931,128.61958 70.7460559,134.37534 L70.7082252,134.538803 C69.2580485,140.558618 65.2637576,145.644812 59.7278657,148.514833 C58.741115,149.027225 58.3659606,149.294423 58.1042983,149.536473 C50.0274447,157.046311 48.2809276,171.251817 49.2361526,181.138146 L53.4038343,180.735777 C52.4706772,171.091498 54.4441785,158.649499 60.8753968,152.661119 C61.0298721,152.551096 61.3072973,152.403351 61.6603837,152.217884 C63.9995818,151.004491 66.0928803,149.442168 67.9182114,147.634652 C71.5247378,149.080665 74.6836009,151.054787 77.0511719,153.402986 C82.164621,158.464032 81.6507541,165.389177 81.1053615,172.722978 L80.9761067,174.50849 L85.153246,174.794549 L85.2825009,173.027899 C85.8436562,165.448904 86.4804729,156.8577 80.0019662,150.441803 C77.5272082,147.986724 74.3305144,145.91201 70.7302931,144.308821 C72.6375907,141.633697 74.0562418,138.603357 74.8191609,135.330966 L74.8569916,135.16436 C76.0045227,130.414522 78.7724686,126.167644 82.6627252,123.197031 L97.8927329,111.572343 C101.609599,108.7369 106.231249,107.174577 110.909645,107.174577 L116.842759,107.174577 C121.792275,107.174577 126.625147,108.903506 130.449199,112.037582 L150.007669,128.09147 C154.966643,132.162312 157.813403,138.169553 157.813403,144.57602 L157.813403,215 L162,215 L162,144.57602 C162,136.918437 158.59839,129.735524 152.668428,124.869376" id="Fill-44" fill="#222A54"></path>
                            <path d="M73.8187639,236 C73.3526511,236 73.0613306,235.950386 73,235.937983 L73.3741168,233.916228 C73.6317055,233.950337 79.9211616,234.865088 84.2817693,222.908205 C88.8785,210.281538 82.7515701,173.347295 82.6902395,173 L84.5148257,175.015553 C84.781614,176.454349 90.9790741,210.467589 86.1891519,223.621401 C82.0738667,234.9085 76.0082674,236 73.8187639,236" id="Fill-46" fill="#384978"></path>
                            <path d="M75,236.216095 C75,236.216095 71.5689579,232.506205 70.0616793,233.055485 C68.5544007,233.607766 66.9082938,236.180077 68.9642747,238.380198 C71.0202556,240.580318 75,236.216095 75,236.216095" id="Fill-48" fill="#1B2239"></path>
                            <path d="M61,236.231319 C61,236.231319 65.4786668,231.128296 66.6676628,233.747959 C67.8566587,236.370946 65.6069259,241.567054 63.8355646,239.542467 C62.0642033,237.51788 61,236.231319 61,236.231319" id="Fill-50" fill="#1B2239"></path>
                            <path d="M62.825019,236 C62.6182232,235.984411 57.6869396,235.522986 51.7312217,227.285925 C45.8168628,219.104983 51.3144487,182.549515 51.5498777,181 L53.6369242,181.305538 C52.0589134,191.65019 48.950614,219.862593 53.4555802,226.088714 C58.7590961,233.421631 62.9586408,233.929823 63,233.936058 L62.825019,236 Z" id="Fill-52" fill="#384978"></path>
                            <path d="M133,124.817089 C126.310314,123.098621 112.930941,143 112.930941,143 C112.930941,143 112.585826,141.951229 108.943629,135.301641 C105.301432,128.655212 99,124.817089 99,124.817089 L99,102 L131.342215,102 L132.140294,113.053163 L133,124.817089 Z" id="Fill-54" fill="#F8C5AE"></path>
                            <path d="M133,112.966843 C128.321246,117.354833 122.947001,121 118.015342,121 C112.704324,121 105.483868,116.025899 99,110.387331 L99,102 L132.181218,102 L133,112.966843 Z" id="Fill-56" fill="#ED8772"></path>
                            <path d="M155.546926,57.6174534 C153.732447,53.1002822 147.664403,58.5694192 147.664403,58.5694192 L147.66128,58.5880852 C147.726863,56.1957266 147.676895,54.0273601 147.514497,52.1949814 C145.959229,34.8978247 146.736863,26.6381213 126.003078,19.9245846 C105.269292,13.2141589 91.2750023,18.8917328 87.386832,28.445612 C83.4986616,37.9963801 80.8409645,49.099537 80.8409645,49.099537 C80.8409645,49.099537 81.2157279,52.3131994 82.0995449,57.2752434 L82.0901758,57.2285785 C82.0901758,57.2285785 75.725444,53.6167081 75.0758541,59.555606 C74.4293872,65.4913929 78.0489771,73.6235453 80.8409645,73.6235453 C83.6298288,73.6235453 85.0601758,70.9107538 85.0601758,70.9107538 L85.0508067,70.8609778 C89.6260433,88.6341175 98.4985669,111.101755 114.34169,112.865692 C133.301595,114.974949 142.911154,91.8322248 146.271532,72.1644866 C147.245917,73.2502254 148.635665,74.2208572 150.234655,73.6235453 C153.345191,72.4600315 157.361406,62.1346245 155.546926,57.6174534" id="Fill-58" fill="#F8C5AE"></path>
                            <path d="M81.3641229,48.4670464 C81.3641229,48.4670464 86.7248155,41.3611753 89.3283117,34.6060568 L91.9318078,27.8509382 C91.9318078,27.8509382 120.21895,23.3443941 129.415878,26.4635866 C138.612807,29.582779 138.612807,29.582779 139.999247,34.4338122 C141.388824,39.2848454 148.512365,50.1988872 148.512365,50.1988872 L148.480998,58 C148.480998,58 151.627151,54.0101896 151.975329,48.639291 C152.323507,43.2683924 148.851134,35.6457876 150.065053,31.1392435 C151.282109,26.6358311 151.106451,24.7286141 147.461557,20.0529571 C143.819799,15.3741685 136.53001,5.15223667 120.563992,2.20842052 C114.096029,1.01523546 107.552784,-0.0276270661 100.956215,0 C97.6971401,0.0130852849 94.2969115,-0.0401539433 91.1225282,0.80541027 C88.7229204,1.44428101 86.1978428,2.76899828 85.5108963,5.32448123 C83.6037569,12.4146937 84.6388819,18.9881726 84.6420186,19.0132263 C84.711027,19.4579305 82.556085,21.7190318 82.264368,22.185658 C79.7643844,26.1629415 78.2869787,30.7790958 78.0485863,35.473543 C77.5278871,45.6954748 81.3641229,51.0663735 81.3641229,51.0663735 L81.3641229,48.4670464 Z" id="Fill-60" fill="#222A54"></path>
                            <path d="M109,263 C108.372382,261.231546 77.4677364,174.364069 74.452649,166.120689 C71.3965614,157.792649 84.8162235,154.152267 84.8162235,154.152267 L77.4866596,149.467744 L74.872112,146.344729 C72.2544106,143.221714 82.554908,127.44359 82.554908,127.44359 C82.554908,127.44359 86.7432302,115.287035 90.5751666,111.831651 C94.4071031,108.354318 98.2579626,108 98.2579626,108 C98.2579626,108 99.639352,156.585459 103.827674,208.626302 C105.628527,230.942063 107.555533,248.676775 109,263" id="Fill-62" fill="#FEFEFE"></path>
                            <path d="M159.905405,168.771095 C159.390921,170.438644 153.647916,184.344303 146.593906,201.233335 C145.152731,204.694048 143.630974,208.299219 142.106118,211.948356 C135.544897,227.606354 128.590065,244.096556 124,255 C127.579693,207.404207 132.929087,143.481513 133.155336,135.413844 C133.486961,122.905659 131.264762,109 131.264762,109 C131.264762,109 138.464439,112.730787 141.284803,118.735218 C144.123763,124.739649 145.933755,128.91009 145.933755,128.91009 C145.933755,128.91009 158.175995,147.234282 157.147027,150.007249 C156.118059,152.780216 147.560888,156.950657 147.560888,156.950657 C147.560888,156.950657 161.262899,164.24893 159.905405,168.771095" id="Fill-64" fill="#FEFEFE"></path>
                            <g id="Group-68" transform="translate(162.000000, 149.000000)">
                                <mask id="mask-11" fill="white">
                                    <use xlink:href="#path-10"></use>
                                </mask>
                                <g id="Clip-67"></g>
                                <path d="M71.7280731,122.188684 L69.3952129,135.733675 C69.3952129,135.733675 31.8747828,205.712463 27.9563312,205.902521 C24.0378796,206.067176 0.856847312,194.085431 0.608804301,188.35353 C0.335643011,182.621629 22.4931054,141.195618 26.3927183,117.498947 C29.5607613,98.244029 18.4490624,84.8246004 14.0502237,59.2131109 C13.5101806,56.0646461 13.0706108,52.7498118 12.759772,49.2089661 C12.5085892,46.104448 12.3421806,42.8304213 12.3233419,39.3523566 C12.0721591,-0.243590095 30.7476,0.754627048 30.7476,0.754627048 C30.7476,0.754627048 38.3772774,3.15285943 42.295729,20.3234499 C46.1953419,37.537987 74.0640731,108.643694 71.7280731,122.188684" id="Fill-66" fill="#E9F2F6" mask="url(#mask-11)"></path>
                            </g>
                            <path d="M126,360.78534 C122.293242,361.304683 118.969282,361.698883 116.430057,361.905368 C114.13965,362.093082 110.79336,361.989839 106.834594,361.698883 C108.911271,333.325888 110.477552,311.122432 111.134688,305.828893 C112.340501,295.939486 111.239957,282.91838 109.290879,263.871651 L109.290879,263.852879 C107.829868,249.561575 105.880789,231.863259 104.05931,209.60036 C101.306356,175.871255 99.7592155,143.612578 99,125.128991 C99,125.128991 99.7081758,124.012091 103.306474,128.351417 C102.863067,151.947086 105.944589,212.694515 111.641895,235.977328 C118.886342,265.679964 107.45026,333.347788 116.723535,347.057178 C118.608814,349.838477 121.680766,351.562318 125.387524,352.538432 C125.575733,355.219616 125.789461,357.982142 126,360.78534" id="Fill-69" fill="#3394B1"></path>
                            <path d="M120.928599,138.250831 C113.456805,145.310477 112.994293,157.610565 112.34081,167.704317 C110.395278,197.655093 117.326979,253.86788 119.308318,246.307795 C121.874509,236.513048 121.668617,225.18551 122.489202,215.12638 C123.846896,198.482863 125.055393,181.823609 126.207196,165.161207 C126.83084,156.109249 128.654029,145.92737 127.755862,136.878559 C127.702151,136.327762 127.606665,135.732901 127.221736,135.355211 C126.556317,134.70055 125.479113,135.068797 124.670465,135.51573 C123.259059,136.299435 122.020723,137.21848 120.928599,138.250831" id="Fill-71" fill="#76C7CF"></path>
                            <path d="M82.4628302,366 C76.2548561,372.046447 68.570729,377.658122 59.8733104,377.509057 C50.8350005,377.353781 45.3807402,380.117693 46.0562678,390.477708 C46.3283553,394.660843 47.8920768,398.657647 49.7716699,402.409115 C52.1453991,407.141928 55.6794095,412.042438 60.9335135,412.877823 C65.668462,413.632464 70.2470383,410.778491 73.6528236,407.42453 C84.333041,396.903029 87.9452375,379.912729 82.4628302,366" id="Fill-73" fill="#FEFEFE"></path>
                            <path d="M161.262017,374.965039 C160.802172,375.628088 160.463675,376.477038 160.256106,377.530479 C158.346472,387.284111 167.498666,404.792933 174.993502,410.608551 C188.245981,420.892001 193.760929,405.812292 189.679804,391.751943 C187.54344,384.402638 166.594943,367.212947 161.262017,374.965039" id="Fill-75" fill="#FEFEFE"></path>
                            <path d="M89.5480783,424.209919 C78.1116247,446.105772 62.7079352,467.291371 40.4417448,478.154818 C37.2698422,479.691095 33.8873178,481.042768 30.3601872,480.998964 C28.8575416,480.980191 27.3957629,480.729881 26,480.254292 C26.8330567,472.901441 27.8358683,464.381519 28.9424191,455.076251 C39.7532942,452.419838 49.8317082,447.060079 58.5583699,440.22662 C73.9149052,428.155428 85.373364,411.954123 96.6023393,396 C98.3344685,405.721408 94.1188874,415.445946 89.5480783,424.209919" id="Fill-77" fill="#FEFEFE"></path>
                            <path d="M96,477 C93.8080132,499.511049 91.6191399,516.635981 89.7354012,521.857376 C89.0348373,522.538022 88.3498414,523.178265 87.7115498,523.796752 C82.2751733,524.850355 64.6427564,521.670898 49.099577,517.422299 C47.0103396,516.862864 44.9833745,516.266133 43,515.666294 C62.0179767,511.147301 86.3446716,500.769779 96,477" id="Fill-79" fill="#FEFEFE"></path>
                            <path d="M61.629056,243 C61.629056,243 74.561923,256.246526 88.0273936,259.491722 C101.495997,262.733791 99.1650734,303.727054 98.2502485,319.812345 C97.3354236,335.897636 68.2270739,301.651129 62.7631882,284.527876 C57.2961695,267.404622 61.629056,243 61.629056,243" id="Fill-81" fill="#FEFEFE"></path>
                            <path d="M167,246.104561 C167,246.104561 157.898226,248.434691 149.386616,246.104561 C140.875006,243.77443 136.933218,240.579542 133.401705,253.91883 C129.876503,267.261264 132.234002,294.398949 149.386616,295.964948 C166.539231,297.530946 167,246.104561 167,246.104561" id="Fill-83" fill="#FEFEFE"></path>
                            <path d="M106,278.5 C106,280.432649 104.432649,282 102.5,282 C100.567351,282 99,280.432649 99,278.5 C99,276.567351 100.567351,275 102.5,275 C104.432649,275 106,276.567351 106,278.5" id="Fill-85" fill="#9DCED6"></path>
                            <path d="M108,303.5 C108,305.432649 106.432649,307 104.5,307 C102.567351,307 101,305.432649 101,303.5 C101,301.567351 102.567351,300 104.5,300 C106.432649,300 108,301.567351 108,303.5" id="Fill-87" fill="#9DCED6"></path>
                            <path d="M135.204468,420.455466 C136.240267,444.909075 141.561805,471.073661 159.145053,484.854629 C181.508183,502.377387 209.392409,490.006189 198.606792,463.211244 C189.807248,441.350493 165.85716,431.516261 153.104474,412.527839 C149.620134,407.342121 147.577043,401.634726 145.14434,395.945963 C143.905816,393.048792 142.065451,385.857102 139.24947,383.934971 C135.609918,381.447689 136.028039,384.267229 135.771465,388.347489 C135.099937,399.004605 134.751503,409.782824 135.204468,420.455466" id="Fill-89" fill="#FEFEFE"></path>
                            <path d="M37.1953941,165.714692 C37.4568964,168.632614 39.3504253,171.808369 39.6497352,175.028144 C40.1412336,180.316877 40.103426,185.665352 39.6119277,190.95094 C37.7562063,210.838714 28.4177375,229.581957 17.9607948,246.325418 C16.3760276,248.859734 -2.31036195,275.287676 0.238498135,260.562863 C3.96569403,239.002316 25.1253286,161.366109 30.8783799,160.146116 C36.5558161,158.944989 37.1796409,165.538611 37.1953941,165.714692" id="Fill-91" fill="#FEFEFE"></path>
                            <path d="M197.409294,160 C197.409294,160 181.503843,166.53105 189.01519,188.692521 C196.523373,210.857097 213.327401,263.080652 221.730997,263 C230.13143,262.916056 225.306323,234.257697 214.460115,200.096237 C203.613907,165.937883 197.409294,160 197.409294,160" id="Fill-93" fill="#FEFEFE"></path>
                            <path d="M13.0492573,277.02869 C15.105116,277.11396 17.0980081,277.360293 18.3793779,277.36661 C24.8649352,277.395033 32.5972307,279.694146 34.6184578,286.648331 C38.1005094,298.649197 50.3601017,346.017875 42.3129734,341.725987 C34.2721416,337.437256 5.38307667,287.668405 5.00842555,281.260574 C4.75970757,277.0129 10.0772349,276.902366 13.0492573,277.02869" id="Fill-95" fill="#FEFEFE"></path>
                            <path d="M226,281.952448 C226,281.952448 189.879701,345.992082 184.654,341.803101 C179.431447,337.61412 177.763,334.818328 184.08421,316.684905 C190.402271,298.554619 197.715105,290.242551 206.598797,283.461736 C215.482489,276.680921 226,281.952448 226,281.952448" id="Fill-97" fill="#FEFEFE"></path>
                        </g>
                        <g id="Rectangle-Copy-9">
                            <use fill="black" fill-opacity="1" filter="url(#filter-13)" xlink:href="#path-12"></use>
                            <use fill="#FFFFFF" fill-rule="evenodd" xlink:href="#path-12"></use>
                        </g>
                        <g id="Rectangle-Copy-10">
                            <use fill="black" fill-opacity="1" filter="url(#filter-15)" xlink:href="#path-14"></use>
                            <use fill="#FFFFFF" fill-rule="evenodd" xlink:href="#path-14"></use>
                        </g>
                        <g id="Rectangle-Copy-11">
                            <use fill="black" fill-opacity="1" filter="url(#filter-17)" xlink:href="#path-16"></use>
                            <use fill="#FFFFFF" fill-rule="evenodd" xlink:href="#path-16"></use>
                        </g>
                        <g id="Group-33" transform="translate(694.000000, 585.000000)">
                            <path d="M179.748632,18.9966153 C183.849656,18.8021563 186.196783,9.8295643 186.682544,7.35655308 C186.987757,5.78819896 187.127466,4.1691164 186.852345,2.57117068 C186.704038,1.71512834 186.377332,0.791448079 185.560566,0.309527944 C184.425691,-0.360510139 182.92972,0.157342638 181.938854,0.911928113 C180.539605,1.97933894 179.608922,3.45469093 178.841592,4.95963451 C177.575605,7.44110047 176.68576,10.0895475 176.204298,12.8140872 C176.017301,13.8603612 175.890488,14.9404542 176.135517,15.9951829 C176.382696,17.0499116 177.049005,18.0877308 178.106502,18.616152 C178.682537,18.9057269 179.228481,19.0219795 179.748632,18.9966153" id="Fill-1" fill="#F56C5A"></path>
                            <path d="M175.718554,32.6949926 C179.103121,34.3736161 184.988684,28.6519266 186.481689,27.0016067 C187.426416,25.9543721 188.257269,24.7939229 188.75072,23.4680062 C189.012207,22.758238 189.15982,21.9134833 188.719088,21.1862975 C188.103329,20.1760753 186.66726,19.8995705 185.534854,20.0302027 C183.934301,20.2109105 182.527755,20.9076155 181.241409,21.7022946 C179.117883,23.0129708 177.224212,24.613215 175.621551,26.4529516 C175.005791,27.1583653 174.423772,27.9182092 174.151742,28.8217484 C173.877602,29.7274649 173.951409,30.8073576 174.567168,31.6760616 C174.902462,32.1506918 175.290475,32.4816267 175.718554,32.6949926" id="Fill-3" fill="#F56C5A"></path>
                            <path d="M182.473154,43.4403416 C180.303277,40.6103336 172.129512,42.7038775 169.959635,43.3968985 C168.583001,43.835467 167.248338,44.4167771 166.13402,45.2815018 C165.538038,45.7428262 164.975633,46.363442 165.000815,47.1454179 C165.03649,48.2294268 166.178089,49.0776017 167.256732,49.4623835 C168.780263,50.0085254 170.389833,50.0519685 171.944842,49.9650823 C174.509243,49.8244094 177.016983,49.3444665 179.384122,48.5480095 C180.294882,48.2397704 181.201446,47.8777445 181.904453,47.2633349 C182.60746,46.6468565 183.092219,45.73662 182.985195,44.7643219 C182.926436,44.2367985 182.748061,43.79823 182.473154,43.4403416" id="Fill-5" fill="#F56C5A"></path>
                            <path d="M167.291781,41.1626536 C167.291781,41.1626536 173.107457,28.2745119 170.172564,25.6470342 C167.239836,23.0216335 161.389529,28.8830897 162.051828,34.2979786 C162.259608,35.9866263 162.826674,37.7521252 163.599356,39.3265348 C164.073355,40.2944436 166.23773,43.5034974 167.291781,41.1626536" id="Fill-7" fill="#F56C5A"></path>
                            <path d="M154.597949,61.5649975 C154.665093,61.4860984 154.727906,61.3984328 154.786386,61.3129587 C155.43617,60.3552112 155.852032,59.2813066 156.172592,58.1986355 C156.993486,55.4086753 157.207915,52.4828333 156.796385,49.6490403 C156.644769,48.6058188 156.402183,47.551639 155.821709,46.6530658 C154.019641,43.854339 150.896345,44.9348185 149.445161,47.4749315 C148.130431,49.7805388 147.688578,52.4806417 148.219235,54.9966467 C148.747726,57.5126516 150.244395,59.8270255 152.386517,61.440074 C152.902012,61.8301862 153.621107,62.1918071 154.216742,61.8849773 C154.368358,61.8060782 154.489652,61.6943044 154.597949,61.5649975" id="Fill-9" fill="#F56C5A"></path>
                            <path d="M149.002852,67.4823901 C148.965416,66.888391 149.302344,66.3203118 149.670469,65.8407925 C151.486137,63.501516 154.499772,62.132078 157.594519,62.0067982 C160.088203,61.9074383 164.746962,62.8815969 164.992379,65.9617523 C165.094289,67.2145505 164.158378,68.2880689 163.130955,69.0289478 C159.597369,71.5755841 154.252275,71.664144 150.390081,69.2384675 C149.786938,68.8604681 149.177556,68.3658288 149.031969,67.7027098 C149.015331,67.6271099 149.007012,67.55583 149.002852,67.4823901" id="Fill-11" fill="#F56C5A"></path>
                            <path d="M135.558982,78.9917602 C135.836874,79.0257383 136.144137,78.9556584 136.485289,78.7624075 C138.172975,77.8004005 140.009774,75.4920085 140.825376,73.8929109 C142.027316,71.531428 142.341357,68.8429052 141.607089,66.2626878 C141.22527,64.9184264 140.369001,63.4488705 138.814612,63.0814815 C137.795675,62.8393871 136.706699,63.1600561 135.931764,63.7355613 C135.159089,64.3110666 134.659787,65.1116773 134.262153,65.929277 C133.243215,68.0295527 132.845581,70.3634283 133.053435,72.673944 C133.141547,73.6423219 133.615997,78.7687784 135.558982,78.9917602" id="Fill-13" fill="#F56C5A"></path>
                            <path d="M106.508824,107.980684 C106.734413,108.034087 106.981487,107.976412 107.142622,107.811932 C107.288718,107.655996 122.089512,92.2995021 128.616557,86.2286779 C130.825182,84.1737403 133.012322,82.1038498 135.197313,80.0296872 C138.95928,76.4602476 142.852304,72.771186 146.79689,69.2487408 C151.474105,65.0747822 156.774374,60.3432989 160.963886,54.9111716 C164.861207,49.8528635 167.896992,44.1879002 170.833947,38.7066423 L171.858766,36.8055046 C175.874252,29.3504812 180.916706,15.9378476 180.96612,15.8032726 C181.079989,15.499945 180.897369,15.1603036 180.56006,15.0406814 C180.222751,14.9210593 179.853214,15.0748592 179.739345,15.3760507 C179.689931,15.5127617 174.673259,28.859176 170.69,36.250116 L169.667329,38.1533899 C166.751858,43.5940617 163.73541,49.2184389 159.891801,54.2062553 C155.768891,59.5572105 150.509443,64.2502438 145.868752,68.3921608 C141.913423,71.9231504 138.013954,75.6207565 134.243394,79.1944682 C132.062699,81.2664948 129.877707,83.3363852 127.67338,85.3870507 C121.122702,91.4792359 106.300423,106.859227 106.152179,107.013027 C105.922293,107.250135 105.956668,107.623954 106.229524,107.84611 C106.313314,107.912329 106.409995,107.955051 106.508824,107.980684" id="Fill-15" fill="#344763"></path>
                            <path d="M135.199103,135.169709 C134.821462,136.449202 134.392324,137.677516 133.91169,138.831192 C127.245036,154.869643 117.954206,157 117.954206,157 L75.7549545,157 L72,156.618284 C72,156.618284 72.4570316,155.387838 73.328181,153.387563 C76.1240129,146.945314 83.1404136,132.495567 92.6329386,125.108625 C93.2830821,124.596827 93.9460998,124.11915 94.626283,123.681989 C108.184887,114.930254 118.426257,112.588781 124.62086,107.483602 C130.819753,102.374158 135.821352,89.2764094 136.535867,91.1892522 C137.20103,92.9741456 140.11702,118.66211 135.199103,135.169709" id="Fill-17" fill="#135CB0"></path>
                            <path d="M99.9808964,123.010739 C99.9808964,123.010739 104.209171,117.311517 116.866037,112.608421 C129.520752,107.905325 133.979152,100.534417 134.919007,103.815396 C135.861014,107.098527 128.527129,122.100671 115.98425,130.42898 C112.082882,133.01934 106.798613,135.663487 101.615428,134.850235 C94.2213236,133.690597 97.2968237,126.633801 99.9808964,123.010739" id="Fill-19" fill="#2278DA"></path>
                            <path d="M131.987614,122.613208 C131.974932,122.621784 130.780782,123.524443 126.720668,124.620069 C123.235439,125.557033 120.090489,125.75 119.175326,125.786449 C120.71187,123.978988 122.199803,122.145798 123.706758,120.28259 C129.521111,113.104202 132.968297,107.345197 133,107.289451 L132.380732,107 C132.346916,107.053602 129.206193,112.295883 123.867388,119.002573 C123.983632,117.999142 124.070288,116.352487 123.721553,114.72084 C123.188941,112.229417 122.707053,111.691252 122.616171,111.607633 C122.487245,111.489708 122.278004,111.48542 122.138511,111.594768 C121.99479,111.704117 121.982109,111.899228 122.098353,112.027873 C122.117375,112.04717 122.533743,112.527444 123.030425,114.836621 C123.550356,117.272298 123.034652,119.840909 123.030425,119.866638 C123.017744,119.922384 123.030425,119.975986 123.049447,120.0253 C119.399361,124.534305 115.86552,128.88036 111.372131,133.076329 C111.114279,131.560463 110.480216,127.46741 110.573212,124.379931 C110.689457,120.537736 111.017056,118.668096 111.019169,118.648799 C111.050872,118.481561 110.917719,118.322899 110.725387,118.295026 C110.539395,118.269297 110.355517,118.382933 110.323814,118.552316 C110.311133,118.631647 109.985648,120.475557 109.869403,124.362779 C109.761612,127.939108 110.611256,132.821184 110.761317,133.646655 C108.537872,135.674957 106.079823,137.66681 103.256132,139.626501 C103.209634,139.658662 103.163136,139.695111 103.116638,139.727273 C102.573458,138.40223 101.022118,134.264151 101.068616,130.404803 C101.127796,125.722127 101.588548,122.919811 101.592775,122.891938 C101.622364,122.722556 101.489211,122.563894 101.296879,122.538165 C101.100319,122.512436 100.927009,122.63036 100.89742,122.799743 C100.893192,122.82976 100.421873,125.670669 100.364807,130.396226 C100.314082,134.628645 102.074662,139.056175 102.537528,140.145369 C99.5975915,142.332333 97.171246,145.044597 95.2648317,147.641081 C94.871713,146.208834 93.8487589,142.306604 93.3203736,138.539451 C92.6672893,133.884648 92.6524945,133.020583 92.6524945,132.986278 C92.6503809,132.816895 92.4918653,132.696827 92.2974195,132.67753 C92.1029737,132.67753 91.9486852,132.816895 91.9486852,132.988422 C91.9486852,133.020583 91.9550258,133.873928 92.6207913,138.616638 C93.2844434,143.340051 94.7174244,148.282161 94.7427869,148.36578 C91.6105186,152.810463 90.0253625,156.729846 90,156.794168 L90.663652,157 C90.6805603,156.957118 91.401278,155.17753 92.8152372,152.681818 C92.8469403,152.696827 92.8828705,152.711835 92.9230278,152.716123 C92.9779798,152.722556 97.0465471,153.207118 101.44694,153.207118 C103.074367,153.207118 104.748292,153.140652 106.278496,152.958405 C111.953355,152.287307 113.077759,151.867067 113.122143,151.849914 C113.297567,151.781304 113.375768,151.599057 113.299681,151.442539 C113.223593,151.286021 113.016466,151.213122 112.838928,151.279588 C112.794544,151.296741 111.676481,151.693396 106.1855,152.343053 C100.992529,152.954117 94.1277464,152.227273 93.1407225,152.11578 C94.336987,150.07247 95.9580732,147.63036 98.0103219,145.278302 C98.0779553,145.327616 98.1624969,145.353345 98.2554928,145.342624 C98.2893094,145.342624 101.884443,145.106775 107.295109,145.816467 C110.528828,146.243139 112.581076,146.33319 113.741411,146.33319 C114.555124,146.33319 114.929221,146.288165 114.963038,146.283877 C115.15537,146.258148 115.290637,146.10163 115.26316,145.932247 C115.235684,145.762864 115.05392,145.64494 114.865815,145.668525 C114.846793,145.670669 112.771295,145.906518 107.398673,145.203259 C102.822856,144.602916 99.5215041,144.667238 98.521799,144.71012 C99.8596707,143.23928 101.366626,141.824185 103.042664,140.582762 C103.061686,140.580617 103.084935,140.580617 103.10607,140.572041 C103.199066,140.537736 103.266699,140.473413 103.300516,140.396226 C103.431556,140.301887 103.560482,140.205403 103.691521,140.113208 C105.344311,138.968268 106.86606,137.812607 108.294814,136.646226 C108.341312,136.689108 108.400492,136.727702 108.474465,136.74271 C108.520963,136.751286 112.103416,137.437393 116.231162,137.437393 C117.566921,137.437393 118.959744,137.366638 120.310297,137.175815 C123.884296,136.671955 126.116196,136.225986 126.426886,135.951544 C126.56638,135.829331 126.585402,135.614923 126.448022,135.494854 C126.310641,135.372642 126.109855,135.357633 125.972475,135.479846 C125.944999,135.494854 125.241189,135.852916 120.19828,136.562607 C115.387859,137.240137 109.998329,136.378216 108.857016,136.176672 C112.678299,132.986278 115.795773,129.714408 118.693438,126.348199 C118.750504,126.388937 118.822364,126.41681 118.904792,126.41681 L118.909019,126.41681 C119.063308,126.412521 122.702826,126.350343 126.925682,125.211835 C131.176014,124.066895 132.406095,123.114923 132.45682,123.076329 C132.600541,122.962693 132.611108,122.767581 132.482182,122.641081 C132.35537,122.510292 132.131334,122.501715 131.987614,122.613208" id="Fill-21" fill="#386F85"></path>
                            <path d="M135,135.095353 C134.621571,136.379204 134.191538,137.611702 133.709901,138.769308 C127.029339,154.862387 117.719126,157 117.719126,157 L76.8165424,156.659779 C75.4769898,155.61344 74.2040922,154.509328 73,153.375259 C75.8016646,146.911067 82.8327033,132.412103 92.3450321,125 C91.0828854,130.392177 90.8184151,136.965496 93.8415467,143.312003 C100.767227,157.858041 123.449315,152.823203 131.561887,140.932598 C132.937992,138.92337 134.068979,136.959077 135,135.095353" id="Fill-23" fill="#074387"></path>
                            <path d="M125.443003,107.051725 C124.688726,109.976087 123.84043,112.787646 122.88957,115.431065 C109.652317,152.126063 91.2120442,157 91.2120442,157 L7.45303278,157 L0,156.125245 C0,156.125245 0.908124693,153.311558 2.63676676,148.733463 C8.18380606,133.996721 22.1155072,100.932699 40.9532185,84.0356753 C42.243824,82.8608224 43.5643441,81.7732321 44.9126422,80.7686478 C71.820911,60.7471962 92.1500836,55.3943791 104.449297,43.7075724 C116.746374,32.0228941 126.675916,2.05350323 128.094727,6.43366134 C129.413111,10.5179779 135.201604,69.2819066 125.443003,107.051725" id="Fill-25" fill="#69BB8C"></path>
                            <path d="M56.8838678,78.6522281 C56.8838678,78.6522281 65.2260063,65.6468744 90.2055679,54.9175647 C115.187259,44.188255 123.983029,27.3737931 125.840151,34.8613995 C127.699402,42.349006 113.223651,76.5753112 88.4677111,95.5737476 C80.76875,101.483325 70.3394795,107.512808 60.1061439,105.658571 C45.5175178,103.014249 51.5851084,86.910649 56.8838678,78.6522281" id="Fill-27" fill="#7CE1A8"></path>
                            <path d="M121.946858,78.5987429 C121.923259,78.6200685 119.503255,80.6779842 111.292834,83.1709411 C104.243071,85.3098939 97.8755425,85.7492003 96.0219225,85.8345025 C99.1370339,81.7122734 102.147021,77.5324653 105.195625,73.2886806 C116.958818,56.9191874 123.931347,43.7890454 124,43.656827 L122.738509,43 C122.674147,43.1236882 116.319491,55.0745272 105.521725,70.3713452 C105.753428,68.0745833 105.92935,64.3255514 105.223515,60.6042427 C104.144383,54.9252483 103.174665,53.694764 102.992306,53.5070992 C102.726277,53.2341321 102.303635,53.2277344 102.018297,53.4793759 C101.73296,53.7288849 101.702925,54.1681913 101.943209,54.4646164 C101.977535,54.5072675 102.82282,55.6034009 103.824719,60.8686795 C104.878107,66.4218531 103.835446,72.2778495 103.824719,72.3354285 C103.798974,72.4655143 103.824719,72.58707 103.865481,72.7000954 C96.4788913,82.9811437 89.3282945,92.8868623 80.2425528,102.453505 C79.7190767,98.9945003 78.4361314,89.6645715 78.6227806,82.6292721 C78.8566285,73.8687356 79.5217005,69.6057579 79.5281367,69.5652394 C79.5882077,69.1771143 79.3221789,68.8167125 78.9338627,68.7548684 C78.5519826,68.6930243 78.1829749,68.9574611 78.1186131,69.3413211 C78.0928684,69.5161906 77.4342326,73.7237219 77.1982393,82.5908861 C76.9836999,90.7436444 78.7000148,101.87345 79.0025153,103.754363 C74.5079158,108.379875 69.5306027,112.922218 63.819565,117.385656 C63.7230223,117.46456 63.6307704,117.543465 63.5342277,117.620237 C62.4400769,114.600539 59.2992208,105.159717 59.3957635,96.3607947 C59.5116147,85.6894887 60.4470063,79.2960884 60.4555879,79.2321118 C60.5135135,78.8439868 60.2431939,78.4857175 59.8570231,78.4281385 C59.4579799,78.3726921 59.1039899,78.6392615 59.0482097,79.0252539 C59.0374827,79.087098 58.0870734,85.5700657 57.9712221,96.3437342 C57.8660978,105.995679 61.4274512,116.08693 62.3671336,118.571356 C56.4179572,123.55727 51.5114421,129.737415 47.6518791,135.661653 C46.8559381,132.398844 44.7877787,123.497559 43.7172273,114.909759 C42.3935194,104.298165 42.3634839,102.327684 42.3634839,102.250912 C42.3591931,101.858522 42.0373841,101.591952 41.6469225,101.547169 C41.2564608,101.547169 40.9389426,101.862787 40.9389426,102.253045 C40.9389426,102.329816 40.9539603,104.274707 42.3034129,115.082496 C43.6485747,125.854032 46.544856,137.118188 46.5963454,137.314384 C40.2588528,147.448286 37.0536348,156.383692 37,156.53297 L38.3430164,157 C38.3794881,156.901902 39.8340649,152.847915 42.6960199,147.156125 C42.7625271,147.190246 42.8333251,147.222235 42.9127047,147.232897 C43.0264105,147.245693 51.2561403,148.350356 60.1595236,148.350356 C63.4505573,148.350356 66.8381338,148.201078 69.9360821,147.785229 C81.4160831,146.256187 83.6880548,145.294405 83.7781614,145.256019 C84.1342967,145.09821 84.2952012,144.684494 84.1407329,144.328357 C83.9862645,143.972221 83.5679128,143.805881 83.2074867,143.957293 C83.1152348,143.995679 80.8539899,144.904147 69.745142,146.384141 C59.2391497,147.776699 45.3520172,146.115439 43.3546558,145.861665 C45.7703689,141.202032 49.0528211,135.636063 53.206303,130.276952 C53.3414628,130.387844 53.5152397,130.447556 53.6997435,130.421965 C53.7705415,130.4177 61.0412803,129.884561 71.9913691,131.505303 C78.5348195,132.473483 82.686156,132.676076 85.0332166,132.676076 C86.6787335,132.676076 87.4360574,132.577979 87.5068554,132.567316 C87.8951716,132.511869 88.1654912,132.1536 88.1118564,131.767608 C88.0560761,131.379483 87.6870685,131.110781 87.3073338,131.164095 C87.2665713,131.170492 83.0701815,131.710029 72.2016177,130.104215 C62.942099,128.732982 56.2613435,128.882261 54.2403827,128.97396 C56.945724,125.625849 59.9943283,122.39716 63.3861955,119.569392 C63.4312488,119.560862 63.4720112,119.560862 63.5149191,119.545934 C63.7058591,119.469162 63.8410189,119.322016 63.9096715,119.145014 C64.1735549,118.929626 64.4331476,118.709973 64.7013218,118.49885 C68.0416995,115.886469 71.1267755,113.252764 74.0144752,110.591335 C74.111018,110.69583 74.2290146,110.779 74.3770468,110.810988 C74.4714441,110.832314 81.7185835,112.397609 90.0684553,112.397609 C92.7695058,112.397609 95.5906984,112.23127 98.319639,111.800494 C105.553906,110.653179 110.067814,109.633818 110.69856,109.006847 C110.977461,108.729614 111.020369,108.245524 110.741468,107.968292 C110.462567,107.693193 110.052796,107.659072 109.778186,107.934171 C109.722406,107.96616 108.297864,108.782928 98.0943727,110.401538 C88.3693036,111.94764 77.4599773,109.981424 75.1515338,109.525058 C82.8856776,102.250912 89.188844,94.786969 95.0500592,87.1140356 C95.1702012,87.2057355 95.3139426,87.2697121 95.4769925,87.2697121 L95.4877195,87.2697121 C95.7988015,87.2633144 103.166083,87.1183007 111.711186,84.5251136 C120.305632,81.9127336 122.794289,79.743925 122.895122,79.6543577 C123.186896,79.394186 123.210495,78.9506145 122.950903,78.6584545 C122.69131,78.368427 122.238632,78.3428363 121.946858,78.5987429" id="Fill-29" fill="#337D6D"></path>
                            <path d="M125,107.027303 C124.244532,109.953095 123.394898,112.766029 122.442538,115.41074 C109.1844,152.12368 90.7150314,157 90.7150314,157 L9.57393907,156.22277 C6.91589094,153.833586 4.38839107,151.316638 2,148.729421 C7.55579142,133.985473 21.509474,100.905286 40.3769074,84 C37.8750892,96.2972697 37.350756,111.296745 43.3474153,125.772388 C57.0870844,158.950528 102.08129,147.470947 118.179389,120.344554 C120.908061,115.76422 123.153063,111.281839 125,107.027303" id="Fill-31" fill="#308856" opacity="0.495675223"></path>
                        </g>
                        <g id="Group-20" transform="translate(332.000000, 626.000000)">
                            <g id="Group-3" transform="translate(0.000000, 14.000000)">
                                <mask id="mask-19" fill="white">
                                    <use xlink:href="#path-18"></use>
                                </mask>
                                <g id="Clip-2"></g>
                                <path d="M126.40636,101.999051 C126.40636,101.999051 124.439374,96.4886791 119.720977,90.978307 C115.00021,85.4631907 101.233675,83.890493 90.2185521,80.0785395 C84.2891548,78.0314233 80.9689767,70.4739349 78.1369904,63.7324465 C75.7126205,57.9540279 73.6224014,52.7401674 70.5534288,52.0475163 C63.8656753,50.5198884 50.8883055,47.2772372 45.7741411,37.8268186 C40.6599767,28.3787721 26.8934425,37.8268186 11.1622918,27.0266791 C-4.57359863,16.2384 -1.81744795,-1.14666977 8.0151137,4.36370233 C17.8476753,9.87407442 29.253826,-0.752902326 40.6599767,0.646632558 C52.0661274,2.04853953 50.4949082,14.5992837 60.3274699,18.0174698 C70.1600315,21.4498884 82.3529767,20.5057953 90.6119493,36.2517488 C94.9701274,44.5517023 99.4231,48.3636558 105.151059,51.0536093 C110.279442,53.4328186 116.448196,54.9296093 124.439374,57.906586 C141.353086,64.204493 172.817758,101.999051 172.817758,101.999051 L126.40636,101.999051 Z" id="Fill-1" fill="#135CB0" mask="url(#mask-19)"></path>
                            </g>
                            <path d="M10,24.7916216 C10,24.7916216 15.8558616,33.891279 31.0763983,32.8480507 C46.3016386,31.8024887 72.9657988,55.2996289 78.0244167,56.8563028 C83.0853862,58.4129767 81.5685064,46.942134 74.4027191,40.8227953 C67.2369318,34.7057905 46.7602301,29.2632665 41.6169493,22.5067885 C36.4713166,15.7503104 10,24.7916216 10,24.7916216" id="Fill-4" fill="#2278DA"></path>
                            <path d="M154,116 C154,116 121.815135,86.6295573 101.40695,76.6073157 C80.9964014,66.5850741 79.8187333,54.9123862 68.4369731,47.5205434 C57.0552128,40.1263563 39,38 39,38 C39,38 61.6334567,40.515524 71.5774213,47.2603168 C81.521386,54.0051096 87.2749332,67.5744041 108.210467,77.0011722 C129.141271,86.4302846 153.094283,113.186739 153.094283,113.186739 L154,116 Z" id="Fill-6" fill="#074387"></path>
                            <path d="M172,116 L125.432119,116 C125.432119,116 123.4585,110.483727 118.724194,104.967454 C113.98751,99.4464311 100.174559,97.8720492 89.1222968,94.0560134 C83.1729075,92.0067048 79.8415348,84.4411231 77,77.6924151 C81.8936223,78.4024305 87.5600471,80.4208688 93.4951692,84.8661824 C110.829721,97.8720492 106.882484,95.9485962 118.32947,90.9998603 C128.021601,86.8038832 108.145124,76.4148624 104.105151,65 C109.250826,67.3817572 115.440378,68.8801509 123.4585,71.8603157 C140.42924,78.1649672 172,116 172,116" id="Fill-8" fill="#074387"></path>
                            <g id="Group-12" transform="translate(94.000000, 0.000000)">
                                <mask id="mask-21" fill="white">
                                    <use xlink:href="#path-20"></use>
                                </mask>
                                <g id="Clip-11"></g>
                                <path d="M59.5537288,115.999059 L57.7228483,110.269046 L54.9541422,100.119207 C54.782129,99.5099813 54.5464944,98.8984036 54.2331005,98.2774169 C49.2753493,88.5462736 27.1869657,77.6013836 22.5237578,71.2292136 C17.582501,64.4689269 18.6145804,48.8501713 10.7938694,39.9964069 C2.97315833,31.159108 -0.672108309,15.5427047 0.892505167,5.25173244 C2.4547623,-5.02277422 12.6223936,4.60957578 16.0178876,10.391338 C19.3968871,16.1683958 21.4940347,19.6967291 32.4416164,24.6011124 C43.3939107,29.5172569 47.8214841,32.7209836 50.950711,46.7731591 C52.6543489,54.4578691 55.5338032,60.7359502 59.8199959,66.4518502 L59.8199959,66.4659636 C63.3403762,71.212748 67.8292146,75.5855291 73.3666267,80.0359336 C85.6314055,89.8752791 94.2344233,115.999059 94.2344233,115.999059 L59.5537288,115.999059 Z" id="Fill-10" fill="#69BB8C" mask="url(#mask-21)"></path>
                            </g>
                            <g id="Group-15" transform="translate(148.000000, 66.000000)">
                                <mask id="mask-23" fill="white">
                                    <use xlink:href="#path-22"></use>
                                </mask>
                                <g id="Clip-14"></g>
                                <path d="M5.39191536,49.9990616 L3.5526768,44.2841056 L0.771331481,34.1609384 C0.598533007,33.5533138 0.361822767,32.9433431 0.0469981481,32.3239883 C1.1808402,32.821349 2.30994804,33.506393 3.42722037,34.423695 C12.8577563,42.2125513 25.3181833,47.2753079 27.9267302,40.6571261 C30.535277,34.0342522 9.85390338,16.9973021 5.65939793,0.596129032 C9.19584891,5.33043988 13.705179,9.69173021 19.2678696,14.1304399 C31.5886376,23.9439296 40.2309284,49.9990616 40.2309284,49.9990616 L5.39191536,49.9990616 Z" id="Fill-13" fill="#308856" mask="url(#mask-23)"></path>
                            </g>
                            <path d="M99.5650747,10.2950572 C98.992973,12.5825171 98.8295153,15.075141 99.1937923,16.5843929 C101.052539,24.2556374 107.861717,29.4318998 113.204447,35.2000719 C120.027635,42.5647496 124.819279,51.5565895 130.360493,59.9470868 C132.578847,63.3051723 134.995684,66.6467504 138.302199,68.9106283 C139.633211,69.823254 141.508304,70.5142084 142.757587,69.4931052 C143.441774,68.9294939 143.714982,68.0074353 143.850418,67.1254662 C144.189009,64.8922451 143.88778,62.6165762 143.588886,60.3809968 C142.323257,50.9764708 140.803101,40.9918261 134.629072,33.8370288 C130.544967,29.1088255 124.856641,26.1634261 119.873518,22.409162 C114.486422,18.3483311 109.8559,13.2640387 106.301864,7.49822474 C103.163478,2.40921596 100.643895,5.98897283 99.5650747,10.2950572" id="Fill-16" fill="#7CE1A8"></path>
                            <path d="M172.329134,116 C172.329134,116 162.922835,95.7663908 146.453543,75.530437 C129.986614,55.2968278 113,33 113,33 C113,33 121.886614,42.0664388 126.851969,48.2936075 C131.819685,54.5184317 153.774016,80.1867461 162.658268,94.3315161 C171.547244,108.478631 176,116 176,116 L172.329134,116 Z" id="Fill-18" fill="#337D6D"></path>
                        </g>
                        <path d="M0,738.867347 C0,678.18931 49.248701,629 110,629 L110,740 L0,740 L0,738.867347 Z" id="Path" fill="#95C3FF" fill-rule="nonzero" opacity="0.272949219"></path>
                        <g id="Group-Copy-2" opacity="0.305408296" transform="translate(207.000000, 573.500000) rotate(-270.000000) translate(-207.000000, -573.500000) translate(192.000000, 558.000000)" fill="#4489E2" fill-rule="nonzero">
                            <path d="M0,30.6836735 C0,13.7375551 13.4314639,0 30,0 L30,31 L0,31 L0,30.6836735 Z" id="Path"></path>
                        </g>
                        <g id="Group-37" transform="translate(277.000000, 221.000000)">
                            <g id="Group-4">
                                <path d="M62.0387241,153.652157 C61.2175595,143.772444 60.3654076,133.744488 56.8888,124.462057 C55.8068253,121.573041 54.4769519,118.77366 53.6024203,115.816555 C52.4464203,111.906212 52.1133063,107.803671 51.9445975,103.729571 C51.5288506,93.619737 54.2006481,84.5924221 45.3985215,77.0742564 C39.9378633,72.410632 32.9571038,70.0189193 26.6597873,66.5696818 C19.4380152,62.6119359 13.0270785,57.1752066 7.93912911,50.6947425 C2.8968,44.2711624 -0.952516456,36.0376376 0.905863291,28.0824994 C2.66611646,20.541063 9.14161013,15.0112508 15.9209519,11.2810409 C41.0981671,-2.57624088 77.3172051,-2.4797105 104.025711,6.70877569 C114.894522,10.4484663 133.097003,18.4656597 135.510572,31.3205768 C136.400597,36.0600464 134.717813,40.9968862 131.952192,44.9442895 C127.712091,50.9938144 121.291686,55.6651956 114.922066,59.2488862 C104.320952,65.2122232 90.3525468,67.6341017 83.8891038,79.0453724 C80.5820658,84.883737 79.1377114,91.5667425 77.7734076,98.1377039 C74.0988253,115.838964 67.110319,137.485041 70.4793316,155.568975" id="Fill-1" fill="#C4E4ED"></path>
                                <path d="M62.0387241,153.652157 C61.2175595,143.772444 60.3654076,133.744488 56.8888,124.462057 C55.8068253,121.573041 54.4769519,118.77366 53.6024203,115.816555 C52.4464203,111.906212 52.1133063,107.803671 51.9445975,103.729571 C51.5288506,93.619737 54.2006481,84.5924221 45.3985215,77.0742564 C39.9378633,72.410632 32.9571038,70.0189193 26.6597873,66.5696818 C19.4380152,62.6119359 13.0270785,57.1752066 7.93912911,50.6947425 C2.8968,44.2711624 -0.952516456,36.0376376 0.905863291,28.0824994 C2.66611646,20.541063 9.14161013,15.0112508 15.9209519,11.2810409 C41.0981671,-2.57624088 77.3172051,-2.4797105 104.025711,6.70877569 C114.894522,10.4484663 133.097003,18.4656597 135.510572,31.3205768 C136.400597,36.0600464 134.717813,40.9968862 131.952192,44.9442895 C127.712091,50.9938144 121.291686,55.6651956 114.922066,59.2488862 C104.320952,65.2122232 90.3525468,67.6341017 83.8891038,79.0453724 C80.5820658,84.883737 79.1377114,91.5667425 77.7734076,98.1377039 C74.0988253,115.838964 67.110319,137.485041 70.4793316,155.568975" id="Stroke-3" stroke="#1D6192" stroke-width="3" stroke-linecap="round" stroke-linejoin="round"></path>
                            </g>
                            <path d="M36.9372443,75.8877572 C35.5882866,76.7496402 34.3841661,77.9172413 33.4063002,79.4086962 C29.0003333,86.1336293 28.6609513,94.98218 29.1880219,102.771944 C29.8179354,112.08339 36.0622215,120.957849 43.9459969,125.704251 C48.6750624,128.549847 54.7582277,129.228645 58.7973878,124.959819 C59.177907,124.557377 59.5378576,124.116072 59.7238321,123.591861 C59.9080925,123.071967 60.0246479,122.492485 59.9055214,121.953592 C57.890655,112.840776 58.6731191,104.042315 59.82239,95.3915312 C60.70684,88.7296417 58.3003131,80.8181082 52.327704,76.7513675 C47.6046378,73.5344193 41.4563385,72.9989809 36.9372443,75.8877572" id="Fill-5" fill="#F56C5A"></path>
                            <path d="M36.9372443,75.8877572 C35.5882866,76.7496402 34.3841661,77.9172413 33.4063002,79.4086962 C29.0003333,86.1336293 28.6609513,94.98218 29.1880219,102.771944 C29.8179354,112.08339 36.0622215,120.957849 43.9459969,125.704251 C48.6750624,128.549847 54.7582277,129.228645 58.7973878,124.959819 C59.177907,124.557377 59.5378576,124.116072 59.7238321,123.591861 C59.9080925,123.071967 60.0246479,122.492485 59.9055214,121.953592 C57.890655,112.840776 58.6731191,104.042315 59.82239,95.3915312 C60.70684,88.7296417 58.3003131,80.8181082 52.327704,76.7513675 C47.6046378,73.5344193 41.4563385,72.9989809 36.9372443,75.8877572 Z" id="Stroke-7" stroke="#1D6192" stroke-width="3"></path>
                            <path d="M91.0633167,75.8877572 C92.4123071,76.7496402 93.6164568,77.9172413 94.5943463,79.4086962 C99.00042,86.1336293 99.3389532,94.98218 98.8118699,102.771944 C98.1827981,112.08339 91.9383607,120.957849 84.0543942,125.704251 C79.3252142,128.549847 73.2419014,129.228645 69.2017864,124.959819 C68.8212579,124.557377 68.4621557,124.116072 68.2761767,123.591861 C68.0919118,123.071967 67.9753535,122.492485 68.0944829,121.953592 C70.1093981,112.840776 69.3269151,104.042315 68.1776164,95.3915312 C67.2931449,88.7296417 69.6997301,80.8181082 75.6716269,76.7513675 C80.3956647,73.5344193 86.5441129,72.9989809 91.0633167,75.8877572" id="Fill-9" fill="#F56C5A"></path>
                            <path d="M91.0633167,75.8877572 C92.4123071,76.7496402 93.6164568,77.9172413 94.5943463,79.4086962 C99.00042,86.1336293 99.3389532,94.98218 98.8118699,102.771944 C98.1827981,112.08339 91.9383607,120.957849 84.0543942,125.704251 C79.3252142,128.549847 73.2419014,129.228645 69.2017864,124.959819 C68.8212579,124.557377 68.4621557,124.116072 68.2761767,123.591861 C68.0919118,123.071967 67.9753535,122.492485 68.0944829,121.953592 C70.1093981,112.840776 69.3269151,104.042315 68.1776164,95.3915312 C67.2931449,88.7296417 69.6997301,80.8181082 75.6716269,76.7513675 C80.3956647,73.5344193 86.5441129,72.9989809 91.0633167,75.8877572 Z" id="Stroke-11" stroke="#1D6192" stroke-width="3"></path>
                            <path d="M52,86 C52,86 50.2501214,89.3547127 49.5842309,90.6972836 C48.9174888,92.0389973 48.5845436,90.6132658 48.9174888,92.0389973 C49.2504341,93.4638714 52,99.5028687 52,99.5028687 C52,99.5028687 46.1687745,101.312682 45.6689308,100.952605 C45.1699387,100.592529 45.3359855,94.805585 42.6698688,94.4712283 C40.0046037,94.1351569 36.8386433,93.296693 37.0063932,92.6262649 C37.1724401,91.9541221 52,86 52,86" id="Fill-13" fill="#F48F87"></path>
                            <path d="M52,86 C52,86 50.2501214,89.3547127 49.5842309,90.6972836 C48.9174888,92.0389973 48.5845436,90.6132658 48.9174888,92.0389973 C49.2504341,93.4638714 52,99.5028687 52,99.5028687 C52,99.5028687 46.1687745,101.312682 45.6689308,100.952605 C45.1699387,100.592529 45.3359855,94.805585 42.6698688,94.4712283 C40.0046037,94.1351569 36.8386433,93.296693 37.0063932,92.6262649 C37.1724401,91.9541221 52,86 52,86 Z" id="Stroke-15" stroke="#1D6192" stroke-width="2" stroke-linecap="round" stroke-linejoin="round"></path>
                            <path d="M80,89.5 C80,90.329 79.328,91 78.5,91 C77.671,91 77,90.329 77,89.5 C77,88.672 77.671,88 78.5,88 C79.328,88 80,88.672 80,89.5" id="Fill-17" fill="#1D6192"></path>
                            <path d="M89,85.5 C89,86.328 88.328,87 87.5,87 C86.672,87 86,86.328 86,85.5 C86,84.671 86.672,84 87.5,84 C88.328,84 89,84.671 89,85.5" id="Fill-19" fill="#1D6192"></path>
                            <path d="M88,91.5 C88,92.328 87.328,93 86.5,93 C85.671,93 85,92.328 85,91.5 C85,90.671 85.671,90 86.5,90 C87.328,90 88,90.671 88,91.5" id="Fill-21" fill="#1D6192"></path>
                            <path d="M82,95.5 C82,96.329 81.329,97 80.5,97 C79.672,97 79,96.329 79,95.5 C79,94.672 79.672,94 80.5,94 C81.329,94 82,94.672 82,95.5" id="Fill-23" fill="#1D6192"></path>
                            <path d="M89,101.5 C89,102.328 88.328,103 87.5,103 C86.672,103 86,102.328 86,101.5 C86,100.672 86.672,100 87.5,100 C88.328,100 89,100.672 89,101.5" id="Fill-25" fill="#1D6192"></path>
                            <path d="M83,104.5 C83,105.329 82.328,106 81.5,106 C80.671,106 80,105.329 80,104.5 C80,103.672 80.671,103 81.5,103 C82.328,103 83,103.672 83,104.5" id="Fill-27" fill="#1D6192"></path>
                            <path d="M87,109.5 C87,110.328 86.328,111 85.5,111 C84.671,111 84,110.328 84,109.5 C84,108.672 84.671,108 85.5,108 C86.328,108 87,108.672 87,109.5" id="Fill-29" fill="#1D6192"></path>
                            <path d="M50,106.5 C50,107.328 49.329,108 48.5,108 C47.672,108 47,107.328 47,106.5 C47,105.672 47.672,105 48.5,105 C49.329,105 50,105.672 50,106.5" id="Fill-31" fill="#F44E42"></path>
                            <path d="M44,110.5 C44,111.329 43.328,112 42.5,112 C41.672,112 41,111.329 41,110.5 C41,109.672 41.672,109 42.5,109 C43.328,109 44,109.672 44,110.5" id="Fill-33" fill="#F44E42"></path>
                            <path d="M48,114.5 C48,115.328 47.328,116 46.5,116 C45.672,116 45,115.328 45,114.5 C45,113.672 45.672,113 46.5,113 C47.328,113 48,113.672 48,114.5" id="Fill-35" fill="#F44E42"></path>
                        </g>
                        <g id="Group-20" transform="translate(727.000000, 123.000000)">
                            <g id="Group-3" transform="translate(19.207009, 37.238092) rotate(-27.000000) translate(-19.207009, -37.238092) translate(11.229736, 19.790723)">
                                <polyline id="Fill-1" fill="#C4E4ED" points="15.2975808 34.1257708 15.5586552 10.186557 12.4823287 8.2367246 12.4961076 0.148267025 4.11489483 0.203813749 4.30417376 7.82368485 0.681041529 9.98715854 0.118281198 34.303093"></polyline>
                                <polyline id="Stroke-2" stroke="#1D6192" stroke-width="3" stroke-linecap="round" stroke-linejoin="round" points="15.2975808 34.1257708 15.5586552 10.186557 12.4823287 8.2367246 12.4961076 0.148267025 4.11489483 0.203813749 4.30417376 7.82368485 0.681041529 9.98715854 0.118281198 34.303093"></polyline>
                            </g>
                            <polygon id="Fill-4" fill="#F56C5A" transform="translate(23.238539, 46.210573) rotate(-27.000000) translate(-23.238539, -46.210573) " points="16.5558523 52.0405476 29.8771936 51.9897421 29.921225 40.3805983 16.5998838 40.4314038"></polygon>
                            <path d="M15.3566263,52.6306417 L37.5588617,52.5459659 L15.3566263,52.6306417 Z" id="Fill-5" fill="#C4E4ED" transform="translate(26.457744, 52.588304) rotate(-27.000000) translate(-26.457744, -52.588304) "></path>
                            <line x1="15.3566263" y1="52.6306417" x2="37.5588617" y2="52.5459659" id="Stroke-6" stroke="#1D6192" stroke-width="3" stroke-linecap="round" stroke-linejoin="round" transform="translate(26.457744, 52.588304) rotate(-27.000000) translate(-26.457744, -52.588304) "></line>
                            <path d="M24.5425934,63.7781227 L39.6401134,63.7205431 L24.5425934,63.7781227 Z" id="Fill-8" fill="#C4E4ED" transform="translate(32.091353, 63.749333) rotate(-27.000000) translate(-32.091353, -63.749333) "></path>
                            <line x1="24.5425934" y1="63.7781227" x2="39.6401134" y2="63.7205431" id="Stroke-9" stroke="#1D6192" stroke-width="2.498" stroke-linecap="round" stroke-linejoin="round" transform="translate(32.091353, 63.749333) rotate(-27.000000) translate(-32.091353, -63.749333) "></line>
                            <path d="M29.0496392,64.0212876 L29.0970576,51.5191328 L29.0496392,64.0212876 Z" id="Fill-11" fill="#C4E4ED" transform="translate(29.073348, 57.770210) rotate(-27.000000) translate(-29.073348, -57.770210) "></path>
                            <line x1="29.0970576" y1="51.5191328" x2="29.0496392" y2="64.0212876" id="Stroke-12" stroke="#1D6192" stroke-width="3" stroke-linecap="round" stroke-linejoin="round" transform="translate(29.073348, 57.770210) rotate(-27.000000) translate(-29.073348, -57.770210) "></line>
                            <path d="M5.57524709,-0.0295853676 L5.49057127,22.2956912 L5.57524709,-0.0295853676 Z" id="Fill-14" fill="#C4E4ED" transform="translate(5.532909, 11.133053) rotate(-27.000000) translate(-5.532909, -11.133053) "></path>
                            <g id="Group-17" transform="translate(6.128987, 11.328560) rotate(-27.000000) translate(-6.128987, -11.328560) translate(5.242624, -0.303019)">
                                <mask id="mask-25" fill="white">
                                    <use xlink:href="#path-24"></use>
                                </mask>
                                <g id="Clip-16"></g>
                                <line x1="0.731781818" y1="0.246659968" x2="0.731781818" y2="22.6808035" id="Stroke-15" stroke="#1D6192" stroke-width="2" mask="url(#mask-25)"></line>
                            </g>
                            <path d="M12.8729739,40.6588482 L27.970494,40.6012686 L12.8729739,40.6588482 Z" id="Fill-18" fill="#C4E4ED" transform="translate(20.421734, 40.630058) rotate(-27.000000) translate(-20.421734, -40.630058) "></path>
                            <line x1="12.8729739" y1="40.6588482" x2="27.970494" y2="40.6012686" id="Stroke-19" stroke="#1D6192" stroke-width="2.498" stroke-linejoin="round" transform="translate(20.421734, 40.630058) rotate(-27.000000) translate(-20.421734, -40.630058) "></line>
                        </g>
                        <g id="Group-20" transform="translate(786.000000, 466.000000)">
                            <polygon id="Fill-1" fill="#C4E4ED" points="4 39 37 39 37 3 4 3"></polygon>
                            <polygon id="Stroke-2" stroke="#1D6192" stroke-width="3" stroke-linecap="round" stroke-linejoin="round" points="4 39 37 39 37 3 4 3"></polygon>
                            <polygon id="Fill-4" fill="#C4E4ED" points="0 10 41 10 41 0 0 0"></polygon>
                            <polygon id="Stroke-5" stroke="#1D6192" stroke-width="3" stroke-linecap="round" stroke-linejoin="round" points="0 10 41 10 41 0 0 0"></polygon>
                            <path d="M8.5,8 L8.5,3 L8.5,8 Z" id="Fill-7" fill="#C4E4ED"></path>
                            <line x1="8.5" y1="3" x2="8.5" y2="8" id="Stroke-8" stroke="#1D6192" stroke-width="2" stroke-linecap="round" stroke-linejoin="round"></line>
                            <path d="M13.5,8 L13.5,3 L13.5,8 Z" id="Fill-9" fill="#C4E4ED"></path>
                            <line x1="13.5" y1="3" x2="13.5" y2="8" id="Stroke-10" stroke="#1D6192" stroke-width="2" stroke-linecap="round" stroke-linejoin="round"></line>
                            <path d="M18.5,8 L18.5,3 L18.5,8 Z" id="Fill-11" fill="#C4E4ED"></path>
                            <line x1="18.5" y1="3" x2="18.5" y2="8" id="Stroke-12" stroke="#1D6192" stroke-width="2" stroke-linecap="round" stroke-linejoin="round"></line>
                            <path d="M23.5,8 L23.5,3 L23.5,8 Z" id="Fill-13" fill="#C4E4ED"></path>
                            <line x1="23.5" y1="3" x2="23.5" y2="8" id="Stroke-14" stroke="#1D6192" stroke-width="2" stroke-linecap="round" stroke-linejoin="round"></line>
                            <path d="M28.5,8 L28.5,3 L28.5,8 Z" id="Fill-15" fill="#C4E4ED"></path>
                            <line x1="28.5" y1="3" x2="28.5" y2="8" id="Stroke-16" stroke="#1D6192" stroke-width="2" stroke-linecap="round" stroke-linejoin="round"></line>
                            <path d="M33.5,8 L33.5,3 L33.5,8 Z" id="Fill-17" fill="#C4E4ED"></path>
                            <line x1="33.5" y1="3" x2="33.5" y2="8" id="Stroke-18" stroke="#1D6192" stroke-width="2" stroke-linecap="round" stroke-linejoin="round"></line>
                            <polygon id="Fill-19" fill="#F56C5A" points="6 38 36 38 36 21 6 21"></polygon>
                        </g>
                        <line x1="324" y1="745" x2="990" y2="745" id="Path-4" stroke="#135CB0" stroke-width="5" stroke-linecap="round"></line>
                    </g>
                </g>
                <g id="Group-5" transform="translate(147.000000, 155.000000)" fill-rule="nonzero">
                    <g id="Group" opacity="0.751232329" transform="translate(30.000000, 0.000000)" fill="#AFD2FF">
                        <path d="M0,74.2346939 C0,33.2360204 33.1309443,0 74,0 L74,75 L0,75 L0,74.2346939 Z" id="Path"></path>
                    </g>
                    <g id="Group-Copy" transform="translate(16.000000, 273.500000) rotate(-90.000000) translate(-16.000000, -273.500000) translate(1.000000, 258.000000)" fill="#4489E2">
                        <path d="M0,30.6836735 C0,13.7375551 13.4314639,0 30,0 L30,31 L0,31 L0,30.6836735 Z" id="Path"></path>
                    </g>
                </g>
            </g>
        </g>
    </g>
</svg>