<svg xmlns="http://www.w3.org/2000/svg" xmlns:xlink="http://www.w3.org/1999/xlink" width="1440" height="923" viewBox="0 0 1440 923">
  <defs>
    <linearGradient id="linear-gradient" x1="0.5" y1="0.849" x2="0.5" gradientUnits="objectBoundingBox">
      <stop offset="0" stop-color="#2f81fb"/>
      <stop offset="1" stop-color="#fff" stop-opacity="0.922"/>
    </linearGradient>
    <clipPath id="clip-path">
      <path id="Clip_28" data-name="Clip 28" d="M0,0H252.719V58.672H0Z" transform="translate(0.246 0.298)" fill="none"/>
    </clipPath>
    <clipPath id="clip-path-2">
      <path id="Clip_37" data-name="Clip 37" d="M0,0H401.051V50.631H0Z" transform="translate(0.86 0.369)" fill="none"/>
    </clipPath>
    <filter id="Rectangle" x="275" y="1909" width="842" height="96" filterUnits="userSpaceOnUse">
      <feOffset dx="-2" dy="5" input="SourceAlpha"/>
      <feGaussianBlur stdDeviation="7" result="blur"/>
      <feFlood flood-opacity="0.047"/>
      <feComposite operator="in" in2="blur"/>
      <feComposite in="SourceGraphic"/>
    </filter>
    <filter id="Rectangle-2" x="758.5" y="2010.5" width="417" height="361" filterUnits="userSpaceOnUse">
      <feOffset dx="-12" dy="25" input="SourceAlpha"/>
      <feGaussianBlur stdDeviation="26.5" result="blur-2"/>
      <feFlood flood-color="#5864ee" flood-opacity="0.251"/>
      <feComposite operator="in" in2="blur-2"/>
      <feComposite in="SourceGraphic"/>
    </filter>
    <linearGradient id="linear-gradient-2" y1="0.5" x2="1" y2="0.5" gradientUnits="objectBoundingBox">
      <stop offset="0" stop-color="#2dc1fb"/>
      <stop offset="1" stop-color="#4fd691"/>
    </linearGradient>
    <clipPath id="clip-Home_Copy_1">
      <rect width="1440" height="923"/>
    </clipPath>
  </defs>
  <g id="Home_Copy_1" data-name="Home Copy – 1" clip-path="url(#clip-Home_Copy_1)">
    <rect width="1440" height="923" fill="#fff"/>
    <g id="Group" transform="translate(0 406)" opacity="0.772">
      <path id="Path" d="M0,0H1440V1572H0Z" fill="url(#linear-gradient)"/>
    </g>
    <g id="Group_43" data-name="Group 43" transform="translate(695 108)" opacity="0.59">
      <path id="Fill_1" data-name="Fill 1" d="M146.633,93.2c25.746-2.517,50.065-4.9,70.781-3.154,45.077,3.791,86.639,39.545,96.678,83.167,8.31,36.1-7.71,69.119-43.956,90.583-53.685,31.8-86.888,101.342-71.046,148.831,12.988,38.946,56.426,56.48,122.3,49.414,46.538-4.989,85.612,5.1,116.632,29.962,10.005-14.813,16.835-32.732,16.971-59.6.253-52.663-37.348-83.258-55.267-119.411-5.792-11.678-9.552-23.94-9.3-37.7.982-56.416,49.857-183.2-31.606-251.149-58.9-49.109-174.3-11.011-238.1,6.93C80.118,42.5,40.425,58.117,0,70.767,32.825,104.309,90.445,98.691,146.633,93.2" transform="translate(559 61)" fill="#c4e5ed"/>
      <path id="Fill_3" data-name="Fill 3" d="M533,617H233.7s-120-21.31-212.5-329.54q-8.659-28.917-13.624-54.169C-38,3.391,132.8-9.968,234.8,3.715,253.423,33.6,269.247,81.7,248.449,148.548c-13.327,42.812-39.827,68.078-67.927,87.375-10.5,7.245-21.224,13.638-31.572,19.8-51.2,30.507-95.379,56.849-56,151.523,41,98.585,148.45,102.142,243.275,105.276,62.323,2.08,116.177,3.862,139.1,32.459Z" transform="translate(0 126)" fill="#c4e5ed"/>
      <path id="Fill_5" data-name="Fill 5" d="M910,426.151a181.469,181.469,0,0,1-12.9,15.308c-3.358,3.607-6.814,7.188-10.292,10.867-.1.1-.2.2-.306.306-.947.974-1.9,1.977-2.83,3-3.656,3.86-7.312,7.845-10.945,12.127-.524.626-1.049,1.23-1.551,1.856-.528.626-1.053,1.253-1.528,1.879-.524.626-1.053,1.272-1.528,1.9-.528.649-1.053,1.328-1.528,1.977-1.528,1.955-3.007,4.007-4.482,6.139-.5.7-.981,1.4-1.456,2.128q-2.926,4.324-5.659,9.094C825.763,543.738,871.177,612,871.177,612H456.816l.125-.706L397.2,536.9c-24.4-30.386-79.423-32.22-143.121-34.322C160.6,499.5,54.654,495.99,14.8,400.447c-37.774-90.6,2.75-114.7,54.05-145.188,10.643-6.313,21.668-12.874,32.488-20.315,28.651-19.715,55.7-45.593,69.429-89.631C191.36,79.329,177.008,31.009,158.725,0c7.814,1.151,15.178,2.453,21.917,3.8C241.355,15.98,308.482,26.126,371.4,21.64q10.108-.713,20.038-1.955c26.8-3.354,52.851-9.92,78.574-17.783C504.483,39.2,566.173,33.19,622.2,27.7c25.5-2.479,49.568-4.834,69.832-3.132C734.293,28.13,774.769,63,784.186,103.954c4.558,19.915,5.237,57.493-41.6,85.272-55.5,32.941-89.693,105.335-73.186,154.935,7.987,24,35.19,62.8,127.49,52.883q45.235-4.885,80.5,9.743A132.753,132.753,0,0,1,910,426.151" transform="translate(82 131)" fill="#c4e5ed"/>
      <path id="Fill_7" data-name="Fill 7" d="M469.155,336.932,527,409H226.8S106.441,387.679,13.665,79.221Q4.974,50.283,0,25.013C49.445,3.443,128.658-19.56,173.468,27.651,162.938,34.9,152.181,41.294,141.8,47.468,90.445,77.994,46.137,104.355,85.629,199.1c41.124,98.653,148.895,102.212,244.009,105.348,62.51,2.082,116.522,3.865,139.517,32.483" transform="translate(7 334)" fill="#b1dce0"/>
      <path id="Fill_9" data-name="Fill 9" d="M931,127.072c0,1.1-.026,2.149-.053,3.221-.023.651-.023,1.276-.049,1.923-.049.73-.076,1.452-.125,2.175,0,.3-.023.6-.049.9-.049,1.072-.125,2.118-.227,3.146-.1,1.321-.227,2.623-.374,3.9-.076.67-.178,1.373-.253,2.047-.4,3.044-.9,5.968-1.53,8.767-.325,1.5-.65,2.946-1.054,4.372-.325,1.3-.676,2.57-1.077,3.819-.729,2.423-1.556,4.749-2.459,6.972-.427,1.125-.9,2.224-1.379,3.323q-.754,1.721-1.579,3.371c-.476.948-.956,1.87-1.432,2.773a1.341,1.341,0,0,1-.1.2c-.529.975-1.054,1.923-1.605,2.848-.151.271-.325.572-.5.85-1,1.671-2.055,3.3-3.135,4.892-.937,1.4-1.923,2.747-2.916,4.09l.008.008c-.057.083-.121.154-.177.237-.733.982-1.488,1.942-2.244,2.9-.332.425-.665.85-1,1.268q-1.269,1.58-2.588,3.123c-.215.256-.434.508-.65.756-2.029,2.352-4.1,4.681-6.252,6.98-3.336,3.62-6.8,7.194-10.3,10.84-.1.1-.2.2-.3.3-.952.975-1.908,1.972-2.833,3-3.66,3.846-7.325,7.819-10.962,12.093-.5.6-1.027,1.223-1.553,1.848-.5.625-1.027,1.249-1.53,1.874-.525.625-1.028,1.272-1.53,1.9-.525.651-1.027,1.3-1.53,1.972-1.53,1.953-3.007,4-4.488,6.122-.476.7-.978,1.4-1.454,2.126-1.957,2.871-3.838,5.892-5.67,9.068C826.774,307.928,872.24,376,872.24,376H457.373l.125-.7-59.809-74.19c-24.425-30.3-79.524-32.126-143.3-34.226-93.591-3.07-199.671-6.57-239.569-101.842C-23,74.687,17.578,50.654,68.94,20.255,79.6,13.96,90.631,7.416,101.465,0c10.158,11.962,18.306,27.923,23.6,48.833C165.187,207.384,282.127,306.28,399.369,242.355s231.9-108.013,289.775-20.285Q706.6,248.6,724.933,274.526c8.3,11.766,12.738,28.533,24.652,37.5,27.534,20.763,52.284-31.3,65.778-47.211,24.954-29.4,51.688-56.607,63.1-93.448.5-1.6.982-3.225,1.383-4.873.952-3.447,1.753-6.995,2.38-10.618,4.465-25.451-9.4-49.634-14.97-73.716-5.391-23.431-2.433-47.858,6.6-70.044.574-1.426,1.2-2.848,1.855-4.271,17.932,36.1,55.548,66.646,55.3,119.23" transform="translate(82 367)" fill="#b1dce0"/>
      <path id="Fill_11" data-name="Fill 11" d="M15,7.5A7.5,7.5,0,1,1,7.5,0,7.5,7.5,0,0,1,15,7.5" transform="translate(829 283)" fill="#fefefe"/>
      <path id="Fill_13" data-name="Fill 13" d="M15,7.5A7.5,7.5,0,1,1,7.5,0,7.5,7.5,0,0,1,15,7.5" transform="translate(825 337)" fill="#fefefe"/>
      <path id="Fill_15" data-name="Fill 15" d="M15,7.5A7.5,7.5,0,1,1,7.5,0,7.5,7.5,0,0,1,15,7.5" transform="translate(878 280)" fill="#fefefe"/>
      <path id="Fill_17" data-name="Fill 17" d="M15,7.5A7.5,7.5,0,1,1,7.5,0,7.5,7.5,0,0,1,15,7.5" transform="translate(485 720)" fill="#fefefe"/>
      <path id="Fill_19" data-name="Fill 19" d="M15,7.5A7.5,7.5,0,1,1,7.5,0,7.5,7.5,0,0,1,15,7.5" transform="translate(492 635)" fill="#fefefe"/>
      <path id="Fill_21" data-name="Fill 21" d="M9,4.5A4.5,4.5,0,1,1,4.5,0,4.5,4.5,0,0,1,9,4.5" transform="translate(531 687)" fill="#fefefe"/>
      <path id="Fill_23" data-name="Fill 23" d="M15,7.5A7.5,7.5,0,1,1,7.5,0,7.5,7.5,0,0,1,15,7.5" transform="translate(170 339)" fill="#fefefe"/>
      <path id="Fill_25" data-name="Fill 25" d="M10,5A5,5,0,1,1,5,0a5,5,0,0,1,5,5" transform="translate(277 232)" fill="#fefefe"/>
      <g id="Group_29" data-name="Group 29" transform="translate(662)">
        <path id="Clip_28-2" data-name="Clip 28" d="M0,0H252.719V58.672H0Z" transform="translate(0.246 0.298)" fill="none"/>
        <g id="Group_29-2" data-name="Group 29" clip-path="url(#clip-path)">
          <path id="Fill_27" data-name="Fill 27" d="M251.488,45.756c-13.062-12.814-26.517-25.948-42.862-34.482C191.311,2.232,171.949.454,152.73.062,117.773-.65,82.22,4.715,50.07,18.919A166.121,166.121,0,0,0,1.238,51.66c-3.8,3.7,2.005,9.525,5.8,5.832C30.989,34.178,61.913,20.219,94.3,13.441A254.323,254.323,0,0,1,143.888,8.26c18.2-.181,37.618.2,54.653,7.309,18.444,7.7,33.083,22.214,47.149,36.015,3.778,3.711,9.583-2.114,5.8-5.829" transform="translate(0.246 0.297)" fill="#fefefe"/>
        </g>
      </g>
      <path id="Fill_30" data-name="Fill 30" d="M551.071,20.641c-83.8-40.308-177.253-14.695-258.715,18.216C247.52,56.967,203.587,79.021,155.73,88.122,105.449,97.686,53.515,94.365,4.637,79.477c-4.647-1.414-6.633,5.832-2,7.242a324.551,324.551,0,0,0,136.111,11.66c47.475-6.141,90.364-25.168,134.111-43.425,85.414-35.652,184.8-70.93,274.416-27.829,4.345,2.089,8.168-4.381,3.8-6.484" transform="translate(335 29)" fill="#c4e5ed"/>
      <path id="Fill_32" data-name="Fill 32" d="M192.355,2.254C157.294-.236,121.181-2.658,86.847,6.692,70.143,11.24,55.126,19.1,40.238,27.809,26.132,36.056,12.333,44.423,1.06,56.438-2.288,60,3.067,65.4,6.422,61.825c11.349-12.1,25.46-20.367,39.662-28.622,14.964-8.7,30.167-16.17,47.058-20.264,32.422-7.854,66.28-5.405,99.212-3.064,4.871.348,4.848-7.276,0-7.62" transform="translate(20 89)" fill="#c4e5ed"/>
      <path id="Fill_34" data-name="Fill 34" d="M119.476.575A277.244,277.244,0,0,1,3.559,40.48c-4.722.512-4.77,8.01,0,7.495A285.671,285.671,0,0,0,123.236,7.046c4.082-2.517.344-9-3.76-6.471" transform="translate(497 40)" fill="#c4e5ed"/>
      <g id="Group_38" data-name="Group 38" transform="translate(156 720)">
        <path id="Clip_37-2" data-name="Clip 37" d="M0,0H401.051V50.631H0Z" transform="translate(0.86 0.369)" fill="none"/>
        <g id="Group_38-2" data-name="Group 38" clip-path="url(#clip-path-2)">
          <path id="Fill_36" data-name="Fill 36" d="M1.16,6.328C49.463,51.639,120.12,50.251,182.3,50.623c71.772.431,143.447-14.962,215.139-8.351,4.827.443,4.8-7.028,0-7.47-67.191-6.2-134.023,7.868-201.181,8.355C132.7,43.614,56.113,47.6,6.486,1.048c-3.518-3.3-8.859,1.969-5.326,5.28" transform="translate(0.86 0.369)" fill="#c4e5ed"/>
        </g>
      </g>
      <path id="Fill_39" data-name="Fill 39" d="M3.651,7h114.7a3.5,3.5,0,1,0,0-7H3.651a3.5,3.5,0,1,0,0,7" transform="translate(589 756)" fill="#c4e5ed"/>
      <path id="Fill_41" data-name="Fill 41" d="M3.632,73.225l82.51.156c25.87.048,52.378,1.751,78.161-.71,18.425-1.763,36.66-7.63,48.485-22.4,10.866-13.576,14.464-30.822,10.862-47.607C222.653-2,215.4-.027,216.4,4.632c4.383,20.433-4.4,41.966-23.042,52.523-17.507,9.917-39.179,8.939-58.687,8.909q-65.518-.095-131.041-.242c-4.84-.011-4.844,7.4,0,7.4" transform="translate(769 687)" fill="#c4e5ed"/>
    </g>
    <g transform="matrix(1, 0, 0, 1, 0, 0)" filter="url(#Rectangle)">
      <rect id="Rectangle-3" data-name="Rectangle" width="800" height="54" transform="translate(298 1925)" fill="#fff"/>
    </g>
    <rect id="Rectangle_Copy_7" data-name="Rectangle Copy 7" width="422" height="54" transform="translate(298 2314)" fill="#4f93fd"/>
    <rect id="Rectangle_Copy_8" data-name="Rectangle Copy 8" width="422" height="54" transform="translate(751 2314)" fill="#4f93fd"/>
    <rect id="Rectangle-4" data-name="Rectangle" width="200" height="7" transform="translate(298 1972)" fill="#34a853"/>
    <rect id="Rectangle_Copy_3" data-name="Rectangle Copy 3" width="200" height="54" transform="translate(498 1925)" fill="#f7b500"/>
    <rect id="Rectangle_Copy_4" data-name="Rectangle Copy 4" width="200" height="7" transform="translate(698 1972)" fill="#fa6400"/>
    <rect id="Rectangle_Copy_6" data-name="Rectangle Copy 6" width="200" height="7" transform="translate(898 1972)" fill="#e02020"/>
    <text id="Low" transform="translate(370 1959)" fill="rgba(0,0,0,0.25)" font-size="19.6" font-family="Poppins-Medium, Poppins" font-weight="500"><tspan x="0" y="0">Low</tspan></text>
    <text id="Medium" transform="translate(557 1959)" fill="#fff" font-size="19.6" font-family="Poppins-Medium, Poppins" font-weight="500"><tspan x="0" y="0">Medium</tspan></text>
    <text id="High" transform="translate(775 1955)" fill="rgba(0,0,0,0.25)" font-size="19.6" font-family="Poppins-Medium, Poppins" font-weight="500"><tspan x="0" y="0">High</tspan></text>
    <text id="Very_High" data-name="Very High" transform="translate(950 1955)" fill="rgba(0,0,0,0.25)" font-size="19.6" font-family="Poppins-Medium, Poppins" font-weight="500"><tspan x="0" y="0">Very High</tspan></text>
    <text id="Blood_in_Urine" data-name="Blood in Urine" transform="translate(389 2493)" fill="rgba(0,0,0,0.85)" font-size="19.6" font-family="Poppins-Medium, Poppins" font-weight="500"><tspan x="0" y="0">Blood in Urine</tspan></text>
    <text id="Almost_All_patients" data-name="Almost All patients" transform="translate(792 2493)" fill="rgba(0,0,0,0.85)" font-size="19.6" font-family="Poppins-Medium, Poppins" font-weight="500"><tspan x="0" y="0">Almost All patients </tspan></text>
    <text id="After_Effects" data-name="After Effects" transform="translate(450 2348)" fill="#fff" font-size="19.6" font-family="Poppins-Medium, Poppins" font-weight="500"><tspan x="0" y="0">After Effects</tspan></text>
    <text id="Risks" transform="translate(902 2348)" fill="#fff" font-size="19.6" font-family="Poppins-Medium, Poppins" font-weight="500"><tspan x="0" y="0">Risks</tspan></text>
    <text id="Please_note:_the_aft" data-name="Please note: the aft" transform="translate(294 2969)" fill="rgba(0,0,0,0.85)" font-size="13.72" font-family="Poppins-Medium, Poppins" font-weight="500"><tspan x="0" y="0">Please note: the after-effects listed below are seen only if you have had prostate biopsies taken</tspan></text>
    <rect id="Rectangle-5" data-name="Rectangle" width="134" height="48" rx="6" transform="translate(653 2812)" fill="#4489e2"/>
    <text id="Next" transform="translate(696 2844)" fill="#fff" font-size="21.6" font-family="SegoeUI, Segoe UI"><tspan x="0" y="0">Next</tspan></text>
    <g transform="matrix(1, 0, 0, 1, 0, 0)" filter="url(#Rectangle-2)">
      <rect id="Rectangle-6" data-name="Rectangle" width="258" height="202" transform="translate(850 2065)" fill="#fff"/>
    </g>
    <g id="Group-2" data-name="Group" transform="translate(158 2027)">
      <path id="Path-2" data-name="Path" d="M0,32.64A32.593,32.593,0,0,1,32.546,0h132.1A23.39,23.39,0,0,1,188,23.424V152.64A87.234,87.234,0,0,1,100.892,240H23.356A23.39,23.39,0,0,1,0,216.576Z" fill="#fff"/>
    </g>
    <g id="Group-3" data-name="Group" transform="translate(177 263)" opacity="0.751">
      <path id="Path-3" data-name="Path" d="M0,74.235A74.118,74.118,0,0,1,74,0V75H0Z" fill="#afd2ff"/>
    </g>
    <path id="Path-4" data-name="Path" d="M0,109.867A109.934,109.934,0,0,1,110,0V111H0Z" transform="translate(498 737)" fill="#95c3ff" opacity="0.273"/>
    <g id="Group_Copy" data-name="Group Copy" transform="translate(147.5 551.5) rotate(-90)">
      <path id="Path-5" data-name="Path" d="M0,30.684C0,13.738,13.431,0,30,0V31H0Z" fill="#4489e2"/>
    </g>
    <g id="Group_Copy_2" data-name="Group Copy 2" transform="translate(720.5 666.5) rotate(90)" opacity="0.305">
      <path id="Path-6" data-name="Path" d="M0,30.684C0,13.738,13.431,0,30,0V31H0Z" fill="#4489e2"/>
    </g>
    <path id="Fill_1-2" data-name="Fill 1" d="M0,139H177V0H0Z" transform="translate(1015 2645)" fill="url(#linear-gradient-2)"/>
  </g>
</svg>
